<?xml version="1.0" encoding="UTF-8" standalone="no"?><svg xmlns="http://www.w3.org/2000/svg" xmlns:xlink="http://www.w3.org/1999/xlink" height="757" version="1.1" width="806.826171875"><defs/><g><g transform="translate(-134,-150) scale(1,1)"><rect fill="#C0C0C0" height="115" opacity="0.2" stroke="none" width="226.826171875" x="711" y="503"/></g><g transform="translate(-134,-150) scale(1,1)"><rect fill="#ffffff" height="115" stroke="none" width="226.826171875" x="704" y="496"/></g><g transform="translate(-134,-150) scale(1,1)"><path d="M 704 496 L 930.826171875 496 L 930.826171875 611 L 704 611 L 704 496 Z Z" fill="none" stroke="#000000" stroke-miterlimit="10"/></g><g transform="translate(-134,-150) scale(1,1)"><path d="M 704 521 L 930.826171875 521" fill="none" stroke="#000000" stroke-miterlimit="10"/></g><g transform="translate(-134,-150) scale(1,1)"><path d="M 704 559 L 930.826171875 559" fill="none" stroke="#000000" stroke-miterlimit="10"/></g><g transform="translate(-134,-150) scale(1,1)"><g><path fill="none" stroke="none"/><text fill="#000000" font-family="Arial" font-size="13px" font-style="normal" font-weight="bold" stroke="none" text-decoration="none" x="782.02490234375" y="514">Application</text></g></g><g transform="translate(-134,-150) scale(1,1)"><g><path fill="none" stroke="none"/><text fill="#000000" font-family="Arial" font-size="13px" font-style="normal" font-weight="normal" stroke="none" text-decoration="none" x="709" y="537">-factory: PlatformFactory</text></g></g><g transform="translate(-134,-150) scale(1,1)"><g><path fill="none" stroke="none"/><text fill="#000000" font-family="Arial" font-size="13px" font-style="normal" font-weight="normal" stroke="none" text-decoration="none" x="709" y="552">-ui: UserInterface</text></g></g><g transform="translate(-134,-150) scale(1,1)"><g><path fill="none" stroke="none"/><text fill="#000000" font-family="Arial" font-size="13px" font-style="normal" font-weight="normal" stroke="none" text-decoration="none" x="709" y="575">+Application(factory: PlatformFactory)</text></g></g><g transform="translate(-134,-150) scale(1,1)"><g><path fill="none" stroke="none"/><text fill="#000000" font-family="Arial" font-size="13px" font-style="normal" font-weight="normal" stroke="none" text-decoration="none" x="709" y="590">+createUI(): UserInterface</text></g></g><g transform="translate(-134,-150) scale(1,1)"><g><path fill="none" stroke="none"/><text fill="#000000" font-family="Arial" font-size="13px" font-style="normal" font-weight="normal" stroke="none" text-decoration="none" x="709" y="605">+displayUI(): void</text></g></g><g transform="translate(-134,-150) scale(1,1)"><rect fill="#C0C0C0" height="78" opacity="0.2" stroke="none" width="159.63623046875" x="471" y="511"/></g><g transform="translate(-134,-150) scale(1,1)"><rect fill="#8282ff" height="78" stroke="none" width="159.63623046875" x="464" y="504"/></g><g transform="translate(-134,-150) scale(1,1)"><path d="M 464 504 L 623.63623046875 504 L 623.63623046875 582 L 464 582 L 464 504 Z Z" fill="none" stroke="#000000" stroke-miterlimit="10"/></g><g transform="translate(-134,-150) scale(1,1)"><path d="M 464 542 L 623.63623046875 542" fill="none" stroke="#000000" stroke-miterlimit="10"/></g><g transform="translate(-134,-150) scale(1,1)"><path d="M 464 552 L 623.63623046875 552" fill="none" stroke="#000000" stroke-miterlimit="10"/></g><g transform="translate(-134,-150) scale(1,1)"><g><path fill="none" stroke="none"/><text fill="#ffffff" font-family="Arial" font-size="13px" font-style="normal" font-weight="normal" stroke="none" text-decoration="none" x="511.65771484375" y="520">«interface»</text></g></g><g transform="translate(-134,-150) scale(1,1)"><g><path fill="none" stroke="none"/><text fill="#ffffff" font-family="Arial" font-size="13px" font-style="normal" font-weight="bold" stroke="none" text-decoration="none" x="493.97314453125" y="535">PlatformFactory</text></g></g><g transform="translate(-134,-150) scale(1,1)"><g><path fill="none" stroke="none"/><text fill="#ffffff" font-family="Arial" font-size="13px" font-style="normal" font-weight="normal" stroke="none" text-decoration="none" x="469" y="568">+createUI(): UserInterface</text></g></g><g transform="translate(-134,-150) scale(1,1)"><rect fill="#C0C0C0" height="57" opacity="0.2" stroke="none" width="159.63623046875" x="471" y="375"/></g><g transform="translate(-134,-150) scale(1,1)"><rect fill="#ffffff" height="57" stroke="none" width="159.63623046875" x="464" y="368"/></g><g transform="translate(-134,-150) scale(1,1)"><path d="M 464 368 L 623.63623046875 368 L 623.63623046875 425 L 464 425 L 464 368 Z Z" fill="none" stroke="#000000" stroke-miterlimit="10"/></g><g transform="translate(-134,-150) scale(1,1)"><path d="M 464 393 L 623.63623046875 393" fill="none" stroke="#000000" stroke-miterlimit="10"/></g><g transform="translate(-134,-150) scale(1,1)"><path d="M 464 403 L 623.63623046875 403" fill="none" stroke="#000000" stroke-miterlimit="10"/></g><g transform="translate(-134,-150) scale(1,1)"><g><path fill="none" stroke="none"/><text fill="#000000" font-family="Arial" font-size="13px" font-style="normal" font-weight="bold" stroke="none" text-decoration="none" x="495.4267578125" y="386">AndroidFactory</text></g></g><g transform="translate(-134,-150) scale(1,1)"><g><path fill="none" stroke="none"/><text fill="#000000" font-family="Arial" font-size="13px" font-style="normal" font-weight="normal" stroke="none" text-decoration="none" x="469" y="419">+createUI(): UserInterface</text></g></g><g transform="translate(-134,-150) scale(1,1)"><rect fill="#C0C0C0" height="57" opacity="0.2" stroke="none" width="159.63623046875" x="471" y="655"/></g><g transform="translate(-134,-150) scale(1,1)"><rect fill="#ffffff" height="57" stroke="none" width="159.63623046875" x="464" y="648"/></g><g transform="translate(-134,-150) scale(1,1)"><path d="M 464 648 L 623.63623046875 648 L 623.63623046875 705 L 464 705 L 464 648 Z Z" fill="none" stroke="#000000" stroke-miterlimit="10"/></g><g transform="translate(-134,-150) scale(1,1)"><path d="M 464 673 L 623.63623046875 673" fill="none" stroke="#000000" stroke-miterlimit="10"/></g><g transform="translate(-134,-150) scale(1,1)"><path d="M 464 683 L 623.63623046875 683" fill="none" stroke="#000000" stroke-miterlimit="10"/></g><g transform="translate(-134,-150) scale(1,1)"><g><path fill="none" stroke="none"/><text fill="#000000" font-family="Arial" font-size="13px" font-style="normal" font-weight="bold" stroke="none" text-decoration="none" x="509.140869140625" y="666">IOSFactory</text></g></g><g transform="translate(-134,-150) scale(1,1)"><g><path fill="none" stroke="none"/><text fill="#000000" font-family="Arial" font-size="13px" font-style="normal" font-weight="normal" stroke="none" text-decoration="none" x="469" y="699">+createUI(): UserInterface</text></g></g><g transform="translate(-134,-150) scale(1,1)"><rect fill="#C0C0C0" height="70" opacity="0.2" stroke="none" width="109.7880859375" x="287" y="519"/></g><g transform="translate(-134,-150) scale(1,1)"><rect fill="#8282ff" height="70" stroke="none" width="109.7880859375" x="280" y="512"/></g><g transform="translate(-134,-150) scale(1,1)"><path d="M 280 512 L 389.7880859375 512 L 389.7880859375 582 L 280 582 L 280 512 Z Z" fill="none" stroke="#000000" stroke-miterlimit="10"/></g><g transform="translate(-134,-150) scale(1,1)"><path d="M 280 550 L 389.7880859375 550" fill="none" stroke="#000000" stroke-miterlimit="10"/></g><g transform="translate(-134,-150) scale(1,1)"><path d="M 280 560 L 389.7880859375 560" fill="none" stroke="#000000" stroke-miterlimit="10"/></g><g transform="translate(-134,-150) scale(1,1)"><g><path fill="none" stroke="none"/><text fill="#ffffff" font-family="Arial" font-size="13px" font-style="normal" font-weight="normal" stroke="none" text-decoration="none" x="302.733642578125" y="528">«interface»</text></g></g><g transform="translate(-134,-150) scale(1,1)"><g><path fill="none" stroke="none"/><text fill="#ffffff" font-family="Arial" font-size="13px" font-style="normal" font-weight="bold" stroke="none" text-decoration="none" x="293.345458984375" y="543">UserInterface</text></g></g><g transform="translate(-134,-150) scale(1,1)"><g><path fill="none" stroke="none"/><text fill="#ffffff" font-family="Arial" font-size="13px" font-style="normal" font-weight="normal" stroke="none" text-decoration="none" x="285" y="576">+displayUI(): void</text></g></g><g transform="translate(-134,-150) scale(1,1)"><rect fill="#C0C0C0" height="57" opacity="0.2" stroke="none" width="141.919921875" x="279" y="375"/></g><g transform="translate(-134,-150) scale(1,1)"><rect fill="#ffffff" height="57" stroke="none" width="141.919921875" x="272" y="368"/></g><g transform="translate(-134,-150) scale(1,1)"><path d="M 272 368 L 413.919921875 368 L 413.919921875 425 L 272 425 L 272 368 Z Z" fill="none" stroke="#000000" stroke-miterlimit="10"/></g><g transform="translate(-134,-150) scale(1,1)"><path d="M 272 393 L 413.919921875 393" fill="none" stroke="#000000" stroke-miterlimit="10"/></g><g transform="translate(-134,-150) scale(1,1)"><path d="M 272 403 L 413.919921875 403" fill="none" stroke="#000000" stroke-miterlimit="10"/></g><g transform="translate(-134,-150) scale(1,1)"><g><path fill="none" stroke="none"/><text fill="#000000" font-family="Arial" font-size="13px" font-style="normal" font-weight="bold" stroke="none" text-decoration="none" x="276.5" y="386">AndroidUserInterface</text></g></g><g transform="translate(-134,-150) scale(1,1)"><g><path fill="none" stroke="none"/><text fill="#000000" font-family="Arial" font-size="13px" font-style="normal" font-weight="normal" stroke="none" text-decoration="none" x="277" y="419">+displayUI(): void</text></g></g><g transform="translate(-134,-150) scale(1,1)"><rect fill="#C0C0C0" height="57" opacity="0.2" stroke="none" width="114.49169921875" x="295" y="655"/></g><g transform="translate(-134,-150) scale(1,1)"><rect fill="#ffffff" height="57" stroke="none" width="114.49169921875" x="288" y="648"/></g><g transform="translate(-134,-150) scale(1,1)"><path d="M 288 648 L 402.49169921875 648 L 402.49169921875 705 L 288 705 L 288 648 Z Z" fill="none" stroke="#000000" stroke-miterlimit="10"/></g><g transform="translate(-134,-150) scale(1,1)"><path d="M 288 673 L 402.49169921875 673" fill="none" stroke="#000000" stroke-miterlimit="10"/></g><g transform="translate(-134,-150) scale(1,1)"><path d="M 288 683 L 402.49169921875 683" fill="none" stroke="#000000" stroke-miterlimit="10"/></g><g transform="translate(-134,-150) scale(1,1)"><g><path fill="none" stroke="none"/><text fill="#000000" font-family="Arial" font-size="13px" font-style="normal" font-weight="bold" stroke="none" text-decoration="none" x="292.5" y="666">IOSUserInterface</text></g></g><g transform="translate(-134,-150) scale(1,1)"><g><path fill="none" stroke="none"/><text fill="#000000" font-family="Arial" font-size="13px" font-style="normal" font-weight="normal" stroke="none" text-decoration="none" x="293" y="699">+displayUI(): void</text></g></g><g transform="translate(-134,-150) scale(1,1)"><path d="M 704 549 L 624 549" fill="none" stroke="#000000" stroke-miterlimit="10"/></g><g transform="translate(-134,-150) scale(1,1)"><path d="M 634.1626748576241 544.790482243984 L 624 549 L 634.1626748576241 553.209517756016" fill="none" stroke="#000000" stroke-miterlimit="10"/></g><g transform="translate(-134,-150) scale(1,1)"><path d="M 814 611 L 814 896 L 144 896 L 144 552 L 280 552" fill="none" stroke="#000000" stroke-miterlimit="10"/></g><g transform="translate(-134,-150) scale(1,1)"><path d="M 269.83732514237585 556.209517756016 L 280 552 L 269.83732514237585 547.790482243984" fill="none" stroke="#000000" stroke-miterlimit="10"/></g><g transform="translate(-134,-150) scale(1,1)"><path d="M 464 672 L 402 672" fill="none" stroke="#000000" stroke-dasharray="3" stroke-miterlimit="10"/></g><g transform="translate(-134,-150) scale(1,1)"><path d="M 412.16267485762415 667.790482243984 L 402 672 L 412.16267485762415 676.209517756016" fill="none" stroke="#000000" stroke-miterlimit="10"/></g><g transform="translate(-134,-150) scale(1,1)"><path d="M 543 425 L 543 504" fill="none" stroke="#000000" stroke-dasharray="3" stroke-miterlimit="10"/></g><g transform="translate(-134,-150) scale(1,1)"><path d="M 538.790482243984 493.83732514237585 L 543 504 L 547.209517756016 493.83732514237585" fill="none" stroke="#000000" stroke-miterlimit="10"/></g><g transform="translate(-134,-150) scale(1,1)"><g><path fill="none" stroke="none"/><text fill="#000000" font-family="Arial" font-size="13px" font-style="normal" font-weight="normal" stroke="none" text-decoration="none" x="462.5" y="462">+implements</text></g></g><g transform="translate(-134,-150) scale(1,1)"><path d="M 545 648 L 545 582" fill="none" stroke="#000000" stroke-dasharray="3" stroke-miterlimit="10"/></g><g transform="translate(-134,-150) scale(1,1)"><path d="M 549.209517756016 592.1626748576241 L 545 582 L 540.790482243984 592.1626748576241" fill="none" stroke="#000000" stroke-miterlimit="10"/></g><g transform="translate(-134,-150) scale(1,1)"><g><path fill="none" stroke="none"/><text fill="#000000" font-family="Arial" font-size="13px" font-style="normal" font-weight="normal" stroke="none" text-decoration="none" x="461.5" y="611">+implements</text></g></g><g transform="translate(-134,-150) scale(1,1)"><path d="M 463 396 L 415 396" fill="none" stroke="#000000" stroke-dasharray="3" stroke-miterlimit="10"/></g><g transform="translate(-134,-150) scale(1,1)"><path d="M 425.16267485762415 391.790482243984 L 415 396 L 425.16267485762415 400.209517756016" fill="none" stroke="#000000" stroke-miterlimit="10"/></g><g transform="translate(-134,-150) scale(1,1)"><path d="M 346 425 L 346 512" fill="none" stroke="#000000" stroke-dasharray="3" stroke-miterlimit="10"/></g><g transform="translate(-134,-150) scale(1,1)"><path d="M 341.790482243984 501.83732514237585 L 346 512 L 350.209517756016 501.83732514237585" fill="none" stroke="#000000" stroke-miterlimit="10"/></g><g transform="translate(-134,-150) scale(1,1)"><g><path fill="none" stroke="none"/><text fill="#000000" font-family="Arial" font-size="13px" font-style="normal" font-weight="normal" stroke="none" text-decoration="none" x="262.5" y="462">+implements</text></g></g><g transform="translate(-134,-150) scale(1,1)"><path d="M 336 648 L 336 582" fill="none" stroke="#000000" stroke-dasharray="3" stroke-miterlimit="10"/></g><g transform="translate(-134,-150) scale(1,1)"><path d="M 340.209517756016 592.1626748576241 L 336 582 L 331.790482243984 592.1626748576241" fill="none" stroke="#000000" stroke-miterlimit="10"/></g><g transform="translate(-134,-150) scale(1,1)"><g><path fill="none" stroke="none"/><text fill="#000000" font-family="Arial" font-size="13px" font-style="normal" font-weight="normal" stroke="none" text-decoration="none" x="342.5" y="626">+implements</text></g></g><g transform="translate(-134,-150) scale(1,1)"><rect fill="#C0C0C0" height="57" opacity="0.2" stroke="none" width="159.63623046875" x="487" y="279"/></g><g transform="translate(-134,-150) scale(1,1)"><rect fill="#ffffff" height="57" stroke="none" width="159.63623046875" x="480" y="272"/></g><g transform="translate(-134,-150) scale(1,1)"><path d="M 480 272 L 639.63623046875 272 L 639.63623046875 329 L 480 329 L 480 272 Z Z" fill="none" stroke="#000000" stroke-miterlimit="10"/></g><g transform="translate(-134,-150) scale(1,1)"><path d="M 480 297 L 639.63623046875 297" fill="none" stroke="#000000" stroke-miterlimit="10"/></g><g transform="translate(-134,-150) scale(1,1)"><path d="M 480 307 L 639.63623046875 307" fill="none" stroke="#000000" stroke-miterlimit="10"/></g><g transform="translate(-134,-150) scale(1,1)"><g><path fill="none" stroke="none"/><text fill="#000000" font-family="Arial" font-size="13px" font-style="normal" font-weight="bold" stroke="none" text-decoration="none" x="520.44677734375" y="290">BlinkFactory</text></g></g><g transform="translate(-134,-150) scale(1,1)"><g><path fill="none" stroke="none"/><text fill="#000000" font-family="Arial" font-size="13px" font-style="normal" font-weight="normal" stroke="none" text-decoration="none" x="485" y="323">+createUI(): UserInterface</text></g></g><g transform="translate(-134,-150) scale(1,1)"><rect fill="#C0C0C0" height="57" opacity="0.2" stroke="none" width="157.09716796875" x="287" y="279"/></g><g transform="translate(-134,-150) scale(1,1)"><rect fill="#ffffff" height="57" stroke="none" width="157.09716796875" x="280" y="272"/></g><g transform="translate(-134,-150) scale(1,1)"><path d="M 280 272 L 437.09716796875 272 L 437.09716796875 329 L 280 329 L 280 272 Z Z" fill="none" stroke="#000000" stroke-miterlimit="10"/></g><g transform="translate(-134,-150) scale(1,1)"><path d="M 280 297 L 437.09716796875 297" fill="none" stroke="#000000" stroke-miterlimit="10"/></g><g transform="translate(-134,-150) scale(1,1)"><path d="M 280 307 L 437.09716796875 307" fill="none" stroke="#000000" stroke-miterlimit="10"/></g><g transform="translate(-134,-150) scale(1,1)"><g><path fill="none" stroke="none"/><text fill="#000000" font-family="Arial" font-size="13px" font-style="normal" font-weight="bold" stroke="none" text-decoration="none" x="301.108642578125" y="290">BlinkUserInterface</text></g></g><g transform="translate(-134,-150) scale(1,1)"><g><path fill="none" stroke="none"/><text fill="#000000" font-family="Arial" font-size="13px" font-style="normal" font-weight="normal" stroke="none" text-decoration="none" x="285" y="323">+displayUI(): void</text></g></g><g transform="translate(-134,-150) scale(1,1)"><path d="M 480 300 L 437 300" fill="none" stroke="#000000" stroke-dasharray="3" stroke-miterlimit="10"/></g><g transform="translate(-134,-150) scale(1,1)"><path d="M 447.16267485762415 295.790482243984 L 437 300 L 447.16267485762415 304.209517756016" fill="none" stroke="#000000" stroke-miterlimit="10"/></g><g transform="translate(-134,-150) scale(1,1)"><path d="M 640 312 L 792 312 L 792 456 L 584 456 L 584 504" fill="none" stroke="#000000" stroke-dasharray="3" stroke-miterlimit="10"/></g><g transform="translate(-134,-150) scale(1,1)"><path d="M 579.790482243984 493.83732514237585 L 584 504 L 588.209517756016 493.83732514237585" fill="none" stroke="#000000" stroke-miterlimit="10"/></g><g transform="translate(-134,-150) scale(1,1)"><g><path fill="none" stroke="none"/><text fill="#000000" font-family="Arial" font-size="13px" font-style="normal" font-weight="normal" stroke="none" text-decoration="none" x="670.5" y="306">+implements</text></g></g><g transform="translate(-134,-150) scale(1,1)"><path d="M 280 296 L 200 296 L 200 496 L 304 496 L 304 512" fill="none" stroke="#000000" stroke-dasharray="3" stroke-miterlimit="10"/></g><g transform="translate(-134,-150) scale(1,1)"><path d="M 299.790482243984 501.83732514237585 L 304 512 L 308.209517756016 501.83732514237585" fill="none" stroke="#000000" stroke-miterlimit="10"/></g><g transform="translate(-134,-150) scale(1,1)"><g><path fill="none" stroke="none"/><text fill="#000000" font-family="Arial" font-size="13px" font-style="normal" font-weight="normal" stroke="none" text-decoration="none" x="198.5" y="283">+implements</text></g></g><g transform="translate(-134,-150) scale(1,1)"><rect fill="#C0C0C0" height="57" opacity="0.2" stroke="none" width="159.63623046875" x="471" y="759"/></g><g transform="translate(-134,-150) scale(1,1)"><rect fill="#ffffff" height="57" stroke="none" width="159.63623046875" x="464" y="752"/></g><g transform="translate(-134,-150) scale(1,1)"><path d="M 464 752 L 623.63623046875 752 L 623.63623046875 809 L 464 809 L 464 752 Z Z" fill="none" stroke="#000000" stroke-miterlimit="10"/></g><g transform="translate(-134,-150) scale(1,1)"><path d="M 464 777 L 623.63623046875 777" fill="none" stroke="#000000" stroke-miterlimit="10"/></g><g transform="translate(-134,-150) scale(1,1)"><path d="M 464 787 L 623.63623046875 787" fill="none" stroke="#000000" stroke-miterlimit="10"/></g><g transform="translate(-134,-150) scale(1,1)"><g><path fill="none" stroke="none"/><text fill="#000000" font-family="Arial" font-size="13px" font-style="normal" font-weight="bold" stroke="none" text-decoration="none" x="500.466796875" y="770">GeckoFactory</text></g></g><g transform="translate(-134,-150) scale(1,1)"><g><path fill="none" stroke="none"/><text fill="#000000" font-family="Arial" font-size="13px" font-style="normal" font-weight="normal" stroke="none" text-decoration="none" x="469" y="803">+createUI(): UserInterface</text></g></g><g transform="translate(-134,-150) scale(1,1)"><path d="M 624 780 L 696 780 L 696 616 L 584 616 L 584 582" fill="none" stroke="#000000" stroke-dasharray="3" stroke-miterlimit="10"/></g><g transform="translate(-134,-150) scale(1,1)"><path d="M 588.209517756016 592.1626748576241 L 584 582 L 579.790482243984 592.1626748576241" fill="none" stroke="#000000" stroke-miterlimit="10"/></g><g transform="translate(-134,-150) scale(1,1)"><g><path fill="none" stroke="none"/><text fill="#000000" font-family="Arial" font-size="13px" font-style="normal" font-weight="normal" stroke="none" text-decoration="none" x="630.5" y="803">+implements</text></g></g><g transform="translate(-134,-150) scale(1,1)"><rect fill="#C0C0C0" height="57" opacity="0.2" stroke="none" width="131.83984375" x="287" y="759"/></g><g transform="translate(-134,-150) scale(1,1)"><rect fill="#ffffff" height="57" stroke="none" width="131.83984375" x="280" y="752"/></g><g transform="translate(-134,-150) scale(1,1)"><path d="M 280 752 L 411.83984375 752 L 411.83984375 809 L 280 809 L 280 752 Z Z" fill="none" stroke="#000000" stroke-miterlimit="10"/></g><g transform="translate(-134,-150) scale(1,1)"><path d="M 280 777 L 411.83984375 777" fill="none" stroke="#000000" stroke-miterlimit="10"/></g><g transform="translate(-134,-150) scale(1,1)"><path d="M 280 787 L 411.83984375 787" fill="none" stroke="#000000" stroke-miterlimit="10"/></g><g transform="translate(-134,-150) scale(1,1)"><g><path fill="none" stroke="none"/><text fill="#000000" font-family="Arial" font-size="13px" font-style="normal" font-weight="bold" stroke="none" text-decoration="none" x="284.5" y="770">GeckoUserInterface</text></g></g><g transform="translate(-134,-150) scale(1,1)"><g><path fill="none" stroke="none"/><text fill="#000000" font-family="Arial" font-size="13px" font-style="normal" font-weight="normal" stroke="none" text-decoration="none" x="285" y="803">+displayUI(): void</text></g></g><g transform="translate(-134,-150) scale(1,1)"><path d="M 464 777 L 412 777" fill="none" stroke="#000000" stroke-dasharray="3" stroke-miterlimit="10"/></g><g transform="translate(-134,-150) scale(1,1)"><path d="M 422.16267485762415 772.790482243984 L 412 777 L 422.16267485762415 781.209517756016" fill="none" stroke="#000000" stroke-miterlimit="10"/></g><g transform="translate(-134,-150) scale(1,1)"><path d="M 280 768 L 184 768 L 184 624 L 320 624 L 320 582" fill="none" stroke="#000000" stroke-dasharray="3" stroke-miterlimit="10"/></g><g transform="translate(-134,-150) scale(1,1)"><path d="M 324.209517756016 592.1626748576241 L 320 582 L 315.790482243984 592.1626748576241" fill="none" stroke="#000000" stroke-miterlimit="10"/></g><g transform="translate(-134,-150) scale(1,1)"><g><path fill="none" stroke="none"/><text fill="#000000" font-family="Arial" font-size="13px" font-style="normal" font-weight="normal" stroke="none" text-decoration="none" x="198.5" y="786">+implements</text></g></g><g transform="translate(-134,-150) scale(1,1)"><rect fill="#C0C0C0" height="57" opacity="0.2" stroke="none" width="159.63623046875" x="487" y="167"/></g><g transform="translate(-134,-150) scale(1,1)"><rect fill="#ffffff" height="57" stroke="none" width="159.63623046875" x="480" y="160"/></g><g transform="translate(-134,-150) scale(1,1)"><path d="M 480 160 L 639.63623046875 160 L 639.63623046875 217 L 480 217 L 480 160 Z Z" fill="none" stroke="#000000" stroke-miterlimit="10"/></g><g transform="translate(-134,-150) scale(1,1)"><path d="M 480 185 L 639.63623046875 185" fill="none" stroke="#000000" stroke-miterlimit="10"/></g><g transform="translate(-134,-150) scale(1,1)"><path d="M 480 195 L 639.63623046875 195" fill="none" stroke="#000000" stroke-miterlimit="10"/></g><g transform="translate(-134,-150) scale(1,1)"><g><path fill="none" stroke="none"/><text fill="#000000" font-family="Arial" font-size="13px" font-style="normal" font-weight="bold" stroke="none" text-decoration="none" x="515.149658203125" y="178">WebkitFactory</text></g></g><g transform="translate(-134,-150) scale(1,1)"><g><path fill="none" stroke="none"/><text fill="#000000" font-family="Arial" font-size="13px" font-style="normal" font-weight="normal" stroke="none" text-decoration="none" x="485" y="211">+createUI(): UserInterface</text></g></g><g transform="translate(-134,-150) scale(1,1)"><rect fill="#C0C0C0" height="57" opacity="0.2" stroke="none" width="134.47412109375" x="295" y="175"/></g><g transform="translate(-134,-150) scale(1,1)"><rect fill="#ffffff" height="57" stroke="none" width="134.47412109375" x="288" y="168"/></g><g transform="translate(-134,-150) scale(1,1)"><path d="M 288 168 L 422.47412109375 168 L 422.47412109375 225 L 288 225 L 288 168 Z Z" fill="none" stroke="#000000" stroke-miterlimit="10"/></g><g transform="translate(-134,-150) scale(1,1)"><path d="M 288 193 L 422.47412109375 193" fill="none" stroke="#000000" stroke-miterlimit="10"/></g><g transform="translate(-134,-150) scale(1,1)"><path d="M 288 203 L 422.47412109375 203" fill="none" stroke="#000000" stroke-miterlimit="10"/></g><g transform="translate(-134,-150) scale(1,1)"><g><path fill="none" stroke="none"/><text fill="#000000" font-family="Arial" font-size="13px" font-style="normal" font-weight="bold" stroke="none" text-decoration="none" x="292.5" y="186">WebkitUserInterface</text></g></g><g transform="translate(-134,-150) scale(1,1)"><g><path fill="none" stroke="none"/><text fill="#000000" font-family="Arial" font-size="13px" font-style="normal" font-weight="normal" stroke="none" text-decoration="none" x="293" y="219">+displayUI(): void</text></g></g><g transform="translate(-134,-150) scale(1,1)"><path d="M 288 208 L 144 208 L 144 520 L 280 520" fill="none" stroke="#000000" stroke-dasharray="3" stroke-miterlimit="10"/></g><g transform="translate(-134,-150) scale(1,1)"><path d="M 269.83732514237585 524.209517756016 L 280 520 L 269.83732514237585 515.790482243984" fill="none" stroke="#000000" stroke-miterlimit="10"/></g><g transform="translate(-134,-150) scale(1,1)"><g><path fill="none" stroke="none"/><text fill="#000000" font-family="Arial" font-size="13px" font-style="normal" font-weight="normal" stroke="none" text-decoration="none" x="182.5" y="195">+implements</text></g></g><g transform="translate(-134,-150) scale(1,1)"><path d="M 479 191 L 423 193" fill="none" stroke="#000000" stroke-dasharray="3" stroke-miterlimit="10"/></g><g transform="translate(-134,-150) scale(1,1)"><path d="M 433.00595562208997 188.43044290015254 L 423 193 L 433.3064438849527 196.84411426031022" fill="none" stroke="#000000" stroke-miterlimit="10"/></g><g transform="translate(-134,-150) scale(1,1)"><path d="M 640 184 L 824 184 L 824 480 L 600 480 L 600 504" fill="none" stroke="#000000" stroke-dasharray="3" stroke-miterlimit="10"/></g><g transform="translate(-134,-150) scale(1,1)"><path d="M 595.790482243984 493.83732514237585 L 600 504 L 604.209517756016 493.83732514237585" fill="none" stroke="#000000" stroke-miterlimit="10"/></g><g transform="translate(-134,-150) scale(1,1)"><g><path fill="none" stroke="none"/><text fill="#000000" font-family="Arial" font-size="13px" font-style="normal" font-weight="normal" stroke="none" text-decoration="none" x="662.5" y="178">+implements</text></g></g></g></svg>