<?xml version="1.0" encoding="UTF-8" standalone="no"?><svg xmlns="http://www.w3.org/2000/svg" xmlns:xlink="http://www.w3.org/1999/xlink" height="722" version="1.1" width="1614.919921875"><defs/><g><g transform="translate(-158,-414) scale(1,1)"><rect fill="#C0C0C0" height="353" opacity="0.2" stroke="none" width="778.919921875" x="591" y="431"/></g><g transform="translate(-158,-414) scale(1,1)"><rect fill="#2b71ff" height="353" stroke="none" width="778.919921875" x="584" y="424"/></g><g transform="translate(-158,-414) scale(1,1)"><path d="M 584 424 L 1362.919921875 424 L 1362.919921875 777 L 584 777 L 584 424 Z Z" fill="none" stroke="#000000" stroke-miterlimit="10"/></g><g transform="translate(-158,-414) scale(1,1)"><path d="M 584 462 L 1362.919921875 462" fill="none" stroke="#000000" stroke-miterlimit="10"/></g><g transform="translate(-158,-414) scale(1,1)"><path d="M 584 590 L 1362.919921875 590" fill="none" stroke="#000000" stroke-miterlimit="10"/></g><g transform="translate(-158,-414) scale(1,1)"><g><path fill="none" stroke="none"/><text fill="#ffffff" font-family="Arial" font-size="13px" font-style="normal" font-weight="normal" stroke="none" text-decoration="none" x="949.9736328125" y="440">«Entity»</text></g></g><g transform="translate(-158,-414) scale(1,1)"><g><path fill="none" stroke="none"/><text fill="#ffffff" font-family="Arial" font-size="13px" font-style="normal" font-weight="bold" stroke="none" text-decoration="none" x="951.05908203125" y="455">Review</text></g></g><g transform="translate(-158,-414) scale(1,1)"><g><path fill="none" stroke="none"/><text fill="#ffffff" font-family="Arial" font-size="13px" font-style="normal" font-weight="normal" stroke="none" text-decoration="none" x="589" y="478">-id: uuid</text></g></g><g transform="translate(-158,-414) scale(1,1)"><g><path fill="none" stroke="none"/><text fill="#ffffff" font-family="Arial" font-size="13px" font-style="normal" font-weight="normal" stroke="none" text-decoration="none" x="589" y="493">-rating: int[1...5]</text></g></g><g transform="translate(-158,-414) scale(1,1)"><g><path fill="none" stroke="none"/><text fill="#ffffff" font-family="Arial" font-size="13px" font-style="normal" font-weight="normal" stroke="none" text-decoration="none" x="589" y="508">-gameId: uuid</text></g></g><g transform="translate(-158,-414) scale(1,1)"><g><path fill="none" stroke="none"/><text fill="#ffffff" font-family="Arial" font-size="13px" font-style="normal" font-weight="normal" stroke="none" text-decoration="none" x="589" y="523">-game: Game</text></g></g><g transform="translate(-158,-414) scale(1,1)"><g><path fill="none" stroke="none"/><text fill="#ffffff" font-family="Arial" font-size="13px" font-style="normal" font-weight="normal" stroke="none" text-decoration="none" x="589" y="538">-userId: uuid</text></g></g><g transform="translate(-158,-414) scale(1,1)"><g><path fill="none" stroke="none"/><text fill="#ffffff" font-family="Arial" font-size="13px" font-style="normal" font-weight="normal" stroke="none" text-decoration="none" x="589" y="553">-user: User</text></g></g><g transform="translate(-158,-414) scale(1,1)"><g><path fill="none" stroke="none"/><text fill="#ffffff" font-family="Arial" font-size="13px" font-style="normal" font-weight="normal" stroke="none" text-decoration="none" x="589" y="568">-details: char[1....500]</text></g></g><g transform="translate(-158,-414) scale(1,1)"><g><path fill="none" stroke="none"/><text fill="#ffffff" font-family="Arial" font-size="13px" font-style="normal" font-weight="normal" stroke="none" text-decoration="none" x="589" y="583">-createdAt: date</text></g></g><g transform="translate(-158,-414) scale(1,1)"><g><path fill="none" stroke="none"/><text fill="#ffffff" font-family="Arial" font-size="13px" font-style="normal" font-weight="normal" stroke="none" text-decoration="none" x="589" y="606">+Review(id: uuid, rating: int[1...5], gameId: uuid, game: Game, userId: uuid, user: User, details: char[1...500], createdAt: date): Review</text></g></g><g transform="translate(-158,-414) scale(1,1)"><g><path fill="none" stroke="none"/><text fill="#ffffff" font-family="Arial" font-size="13px" font-style="normal" font-weight="normal" stroke="none" text-decoration="none" x="589" y="621">+getId(): uuid</text></g></g><g transform="translate(-158,-414) scale(1,1)"><g><path fill="none" stroke="none"/><text fill="#ffffff" font-family="Arial" font-size="13px" font-style="normal" font-weight="normal" stroke="none" text-decoration="none" x="589" y="636">+setRating(int[1..5]): void</text></g></g><g transform="translate(-158,-414) scale(1,1)"><g><path fill="none" stroke="none"/><text fill="#ffffff" font-family="Arial" font-size="13px" font-style="normal" font-weight="normal" stroke="none" text-decoration="none" x="589" y="651">+getDetails(): char[1...500]</text></g></g><g transform="translate(-158,-414) scale(1,1)"><g><path fill="none" stroke="none"/><text fill="#ffffff" font-family="Arial" font-size="13px" font-style="normal" font-weight="normal" stroke="none" text-decoration="none" x="589" y="666">+setDetails(char[1..500]): void</text></g></g><g transform="translate(-158,-414) scale(1,1)"><g><path fill="none" stroke="none"/><text fill="#ffffff" font-family="Arial" font-size="13px" font-style="normal" font-weight="normal" stroke="none" text-decoration="none" x="589" y="681">+getGameId(): uuid</text></g></g><g transform="translate(-158,-414) scale(1,1)"><g><path fill="none" stroke="none"/><text fill="#ffffff" font-family="Arial" font-size="13px" font-style="normal" font-weight="normal" stroke="none" text-decoration="none" x="589" y="696">+setGameId(newGameId: uuid): void</text></g></g><g transform="translate(-158,-414) scale(1,1)"><g><path fill="none" stroke="none"/><text fill="#ffffff" font-family="Arial" font-size="13px" font-style="normal" font-weight="normal" stroke="none" text-decoration="none" x="589" y="711">+getUserId(): uuid</text></g></g><g transform="translate(-158,-414) scale(1,1)"><g><path fill="none" stroke="none"/><text fill="#ffffff" font-family="Arial" font-size="13px" font-style="normal" font-weight="normal" stroke="none" text-decoration="none" x="589" y="726">+setUserId(newUserId: uuid): void</text></g></g><g transform="translate(-158,-414) scale(1,1)"><g><path fill="none" stroke="none"/><text fill="#ffffff" font-family="Arial" font-size="13px" font-style="normal" font-weight="normal" stroke="none" text-decoration="none" x="589" y="741">+getRating(): int</text></g></g><g transform="translate(-158,-414) scale(1,1)"><g><path fill="none" stroke="none"/><text fill="#ffffff" font-family="Arial" font-size="13px" font-style="normal" font-weight="normal" stroke="none" text-decoration="none" x="589" y="756">+getCreatedAt(): date</text></g></g><g transform="translate(-158,-414) scale(1,1)"><g><path fill="none" stroke="none"/><text fill="#ffffff" font-family="Arial" font-size="13px" font-style="normal" font-weight="normal" stroke="none" text-decoration="none" x="589" y="771">+setCreatedAt(createdAt: date): void</text></g></g><g transform="translate(-158,-414) scale(1,1)"><rect fill="#C0C0C0" height="222" opacity="0.2" stroke="none" width="778.919921875" x="175" y="911"/></g><g transform="translate(-158,-414) scale(1,1)"><rect fill="#ffffff" height="222" stroke="none" width="778.919921875" x="168" y="904"/></g><g transform="translate(-158,-414) scale(1,1)"><path d="M 168 904 L 946.919921875 904 L 946.919921875 1126 L 168 1126 L 168 904 Z Z" fill="none" stroke="#000000" stroke-miterlimit="10"/></g><g transform="translate(-158,-414) scale(1,1)"><path d="M 168 929 L 946.919921875 929" fill="none" stroke="#000000" stroke-miterlimit="10"/></g><g transform="translate(-158,-414) scale(1,1)"><path d="M 168 939 L 946.919921875 939" fill="none" stroke="#000000" stroke-miterlimit="10"/></g><g transform="translate(-158,-414) scale(1,1)"><g><path fill="none" stroke="none"/><text fill="#000000" font-family="Arial" font-size="13px" font-style="normal" font-weight="bold" stroke="none" text-decoration="none" x="516.99365234375" y="922">ReviewProxy</text></g></g><g transform="translate(-158,-414) scale(1,1)"><g><path fill="none" stroke="none"/><text fill="#000000" font-family="Arial" font-size="13px" font-style="normal" font-weight="normal" stroke="none" text-decoration="none" x="173" y="955">+Review(id: uuid, rating: int[1...5], gameId: uuid, game: Game, userId: uuid, user: User, details: char[1...500], createdAt: date): Review</text></g></g><g transform="translate(-158,-414) scale(1,1)"><g><path fill="none" stroke="none"/><text fill="#000000" font-family="Arial" font-size="13px" font-style="normal" font-weight="normal" stroke="none" text-decoration="none" x="173" y="970">+getId(): uuid</text></g></g><g transform="translate(-158,-414) scale(1,1)"><g><path fill="none" stroke="none"/><text fill="#000000" font-family="Arial" font-size="13px" font-style="normal" font-weight="normal" stroke="none" text-decoration="none" x="173" y="985">+getRating(): int</text></g></g><g transform="translate(-158,-414) scale(1,1)"><g><path fill="none" stroke="none"/><text fill="#000000" font-family="Arial" font-size="13px" font-style="normal" font-weight="normal" stroke="none" text-decoration="none" x="173" y="1000">+setRating(int[1..5]): void</text></g></g><g transform="translate(-158,-414) scale(1,1)"><g><path fill="none" stroke="none"/><text fill="#000000" font-family="Arial" font-size="13px" font-style="normal" font-weight="normal" stroke="none" text-decoration="none" x="173" y="1015">+getDetails(): char[1...500]</text></g></g><g transform="translate(-158,-414) scale(1,1)"><g><path fill="none" stroke="none"/><text fill="#000000" font-family="Arial" font-size="13px" font-style="normal" font-weight="normal" stroke="none" text-decoration="none" x="173" y="1030">+setDetails(char[1..500]): void</text></g></g><g transform="translate(-158,-414) scale(1,1)"><g><path fill="none" stroke="none"/><text fill="#000000" font-family="Arial" font-size="13px" font-style="normal" font-weight="normal" stroke="none" text-decoration="none" x="173" y="1045">+getGameId(): uuid</text></g></g><g transform="translate(-158,-414) scale(1,1)"><g><path fill="none" stroke="none"/><text fill="#000000" font-family="Arial" font-size="13px" font-style="normal" font-weight="normal" stroke="none" text-decoration="none" x="173" y="1060">+setGameId(gameId: uuid): void</text></g></g><g transform="translate(-158,-414) scale(1,1)"><g><path fill="none" stroke="none"/><text fill="#000000" font-family="Arial" font-size="13px" font-style="normal" font-weight="normal" stroke="none" text-decoration="none" x="173" y="1075">+getUserId(): uuid</text></g></g><g transform="translate(-158,-414) scale(1,1)"><g><path fill="none" stroke="none"/><text fill="#000000" font-family="Arial" font-size="13px" font-style="normal" font-weight="normal" stroke="none" text-decoration="none" x="173" y="1090">+setUserId(newUserId: uuid): void</text></g></g><g transform="translate(-158,-414) scale(1,1)"><g><path fill="none" stroke="none"/><text fill="#000000" font-family="Arial" font-size="13px" font-style="normal" font-weight="normal" stroke="none" text-decoration="none" x="173" y="1105">+getCreatedAt(): date</text></g></g><g transform="translate(-158,-414) scale(1,1)"><g><path fill="none" stroke="none"/><text fill="#000000" font-family="Arial" font-size="13px" font-style="normal" font-weight="normal" stroke="none" text-decoration="none" x="173" y="1120">+setCreatedAt(createdAt: date): void</text></g></g><g transform="translate(-158,-414) scale(1,1)"><rect fill="#C0C0C0" height="222" opacity="0.2" stroke="none" width="778.919921875" x="991" y="911"/></g><g transform="translate(-158,-414) scale(1,1)"><rect fill="#ffffff" height="222" stroke="none" width="778.919921875" x="984" y="904"/></g><g transform="translate(-158,-414) scale(1,1)"><path d="M 984 904 L 1762.919921875 904 L 1762.919921875 1126 L 984 1126 L 984 904 Z Z" fill="none" stroke="#000000" stroke-miterlimit="10"/></g><g transform="translate(-158,-414) scale(1,1)"><path d="M 984 929 L 1762.919921875 929" fill="none" stroke="#000000" stroke-miterlimit="10"/></g><g transform="translate(-158,-414) scale(1,1)"><path d="M 984 939 L 1762.919921875 939" fill="none" stroke="#000000" stroke-miterlimit="10"/></g><g transform="translate(-158,-414) scale(1,1)"><g><path fill="none" stroke="none"/><text fill="#000000" font-family="Arial" font-size="13px" font-style="normal" font-weight="bold" stroke="none" text-decoration="none" x="1337.3291015625" y="922">RealReview</text></g></g><g transform="translate(-158,-414) scale(1,1)"><g><path fill="none" stroke="none"/><text fill="#000000" font-family="Arial" font-size="13px" font-style="normal" font-weight="normal" stroke="none" text-decoration="none" x="989" y="955">+Review(id: uuid, rating: int[1...5], gameId: uuid, game: Game, userId: uuid, user: User, details: char[1...500], createdAt: date): Review</text></g></g><g transform="translate(-158,-414) scale(1,1)"><g><path fill="none" stroke="none"/><text fill="#000000" font-family="Arial" font-size="13px" font-style="normal" font-weight="normal" stroke="none" text-decoration="none" x="989" y="970">+getId(): uuid</text></g></g><g transform="translate(-158,-414) scale(1,1)"><g><path fill="none" stroke="none"/><text fill="#000000" font-family="Arial" font-size="13px" font-style="normal" font-weight="normal" stroke="none" text-decoration="none" x="989" y="985">+getRating(): int</text></g></g><g transform="translate(-158,-414) scale(1,1)"><g><path fill="none" stroke="none"/><text fill="#000000" font-family="Arial" font-size="13px" font-style="normal" font-weight="normal" stroke="none" text-decoration="none" x="989" y="1000">+setRating(int[1...5]): void</text></g></g><g transform="translate(-158,-414) scale(1,1)"><g><path fill="none" stroke="none"/><text fill="#000000" font-family="Arial" font-size="13px" font-style="normal" font-weight="normal" stroke="none" text-decoration="none" x="989" y="1015">+getDetails(): char[1...500]</text></g></g><g transform="translate(-158,-414) scale(1,1)"><g><path fill="none" stroke="none"/><text fill="#000000" font-family="Arial" font-size="13px" font-style="normal" font-weight="normal" stroke="none" text-decoration="none" x="989" y="1030">+setDetails(char[1..500]): void</text></g></g><g transform="translate(-158,-414) scale(1,1)"><g><path fill="none" stroke="none"/><text fill="#000000" font-family="Arial" font-size="13px" font-style="normal" font-weight="normal" stroke="none" text-decoration="none" x="989" y="1045">+getGameId(): uuid</text></g></g><g transform="translate(-158,-414) scale(1,1)"><g><path fill="none" stroke="none"/><text fill="#000000" font-family="Arial" font-size="13px" font-style="normal" font-weight="normal" stroke="none" text-decoration="none" x="989" y="1060">+setGameId(gameId: uuid): void</text></g></g><g transform="translate(-158,-414) scale(1,1)"><g><path fill="none" stroke="none"/><text fill="#000000" font-family="Arial" font-size="13px" font-style="normal" font-weight="normal" stroke="none" text-decoration="none" x="989" y="1075">+getUserId(): uuid</text></g></g><g transform="translate(-158,-414) scale(1,1)"><g><path fill="none" stroke="none"/><text fill="#000000" font-family="Arial" font-size="13px" font-style="normal" font-weight="normal" stroke="none" text-decoration="none" x="989" y="1090">+setUserId(newUserId: uuid): void</text></g></g><g transform="translate(-158,-414) scale(1,1)"><g><path fill="none" stroke="none"/><text fill="#000000" font-family="Arial" font-size="13px" font-style="normal" font-weight="normal" stroke="none" text-decoration="none" x="989" y="1105">+getCreatedAt(): date</text></g></g><g transform="translate(-158,-414) scale(1,1)"><g><path fill="none" stroke="none"/><text fill="#000000" font-family="Arial" font-size="13px" font-style="normal" font-weight="normal" stroke="none" text-decoration="none" x="989" y="1120">+setCreatedAt(createdAt: date): void</text></g></g><g transform="translate(-158,-414) scale(1,1)"><path d="M 1384 904 L 1384 864 L 976 864 L 976 777" fill="none" stroke="#000000" stroke-miterlimit="10"/></g><g transform="translate(-158,-414) scale(1,1)"><path d="M 984.419035512032 797.3253497152483 L 976 777 L 967.580964487968 797.3253497152483" fill="#FFFFFF" stroke="none"/></g><g transform="translate(-158,-414) scale(1,1)"><path d="M 984.419035512032 797.3253497152483 L 976 777 L 967.580964487968 797.3253497152483 L 984.419035512032 797.3253497152483" fill="none" stroke="#000000" stroke-miterlimit="10"/></g><g transform="translate(-158,-414) scale(1,1)"><path d="M 536 904 L 536 864 L 976 864 L 976 777" fill="none" stroke="#000000" stroke-miterlimit="10"/></g><g transform="translate(-158,-414) scale(1,1)"><path d="M 984.419035512032 797.3253497152483 L 976 777 L 967.580964487968 797.3253497152483" fill="#FFFFFF" stroke="none"/></g><g transform="translate(-158,-414) scale(1,1)"><path d="M 984.419035512032 797.3253497152483 L 976 777 L 967.580964487968 797.3253497152483 L 984.419035512032 797.3253497152483" fill="none" stroke="#000000" stroke-miterlimit="10"/></g></g></svg>