<?xml version="1.0" encoding="UTF-8" standalone="no"?><svg xmlns="http://www.w3.org/2000/svg" xmlns:xlink="http://www.w3.org/1999/xlink" height="525" version="1.1" width="837.95703125"><defs/><g><g transform="translate(-174,-86) scale(1,1)"><rect fill="#C0C0C0" height="70" opacity="0.2" stroke="none" width="201.54345703125" x="495" y="223"/></g><g transform="translate(-174,-86) scale(1,1)"><rect fill="#8282ff" height="70" stroke="none" width="201.54345703125" x="488" y="216"/></g><g transform="translate(-174,-86) scale(1,1)"><path d="M 488 216 L 689.54345703125 216 L 689.54345703125 286 L 488 286 L 488 216 Z Z" fill="none" stroke="#000000" stroke-miterlimit="10"/></g><g transform="translate(-174,-86) scale(1,1)"><path d="M 488 254 L 689.54345703125 254" fill="none" stroke="#000000" stroke-miterlimit="10"/></g><g transform="translate(-174,-86) scale(1,1)"><path d="M 488 264 L 689.54345703125 264" fill="none" stroke="#000000" stroke-miterlimit="10"/></g><g transform="translate(-174,-86) scale(1,1)"><g><path fill="none" stroke="none"/><text fill="#ffffff" font-family="Arial" font-size="13px" font-style="normal" font-weight="normal" stroke="none" text-decoration="none" x="556.611328125" y="232">«interface»</text></g></g><g transform="translate(-174,-86) scale(1,1)"><g><path fill="none" stroke="none"/><text fill="#ffffff" font-family="Arial" font-size="13px" font-style="normal" font-weight="bold" stroke="none" text-decoration="none" x="540.0185546875" y="247">EntityOperation</text></g></g><g transform="translate(-174,-86) scale(1,1)"><g><path fill="none" stroke="none"/><text fill="#ffffff" font-family="Arial" font-size="13px" font-style="normal" font-weight="normal" stroke="none" text-decoration="none" x="493" y="280">+execute(entity: TEntity): TResult</text></g></g><g transform="translate(-174,-86) scale(1,1)"><rect fill="#C0C0C0" height="57" opacity="0.2" stroke="none" width="201.54345703125" x="223" y="287"/></g><g transform="translate(-174,-86) scale(1,1)"><rect fill="#ffffff" height="57" stroke="none" width="201.54345703125" x="216" y="280"/></g><g transform="translate(-174,-86) scale(1,1)"><path d="M 216 280 L 417.54345703125 280 L 417.54345703125 337 L 216 337 L 216 280 Z Z" fill="none" stroke="#000000" stroke-miterlimit="10"/></g><g transform="translate(-174,-86) scale(1,1)"><path d="M 216 305 L 417.54345703125 305" fill="none" stroke="#000000" stroke-miterlimit="10"/></g><g transform="translate(-174,-86) scale(1,1)"><path d="M 216 315 L 417.54345703125 315" fill="none" stroke="#000000" stroke-miterlimit="10"/></g><g transform="translate(-174,-86) scale(1,1)"><g><path fill="none" stroke="none"/><text fill="#000000" font-family="Arial" font-size="13px" font-style="normal" font-weight="bold" stroke="none" text-decoration="none" x="278.482666015625" y="298">EntityCreate</text></g></g><g transform="translate(-174,-86) scale(1,1)"><g><path fill="none" stroke="none"/><text fill="#000000" font-family="Arial" font-size="13px" font-style="normal" font-weight="normal" stroke="none" text-decoration="none" x="221" y="331">+execute(entity: TEntity): TResult</text></g></g><g transform="translate(-174,-86) scale(1,1)"><rect fill="#C0C0C0" height="57" opacity="0.2" stroke="none" width="201.54345703125" x="231" y="199"/></g><g transform="translate(-174,-86) scale(1,1)"><rect fill="#ffffff" height="57" stroke="none" width="201.54345703125" x="224" y="192"/></g><g transform="translate(-174,-86) scale(1,1)"><path d="M 224 192 L 425.54345703125 192 L 425.54345703125 249 L 224 249 L 224 192 Z Z" fill="none" stroke="#000000" stroke-miterlimit="10"/></g><g transform="translate(-174,-86) scale(1,1)"><path d="M 224 217 L 425.54345703125 217" fill="none" stroke="#000000" stroke-miterlimit="10"/></g><g transform="translate(-174,-86) scale(1,1)"><path d="M 224 227 L 425.54345703125 227" fill="none" stroke="#000000" stroke-miterlimit="10"/></g><g transform="translate(-174,-86) scale(1,1)"><g><path fill="none" stroke="none"/><text fill="#000000" font-family="Arial" font-size="13px" font-style="normal" font-weight="bold" stroke="none" text-decoration="none" x="284.686279296875" y="210">EntityUpdate</text></g></g><g transform="translate(-174,-86) scale(1,1)"><g><path fill="none" stroke="none"/><text fill="#000000" font-family="Arial" font-size="13px" font-style="normal" font-weight="normal" stroke="none" text-decoration="none" x="229" y="243">+execute(entity: TEntity): TResult</text></g></g><g transform="translate(-174,-86) scale(1,1)"><rect fill="#C0C0C0" height="57" opacity="0.2" stroke="none" width="201.54345703125" x="231" y="471"/></g><g transform="translate(-174,-86) scale(1,1)"><rect fill="#ffffff" height="57" stroke="none" width="201.54345703125" x="224" y="464"/></g><g transform="translate(-174,-86) scale(1,1)"><path d="M 224 464 L 425.54345703125 464 L 425.54345703125 521 L 224 521 L 224 464 Z Z" fill="none" stroke="#000000" stroke-miterlimit="10"/></g><g transform="translate(-174,-86) scale(1,1)"><path d="M 224 489 L 425.54345703125 489" fill="none" stroke="#000000" stroke-miterlimit="10"/></g><g transform="translate(-174,-86) scale(1,1)"><path d="M 224 499 L 425.54345703125 499" fill="none" stroke="#000000" stroke-miterlimit="10"/></g><g transform="translate(-174,-86) scale(1,1)"><g><path fill="none" stroke="none"/><text fill="#000000" font-family="Arial" font-size="13px" font-style="normal" font-weight="bold" stroke="none" text-decoration="none" x="273.495361328125" y="482">EntityFindSingle</text></g></g><g transform="translate(-174,-86) scale(1,1)"><g><path fill="none" stroke="none"/><text fill="#000000" font-family="Arial" font-size="13px" font-style="normal" font-weight="normal" stroke="none" text-decoration="none" x="229" y="515">+execute(entity: TEntity): TResult</text></g></g><g transform="translate(-174,-86) scale(1,1)"><rect fill="#C0C0C0" height="57" opacity="0.2" stroke="none" width="201.54345703125" x="231" y="103"/></g><g transform="translate(-174,-86) scale(1,1)"><rect fill="#ffffff" height="57" stroke="none" width="201.54345703125" x="224" y="96"/></g><g transform="translate(-174,-86) scale(1,1)"><path d="M 224 96 L 425.54345703125 96 L 425.54345703125 153 L 224 153 L 224 96 Z Z" fill="none" stroke="#000000" stroke-miterlimit="10"/></g><g transform="translate(-174,-86) scale(1,1)"><path d="M 224 121 L 425.54345703125 121" fill="none" stroke="#000000" stroke-miterlimit="10"/></g><g transform="translate(-174,-86) scale(1,1)"><path d="M 224 131 L 425.54345703125 131" fill="none" stroke="#000000" stroke-miterlimit="10"/></g><g transform="translate(-174,-86) scale(1,1)"><g><path fill="none" stroke="none"/><text fill="#000000" font-family="Arial" font-size="13px" font-style="normal" font-weight="bold" stroke="none" text-decoration="none" x="276.383544921875" y="114">EntityFindMany</text></g></g><g transform="translate(-174,-86) scale(1,1)"><g><path fill="none" stroke="none"/><text fill="#000000" font-family="Arial" font-size="13px" font-style="normal" font-weight="normal" stroke="none" text-decoration="none" x="229" y="147">+execute(entity: TEntity): TResult</text></g></g><g transform="translate(-174,-86) scale(1,1)"><rect fill="#C0C0C0" height="57" opacity="0.2" stroke="none" width="201.54345703125" x="231" y="383"/></g><g transform="translate(-174,-86) scale(1,1)"><rect fill="#ffffff" height="57" stroke="none" width="201.54345703125" x="224" y="376"/></g><g transform="translate(-174,-86) scale(1,1)"><path d="M 224 376 L 425.54345703125 376 L 425.54345703125 433 L 224 433 L 224 376 Z Z" fill="none" stroke="#000000" stroke-miterlimit="10"/></g><g transform="translate(-174,-86) scale(1,1)"><path d="M 224 401 L 425.54345703125 401" fill="none" stroke="#000000" stroke-miterlimit="10"/></g><g transform="translate(-174,-86) scale(1,1)"><path d="M 224 411 L 425.54345703125 411" fill="none" stroke="#000000" stroke-miterlimit="10"/></g><g transform="translate(-174,-86) scale(1,1)"><g><path fill="none" stroke="none"/><text fill="#000000" font-family="Arial" font-size="13px" font-style="normal" font-weight="bold" stroke="none" text-decoration="none" x="287.206298828125" y="394">EntityDelete</text></g></g><g transform="translate(-174,-86) scale(1,1)"><g><path fill="none" stroke="none"/><text fill="#000000" font-family="Arial" font-size="13px" font-style="normal" font-weight="normal" stroke="none" text-decoration="none" x="229" y="427">+execute(entity: TEntity): TResult</text></g></g><g transform="translate(-174,-86) scale(1,1)"><path d="M 386 154 L 513 215" fill="none" stroke="#000000" stroke-dasharray="3" stroke-miterlimit="10"/></g><g transform="translate(-174,-86) scale(1,1)"><path d="M 491.03335961237434 213.78892193450042 L 513 215 L 498.3236011346847 198.61087810936257" fill="#FFFFFF" stroke="none"/></g><g transform="translate(-174,-86) scale(1,1)"><path d="M 491.03335961237434 213.78892193450042 L 513 215 L 498.3236011346847 198.61087810936257 L 491.03335961237434 213.78892193450042" fill="none" stroke="#000000" stroke-miterlimit="10"/></g><g transform="translate(-174,-86) scale(1,1)"><path d="M 427 232 L 487 239" fill="none" stroke="#000000" stroke-dasharray="3" stroke-miterlimit="10"/></g><g transform="translate(-174,-86) scale(1,1)"><path d="M 465.8359756140302 245.0070018969596 L 487 239 L 467.7871830635427 228.2823666154239" fill="#FFFFFF" stroke="none"/></g><g transform="translate(-174,-86) scale(1,1)"><path d="M 465.8359756140302 245.0070018969596 L 487 239 L 467.7871830635427 228.2823666154239 L 465.8359756140302 245.0070018969596" fill="none" stroke="#000000" stroke-miterlimit="10"/></g><g transform="translate(-174,-86) scale(1,1)"><path d="M 419 287 L 487 272" fill="none" stroke="#000000" stroke-dasharray="3" stroke-miterlimit="10"/></g><g transform="translate(-174,-86) scale(1,1)"><path d="M 468.9653543418423 284.59966491557196 L 487 272 L 465.33827125634105 268.15688826129934" fill="#FFFFFF" stroke="none"/></g><g transform="translate(-174,-86) scale(1,1)"><path d="M 468.9653543418423 284.59966491557196 L 487 272 L 465.33827125634105 268.15688826129934 L 468.9653543418423 284.59966491557196" fill="none" stroke="#000000" stroke-miterlimit="10"/></g><g transform="translate(-174,-86) scale(1,1)"><path d="M 424 375 L 448 368 L 545 287" fill="none" stroke="#000000" stroke-dasharray="3" stroke-miterlimit="10"/></g><g transform="translate(-174,-86) scale(1,1)"><path d="M 534.7951104912154 306.49000333795505 L 545 287 L 524.0025399014625 293.5655669526954" fill="#FFFFFF" stroke="none"/></g><g transform="translate(-174,-86) scale(1,1)"><path d="M 534.7951104912154 306.49000333795505 L 545 287 L 524.0025399014625 293.5655669526954 L 534.7951104912154 306.49000333795505" fill="none" stroke="#000000" stroke-miterlimit="10"/></g><g transform="translate(-174,-86) scale(1,1)"><path d="M 384 463 L 448 432 L 560 287" fill="none" stroke="#000000" stroke-dasharray="3" stroke-miterlimit="10"/></g><g transform="translate(-174,-86) scale(1,1)"><path d="M 554.2381401792582 308.23207411926876 L 560 287 L 540.9124062601169 297.9390934368975" fill="#FFFFFF" stroke="none"/></g><g transform="translate(-174,-86) scale(1,1)"><path d="M 554.2381401792582 308.23207411926876 L 560 287 L 540.9124062601169 297.9390934368975 L 554.2381401792582 308.23207411926876" fill="none" stroke="#000000" stroke-miterlimit="10"/></g><g transform="translate(-174,-86) scale(1,1)"><rect fill="#C0C0C0" height="85" opacity="0.2" stroke="none" width="249.95703125" x="759" y="215"/></g><g transform="translate(-174,-86) scale(1,1)"><rect fill="#ffffff" height="85" stroke="none" width="249.95703125" x="752" y="208"/></g><g transform="translate(-174,-86) scale(1,1)"><path d="M 752 208 L 1001.95703125 208 L 1001.95703125 293 L 752 293 L 752 208 Z Z" fill="none" stroke="#000000" stroke-miterlimit="10"/></g><g transform="translate(-174,-86) scale(1,1)"><path d="M 752 233 L 1001.95703125 233" fill="none" stroke="#000000" stroke-miterlimit="10"/></g><g transform="translate(-174,-86) scale(1,1)"><path d="M 752 256 L 1001.95703125 256" fill="none" stroke="#000000" stroke-miterlimit="10"/></g><g transform="translate(-174,-86) scale(1,1)"><g><path fill="none" stroke="none"/><text fill="#000000" font-family="Arial" font-size="13px" font-style="normal" font-weight="bold" stroke="none" text-decoration="none" x="834.728515625" y="226">EntityContext</text></g></g><g transform="translate(-174,-86) scale(1,1)"><g><path fill="none" stroke="none"/><text fill="#000000" font-family="Arial" font-size="13px" font-style="normal" font-weight="normal" stroke="none" text-decoration="none" x="757" y="249">+strategy: EntityOperation</text></g></g><g transform="translate(-174,-86) scale(1,1)"><g><path fill="none" stroke="none"/><text fill="#000000" font-family="Arial" font-size="13px" font-style="normal" font-weight="normal" stroke="none" text-decoration="none" x="757" y="272">+setStrategy(strategy): void</text></g></g><g transform="translate(-174,-86) scale(1,1)"><g><path fill="none" stroke="none"/><text fill="#000000" font-family="Arial" font-size="13px" font-style="normal" font-weight="normal" stroke="none" text-decoration="none" x="757" y="287">+executeStrategy(entity: TEntity): TResult</text></g></g><g transform="translate(-174,-86) scale(1,1)"><path d="M 691 251 L 751 250" fill="none" stroke="#000000" stroke-miterlimit="10"/></g><g transform="translate(-174,-86) scale(1,1)"><path d="M 740.9088852180466 254.37828761703034 L 751 250 L 740.7685874439617 245.9604211719362 L 729.0030549191288 250.36661575134787" fill="#FFFFFF" stroke="none"/></g><g transform="translate(-174,-86) scale(1,1)"><path d="M 740.9088852180466 254.37828761703034 L 751 250 L 740.7685874439617 245.9604211719362 L 729.0030549191288 250.36661575134787 L 740.9088852180466 254.37828761703034" fill="none" stroke="#000000" stroke-miterlimit="10"/></g><g transform="translate(-174,-86) scale(1,1)"><rect fill="#C0C0C0" height="44" opacity="0.2" stroke="none" width="107.2236328125" x="831" y="399"/></g><g transform="translate(-174,-86) scale(1,1)"><rect fill="#ffffff" height="44" stroke="none" width="107.2236328125" x="824" y="392"/></g><g transform="translate(-174,-86) scale(1,1)"><path d="M 824 392 L 931.2236328125 392 L 931.2236328125 436 L 824 436 L 824 392 Z Z" fill="none" stroke="#000000" stroke-miterlimit="10"/></g><g transform="translate(-174,-86) scale(1,1)"><path d="M 824 417 L 931.2236328125 417" fill="none" stroke="#000000" stroke-miterlimit="10"/></g><g transform="translate(-174,-86) scale(1,1)"><path d="M 824 427 L 931.2236328125 427" fill="none" stroke="#000000" stroke-miterlimit="10"/></g><g transform="translate(-174,-86) scale(1,1)"><g><path fill="none" stroke="none"/><text fill="#000000" font-family="Arial" font-size="13px" font-style="normal" font-weight="bold" stroke="none" text-decoration="none" x="828.5" y="410">EntityController</text></g></g><g transform="translate(-174,-86) scale(1,1)"><path d="M 877 391 L 876 294" fill="none" stroke="#000000" stroke-miterlimit="10"/></g><g transform="translate(-174,-86) scale(1,1)"><path d="M 880.3140583543072 304.1187400656224 L 876 294 L 871.8954701992996 304.20552963423074" fill="none" stroke="#000000" stroke-miterlimit="10"/></g><g transform="translate(-174,-86) scale(1,1)"><path d="M 877 436 L 877 496 L 426 496" fill="none" stroke="#000000" stroke-dasharray="3" stroke-miterlimit="10"/></g><g transform="translate(-174,-86) scale(1,1)"><path d="M 436.16267485762415 491.790482243984 L 426 496 L 436.16267485762415 500.209517756016" fill="none" stroke="#000000" stroke-miterlimit="10"/></g><g transform="translate(-174,-86) scale(1,1)"><path d="M 877 436 L 877 600 L 184 600 L 184 404 L 224 404" fill="none" stroke="#000000" stroke-dasharray="3" stroke-miterlimit="10"/></g><g transform="translate(-174,-86) scale(1,1)"><path d="M 213.83732514237585 408.209517756016 L 224 404 L 213.83732514237585 399.790482243984" fill="none" stroke="#000000" stroke-miterlimit="10"/></g><g transform="translate(-174,-86) scale(1,1)"><path d="M 877 436 L 877 600 L 184 600 L 184 308 L 216 308" fill="none" stroke="#000000" stroke-dasharray="3" stroke-miterlimit="10"/></g><g transform="translate(-174,-86) scale(1,1)"><path d="M 205.83732514237585 312.209517756016 L 216 308 L 205.83732514237585 303.790482243984" fill="none" stroke="#000000" stroke-miterlimit="10"/></g><g transform="translate(-174,-86) scale(1,1)"><path d="M 877 436 L 877 600 L 184 600 L 184 232 L 224 232" fill="none" stroke="#000000" stroke-dasharray="3" stroke-miterlimit="10"/></g><g transform="translate(-174,-86) scale(1,1)"><path d="M 213.83732514237585 236.209517756016 L 224 232 L 213.83732514237585 227.790482243984" fill="none" stroke="#000000" stroke-miterlimit="10"/></g><g transform="translate(-174,-86) scale(1,1)"><path d="M 877 436 L 877 600 L 184 600 L 184 121 L 224 121" fill="none" stroke="#000000" stroke-dasharray="3" stroke-miterlimit="10"/></g><g transform="translate(-174,-86) scale(1,1)"><path d="M 213.83732514237585 125.20951775601598 L 224 121 L 213.83732514237585 116.79048224398402" fill="none" stroke="#000000" stroke-miterlimit="10"/></g></g></svg>