<?xml version="1.0" encoding="UTF-8" standalone="no"?><svg xmlns="http://www.w3.org/2000/svg" xmlns:xlink="http://www.w3.org/1999/xlink" height="804" version="1.1" width="1924"><defs/><g><g transform="translate(-1430,-1254) scale(1,1)"><rect fill="#C0C0C0" height="15" opacity="0.2" stroke="none" width="761.5999999999999" x="1447" y="1271"/></g><g transform="translate(-1430,-1254) scale(1,1)"><rect fill="#C0C0C0" height="770" opacity="0.2" stroke="none" width="1904" x="1447" y="1285"/></g><g transform="translate(-1430,-1254) scale(1,1)"><rect fill="#ffffff" height="769" stroke="none" width="1904" x="1440" y="1279"/></g><g transform="translate(-1430,-1254) scale(1,1)"><path d="M 1440 1279 L 3344 1279 L 3344 2048 L 1440 2048 L 1440 1279 Z Z" fill="none" stroke="#000000" stroke-miterlimit="10"/></g><g transform="translate(-1430,-1254) scale(1,1)"><rect fill="#ffffff" height="15" stroke="none" width="761.5999999999999" x="1440" y="1264"/></g><g transform="translate(-1430,-1254) scale(1,1)"><path d="M 1440 1264 L 2201.6 1264 L 2201.6 1279 L 1440 1279 L 1440 1264 Z Z" fill="none" stroke="#000000" stroke-miterlimit="10"/></g><g transform="translate(-1430,-1254) scale(1,1)"><rect fill="#ffffff" height="770" stroke="none" width="1904" x="1440" y="1278"/></g><g transform="translate(-1430,-1254) scale(1,1)"><path d="M 1440 1278 L 3344 1278 L 3344 2048 L 1440 2048 L 1440 1278 Z Z" fill="none" stroke="#000000" stroke-miterlimit="10"/></g><g transform="translate(-1430,-1254) scale(1,1)"><g><path fill="none" stroke="none"/><text fill="#000000" font-family="Arial" font-size="13px" font-style="normal" font-weight="bold" stroke="none" text-decoration="none" x="2320.122314453125" y="1297">AuthenticationPackage</text></g></g><g transform="translate(-1430,-1254) scale(1,1)"><rect fill="#C0C0C0" height="145" opacity="0.2" stroke="none" width="416.85595703125" x="1943" y="1503"/></g><g transform="translate(-1430,-1254) scale(1,1)"><rect fill="#ff5656" height="145" stroke="none" width="416.85595703125" x="1936" y="1496"/></g><g transform="translate(-1430,-1254) scale(1,1)"><path d="M 1936 1496 L 2352.85595703125 1496 L 2352.85595703125 1641 L 1936 1641 L 1936 1496 Z Z" fill="none" stroke="#000000" stroke-miterlimit="10"/></g><g transform="translate(-1430,-1254) scale(1,1)"><path d="M 1936 1534 L 2352.85595703125 1534" fill="none" stroke="#000000" stroke-miterlimit="10"/></g><g transform="translate(-1430,-1254) scale(1,1)"><path d="M 1936 1544 L 2352.85595703125 1544" fill="none" stroke="#000000" stroke-miterlimit="10"/></g><g transform="translate(-1430,-1254) scale(1,1)"><g><path fill="none" stroke="none"/><text fill="#ffffff" font-family="Arial" font-size="13px" font-style="normal" font-weight="normal" stroke="none" text-decoration="none" x="2109.020751953125" y="1512">«Controller»</text></g></g><g transform="translate(-1430,-1254) scale(1,1)"><g><path fill="none" stroke="none"/><text fill="#ffffff" font-family="Arial" font-size="13px" font-style="normal" font-weight="bold" stroke="none" text-decoration="none" x="2070.039794921875" y="1527">AuthenicationController</text></g></g><g transform="translate(-1430,-1254) scale(1,1)"><g><path fill="none" stroke="none"/><text fill="#ffffff" font-family="Arial" font-size="13px" font-style="normal" font-weight="normal" stroke="none" text-decoration="none" x="1941" y="1560">+login(provider: enum, email: string, password: string): HomePage</text></g></g><g transform="translate(-1430,-1254) scale(1,1)"><g><path fill="none" stroke="none"/><text fill="#ffffff" font-family="Arial" font-size="13px" font-style="normal" font-weight="normal" stroke="none" text-decoration="none" x="1941" y="1575">+logout(): SplashScreen</text></g></g><g transform="translate(-1430,-1254) scale(1,1)"><g><path fill="none" stroke="none"/><text fill="#ffffff" font-family="Arial" font-size="13px" font-style="normal" font-weight="normal" stroke="none" text-decoration="none" x="1941" y="1590">+AuthenticationController(): AuthenticationController</text></g></g><g transform="translate(-1430,-1254) scale(1,1)"><g><path fill="none" stroke="none"/><text fill="#ffffff" font-family="Arial" font-size="13px" font-style="normal" font-weight="normal" stroke="none" text-decoration="none" x="1941" y="1605">+register(email: string, password: string, username: string): HomePage</text></g></g><g transform="translate(-1430,-1254) scale(1,1)"><g><path fill="none" stroke="none"/><text fill="#ffffff" font-family="Arial" font-size="13px" font-style="normal" font-weight="normal" stroke="none" text-decoration="none" x="1941" y="1620">+registerPage(): RegisterPage</text></g></g><g transform="translate(-1430,-1254) scale(1,1)"><g><path fill="none" stroke="none"/><text fill="#ffffff" font-family="Arial" font-size="13px" font-style="normal" font-weight="normal" stroke="none" text-decoration="none" x="1941" y="1635">+loginPage(): LoginPage</text></g></g><g transform="translate(-1430,-1254) scale(1,1)"><path d="M 2129 1495 L 2122 1465" fill="none" stroke="#000000" stroke-miterlimit="10"/></g><g transform="translate(-1430,-1254) scale(1,1)"><g><path fill="none" stroke="none"/><text fill="#000000" font-family="Arial" font-size="13px" font-style="normal" font-weight="normal" stroke="none" text-decoration="none" x="2132.5" y="1476">1</text></g></g><g transform="translate(-1430,-1254) scale(1,1)"><g><path fill="none" stroke="none"/><text fill="#000000" font-family="Arial" font-size="13px" font-style="normal" font-weight="normal" stroke="none" text-decoration="none" x="2135.5" y="1488">1</text></g></g><g transform="translate(-1430,-1254) scale(1,1)"><path d="M 1887 1584 L 1936 1584" fill="none" stroke="#000000" stroke-miterlimit="10"/></g><g transform="translate(-1430,-1254) scale(1,1)"><g><path fill="none" stroke="none"/><text fill="#000000" font-family="Arial" font-size="13px" font-style="normal" font-weight="normal" stroke="none" text-decoration="none" x="1919.5" y="1600">1</text></g></g><g transform="translate(-1430,-1254) scale(1,1)"><g><path fill="none" stroke="none"/><text fill="#000000" font-family="Arial" font-size="13px" font-style="normal" font-weight="normal" stroke="none" text-decoration="none" x="1895.885009765625" y="1601">1</text></g></g><g transform="translate(-1430,-1254) scale(1,1)"><path d="M 2416 1528 L 2353 1528" fill="none" stroke="#000000" stroke-miterlimit="10"/></g><g transform="translate(-1430,-1254) scale(1,1)"><g><path fill="none" stroke="none"/><text fill="#000000" font-family="Arial" font-size="13px" font-style="normal" font-weight="normal" stroke="none" text-decoration="none" x="2390.5" y="1520">1</text></g></g><g transform="translate(-1430,-1254) scale(1,1)"><g><path fill="none" stroke="none"/><text fill="#000000" font-family="Arial" font-size="13px" font-style="normal" font-weight="normal" stroke="none" text-decoration="none" x="2370.5" y="1520">1</text></g></g><g transform="translate(-1430,-1254) scale(1,1)"><rect fill="#C0C0C0" height="158" opacity="0.2" stroke="none" width="423.34326171875" x="1471" y="1511"/></g><g transform="translate(-1430,-1254) scale(1,1)"><rect fill="#49ffe0" height="158" stroke="none" width="423.34326171875" x="1464" y="1504"/></g><g transform="translate(-1430,-1254) scale(1,1)"><path d="M 1464 1504 L 1887.34326171875 1504 L 1887.34326171875 1662 L 1464 1662 L 1464 1504 Z Z" fill="none" stroke="#000000" stroke-miterlimit="10"/></g><g transform="translate(-1430,-1254) scale(1,1)"><path d="M 1464 1542 L 1887.34326171875 1542" fill="none" stroke="#000000" stroke-miterlimit="10"/></g><g transform="translate(-1430,-1254) scale(1,1)"><path d="M 1464 1640 L 1887.34326171875 1640" fill="none" stroke="#000000" stroke-miterlimit="10"/></g><g transform="translate(-1430,-1254) scale(1,1)"><g><path fill="none" stroke="none"/><text fill="#000000" font-family="Arial" font-size="13px" font-style="normal" font-weight="normal" stroke="none" text-decoration="none" x="1640.61669921875" y="1520">«Boundary»</text></g></g><g transform="translate(-1430,-1254) scale(1,1)"><g><path fill="none" stroke="none"/><text fill="#000000" font-family="Arial" font-size="13px" font-style="normal" font-weight="bold" stroke="none" text-decoration="none" x="1634.126220703125" y="1535">RegisterPage</text></g></g><g transform="translate(-1430,-1254) scale(1,1)"><g><path fill="none" stroke="none"/><text fill="#000000" font-family="Arial" font-size="13px" font-style="normal" font-weight="normal" stroke="none" text-decoration="none" x="1469" y="1558">-emailForm: FormElement</text></g></g><g transform="translate(-1430,-1254) scale(1,1)"><g><path fill="none" stroke="none"/><text fill="#000000" font-family="Arial" font-size="13px" font-style="normal" font-weight="normal" stroke="none" text-decoration="none" x="1469" y="1573">-usernameForm: FormElement</text></g></g><g transform="translate(-1430,-1254) scale(1,1)"><g><path fill="none" stroke="none"/><text fill="#000000" font-family="Arial" font-size="13px" font-style="normal" font-weight="normal" stroke="none" text-decoration="none" x="1469" y="1588">-passwordForm: FormElement</text></g></g><g transform="translate(-1430,-1254) scale(1,1)"><g><path fill="none" stroke="none"/><text fill="#000000" font-family="Arial" font-size="13px" font-style="normal" font-weight="normal" stroke="none" text-decoration="none" x="1469" y="1603">-confirmPasswordForm: FormElement</text></g></g><g transform="translate(-1430,-1254) scale(1,1)"><g><path fill="none" stroke="none"/><text fill="#000000" font-family="Arial" font-size="13px" font-style="normal" font-weight="normal" stroke="none" text-decoration="none" x="1469" y="1618">-acceptToSButton: Button</text></g></g><g transform="translate(-1430,-1254) scale(1,1)"><g><path fill="none" stroke="none"/><text fill="#000000" font-family="Arial" font-size="13px" font-style="normal" font-weight="normal" stroke="none" text-decoration="none" x="1469" y="1633">-registerButton: Button</text></g></g><g transform="translate(-1430,-1254) scale(1,1)"><g><path fill="none" stroke="none"/><text fill="#000000" font-family="Arial" font-size="13px" font-style="normal" font-weight="normal" stroke="none" text-decoration="none" x="1469" y="1656">+clickOnRegister(email: string, username: string, password: string): void</text></g></g><g transform="translate(-1430,-1254) scale(1,1)"><rect fill="#C0C0C0" height="188" opacity="0.2" stroke="none" width="906.1396484375" x="2423" y="1527"/></g><g transform="translate(-1430,-1254) scale(1,1)"><rect fill="#49ffe0" height="188" stroke="none" width="906.1396484375" x="2416" y="1520"/></g><g transform="translate(-1430,-1254) scale(1,1)"><path d="M 2416 1520 L 3322.1396484375 1520 L 3322.1396484375 1708 L 2416 1708 L 2416 1520 Z Z" fill="none" stroke="#000000" stroke-miterlimit="10"/></g><g transform="translate(-1430,-1254) scale(1,1)"><path d="M 2416 1558 L 3322.1396484375 1558" fill="none" stroke="#000000" stroke-miterlimit="10"/></g><g transform="translate(-1430,-1254) scale(1,1)"><path d="M 2416 1656 L 3322.1396484375 1656" fill="none" stroke="#000000" stroke-miterlimit="10"/></g><g transform="translate(-1430,-1254) scale(1,1)"><g><path fill="none" stroke="none"/><text fill="#000000" font-family="Arial" font-size="13px" font-style="normal" font-weight="normal" stroke="none" text-decoration="none" x="2834.014892578125" y="1536">«Boundary»</text></g></g><g transform="translate(-1430,-1254) scale(1,1)"><g><path fill="none" stroke="none"/><text fill="#000000" font-family="Arial" font-size="13px" font-style="normal" font-weight="bold" stroke="none" text-decoration="none" x="2826.0771484375" y="1551">SplashScreen</text></g></g><g transform="translate(-1430,-1254) scale(1,1)"><g><path fill="none" stroke="none"/><text fill="#000000" font-family="Arial" font-size="13px" font-style="normal" font-weight="normal" stroke="none" text-decoration="none" x="2421" y="1574">-mascotImages: List&lt;image&gt;</text></g></g><g transform="translate(-1430,-1254) scale(1,1)"><g><path fill="none" stroke="none"/><text fill="#000000" font-family="Arial" font-size="13px" font-style="normal" font-weight="normal" stroke="none" text-decoration="none" x="2421" y="1589">-loginButton: Button</text></g></g><g transform="translate(-1430,-1254) scale(1,1)"><g><path fill="none" stroke="none"/><text fill="#000000" font-family="Arial" font-size="13px" font-style="normal" font-weight="normal" stroke="none" text-decoration="none" x="2421" y="1604">-registerButton: Button</text></g></g><g transform="translate(-1430,-1254) scale(1,1)"><g><path fill="none" stroke="none"/><text fill="#000000" font-family="Arial" font-size="13px" font-style="normal" font-weight="normal" stroke="none" text-decoration="none" x="2421" y="1619">-welcomeLabel: string</text></g></g><g transform="translate(-1430,-1254) scale(1,1)"><g><path fill="none" stroke="none"/><text fill="#000000" font-family="Arial" font-size="13px" font-style="normal" font-weight="normal" stroke="none" text-decoration="none" x="2421" y="1634">-logo: image</text></g></g><g transform="translate(-1430,-1254) scale(1,1)"><g><path fill="none" stroke="none"/><text fill="#000000" font-family="Arial" font-size="13px" font-style="normal" font-weight="normal" stroke="none" text-decoration="none" x="2421" y="1649">-joinLabel: string</text></g></g><g transform="translate(-1430,-1254) scale(1,1)"><g><path fill="none" stroke="none"/><text fill="#000000" font-family="Arial" font-size="13px" font-style="normal" font-weight="normal" stroke="none" text-decoration="none" x="2421" y="1672">+SpashScreen(mascotImages: List&lt;image&gt;, loginButton: Button, registerButton: Button, welcomeLabel: string, logo: image, joinLabel: string): SplashScreen</text></g></g><g transform="translate(-1430,-1254) scale(1,1)"><g><path fill="none" stroke="none"/><text fill="#000000" font-family="Arial" font-size="13px" font-style="normal" font-weight="normal" stroke="none" text-decoration="none" x="2421" y="1687">+clickOnLogin(): void</text></g></g><g transform="translate(-1430,-1254) scale(1,1)"><g><path fill="none" stroke="none"/><text fill="#000000" font-family="Arial" font-size="13px" font-style="normal" font-weight="normal" stroke="none" text-decoration="none" x="2421" y="1702">+clickOnRegister(): void</text></g></g><g transform="translate(-1430,-1254) scale(1,1)"><rect fill="#C0C0C0" height="15" opacity="0.2" stroke="none" width="716.8000000000002" x="1535" y="1719"/></g><g transform="translate(-1430,-1254) scale(1,1)"><rect fill="#C0C0C0" height="282" opacity="0.2" stroke="none" width="1792" x="1535" y="1733"/></g><g transform="translate(-1430,-1254) scale(1,1)"><rect fill="#ffffff" height="281" stroke="none" width="1792" x="1528" y="1727"/></g><g transform="translate(-1430,-1254) scale(1,1)"><path d="M 1528 1727 L 3320 1727 L 3320 2008 L 1528 2008 L 1528 1727 Z Z" fill="none" stroke="#000000" stroke-miterlimit="10"/></g><g transform="translate(-1430,-1254) scale(1,1)"><rect fill="#ffffff" height="15" stroke="none" width="716.8000000000002" x="1528" y="1712"/></g><g transform="translate(-1430,-1254) scale(1,1)"><path d="M 1528 1712 L 2244.8 1712 L 2244.8 1727 L 1528 1727 L 1528 1712 Z Z" fill="none" stroke="#000000" stroke-miterlimit="10"/></g><g transform="translate(-1430,-1254) scale(1,1)"><rect fill="#ffffff" height="282" stroke="none" width="1792" x="1528" y="1726"/></g><g transform="translate(-1430,-1254) scale(1,1)"><path d="M 1528 1726 L 3320 1726 L 3320 2008 L 1528 2008 L 1528 1726 Z Z" fill="none" stroke="#000000" stroke-miterlimit="10"/></g><g transform="translate(-1430,-1254) scale(1,1)"><g><path fill="none" stroke="none"/><text fill="#000000" font-family="Arial" font-size="13px" font-style="normal" font-weight="bold" stroke="none" text-decoration="none" x="2377.754150390625" y="1745">Home Package</text></g></g><g transform="translate(-1430,-1254) scale(1,1)"><rect fill="#C0C0C0" height="160" opacity="0.2" stroke="none" width="402.7705078125" x="1911" y="1311"/></g><g transform="translate(-1430,-1254) scale(1,1)"><rect fill="#49ffe0" height="160" stroke="none" width="402.7705078125" x="1904" y="1304"/></g><g transform="translate(-1430,-1254) scale(1,1)"><path d="M 1904 1304 L 2306.7705078125 1304 L 2306.7705078125 1464 L 1904 1464 L 1904 1304 Z Z" fill="none" stroke="#000000" stroke-miterlimit="10"/></g><g transform="translate(-1430,-1254) scale(1,1)"><path d="M 1904 1342 L 2306.7705078125 1342" fill="none" stroke="#000000" stroke-miterlimit="10"/></g><g transform="translate(-1430,-1254) scale(1,1)"><path d="M 1904 1425 L 2306.7705078125 1425" fill="none" stroke="#000000" stroke-miterlimit="10"/></g><g transform="translate(-1430,-1254) scale(1,1)"><g><path fill="none" stroke="none"/><text fill="#000000" font-family="Arial" font-size="13px" font-style="normal" font-weight="normal" stroke="none" text-decoration="none" x="2070.330322265625" y="1320">«Boundary»</text></g></g><g transform="translate(-1430,-1254) scale(1,1)"><g><path fill="none" stroke="none"/><text fill="#000000" font-family="Arial" font-size="13px" font-style="normal" font-weight="bold" stroke="none" text-decoration="none" x="2072.16162109375" y="1335">LoginPage</text></g></g><g transform="translate(-1430,-1254) scale(1,1)"><g><path fill="none" stroke="none"/><text fill="#000000" font-family="Arial" font-size="13px" font-style="normal" font-weight="normal" stroke="none" text-decoration="none" x="1909" y="1358">-emailForm: FormElement</text></g></g><g transform="translate(-1430,-1254) scale(1,1)"><g><path fill="none" stroke="none"/><text fill="#000000" font-family="Arial" font-size="13px" font-style="normal" font-weight="normal" stroke="none" text-decoration="none" x="1909" y="1373">-passwordForm: FormElement</text></g></g><g transform="translate(-1430,-1254) scale(1,1)"><g><path fill="none" stroke="none"/><text fill="#000000" font-family="Arial" font-size="13px" font-style="normal" font-weight="normal" stroke="none" text-decoration="none" x="1909" y="1388">-loginButton: Button</text></g></g><g transform="translate(-1430,-1254) scale(1,1)"><g><path fill="none" stroke="none"/><text fill="#000000" font-family="Arial" font-size="13px" font-style="normal" font-weight="normal" stroke="none" text-decoration="none" x="1909" y="1403">-alternativeProvidersLabel: string</text></g></g><g transform="translate(-1430,-1254) scale(1,1)"><g><path fill="none" stroke="none"/><text fill="#000000" font-family="Arial" font-size="13px" font-style="normal" font-weight="normal" stroke="none" text-decoration="none" x="1909" y="1418">-discordButton: Button</text></g></g><g transform="translate(-1430,-1254) scale(1,1)"><g><path fill="none" stroke="none"/><text fill="#000000" font-family="Arial" font-size="13px" font-style="normal" font-weight="normal" stroke="none" text-decoration="none" x="1909" y="1441">+clickOnLogin(provider = email, email: string, password: string): void</text></g></g><g transform="translate(-1430,-1254) scale(1,1)"><g><path fill="none" stroke="none"/><text fill="#000000" font-family="Arial" font-size="13px" font-style="normal" font-weight="normal" stroke="none" text-decoration="none" x="1909" y="1456">+clickOnDiscord(provider = Discord): void</text></g></g><g transform="translate(-1430,-1254) scale(1,1)"><rect fill="#C0C0C0" height="233" opacity="0.2" stroke="none" width="1772.18212890625" x="1543" y="1767"/></g><g transform="translate(-1430,-1254) scale(1,1)"><rect fill="#49ffe0" height="233" stroke="none" width="1772.18212890625" x="1536" y="1760"/></g><g transform="translate(-1430,-1254) scale(1,1)"><path d="M 1536 1760 L 3308.18212890625 1760 L 3308.18212890625 1993 L 1536 1993 L 1536 1760 Z Z" fill="none" stroke="#000000" stroke-miterlimit="10"/></g><g transform="translate(-1430,-1254) scale(1,1)"><path d="M 1536 1798 L 3308.18212890625 1798" fill="none" stroke="#000000" stroke-miterlimit="10"/></g><g transform="translate(-1430,-1254) scale(1,1)"><path d="M 1536 1896 L 3308.18212890625 1896" fill="none" stroke="#000000" stroke-miterlimit="10"/></g><g transform="translate(-1430,-1254) scale(1,1)"><g><path fill="none" stroke="none"/><text fill="#000000" font-family="Arial" font-size="13px" font-style="normal" font-weight="normal" stroke="none" text-decoration="none" x="2387.0361328125" y="1776">«Boundary»</text></g></g><g transform="translate(-1430,-1254) scale(1,1)"><g><path fill="none" stroke="none"/><text fill="#000000" font-family="Arial" font-size="13px" font-style="normal" font-weight="bold" stroke="none" text-decoration="none" x="2388.49609375" y="1791">HomePage</text></g></g><g transform="translate(-1430,-1254) scale(1,1)"><g><path fill="none" stroke="none"/><text fill="#000000" font-family="Arial" font-size="13px" font-style="normal" font-weight="normal" stroke="none" text-decoration="none" x="1541" y="1814">-backloggedLogo: image</text></g></g><g transform="translate(-1430,-1254) scale(1,1)"><g><path fill="none" stroke="none"/><text fill="#000000" font-family="Arial" font-size="13px" font-style="normal" font-weight="normal" stroke="none" text-decoration="none" x="1541" y="1829">-featuredGames: List&lt;FeaturedGameCard&gt;</text></g></g><g transform="translate(-1430,-1254) scale(1,1)"><g><path fill="none" stroke="none"/><text fill="#000000" font-family="Arial" font-size="13px" font-style="normal" font-weight="normal" stroke="none" text-decoration="none" x="1541" y="1844">-mostPopularGames: List&lt;GameCard&gt;</text></g></g><g transform="translate(-1430,-1254) scale(1,1)"><g><path fill="none" stroke="none"/><text fill="#000000" font-family="Arial" font-size="13px" font-style="normal" font-weight="normal" stroke="none" text-decoration="none" x="1541" y="1859">-mostPopularLabel: string</text></g></g><g transform="translate(-1430,-1254) scale(1,1)"><g><path fill="none" stroke="none"/><text fill="#000000" font-family="Arial" font-size="13px" font-style="normal" font-weight="normal" stroke="none" text-decoration="none" x="1541" y="1874">-justForYouGames: List&lt;GameCard&gt;</text></g></g><g transform="translate(-1430,-1254) scale(1,1)"><g><path fill="none" stroke="none"/><text fill="#000000" font-family="Arial" font-size="13px" font-style="normal" font-weight="normal" stroke="none" text-decoration="none" x="1541" y="1889">-justForYouLabel: string</text></g></g><g transform="translate(-1430,-1254) scale(1,1)"><g><path fill="none" stroke="none"/><text fill="#000000" font-family="Arial" font-size="13px" font-style="normal" font-weight="normal" stroke="none" text-decoration="none" x="1541" y="1912">+HomePage(backloggedLogo: image, featuredGames: List&lt;FeaturedGameCard&gt;, mostPopularGames: List&lt;GameCard&gt;, mostPopularLabel: string, justForYouGames: List&lt;GameCard&gt;, justForYouLabel: string): HomePage</text></g></g><g transform="translate(-1430,-1254) scale(1,1)"><path d="M 2211 1642 L 2316 1759" fill="none" stroke="#000000" stroke-dasharray="3" stroke-miterlimit="10"/></g><g transform="translate(-1430,-1254) scale(1,1)"><path d="M 2306.0793493520873 1754.248085572943 L 2316 1759 L 2312.3451515680686 1748.6249297380882" fill="none" stroke="#000000" stroke-miterlimit="10"/></g><g transform="translate(-1430,-1254) scale(1,1)"><g><path fill="none" stroke="none"/><text fill="#000000" font-family="Arial" font-size="13px" font-style="normal" font-weight="normal" stroke="none" text-decoration="none" x="1998.5" y="1674">+login and register returns HomePage</text></g></g><g transform="translate(-1430,-1254) scale(1,1)"><rect fill="#C0C0C0" height="70" opacity="0.2" stroke="none" width="475.8955078125" x="2567" y="1327"/></g><g transform="translate(-1430,-1254) scale(1,1)"><rect fill="#6dceff" height="70" stroke="none" width="475.8955078125" x="2560" y="1320"/></g><g transform="translate(-1430,-1254) scale(1,1)"><path d="M 2560 1320 L 3035.8955078125 1320 L 3035.8955078125 1390 L 2560 1390 L 2560 1320 Z Z" fill="none" stroke="#000000" stroke-miterlimit="10"/></g><g transform="translate(-1430,-1254) scale(1,1)"><path d="M 2560 1358 L 3035.8955078125 1358" fill="none" stroke="#000000" stroke-miterlimit="10"/></g><g transform="translate(-1430,-1254) scale(1,1)"><path d="M 2560 1368 L 3035.8955078125 1368" fill="none" stroke="#000000" stroke-miterlimit="10"/></g><g transform="translate(-1430,-1254) scale(1,1)"><g><path fill="none" stroke="none"/><text fill="#ffffff" font-family="Arial" font-size="13px" font-style="normal" font-weight="normal" stroke="none" text-decoration="none" x="2762.892822265625" y="1336">«Boundary»</text></g></g><g transform="translate(-1430,-1254) scale(1,1)"><g><path fill="none" stroke="none"/><text fill="#ffffff" font-family="Arial" font-size="13px" font-style="normal" font-weight="bold" stroke="none" text-decoration="none" x="2745.22412109375" y="1351">DiscordLoginAPI</text></g></g><g transform="translate(-1430,-1254) scale(1,1)"><g><path fill="none" stroke="none"/><text fill="#ffffff" font-family="Arial" font-size="13px" font-style="normal" font-weight="normal" stroke="none" text-decoration="none" x="2565" y="1384">+login(email: string, phone: string, password: string): AccessTokenResponse</text></g></g><g transform="translate(-1430,-1254) scale(1,1)"><path d="M 2354 1500 L 2687 1391" fill="none" stroke="#000000" stroke-miterlimit="10"/></g><g transform="translate(-1430,-1254) scale(1,1)"><path d="M 2678.651100643075 1398.1621141800406 L 2687 1391 L 2676.032057144935 1390.1608161536135" fill="none" stroke="#000000" stroke-miterlimit="10"/></g><g transform="translate(-1430,-1254) scale(1,1)"><g><path fill="none" stroke="none"/><text fill="#000000" font-family="Arial" font-size="13px" font-style="normal" font-weight="normal" stroke="none" text-decoration="none" x="2374.5" y="1510">1</text></g></g><g transform="translate(-1430,-1254) scale(1,1)"><g><path fill="none" stroke="none"/><text fill="#000000" font-family="Arial" font-size="13px" font-style="normal" font-weight="normal" stroke="none" text-decoration="none" x="2666.5" y="1414">1</text></g></g><g transform="translate(-1430,-1254) scale(1,1)"><rect fill="#C0C0C0" height="15" opacity="0.2" stroke="none" width="153.5999999999999" x="1479" y="1295"/></g><g transform="translate(-1430,-1254) scale(1,1)"><rect fill="#C0C0C0" height="186" opacity="0.2" stroke="none" width="384" x="1479" y="1309"/></g><g transform="translate(-1430,-1254) scale(1,1)"><rect fill="#ffffff" height="185" stroke="none" width="384" x="1472" y="1303"/></g><g transform="translate(-1430,-1254) scale(1,1)"><path d="M 1472 1303 L 1856 1303 L 1856 1488 L 1472 1488 L 1472 1303 Z Z" fill="none" stroke="#000000" stroke-miterlimit="10"/></g><g transform="translate(-1430,-1254) scale(1,1)"><rect fill="#ffffff" height="15" stroke="none" width="153.5999999999999" x="1472" y="1288"/></g><g transform="translate(-1430,-1254) scale(1,1)"><path d="M 1472 1288 L 1625.6 1288 L 1625.6 1303 L 1472 1303 L 1472 1288 Z Z" fill="none" stroke="#000000" stroke-miterlimit="10"/></g><g transform="translate(-1430,-1254) scale(1,1)"><rect fill="#ffffff" height="186" stroke="none" width="384" x="1472" y="1302"/></g><g transform="translate(-1430,-1254) scale(1,1)"><path d="M 1472 1302 L 1856 1302 L 1856 1488 L 1472 1488 L 1472 1302 Z Z" fill="none" stroke="#000000" stroke-miterlimit="10"/></g><g transform="translate(-1430,-1254) scale(1,1)"><g><path fill="none" stroke="none"/><text fill="#000000" font-family="Arial" font-size="13px" font-style="normal" font-weight="bold" stroke="none" text-decoration="none" x="1621.359619140625" y="1321">User Package</text></g></g><g transform="translate(-1430,-1254) scale(1,1)"><rect fill="#C0C0C0" height="145" opacity="0.2" stroke="none" width="278.18505859375" x="1519" y="1343"/></g><g transform="translate(-1430,-1254) scale(1,1)"><rect fill="#ff5656" height="145" stroke="none" width="278.18505859375" x="1512" y="1336"/></g><g transform="translate(-1430,-1254) scale(1,1)"><path d="M 1512 1336 L 1790.18505859375 1336 L 1790.18505859375 1481 L 1512 1481 L 1512 1336 Z Z" fill="none" stroke="#000000" stroke-miterlimit="10"/></g><g transform="translate(-1430,-1254) scale(1,1)"><path d="M 1512 1374 L 1790.18505859375 1374" fill="none" stroke="#000000" stroke-miterlimit="10"/></g><g transform="translate(-1430,-1254) scale(1,1)"><path d="M 1512 1384 L 1790.18505859375 1384" fill="none" stroke="#000000" stroke-miterlimit="10"/></g><g transform="translate(-1430,-1254) scale(1,1)"><g><path fill="none" stroke="none"/><text fill="#ffffff" font-family="Arial" font-size="13px" font-style="normal" font-weight="normal" stroke="none" text-decoration="none" x="1615.685302734375" y="1352">«Controller»</text></g></g><g transform="translate(-1430,-1254) scale(1,1)"><g><path fill="none" stroke="none"/><text fill="#ffffff" font-family="Arial" font-size="13px" font-style="normal" font-weight="bold" stroke="none" text-decoration="none" x="1605.5830078125" y="1367">UserController</text></g></g><g transform="translate(-1430,-1254) scale(1,1)"><g><path fill="none" stroke="none"/><text fill="#ffffff" font-family="Arial" font-size="13px" font-style="normal" font-weight="normal" stroke="none" text-decoration="none" x="1517" y="1400">+UserController(): UserController</text></g></g><g transform="translate(-1430,-1254) scale(1,1)"><g><path fill="none" stroke="none"/><text fill="#ffffff" font-family="Arial" font-size="13px" font-style="normal" font-weight="normal" stroke="none" text-decoration="none" x="1517" y="1415">+createUser(user: User): void</text></g></g><g transform="translate(-1430,-1254) scale(1,1)"><g><path fill="none" stroke="none"/><text fill="#ffffff" font-family="Arial" font-size="13px" font-style="normal" font-weight="normal" stroke="none" text-decoration="none" x="1517" y="1430">+updateUser(user: User): void</text></g></g><g transform="translate(-1430,-1254) scale(1,1)"><g><path fill="none" stroke="none"/><text fill="#ffffff" font-family="Arial" font-size="13px" font-style="normal" font-weight="normal" stroke="none" text-decoration="none" x="1517" y="1445">+deleteUser(user: User): void</text></g></g><g transform="translate(-1430,-1254) scale(1,1)"><g><path fill="none" stroke="none"/><text fill="#ffffff" font-family="Arial" font-size="13px" font-style="normal" font-weight="normal" stroke="none" text-decoration="none" x="1517" y="1460">+profilePage(userId: uuid): UserProfilePage</text></g></g><g transform="translate(-1430,-1254) scale(1,1)"><g><path fill="none" stroke="none"/><text fill="#ffffff" font-family="Arial" font-size="13px" font-style="normal" font-weight="normal" stroke="none" text-decoration="none" x="1517" y="1475">+editProfilePage(userId: uuid): EditProfilePage</text></g></g><g transform="translate(-1430,-1254) scale(1,1)"><path d="M 1935 1500 L 1791 1453" fill="none" stroke="#000000" stroke-dasharray="3" stroke-miterlimit="10"/></g><g transform="translate(-1430,-1254) scale(1,1)"><path d="M 1801.9672274053726 1452.151517213582 L 1791 1453 L 1799.3549688011499 1460.1550329371578" fill="none" stroke="#000000" stroke-miterlimit="10"/></g><g transform="translate(-1430,-1254) scale(1,1)"><g><path fill="none" stroke="none"/><text fill="#000000" font-family="Arial" font-size="13px" font-style="normal" font-weight="normal" stroke="none" text-decoration="none" x="1912.5" y="1483">+register calls createUser</text></g></g></g></svg>