<?xml version="1.0" encoding="UTF-8" standalone="no"?><svg xmlns="http://www.w3.org/2000/svg" xmlns:xlink="http://www.w3.org/1999/xlink" height="178" version="1.1" width="620.474609375"><defs/><g><g transform="translate(-1782,-1150) scale(1,1)"><rect fill="#C0C0C0" height="158" opacity="0.2" stroke="none" width="600.474609375" x="1799" y="1167"/></g><g transform="translate(-1782,-1150) scale(1,1)"><rect fill="#49ffe0" height="158" stroke="none" width="600.474609375" x="1792" y="1160"/></g><g transform="translate(-1782,-1150) scale(1,1)"><path d="M 1792 1160 L 2392.474609375 1160 L 2392.474609375 1318 L 1792 1318 L 1792 1160 Z Z" fill="none" stroke="#000000" stroke-miterlimit="10"/></g><g transform="translate(-1782,-1150) scale(1,1)"><path d="M 1792 1198 L 2392.474609375 1198" fill="none" stroke="#000000" stroke-miterlimit="10"/></g><g transform="translate(-1782,-1150) scale(1,1)"><path d="M 1792 1251 L 2392.474609375 1251" fill="none" stroke="#000000" stroke-miterlimit="10"/></g><g transform="translate(-1782,-1150) scale(1,1)"><g><path fill="none" stroke="none"/><text fill="#000000" font-family="Arial" font-size="13px" font-style="normal" font-weight="normal" stroke="none" text-decoration="none" x="2057.182373046875" y="1176">«Boundary»</text></g></g><g transform="translate(-1782,-1150) scale(1,1)"><g><path fill="none" stroke="none"/><text fill="#000000" font-family="Arial" font-size="13px" font-style="normal" font-weight="bold" stroke="none" text-decoration="none" x="2019.29638671875" y="1191">BottomNavigationMenu</text></g></g><g transform="translate(-1782,-1150) scale(1,1)"><g><path fill="none" stroke="none"/><text fill="#000000" font-family="Arial" font-size="13px" font-style="normal" font-weight="normal" stroke="none" text-decoration="none" x="1797" y="1214">-homeButton: Button</text></g></g><g transform="translate(-1782,-1150) scale(1,1)"><g><path fill="none" stroke="none"/><text fill="#000000" font-family="Arial" font-size="13px" font-style="normal" font-weight="normal" stroke="none" text-decoration="none" x="1797" y="1229">-searchButton: Button</text></g></g><g transform="translate(-1782,-1150) scale(1,1)"><g><path fill="none" stroke="none"/><text fill="#000000" font-family="Arial" font-size="13px" font-style="normal" font-weight="normal" stroke="none" text-decoration="none" x="1797" y="1244">-profileButton: Button</text></g></g><g transform="translate(-1782,-1150) scale(1,1)"><g><path fill="none" stroke="none"/><text fill="#000000" font-family="Arial" font-size="13px" font-style="normal" font-weight="normal" stroke="none" text-decoration="none" x="1797" y="1267">+BottomNav(homeButton: Button, searchButton: Button, profileButton: Button): BottomNavigationMenu</text></g></g><g transform="translate(-1782,-1150) scale(1,1)"><g><path fill="none" stroke="none"/><text fill="#000000" font-family="Arial" font-size="13px" font-style="normal" font-weight="normal" stroke="none" text-decoration="none" x="1797" y="1282">+homeClick(): void</text></g></g><g transform="translate(-1782,-1150) scale(1,1)"><g><path fill="none" stroke="none"/><text fill="#000000" font-family="Arial" font-size="13px" font-style="normal" font-weight="normal" stroke="none" text-decoration="none" x="1797" y="1297">+profileClick(): void</text></g></g><g transform="translate(-1782,-1150) scale(1,1)"><g><path fill="none" stroke="none"/><text fill="#000000" font-family="Arial" font-size="13px" font-style="normal" font-weight="normal" stroke="none" text-decoration="none" x="1797" y="1312">+searchClick(): void</text></g></g></g></svg>