<?xml version="1.0" encoding="UTF-8" standalone="no"?><svg xmlns="http://www.w3.org/2000/svg" xmlns:xlink="http://www.w3.org/1999/xlink" height="1004" version="1.1" width="1932"><defs/><g><g transform="translate(-1310,-1766) scale(1,1)"><rect fill="#C0C0C0" height="15" opacity="0.2" stroke="none" width="764.8000000000002" x="1327" y="1783"/></g><g transform="translate(-1310,-1766) scale(1,1)"><rect fill="#C0C0C0" height="970" opacity="0.2" stroke="none" width="1912" x="1327" y="1797"/></g><g transform="translate(-1310,-1766) scale(1,1)"><rect fill="#ffffff" height="969" stroke="none" width="1912" x="1320" y="1791"/></g><g transform="translate(-1310,-1766) scale(1,1)"><path d="M 1320 1791 L 3232 1791 L 3232 2760 L 1320 2760 L 1320 1791 Z Z" fill="none" stroke="#000000" stroke-miterlimit="10"/></g><g transform="translate(-1310,-1766) scale(1,1)"><rect fill="#ffffff" height="15" stroke="none" width="764.8000000000002" x="1320" y="1776"/></g><g transform="translate(-1310,-1766) scale(1,1)"><path d="M 1320 1776 L 2084.8 1776 L 2084.8 1791 L 1320 1791 L 1320 1776 Z Z" fill="none" stroke="#000000" stroke-miterlimit="10"/></g><g transform="translate(-1310,-1766) scale(1,1)"><rect fill="#ffffff" height="970" stroke="none" width="1912" x="1320" y="1790"/></g><g transform="translate(-1310,-1766) scale(1,1)"><path d="M 1320 1790 L 3232 1790 L 3232 2760 L 1320 2760 L 1320 1790 Z Z" fill="none" stroke="#000000" stroke-miterlimit="10"/></g><g transform="translate(-1310,-1766) scale(1,1)"><g><path fill="none" stroke="none"/><text fill="#000000" font-family="Arial" font-size="13px" font-style="normal" font-weight="bold" stroke="none" text-decoration="none" x="2229.754150390625" y="1809">Home Package</text></g></g><g transform="translate(-1310,-1766) scale(1,1)"><rect fill="#C0C0C0" height="158" opacity="0.2" stroke="none" width="1772.18212890625" x="1400" y="1831"/></g><g transform="translate(-1310,-1766) scale(1,1)"><rect fill="#49ffe0" height="158" stroke="none" width="1772.18212890625" x="1393" y="1824"/></g><g transform="translate(-1310,-1766) scale(1,1)"><path d="M 1393 1824 L 3165.18212890625 1824 L 3165.18212890625 1982 L 1393 1982 L 1393 1824 Z Z" fill="none" stroke="#000000" stroke-miterlimit="10"/></g><g transform="translate(-1310,-1766) scale(1,1)"><path d="M 1393 1862 L 3165.18212890625 1862" fill="none" stroke="#000000" stroke-miterlimit="10"/></g><g transform="translate(-1310,-1766) scale(1,1)"><path d="M 1393 1960 L 3165.18212890625 1960" fill="none" stroke="#000000" stroke-miterlimit="10"/></g><g transform="translate(-1310,-1766) scale(1,1)"><g><path fill="none" stroke="none"/><text fill="#000000" font-family="Arial" font-size="13px" font-style="normal" font-weight="normal" stroke="none" text-decoration="none" x="2244.0361328125" y="1840">«Boundary»</text></g></g><g transform="translate(-1310,-1766) scale(1,1)"><g><path fill="none" stroke="none"/><text fill="#000000" font-family="Arial" font-size="13px" font-style="normal" font-weight="bold" stroke="none" text-decoration="none" x="2245.49609375" y="1855">HomePage</text></g></g><g transform="translate(-1310,-1766) scale(1,1)"><g><path fill="none" stroke="none"/><text fill="#000000" font-family="Arial" font-size="13px" font-style="normal" font-weight="normal" stroke="none" text-decoration="none" x="1398" y="1878">-backloggedLogo: image</text></g></g><g transform="translate(-1310,-1766) scale(1,1)"><g><path fill="none" stroke="none"/><text fill="#000000" font-family="Arial" font-size="13px" font-style="normal" font-weight="normal" stroke="none" text-decoration="none" x="1398" y="1893">-featuredGames: List&lt;FeaturedGameCard&gt;</text></g></g><g transform="translate(-1310,-1766) scale(1,1)"><g><path fill="none" stroke="none"/><text fill="#000000" font-family="Arial" font-size="13px" font-style="normal" font-weight="normal" stroke="none" text-decoration="none" x="1398" y="1908">-mostPopularGames: List&lt;GameCard&gt;</text></g></g><g transform="translate(-1310,-1766) scale(1,1)"><g><path fill="none" stroke="none"/><text fill="#000000" font-family="Arial" font-size="13px" font-style="normal" font-weight="normal" stroke="none" text-decoration="none" x="1398" y="1923">-mostPopularLabel: string</text></g></g><g transform="translate(-1310,-1766) scale(1,1)"><g><path fill="none" stroke="none"/><text fill="#000000" font-family="Arial" font-size="13px" font-style="normal" font-weight="normal" stroke="none" text-decoration="none" x="1398" y="1938">-justForYouGames: List&lt;GameCard&gt;</text></g></g><g transform="translate(-1310,-1766) scale(1,1)"><g><path fill="none" stroke="none"/><text fill="#000000" font-family="Arial" font-size="13px" font-style="normal" font-weight="normal" stroke="none" text-decoration="none" x="1398" y="1953">-justForYouLabel: string</text></g></g><g transform="translate(-1310,-1766) scale(1,1)"><g><path fill="none" stroke="none"/><text fill="#000000" font-family="Arial" font-size="13px" font-style="normal" font-weight="normal" stroke="none" text-decoration="none" x="1398" y="1976">+HomePage(backloggedLogo: image, featuredGames: List&lt;FeaturedGameCard&gt;, mostPopularGames: List&lt;GameCard&gt;, mostPopularLabel: string, justForYouGames: List&lt;GameCard&gt;, justForYouLabel: string): HomePage</text></g></g><g transform="translate(-1310,-1766) scale(1,1)"><rect fill="#C0C0C0" height="85" opacity="0.2" stroke="none" width="214.537109375" x="1448" y="2514"/></g><g transform="translate(-1310,-1766) scale(1,1)"><rect fill="#ff5656" height="85" stroke="none" width="214.537109375" x="1441" y="2507"/></g><g transform="translate(-1310,-1766) scale(1,1)"><path d="M 1441 2507 L 1655.537109375 2507 L 1655.537109375 2592 L 1441 2592 L 1441 2507 Z Z" fill="none" stroke="#000000" stroke-miterlimit="10"/></g><g transform="translate(-1310,-1766) scale(1,1)"><path d="M 1441 2545 L 1655.537109375 2545" fill="none" stroke="#000000" stroke-miterlimit="10"/></g><g transform="translate(-1310,-1766) scale(1,1)"><path d="M 1441 2555 L 1655.537109375 2555" fill="none" stroke="#000000" stroke-miterlimit="10"/></g><g transform="translate(-1310,-1766) scale(1,1)"><g><path fill="none" stroke="none"/><text fill="#ffffff" font-family="Arial" font-size="13px" font-style="normal" font-weight="normal" stroke="none" text-decoration="none" x="1512.861328125" y="2523">«Controller»</text></g></g><g transform="translate(-1310,-1766) scale(1,1)"><g><path fill="none" stroke="none"/><text fill="#ffffff" font-family="Arial" font-size="13px" font-style="normal" font-weight="bold" stroke="none" text-decoration="none" x="1499.153564453125" y="2538">HomeController</text></g></g><g transform="translate(-1310,-1766) scale(1,1)"><g><path fill="none" stroke="none"/><text fill="#ffffff" font-family="Arial" font-size="13px" font-style="normal" font-weight="normal" stroke="none" text-decoration="none" x="1446" y="2571">+HomeController(): HomeController</text></g></g><g transform="translate(-1310,-1766) scale(1,1)"><g><path fill="none" stroke="none"/><text fill="#ffffff" font-family="Arial" font-size="13px" font-style="normal" font-weight="normal" stroke="none" text-decoration="none" x="1446" y="2586">+displayHomePage(): HomePage</text></g></g><g transform="translate(-1310,-1766) scale(1,1)"><path d="M 2140 1982 L 2140 2143 L 1548 2143 L 1548 2507" fill="none" stroke="#000000" stroke-miterlimit="10"/></g><g transform="translate(-1310,-1766) scale(1,1)"><g><path fill="none" stroke="none"/><text fill="#000000" font-family="Arial" font-size="13px" font-style="normal" font-weight="normal" stroke="none" text-decoration="none" x="2123.5" y="2008">1</text></g></g><g transform="translate(-1310,-1766) scale(1,1)"><g><path fill="none" stroke="none"/><text fill="#000000" font-family="Arial" font-size="13px" font-style="normal" font-weight="normal" stroke="none" text-decoration="none" x="1531.5" y="2490">1</text></g></g><g transform="translate(-1310,-1766) scale(1,1)"><path d="M 2728 2136 L 2584 2136 L 2584 1982" fill="none" stroke="#000000" stroke-miterlimit="10"/></g><g transform="translate(-1310,-1766) scale(1,1)"><path d="M 2588.209517756016 1992.162674857624 L 2584 1982 L 2579.790482243984 1992.162674857624" fill="none" stroke="#000000" stroke-miterlimit="10"/></g><g transform="translate(-1310,-1766) scale(1,1)"><g><path fill="none" stroke="none"/><text fill="#000000" font-family="Arial" font-size="13px" font-style="normal" font-weight="normal" stroke="none" text-decoration="none" x="2694.5" y="2128">0...*</text></g></g><g transform="translate(-1310,-1766) scale(1,1)"><g><path fill="none" stroke="none"/><text fill="#000000" font-family="Arial" font-size="13px" font-style="normal" font-weight="normal" stroke="none" text-decoration="none" x="2592.5" y="2008">1</text></g></g><g transform="translate(-1310,-1766) scale(1,1)"><rect fill="#C0C0C0" height="158" opacity="0.2" stroke="none" width="453.7421875" x="2735" y="2055"/></g><g transform="translate(-1310,-1766) scale(1,1)"><rect fill="#49ffe0" height="158" stroke="none" width="453.7421875" x="2728" y="2048"/></g><g transform="translate(-1310,-1766) scale(1,1)"><path d="M 2728 2048 L 3181.7421875 2048 L 3181.7421875 2206 L 2728 2206 L 2728 2048 Z Z" fill="none" stroke="#000000" stroke-miterlimit="10"/></g><g transform="translate(-1310,-1766) scale(1,1)"><path d="M 2728 2086 L 3181.7421875 2086" fill="none" stroke="#000000" stroke-miterlimit="10"/></g><g transform="translate(-1310,-1766) scale(1,1)"><path d="M 2728 2169 L 3181.7421875 2169" fill="none" stroke="#000000" stroke-miterlimit="10"/></g><g transform="translate(-1310,-1766) scale(1,1)"><g><path fill="none" stroke="none"/><text fill="#000000" font-family="Arial" font-size="13px" font-style="normal" font-weight="normal" stroke="none" text-decoration="none" x="2919.816162109375" y="2064">«Boundary»</text></g></g><g transform="translate(-1310,-1766) scale(1,1)"><g><path fill="none" stroke="none"/><text fill="#000000" font-family="Arial" font-size="13px" font-style="normal" font-weight="bold" stroke="none" text-decoration="none" x="2894.546142578125" y="2079">FeaturedGameCard</text></g></g><g transform="translate(-1310,-1766) scale(1,1)"><g><path fill="none" stroke="none"/><text fill="#000000" font-family="Arial" font-size="13px" font-style="normal" font-weight="normal" stroke="none" text-decoration="none" x="2733" y="2102">-cardButton: Button</text></g></g><g transform="translate(-1310,-1766) scale(1,1)"><g><path fill="none" stroke="none"/><text fill="#000000" font-family="Arial" font-size="13px" font-style="normal" font-weight="normal" stroke="none" text-decoration="none" x="2733" y="2117">-gameId: uuid</text></g></g><g transform="translate(-1310,-1766) scale(1,1)"><g><path fill="none" stroke="none"/><text fill="#000000" font-family="Arial" font-size="13px" font-style="normal" font-weight="normal" stroke="none" text-decoration="none" x="2733" y="2132">-gameTitle: string</text></g></g><g transform="translate(-1310,-1766) scale(1,1)"><g><path fill="none" stroke="none"/><text fill="#000000" font-family="Arial" font-size="13px" font-style="normal" font-weight="normal" stroke="none" text-decoration="none" x="2733" y="2147">-gameCoverImage: image</text></g></g><g transform="translate(-1310,-1766) scale(1,1)"><g><path fill="none" stroke="none"/><text fill="#000000" font-family="Arial" font-size="13px" font-style="normal" font-weight="normal" stroke="none" text-decoration="none" x="2733" y="2162">-gameDescription: string</text></g></g><g transform="translate(-1310,-1766) scale(1,1)"><g><path fill="none" stroke="none"/><text fill="#000000" font-family="Arial" font-size="13px" font-style="normal" font-weight="normal" stroke="none" text-decoration="none" x="2733" y="2185">+FeaturedGameCard(game: Game, cardButton: Button): FeaturedGameCard</text></g></g><g transform="translate(-1310,-1766) scale(1,1)"><g><path fill="none" stroke="none"/><text fill="#000000" font-family="Arial" font-size="13px" font-style="normal" font-weight="normal" stroke="none" text-decoration="none" x="2733" y="2200">+clickOnCard(gameId: uuid): void</text></g></g><g transform="translate(-1310,-1766) scale(1,1)"><rect fill="#C0C0C0" height="15" opacity="0.2" stroke="none" width="476.8000000000002" x="1823" y="2215"/></g><g transform="translate(-1310,-1766) scale(1,1)"><rect fill="#C0C0C0" height="506" opacity="0.2" stroke="none" width="1192" x="1823" y="2229"/></g><g transform="translate(-1310,-1766) scale(1,1)"><rect fill="#ffffff" height="505" stroke="none" width="1192" x="1816" y="2223"/></g><g transform="translate(-1310,-1766) scale(1,1)"><path d="M 1816 2223 L 3008 2223 L 3008 2728 L 1816 2728 L 1816 2223 Z Z" fill="none" stroke="#000000" stroke-miterlimit="10"/></g><g transform="translate(-1310,-1766) scale(1,1)"><rect fill="#ffffff" height="15" stroke="none" width="476.8000000000002" x="1816" y="2208"/></g><g transform="translate(-1310,-1766) scale(1,1)"><path d="M 1816 2208 L 2292.8 2208 L 2292.8 2223 L 1816 2223 L 1816 2208 Z Z" fill="none" stroke="#000000" stroke-miterlimit="10"/></g><g transform="translate(-1310,-1766) scale(1,1)"><rect fill="#ffffff" height="506" stroke="none" width="1192" x="1816" y="2222"/></g><g transform="translate(-1310,-1766) scale(1,1)"><path d="M 1816 2222 L 3008 2222 L 3008 2728 L 1816 2728 L 1816 2222 Z Z" fill="none" stroke="#000000" stroke-miterlimit="10"/></g><g transform="translate(-1310,-1766) scale(1,1)"><g><path fill="none" stroke="none"/><text fill="#000000" font-family="Arial" font-size="13px" font-style="normal" font-weight="bold" stroke="none" text-decoration="none" x="2365.747802734375" y="2241">Game Package</text></g></g><g transform="translate(-1310,-1766) scale(1,1)"><rect fill="#C0C0C0" height="205" opacity="0.2" stroke="none" width="810.28369140625" x="1839" y="2279"/></g><g transform="translate(-1310,-1766) scale(1,1)"><rect fill="#ff00ff" height="205" stroke="none" width="810.28369140625" x="1832" y="2272"/></g><g transform="translate(-1310,-1766) scale(1,1)"><path d="M 1832 2272 L 2642.28369140625 2272 L 2642.28369140625 2477 L 1832 2477 L 1832 2272 Z Z" fill="none" stroke="#000000" stroke-miterlimit="10"/></g><g transform="translate(-1310,-1766) scale(1,1)"><path d="M 1832 2310 L 2642.28369140625 2310" fill="none" stroke="#000000" stroke-miterlimit="10"/></g><g transform="translate(-1310,-1766) scale(1,1)"><path d="M 1832 2320 L 2642.28369140625 2320" fill="none" stroke="#000000" stroke-miterlimit="10"/></g><g transform="translate(-1310,-1766) scale(1,1)"><g><path fill="none" stroke="none"/><text fill="#ffffff" font-family="Arial" font-size="13px" font-style="normal" font-weight="normal" stroke="none" text-decoration="none" x="2202.0869140625" y="2288">«Boundary»</text></g></g><g transform="translate(-1310,-1766) scale(1,1)"><g><path fill="none" stroke="none"/><text fill="#ffffff" font-family="Arial" font-size="13px" font-style="normal" font-weight="bold" stroke="none" text-decoration="none" x="2191.622802734375" y="2303">GameDBProxy</text></g></g><g transform="translate(-1310,-1766) scale(1,1)"><g><path fill="none" stroke="none"/><text fill="#ffffff" font-family="Arial" font-size="13px" font-style="normal" font-weight="normal" stroke="none" text-decoration="none" x="1837" y="2336">+create(game: Game): void</text></g></g><g transform="translate(-1310,-1766) scale(1,1)"><g><path fill="none" stroke="none"/><text fill="#ffffff" font-family="Arial" font-size="13px" font-style="normal" font-weight="normal" stroke="none" text-decoration="none" x="1837" y="2351">+update(game: Game): void</text></g></g><g transform="translate(-1310,-1766) scale(1,1)"><g><path fill="none" stroke="none"/><text fill="#ffffff" font-family="Arial" font-size="13px" font-style="normal" font-weight="normal" stroke="none" text-decoration="none" x="1837" y="2366">+getById(id: uuid): Game</text></g></g><g transform="translate(-1310,-1766) scale(1,1)"><g><path fill="none" stroke="none"/><text fill="#ffffff" font-family="Arial" font-size="13px" font-style="normal" font-weight="normal" stroke="none" text-decoration="none" x="1837" y="2381">+getAll(): List&lt;Game&gt;</text></g></g><g transform="translate(-1310,-1766) scale(1,1)"><g><path fill="none" stroke="none"/><text fill="#ffffff" font-family="Arial" font-size="13px" font-style="normal" font-weight="normal" stroke="none" text-decoration="none" x="1837" y="2396">+getFeatured(): List&lt;Game&gt;</text></g></g><g transform="translate(-1310,-1766) scale(1,1)"><g><path fill="none" stroke="none"/><text fill="#ffffff" font-family="Arial" font-size="13px" font-style="normal" font-weight="normal" stroke="none" text-decoration="none" x="1837" y="2411">+advancedSearch(gameTitle: string, genres: List&lt;uuid&gt;, developers: List&lt;uuid&gt;, publishers: List&lt;uuid&gt;, platforms: List&lt;uuid&gt;): List&lt;Game&gt;</text></g></g><g transform="translate(-1310,-1766) scale(1,1)"><g><path fill="none" stroke="none"/><text fill="#ffffff" font-family="Arial" font-size="13px" font-style="normal" font-weight="normal" stroke="none" text-decoration="none" x="1837" y="2426">+GameDBProxy(): GameDBProxy</text></g></g><g transform="translate(-1310,-1766) scale(1,1)"><g><path fill="none" stroke="none"/><text fill="#ffffff" font-family="Arial" font-size="13px" font-style="normal" font-weight="normal" stroke="none" text-decoration="none" x="1837" y="2441">+getPopular(): List&lt;Game&gt;</text></g></g><g transform="translate(-1310,-1766) scale(1,1)"><g><path fill="none" stroke="none"/><text fill="#ffffff" font-family="Arial" font-size="13px" font-style="normal" font-weight="normal" stroke="none" text-decoration="none" x="1837" y="2456">+delete(game: Game): void</text></g></g><g transform="translate(-1310,-1766) scale(1,1)"><g><path fill="none" stroke="none"/><text fill="#ffffff" font-family="Arial" font-size="13px" font-style="normal" font-weight="normal" stroke="none" text-decoration="none" x="1837" y="2471">+getByBacklogId(backlogId: uuid): List&lt;Game&gt;</text></g></g><g transform="translate(-1310,-1766) scale(1,1)"><path d="M 1600 2507 L 1600 2342 L 1832 2342" fill="none" stroke="#000000" stroke-dasharray="3" stroke-miterlimit="10"/></g><g transform="translate(-1310,-1766) scale(1,1)"><path d="M 1821.837325142376 2346.209517756016 L 1832 2342 L 1821.837325142376 2337.790482243984" fill="none" stroke="#000000" stroke-miterlimit="10"/></g><g transform="translate(-1310,-1766) scale(1,1)"><rect fill="#C0C0C0" height="203" opacity="0.2" stroke="none" width="1089.853515625" x="1847" y="2511"/></g><g transform="translate(-1310,-1766) scale(1,1)"><rect fill="#49ffe0" height="203" stroke="none" width="1089.853515625" x="1840" y="2504"/></g><g transform="translate(-1310,-1766) scale(1,1)"><path d="M 1840 2504 L 2929.853515625 2504 L 2929.853515625 2707 L 1840 2707 L 1840 2504 Z Z" fill="none" stroke="#000000" stroke-miterlimit="10"/></g><g transform="translate(-1310,-1766) scale(1,1)"><path d="M 1840 2542 L 2929.853515625 2542" fill="none" stroke="#000000" stroke-miterlimit="10"/></g><g transform="translate(-1310,-1766) scale(1,1)"><path d="M 1840 2670 L 2929.853515625 2670" fill="none" stroke="#000000" stroke-miterlimit="10"/></g><g transform="translate(-1310,-1766) scale(1,1)"><g><path fill="none" stroke="none"/><text fill="#000000" font-family="Arial" font-size="13px" font-style="normal" font-weight="normal" stroke="none" text-decoration="none" x="2349.871826171875" y="2520">«Boundary»</text></g></g><g transform="translate(-1310,-1766) scale(1,1)"><g><path fill="none" stroke="none"/><text fill="#000000" font-family="Arial" font-size="13px" font-style="normal" font-weight="bold" stroke="none" text-decoration="none" x="2352.05224609375" y="2535">GameCard</text></g></g><g transform="translate(-1310,-1766) scale(1,1)"><g><path fill="none" stroke="none"/><text fill="#000000" font-family="Arial" font-size="13px" font-style="normal" font-weight="normal" stroke="none" text-decoration="none" x="1845" y="2558">-gameId: uuid</text></g></g><g transform="translate(-1310,-1766) scale(1,1)"><g><path fill="none" stroke="none"/><text fill="#000000" font-family="Arial" font-size="13px" font-style="normal" font-weight="normal" stroke="none" text-decoration="none" x="1845" y="2573">-star: image</text></g></g><g transform="translate(-1310,-1766) scale(1,1)"><g><path fill="none" stroke="none"/><text fill="#000000" font-family="Arial" font-size="13px" font-style="normal" font-weight="normal" stroke="none" text-decoration="none" x="1845" y="2588">-gameTitle: string</text></g></g><g transform="translate(-1310,-1766) scale(1,1)"><g><path fill="none" stroke="none"/><text fill="#000000" font-family="Arial" font-size="13px" font-style="normal" font-weight="normal" stroke="none" text-decoration="none" x="1845" y="2603">-gameReleaseDate: date</text></g></g><g transform="translate(-1310,-1766) scale(1,1)"><g><path fill="none" stroke="none"/><text fill="#000000" font-family="Arial" font-size="13px" font-style="normal" font-weight="normal" stroke="none" text-decoration="none" x="1845" y="2618">-gameCoverImage: image</text></g></g><g transform="translate(-1310,-1766) scale(1,1)"><g><path fill="none" stroke="none"/><text fill="#000000" font-family="Arial" font-size="13px" font-style="normal" font-weight="normal" stroke="none" text-decoration="none" x="1845" y="2633">-gameRating: float</text></g></g><g transform="translate(-1310,-1766) scale(1,1)"><g><path fill="none" stroke="none"/><text fill="#000000" font-family="Arial" font-size="13px" font-style="normal" font-weight="normal" stroke="none" text-decoration="none" x="1845" y="2648">-genreNames: List&lt;string&gt;</text></g></g><g transform="translate(-1310,-1766) scale(1,1)"><g><path fill="none" stroke="none"/><text fill="#000000" font-family="Arial" font-size="13px" font-style="normal" font-weight="normal" stroke="none" text-decoration="none" x="1845" y="2663">-cardButton: Button</text></g></g><g transform="translate(-1310,-1766) scale(1,1)"><g><path fill="none" stroke="none"/><text fill="#000000" font-family="Arial" font-size="13px" font-style="normal" font-weight="normal" stroke="none" text-decoration="none" x="1845" y="2686">+GameCard(gameId: uuid, star: image, gameTitle: string, gameReleaseDate: date, gameCoverImage: image, gameRating: float, genreNames: List&lt;string&gt;, cardButton: Button): GameCard</text></g></g><g transform="translate(-1310,-1766) scale(1,1)"><g><path fill="none" stroke="none"/><text fill="#000000" font-family="Arial" font-size="13px" font-style="normal" font-weight="normal" stroke="none" text-decoration="none" x="1845" y="2701">+clickOnCard(gameId: uuid): void</text></g></g><g transform="translate(-1310,-1766) scale(1,1)"><path d="M 2656 2504 L 2656 2248 L 2552 2248 L 2552 1982" fill="none" stroke="#000000" stroke-miterlimit="10"/></g><g transform="translate(-1310,-1766) scale(1,1)"><path d="M 2556.209517756016 1992.162674857624 L 2552 1982 L 2547.790482243984 1992.162674857624" fill="none" stroke="#000000" stroke-miterlimit="10"/></g><g transform="translate(-1310,-1766) scale(1,1)"><g><path fill="none" stroke="none"/><text fill="#000000" font-family="Arial" font-size="13px" font-style="normal" font-weight="normal" stroke="none" text-decoration="none" x="2656.5" y="2487">0...*</text></g></g><g transform="translate(-1310,-1766) scale(1,1)"><g><path fill="none" stroke="none"/><text fill="#000000" font-family="Arial" font-size="13px" font-style="normal" font-weight="normal" stroke="none" text-decoration="none" x="2560.5" y="2008">1</text></g></g><g transform="translate(-1310,-1766) scale(1,1)"><rect fill="#C0C0C0" height="160" opacity="0.2" stroke="none" width="281.0732421875" x="2687" y="2279"/></g><g transform="translate(-1310,-1766) scale(1,1)"><rect fill="#ff5656" height="160" stroke="none" width="281.0732421875" x="2680" y="2272"/></g><g transform="translate(-1310,-1766) scale(1,1)"><path d="M 2680 2272 L 2961.0732421875 2272 L 2961.0732421875 2432 L 2680 2432 L 2680 2272 Z Z" fill="none" stroke="#000000" stroke-miterlimit="10"/></g><g transform="translate(-1310,-1766) scale(1,1)"><path d="M 2680 2310 L 2961.0732421875 2310" fill="none" stroke="#000000" stroke-miterlimit="10"/></g><g transform="translate(-1310,-1766) scale(1,1)"><path d="M 2680 2320 L 2961.0732421875 2320" fill="none" stroke="#000000" stroke-miterlimit="10"/></g><g transform="translate(-1310,-1766) scale(1,1)"><g><path fill="none" stroke="none"/><text fill="#ffffd8" font-family="Arial" font-size="13px" font-style="normal" font-weight="normal" stroke="none" text-decoration="none" x="2785.12939453125" y="2288">«Controller»</text></g></g><g transform="translate(-1310,-1766) scale(1,1)"><g><path fill="none" stroke="none"/><text fill="#ffffd8" font-family="Arial" font-size="13px" font-style="normal" font-weight="bold" stroke="none" text-decoration="none" x="2771.415283203125" y="2303">GameController</text></g></g><g transform="translate(-1310,-1766) scale(1,1)"><g><path fill="none" stroke="none"/><text fill="#ffffd8" font-family="Arial" font-size="13px" font-style="normal" font-weight="normal" stroke="none" text-decoration="none" x="2685" y="2336">+GameController(): GameController</text></g></g><g transform="translate(-1310,-1766) scale(1,1)"><g><path fill="none" stroke="none"/><text fill="#ffffd8" font-family="Arial" font-size="13px" font-style="normal" font-weight="normal" stroke="none" text-decoration="none" x="2685" y="2351">+createGame(game: Game): void</text></g></g><g transform="translate(-1310,-1766) scale(1,1)"><g><path fill="none" stroke="none"/><text fill="#ffffd8" font-family="Arial" font-size="13px" font-style="normal" font-weight="normal" stroke="none" text-decoration="none" x="2685" y="2366">+updateGame(game: Game): void</text></g></g><g transform="translate(-1310,-1766) scale(1,1)"><g><path fill="none" stroke="none"/><text fill="#ffffd8" font-family="Arial" font-size="13px" font-style="normal" font-weight="normal" stroke="none" text-decoration="none" x="2685" y="2381">+detailsPage(gameId: uuid): GameDetailsPage</text></g></g><g transform="translate(-1310,-1766) scale(1,1)"><path d="M 2906 2207 L 2868 2271" fill="none" stroke="#000000" stroke-dasharray="3" stroke-miterlimit="10"/></g><g transform="translate(-1310,-1766) scale(1,1)"><path d="M 2869.568865548906 2260.112453862809 L 2868 2271 L 2876.8080131724905 2264.4106977643123" fill="none" stroke="#000000" stroke-miterlimit="10"/></g><g transform="translate(-1310,-1766) scale(1,1)"><g><path fill="none" stroke="none"/><text fill="#000000" font-family="Arial" font-size="13px" font-style="normal" font-weight="normal" stroke="none" text-decoration="none" x="2694.5" y="2245">+clickOnCard calls detailsPage</text></g></g></g></svg>