<?xml version="1.0" encoding="UTF-8" standalone="no"?><svg xmlns="http://www.w3.org/2000/svg" xmlns:xlink="http://www.w3.org/1999/xlink" height="1244" version="1.1" width="1876"><defs/><g><g transform="translate(-886,-350) scale(1,1)"><rect fill="#C0C0C0" height="15" opacity="0.2" stroke="none" width="742.4000000000001" x="903" y="367"/></g><g transform="translate(-886,-350) scale(1,1)"><rect fill="#C0C0C0" height="1210" opacity="0.2" stroke="none" width="1856" x="903" y="381"/></g><g transform="translate(-886,-350) scale(1,1)"><rect fill="#ffffff" height="1209" stroke="none" width="1856" x="896" y="375"/></g><g transform="translate(-886,-350) scale(1,1)"><path d="M 896 375 L 2752 375 L 2752 1584 L 896 1584 L 896 375 Z Z" fill="none" stroke="#000000" stroke-miterlimit="10"/></g><g transform="translate(-886,-350) scale(1,1)"><rect fill="#ffffff" height="15" stroke="none" width="742.4000000000001" x="896" y="360"/></g><g transform="translate(-886,-350) scale(1,1)"><path d="M 896 360 L 1638.4 360 L 1638.4 375 L 896 375 L 896 360 Z Z" fill="none" stroke="#000000" stroke-miterlimit="10"/></g><g transform="translate(-886,-350) scale(1,1)"><rect fill="#ffffff" height="1210" stroke="none" width="1856" x="896" y="374"/></g><g transform="translate(-886,-350) scale(1,1)"><path d="M 896 374 L 2752 374 L 2752 1584 L 896 1584 L 896 374 Z Z" fill="none" stroke="#000000" stroke-miterlimit="10"/></g><g transform="translate(-886,-350) scale(1,1)"><g><path fill="none" stroke="none"/><text fill="#000000" font-family="Arial" font-size="13px" font-style="normal" font-weight="bold" stroke="none" text-decoration="none" x="1773.412353515625" y="393">Review Package</text></g></g><g transform="translate(-886,-350) scale(1,1)"><path d="M 1951 921 L 1297 895" fill="none" stroke="#000000" stroke-miterlimit="10"/></g><g transform="translate(-886,-350) scale(1,1)"><path d="M 1307.32187213935 891.1975066681309 L 1297 895 L 1306.987434604656 899.6098969638938" fill="none" stroke="#000000" stroke-miterlimit="10"/></g><g transform="translate(-886,-350) scale(1,1)"><g><path fill="none" stroke="none"/><text fill="#000000" font-family="Arial" font-size="13px" font-style="normal" font-weight="normal" stroke="none" text-decoration="none" x="1925.5" y="912">1</text></g></g><g transform="translate(-886,-350) scale(1,1)"><g><path fill="none" stroke="none"/><text fill="#000000" font-family="Arial" font-size="13px" font-style="normal" font-weight="normal" stroke="none" text-decoration="none" x="1315.5" y="888">1</text></g></g><g transform="translate(-886,-350) scale(1,1)"><path d="M 1951 855 L 1763 771" fill="none" stroke="#000000" stroke-miterlimit="10"/></g><g transform="translate(-886,-350) scale(1,1)"><path d="M 1773.9958416033467 771.3024358347019 L 1763 771 L 1770.5613797329881 778.989088592171" fill="none" stroke="#000000" stroke-miterlimit="10"/></g><g transform="translate(-886,-350) scale(1,1)"><g><path fill="none" stroke="none"/><text fill="#000000" font-family="Arial" font-size="13px" font-style="normal" font-weight="normal" stroke="none" text-decoration="none" x="1924.5" y="839">0...*</text></g></g><g transform="translate(-886,-350) scale(1,1)"><g><path fill="none" stroke="none"/><text fill="#000000" font-family="Arial" font-size="13px" font-style="normal" font-weight="normal" stroke="none" text-decoration="none" x="1798.5" y="780">1</text></g></g><g transform="translate(-886,-350) scale(1,1)"><rect fill="#C0C0C0" height="265" opacity="0.2" stroke="none" width="1590.32177734375" x="1023" y="1303"/></g><g transform="translate(-886,-350) scale(1,1)"><rect fill="#49ffe0" height="265" stroke="none" width="1590.32177734375" x="1016" y="1296"/></g><g transform="translate(-886,-350) scale(1,1)"><path d="M 1016 1296 L 2606.32177734375 1296 L 2606.32177734375 1561 L 1016 1561 L 1016 1296 Z Z" fill="none" stroke="#000000" stroke-miterlimit="10"/></g><g transform="translate(-886,-350) scale(1,1)"><path d="M 1016 1321 L 2606.32177734375 1321" fill="none" stroke="#000000" stroke-miterlimit="10"/></g><g transform="translate(-886,-350) scale(1,1)"><path d="M 1016 1509 L 2606.32177734375 1509" fill="none" stroke="#000000" stroke-miterlimit="10"/></g><g transform="translate(-886,-350) scale(1,1)"><g><path fill="none" stroke="none"/><text fill="#000000" font-family="Arial" font-size="13px" font-style="normal" font-weight="bold" stroke="none" text-decoration="none" x="1767.444580078125" y="1314">ReviewDetails</text></g></g><g transform="translate(-886,-350) scale(1,1)"><g><path fill="none" stroke="none"/><text fill="#000000" font-family="Arial" font-size="13px" font-style="normal" font-weight="normal" stroke="none" text-decoration="none" x="1021" y="1337">-userId: uuid</text></g></g><g transform="translate(-886,-350) scale(1,1)"><g><path fill="none" stroke="none"/><text fill="#000000" font-family="Arial" font-size="13px" font-style="normal" font-weight="normal" stroke="none" text-decoration="none" x="1021" y="1352">-reviewId: uuid</text></g></g><g transform="translate(-886,-350) scale(1,1)"><g><path fill="none" stroke="none"/><text fill="#000000" font-family="Arial" font-size="13px" font-style="normal" font-weight="normal" stroke="none" text-decoration="none" x="1021" y="1367">-rating: int[1..5]</text></g></g><g transform="translate(-886,-350) scale(1,1)"><g><path fill="none" stroke="none"/><text fill="#000000" font-family="Arial" font-size="13px" font-style="normal" font-weight="normal" stroke="none" text-decoration="none" x="1021" y="1382">-ratingInStars: image</text></g></g><g transform="translate(-886,-350) scale(1,1)"><g><path fill="none" stroke="none"/><text fill="#000000" font-family="Arial" font-size="13px" font-style="normal" font-weight="normal" stroke="none" text-decoration="none" x="1021" y="1397">-userFirstName: string</text></g></g><g transform="translate(-886,-350) scale(1,1)"><g><path fill="none" stroke="none"/><text fill="#000000" font-family="Arial" font-size="13px" font-style="normal" font-weight="normal" stroke="none" text-decoration="none" x="1021" y="1412">-userUsername: string</text></g></g><g transform="translate(-886,-350) scale(1,1)"><g><path fill="none" stroke="none"/><text fill="#000000" font-family="Arial" font-size="13px" font-style="normal" font-weight="normal" stroke="none" text-decoration="none" x="1021" y="1427">-userLastName: string</text></g></g><g transform="translate(-886,-350) scale(1,1)"><g><path fill="none" stroke="none"/><text fill="#000000" font-family="Arial" font-size="13px" font-style="normal" font-weight="normal" stroke="none" text-decoration="none" x="1021" y="1442">-userThumbnail: image</text></g></g><g transform="translate(-886,-350) scale(1,1)"><g><path fill="none" stroke="none"/><text fill="#000000" font-family="Arial" font-size="13px" font-style="normal" font-weight="normal" stroke="none" text-decoration="none" x="1021" y="1457">-reviewDetails: char[1..500]</text></g></g><g transform="translate(-886,-350) scale(1,1)"><g><path fill="none" stroke="none"/><text fill="#000000" font-family="Arial" font-size="13px" font-style="normal" font-weight="normal" stroke="none" text-decoration="none" x="1021" y="1472">-createdAt: date</text></g></g><g transform="translate(-886,-350) scale(1,1)"><g><path fill="none" stroke="none"/><text fill="#000000" font-family="Arial" font-size="13px" font-style="normal" font-weight="normal" stroke="none" text-decoration="none" x="1021" y="1487">-deleteButton: Button</text></g></g><g transform="translate(-886,-350) scale(1,1)"><g><path fill="none" stroke="none"/><text fill="#000000" font-family="Arial" font-size="13px" font-style="normal" font-weight="normal" stroke="none" text-decoration="none" x="1021" y="1502">-editButton: Button</text></g></g><g transform="translate(-886,-350) scale(1,1)"><g><path fill="none" stroke="none"/><text fill="#000000" font-family="Arial" font-size="13px" font-style="normal" font-weight="normal" stroke="none" text-decoration="none" x="1021" y="1525">+ReviewDetails(userId: uuid, reviewId: uuid, rating: int[1..5], ratingInStars: image, userFirstName: string, userLastName: string, userUsername: string, reviewDetails: char[1...500], userThumbnail: image, createdAt: date, deleteButton: Button, editButton: Button): ReviewDetails</text></g></g><g transform="translate(-886,-350) scale(1,1)"><g><path fill="none" stroke="none"/><text fill="#000000" font-family="Arial" font-size="13px" font-style="normal" font-weight="normal" stroke="none" text-decoration="none" x="1021" y="1540">+clickOnDelete(reviewId: uuid): void</text></g></g><g transform="translate(-886,-350) scale(1,1)"><g><path fill="none" stroke="none"/><text fill="#000000" font-family="Arial" font-size="13px" font-style="normal" font-weight="normal" stroke="none" text-decoration="none" x="1021" y="1555">+clickOnEdit(reviewId: uuid): void</text></g></g><g transform="translate(-886,-350) scale(1,1)"><path d="M 2200 1008 L 2200 1296" fill="none" stroke="#000000" stroke-miterlimit="10"/></g><g transform="translate(-886,-350) scale(1,1)"><g><path fill="none" stroke="none"/><text fill="#000000" font-family="Arial" font-size="13px" font-style="normal" font-weight="normal" stroke="none" text-decoration="none" x="2179.5" y="1044">1</text></g></g><g transform="translate(-886,-350) scale(1,1)"><g><path fill="none" stroke="none"/><text fill="#000000" font-family="Arial" font-size="13px" font-style="normal" font-weight="normal" stroke="none" text-decoration="none" x="2183.5" y="1279">1</text></g></g><g transform="translate(-886,-350) scale(1,1)"><rect fill="#C0C0C0" height="188" opacity="0.2" stroke="none" width="1098.994140625" x="983" y="1055"/></g><g transform="translate(-886,-350) scale(1,1)"><rect fill="#49ffe0" height="188" stroke="none" width="1098.994140625" x="976" y="1048"/></g><g transform="translate(-886,-350) scale(1,1)"><path d="M 976 1048 L 2074.994140625 1048 L 2074.994140625 1236 L 976 1236 L 976 1048 Z Z" fill="none" stroke="#000000" stroke-miterlimit="10"/></g><g transform="translate(-886,-350) scale(1,1)"><path d="M 976 1086 L 2074.994140625 1086" fill="none" stroke="#000000" stroke-miterlimit="10"/></g><g transform="translate(-886,-350) scale(1,1)"><path d="M 976 1199 L 2074.994140625 1199" fill="none" stroke="#000000" stroke-miterlimit="10"/></g><g transform="translate(-886,-350) scale(1,1)"><g><path fill="none" stroke="none"/><text fill="#000000" font-family="Arial" font-size="13px" font-style="normal" font-weight="normal" stroke="none" text-decoration="none" x="1490.442138671875" y="1064">«Boundary»</text></g></g><g transform="translate(-886,-350) scale(1,1)"><g><path fill="none" stroke="none"/><text fill="#000000" font-family="Arial" font-size="13px" font-style="normal" font-weight="bold" stroke="none" text-decoration="none" x="1467.3271484375" y="1079">CreateReviewPage</text></g></g><g transform="translate(-886,-350) scale(1,1)"><g><path fill="none" stroke="none"/><text fill="#000000" font-family="Arial" font-size="13px" font-style="normal" font-weight="normal" stroke="none" text-decoration="none" x="981" y="1102">-gameId: uuid</text></g></g><g transform="translate(-886,-350) scale(1,1)"><g><path fill="none" stroke="none"/><text fill="#000000" font-family="Arial" font-size="13px" font-style="normal" font-weight="normal" stroke="none" text-decoration="none" x="981" y="1117">-outlinedStars: image</text></g></g><g transform="translate(-886,-350) scale(1,1)"><g><path fill="none" stroke="none"/><text fill="#000000" font-family="Arial" font-size="13px" font-style="normal" font-weight="normal" stroke="none" text-decoration="none" x="981" y="1132">-filledStars: image</text></g></g><g transform="translate(-886,-350) scale(1,1)"><g><path fill="none" stroke="none"/><text fill="#000000" font-family="Arial" font-size="13px" font-style="normal" font-weight="normal" stroke="none" text-decoration="none" x="981" y="1147">-submitButton: Button</text></g></g><g transform="translate(-886,-350) scale(1,1)"><g><path fill="none" stroke="none"/><text fill="#000000" font-family="Arial" font-size="13px" font-style="normal" font-weight="normal" stroke="none" text-decoration="none" x="981" y="1162">-detailsForm: FormElement</text></g></g><g transform="translate(-886,-350) scale(1,1)"><g><path fill="none" stroke="none"/><text fill="#000000" font-family="Arial" font-size="13px" font-style="normal" font-weight="normal" stroke="none" text-decoration="none" x="981" y="1177">-rating: int[1..5]</text></g></g><g transform="translate(-886,-350) scale(1,1)"><g><path fill="none" stroke="none"/><text fill="#000000" font-family="Arial" font-size="13px" font-style="normal" font-weight="normal" stroke="none" text-decoration="none" x="981" y="1192">-createReviewLabel: string</text></g></g><g transform="translate(-886,-350) scale(1,1)"><g><path fill="none" stroke="none"/><text fill="#000000" font-family="Arial" font-size="13px" font-style="normal" font-weight="normal" stroke="none" text-decoration="none" x="981" y="1215">+CreateReviewPage(gameId: uuid, outlinedStars: image, filledStars: image, submitButton: Button, detailsForm: FormElement, rating: int[1..5], createReviewLabel: string): CreateReviewPage</text></g></g><g transform="translate(-886,-350) scale(1,1)"><g><path fill="none" stroke="none"/><text fill="#000000" font-family="Arial" font-size="13px" font-style="normal" font-weight="normal" stroke="none" text-decoration="none" x="981" y="1230">+submit(gameId: uuid, details: string, rating: int[1...5]): void</text></g></g><g transform="translate(-886,-350) scale(1,1)"><rect fill="#C0C0C0" height="160" opacity="0.2" stroke="none" width="328.7568359375" x="1959" y="855"/></g><g transform="translate(-886,-350) scale(1,1)"><rect fill="#ff5656" height="160" stroke="none" width="328.7568359375" x="1952" y="848"/></g><g transform="translate(-886,-350) scale(1,1)"><path d="M 1952 848 L 2280.7568359375 848 L 2280.7568359375 1008 L 1952 1008 L 1952 848 Z Z" fill="none" stroke="#000000" stroke-miterlimit="10"/></g><g transform="translate(-886,-350) scale(1,1)"><path d="M 1952 886 L 2280.7568359375 886" fill="none" stroke="#000000" stroke-miterlimit="10"/></g><g transform="translate(-886,-350) scale(1,1)"><path d="M 1952 896 L 2280.7568359375 896" fill="none" stroke="#000000" stroke-miterlimit="10"/></g><g transform="translate(-886,-350) scale(1,1)"><g><path fill="none" stroke="none"/><text fill="#ffffff" font-family="Arial" font-size="13px" font-style="normal" font-weight="normal" stroke="none" text-decoration="none" x="2080.97119140625" y="864">«Controller»</text></g></g><g transform="translate(-886,-350) scale(1,1)"><g><path fill="none" stroke="none"/><text fill="#ffffff" font-family="Arial" font-size="13px" font-style="normal" font-weight="bold" stroke="none" text-decoration="none" x="2062.921630859375" y="879">ReviewController</text></g></g><g transform="translate(-886,-350) scale(1,1)"><g><path fill="none" stroke="none"/><text fill="#ffffff" font-family="Arial" font-size="13px" font-style="normal" font-weight="normal" stroke="none" text-decoration="none" x="1957" y="912">+ReviewController(): ReviewController</text></g></g><g transform="translate(-886,-350) scale(1,1)"><g><path fill="none" stroke="none"/><text fill="#ffffff" font-family="Arial" font-size="13px" font-style="normal" font-weight="normal" stroke="none" text-decoration="none" x="1957" y="927">+createReview(review: Review): void</text></g></g><g transform="translate(-886,-350) scale(1,1)"><g><path fill="none" stroke="none"/><text fill="#ffffff" font-family="Arial" font-size="13px" font-style="normal" font-weight="normal" stroke="none" text-decoration="none" x="1957" y="942">+updateReview(review: Review): void</text></g></g><g transform="translate(-886,-350) scale(1,1)"><g><path fill="none" stroke="none"/><text fill="#ffffff" font-family="Arial" font-size="13px" font-style="normal" font-weight="normal" stroke="none" text-decoration="none" x="1957" y="957">+deleteReview(review: Review): void</text></g></g><g transform="translate(-886,-350) scale(1,1)"><g><path fill="none" stroke="none"/><text fill="#ffffff" font-family="Arial" font-size="13px" font-style="normal" font-weight="normal" stroke="none" text-decoration="none" x="1957" y="972">+detailsPage(reviewId: uuid): ReviewDetailsPage</text></g></g><g transform="translate(-886,-350) scale(1,1)"><g><path fill="none" stroke="none"/><text fill="#ffffff" font-family="Arial" font-size="13px" font-style="normal" font-weight="normal" stroke="none" text-decoration="none" x="1957" y="987">+createReviewPage(gameId: uuid): CreateReviewPage</text></g></g><g transform="translate(-886,-350) scale(1,1)"><g><path fill="none" stroke="none"/><text fill="#ffffff" font-family="Arial" font-size="13px" font-style="normal" font-weight="normal" stroke="none" text-decoration="none" x="1957" y="1002">+editReviewPage(reviewId: uuid): editReviewPage</text></g></g><g transform="translate(-886,-350) scale(1,1)"><rect fill="#C0C0C0" height="145" opacity="0.2" stroke="none" width="351.84326171875" x="951" y="823"/></g><g transform="translate(-886,-350) scale(1,1)"><rect fill="#ff00ff" height="145" stroke="none" width="351.84326171875" x="944" y="816"/></g><g transform="translate(-886,-350) scale(1,1)"><path d="M 944 816 L 1295.84326171875 816 L 1295.84326171875 961 L 944 961 L 944 816 Z Z" fill="none" stroke="#000000" stroke-miterlimit="10"/></g><g transform="translate(-886,-350) scale(1,1)"><path d="M 944 854 L 1295.84326171875 854" fill="none" stroke="#000000" stroke-miterlimit="10"/></g><g transform="translate(-886,-350) scale(1,1)"><path d="M 944 864 L 1295.84326171875 864" fill="none" stroke="#000000" stroke-miterlimit="10"/></g><g transform="translate(-886,-350) scale(1,1)"><g><path fill="none" stroke="none"/><text fill="#ffffff" font-family="Arial" font-size="13px" font-style="normal" font-weight="normal" stroke="none" text-decoration="none" x="1084.86669921875" y="832">«Boundary»</text></g></g><g transform="translate(-886,-350) scale(1,1)"><g><path fill="none" stroke="none"/><text fill="#ffffff" font-family="Arial" font-size="13px" font-style="normal" font-weight="bold" stroke="none" text-decoration="none" x="1070.067138671875" y="847">ReviewDBProxy</text></g></g><g transform="translate(-886,-350) scale(1,1)"><g><path fill="none" stroke="none"/><text fill="#ffffff" font-family="Arial" font-size="13px" font-style="normal" font-weight="normal" stroke="none" text-decoration="none" x="949" y="880">+getByGame(gameId: uuid): List&lt;Review&gt;</text></g></g><g transform="translate(-886,-350) scale(1,1)"><g><path fill="none" stroke="none"/><text fill="#ffffff" font-family="Arial" font-size="13px" font-style="normal" font-weight="normal" stroke="none" text-decoration="none" x="949" y="895">+create(review: Review): void</text></g></g><g transform="translate(-886,-350) scale(1,1)"><g><path fill="none" stroke="none"/><text fill="#ffffff" font-family="Arial" font-size="13px" font-style="normal" font-weight="normal" stroke="none" text-decoration="none" x="949" y="910">+update(review: Review): void</text></g></g><g transform="translate(-886,-350) scale(1,1)"><g><path fill="none" stroke="none"/><text fill="#ffffff" font-family="Arial" font-size="13px" font-style="normal" font-weight="normal" stroke="none" text-decoration="none" x="949" y="925">+delete(review: Review): void</text></g></g><g transform="translate(-886,-350) scale(1,1)"><g><path fill="none" stroke="none"/><text fill="#ffffff" font-family="Arial" font-size="13px" font-style="normal" font-weight="normal" stroke="none" text-decoration="none" x="949" y="940">+getById(reviewId: uuid): Review</text></g></g><g transform="translate(-886,-350) scale(1,1)"><g><path fill="none" stroke="none"/><text fill="#ffffff" font-family="Arial" font-size="13px" font-style="normal" font-weight="normal" stroke="none" text-decoration="none" x="949" y="955">+getByUesr(userId: uuid)</text></g></g><g transform="translate(-886,-350) scale(1,1)"><path d="M 1951 988 L 1787 1047" fill="none" stroke="#000000" stroke-miterlimit="10"/></g><g transform="translate(-886,-350) scale(1,1)"><g><path fill="none" stroke="none"/><text fill="#000000" font-family="Arial" font-size="13px" font-style="normal" font-weight="normal" stroke="none" text-decoration="none" x="1922.5" y="988">1</text></g></g><g transform="translate(-886,-350) scale(1,1)"><g><path fill="none" stroke="none"/><text fill="#000000" font-family="Arial" font-size="13px" font-style="normal" font-weight="normal" stroke="none" text-decoration="none" x="1799.5" y="1032">1</text></g></g><g transform="translate(-886,-350) scale(1,1)"><path d="M 2153 847 L 2234 670" fill="none" stroke="#000000" stroke-miterlimit="10"/></g><g transform="translate(-886,-350) scale(1,1)"><g><path fill="none" stroke="none"/><text fill="#000000" font-family="Arial" font-size="13px" font-style="normal" font-weight="normal" stroke="none" text-decoration="none" x="2169.5" y="837">1</text></g></g><g transform="translate(-886,-350) scale(1,1)"><g><path fill="none" stroke="none"/><text fill="#000000" font-family="Arial" font-size="13px" font-style="normal" font-weight="normal" stroke="none" text-decoration="none" x="2232.5" y="699">1</text></g></g><g transform="translate(-886,-350) scale(1,1)"><rect fill="#C0C0C0" height="173" opacity="0.2" stroke="none" width="900.97900390625" x="1831" y="503"/></g><g transform="translate(-886,-350) scale(1,1)"><rect fill="#49ffe0" height="173" stroke="none" width="900.97900390625" x="1824" y="496"/></g><g transform="translate(-886,-350) scale(1,1)"><path d="M 1824 496 L 2724.97900390625 496 L 2724.97900390625 669 L 1824 669 L 1824 496 Z Z" fill="none" stroke="#000000" stroke-miterlimit="10"/></g><g transform="translate(-886,-350) scale(1,1)"><path d="M 1824 534 L 2724.97900390625 534" fill="none" stroke="#000000" stroke-miterlimit="10"/></g><g transform="translate(-886,-350) scale(1,1)"><path d="M 1824 632 L 2724.97900390625 632" fill="none" stroke="#000000" stroke-miterlimit="10"/></g><g transform="translate(-886,-350) scale(1,1)"><g><path fill="none" stroke="none"/><text fill="#000000" font-family="Arial" font-size="13px" font-style="normal" font-weight="normal" stroke="none" text-decoration="none" x="2239.4345703125" y="512">«Boundary»</text></g></g><g transform="translate(-886,-350) scale(1,1)"><g><path fill="none" stroke="none"/><text fill="#000000" font-family="Arial" font-size="13px" font-style="normal" font-weight="bold" stroke="none" text-decoration="none" x="2224.2763671875" y="527">EditReviewPage</text></g></g><g transform="translate(-886,-350) scale(1,1)"><g><path fill="none" stroke="none"/><text fill="#000000" font-family="Arial" font-size="13px" font-style="normal" font-weight="normal" stroke="none" text-decoration="none" x="1829" y="550">-reviewId: uuid</text></g></g><g transform="translate(-886,-350) scale(1,1)"><g><path fill="none" stroke="none"/><text fill="#000000" font-family="Arial" font-size="13px" font-style="normal" font-weight="normal" stroke="none" text-decoration="none" x="1829" y="565">-outlinedStars: image</text></g></g><g transform="translate(-886,-350) scale(1,1)"><g><path fill="none" stroke="none"/><text fill="#000000" font-family="Arial" font-size="13px" font-style="normal" font-weight="normal" stroke="none" text-decoration="none" x="1829" y="580">-filledStars: image</text></g></g><g transform="translate(-886,-350) scale(1,1)"><g><path fill="none" stroke="none"/><text fill="#000000" font-family="Arial" font-size="13px" font-style="normal" font-weight="normal" stroke="none" text-decoration="none" x="1829" y="595">-detailsForm: FormElement</text></g></g><g transform="translate(-886,-350) scale(1,1)"><g><path fill="none" stroke="none"/><text fill="#000000" font-family="Arial" font-size="13px" font-style="normal" font-weight="normal" stroke="none" text-decoration="none" x="1829" y="610">-rating: int[1...5]</text></g></g><g transform="translate(-886,-350) scale(1,1)"><g><path fill="none" stroke="none"/><text fill="#000000" font-family="Arial" font-size="13px" font-style="normal" font-weight="normal" stroke="none" text-decoration="none" x="1829" y="625">-editReviewLabel: string</text></g></g><g transform="translate(-886,-350) scale(1,1)"><g><path fill="none" stroke="none"/><text fill="#000000" font-family="Arial" font-size="13px" font-style="normal" font-weight="normal" stroke="none" text-decoration="none" x="1829" y="648">+EditReview(reviewId: uuid, outlinedStars: image, filledStars: image, detailsForm: FormElement, rating: int[1...5], editReviewLabel: string): EditReviewPage</text></g></g><g transform="translate(-886,-350) scale(1,1)"><g><path fill="none" stroke="none"/><text fill="#000000" font-family="Arial" font-size="13px" font-style="normal" font-weight="normal" stroke="none" text-decoration="none" x="1829" y="663">+submit(reviewId, details: string, rating: int[1...5]): void</text></g></g><g transform="translate(-886,-350) scale(1,1)"><rect fill="#C0C0C0" height="338" opacity="0.2" stroke="none" width="778.919921875" x="999" y="439"/></g><g transform="translate(-886,-350) scale(1,1)"><rect fill="#2b71ff" height="338" stroke="none" width="778.919921875" x="992" y="432"/></g><g transform="translate(-886,-350) scale(1,1)"><path d="M 992 432 L 1770.919921875 432 L 1770.919921875 770 L 992 770 L 992 432 Z Z" fill="none" stroke="#000000" stroke-miterlimit="10"/></g><g transform="translate(-886,-350) scale(1,1)"><path d="M 992 470 L 1770.919921875 470" fill="none" stroke="#000000" stroke-miterlimit="10"/></g><g transform="translate(-886,-350) scale(1,1)"><path d="M 992 598 L 1770.919921875 598" fill="none" stroke="#000000" stroke-miterlimit="10"/></g><g transform="translate(-886,-350) scale(1,1)"><g><path fill="none" stroke="none"/><text fill="#ffffff" font-family="Arial" font-size="13px" font-style="normal" font-weight="normal" stroke="none" text-decoration="none" x="1357.9736328125" y="448">«Entity»</text></g></g><g transform="translate(-886,-350) scale(1,1)"><g><path fill="none" stroke="none"/><text fill="#ffffff" font-family="Arial" font-size="13px" font-style="normal" font-weight="bold" stroke="none" text-decoration="none" x="1359.05908203125" y="463">Review</text></g></g><g transform="translate(-886,-350) scale(1,1)"><g><path fill="none" stroke="none"/><text fill="#ffffff" font-family="Arial" font-size="13px" font-style="normal" font-weight="normal" stroke="none" text-decoration="none" x="997" y="486">-id: uuid</text></g></g><g transform="translate(-886,-350) scale(1,1)"><g><path fill="none" stroke="none"/><text fill="#ffffff" font-family="Arial" font-size="13px" font-style="normal" font-weight="normal" stroke="none" text-decoration="none" x="997" y="501">-rating: int[1...5]</text></g></g><g transform="translate(-886,-350) scale(1,1)"><g><path fill="none" stroke="none"/><text fill="#ffffff" font-family="Arial" font-size="13px" font-style="normal" font-weight="normal" stroke="none" text-decoration="none" x="997" y="516">-gameId: uuid</text></g></g><g transform="translate(-886,-350) scale(1,1)"><g><path fill="none" stroke="none"/><text fill="#ffffff" font-family="Arial" font-size="13px" font-style="normal" font-weight="normal" stroke="none" text-decoration="none" x="997" y="531">-game: Game</text></g></g><g transform="translate(-886,-350) scale(1,1)"><g><path fill="none" stroke="none"/><text fill="#ffffff" font-family="Arial" font-size="13px" font-style="normal" font-weight="normal" stroke="none" text-decoration="none" x="997" y="546">-userId: uuid</text></g></g><g transform="translate(-886,-350) scale(1,1)"><g><path fill="none" stroke="none"/><text fill="#ffffff" font-family="Arial" font-size="13px" font-style="normal" font-weight="normal" stroke="none" text-decoration="none" x="997" y="561">-user: User</text></g></g><g transform="translate(-886,-350) scale(1,1)"><g><path fill="none" stroke="none"/><text fill="#ffffff" font-family="Arial" font-size="13px" font-style="normal" font-weight="normal" stroke="none" text-decoration="none" x="997" y="576">-details: char[1....500]</text></g></g><g transform="translate(-886,-350) scale(1,1)"><g><path fill="none" stroke="none"/><text fill="#ffffff" font-family="Arial" font-size="13px" font-style="normal" font-weight="normal" stroke="none" text-decoration="none" x="997" y="591">-createdAt: date</text></g></g><g transform="translate(-886,-350) scale(1,1)"><g><path fill="none" stroke="none"/><text fill="#ffffff" font-family="Arial" font-size="13px" font-style="normal" font-weight="normal" stroke="none" text-decoration="none" x="997" y="614">+Review(id: uuid, rating: int[1...5], gameId: uuid, game: Game, userId: uuid, user: User, details: char[1...500], createdAt: date): Review</text></g></g><g transform="translate(-886,-350) scale(1,1)"><g><path fill="none" stroke="none"/><text fill="#ffffff" font-family="Arial" font-size="13px" font-style="normal" font-weight="normal" stroke="none" text-decoration="none" x="997" y="629">+getId(): uuid</text></g></g><g transform="translate(-886,-350) scale(1,1)"><g><path fill="none" stroke="none"/><text fill="#ffffff" font-family="Arial" font-size="13px" font-style="normal" font-weight="normal" stroke="none" text-decoration="none" x="997" y="644">+setRating(int[1..4]): void</text></g></g><g transform="translate(-886,-350) scale(1,1)"><g><path fill="none" stroke="none"/><text fill="#ffffff" font-family="Arial" font-size="13px" font-style="normal" font-weight="normal" stroke="none" text-decoration="none" x="997" y="659">+getDetails(): char[1...500]</text></g></g><g transform="translate(-886,-350) scale(1,1)"><g><path fill="none" stroke="none"/><text fill="#ffffff" font-family="Arial" font-size="13px" font-style="normal" font-weight="normal" stroke="none" text-decoration="none" x="997" y="674">+setDetails(char[1..500]): void</text></g></g><g transform="translate(-886,-350) scale(1,1)"><g><path fill="none" stroke="none"/><text fill="#ffffff" font-family="Arial" font-size="13px" font-style="normal" font-weight="normal" stroke="none" text-decoration="none" x="997" y="689">+getGameId(): uuid</text></g></g><g transform="translate(-886,-350) scale(1,1)"><g><path fill="none" stroke="none"/><text fill="#ffffff" font-family="Arial" font-size="13px" font-style="normal" font-weight="normal" stroke="none" text-decoration="none" x="997" y="704">+setGameId(newGameId: uuid): void</text></g></g><g transform="translate(-886,-350) scale(1,1)"><g><path fill="none" stroke="none"/><text fill="#ffffff" font-family="Arial" font-size="13px" font-style="normal" font-weight="normal" stroke="none" text-decoration="none" x="997" y="719">+getUserId(): uuid</text></g></g><g transform="translate(-886,-350) scale(1,1)"><g><path fill="none" stroke="none"/><text fill="#ffffff" font-family="Arial" font-size="13px" font-style="normal" font-weight="normal" stroke="none" text-decoration="none" x="997" y="734">+setUserId(newUserId: uuid): void</text></g></g><g transform="translate(-886,-350) scale(1,1)"><g><path fill="none" stroke="none"/><text fill="#ffffff" font-family="Arial" font-size="13px" font-style="normal" font-weight="normal" stroke="none" text-decoration="none" x="997" y="749">+getCreatedAt(): date</text></g></g><g transform="translate(-886,-350) scale(1,1)"><g><path fill="none" stroke="none"/><text fill="#ffffff" font-family="Arial" font-size="13px" font-style="normal" font-weight="normal" stroke="none" text-decoration="none" x="997" y="764">+setCreatedAt(createdAt: date): void</text></g></g></g></svg>