<?xml version="1.0" encoding="UTF-8" standalone="no"?><svg xmlns="http://www.w3.org/2000/svg" xmlns:xlink="http://www.w3.org/1999/xlink" height="597" version="1.1" width="586.23876953125"><defs/><g><g transform="translate(-566,-366) scale(1,1)"><path d="M 914 392.5 C 914 387.2532944 918.2532944 383 923.5 383 C 928.7467056 383 933 387.2532944 933 392.5 C 933 397.7467056 928.7467056 402 923.5 402 C 918.2532944 402 914 397.7467056 914 392.5 Z" fill="#C0C0C0" opacity="0.2" stroke="none"/></g><g transform="translate(-566,-366) scale(1,1)"><path d="M 907 385.5 C 907 380.2532944 911.2532944 376 916.5 376 C 921.7467056 376 926 380.2532944 926 385.5 C 926 390.7467056 921.7467056 395 916.5 395 C 911.2532944 395 907 390.7467056 907 385.5 Z" fill="#000000" stroke="none"/></g><g transform="translate(-566,-366) scale(1,1)"><path d="M 869 463 L 978.6689453125 463 Q 988.6689453125 463 988.6689453125 473 L 988.6689453125 493 Q 988.6689453125 503 978.6689453125 503 L 869 503 Q 859 503 859 493 L 859 473 Q 859 463 869 463 Z" fill="#C0C0C0" opacity="0.2" stroke="none"/></g><g transform="translate(-566,-366) scale(1,1)"><path d="M 862 456 L 971.6689453125 456 Q 981.6689453125 456 981.6689453125 466 L 981.6689453125 486 Q 981.6689453125 496 971.6689453125 496 L 862 496 Q 852 496 852 486 L 852 466 Q 852 456 862 456 Z" fill="#ffffff" stroke="none"/></g><g transform="translate(-566,-366) scale(1,1)"><path d="M 862 456 L 971.6689453125 456 Q 981.6689453125 456 981.6689453125 466 L 981.6689453125 486 Q 981.6689453125 496 971.6689453125 496 L 862 496 Q 852 496 852 486 L 852 466 Q 852 456 862 456 Z" fill="none" stroke="#000000" stroke-miterlimit="10"/></g><g transform="translate(-566,-366) scale(1,1)"><g><path fill="none" stroke="none"/><text fill="#000000" font-family="Arial" font-size="13px" font-style="normal" font-weight="bold" stroke="none" text-decoration="none" x="856.5" y="474">Display Game Page</text></g></g><g transform="translate(-566,-366) scale(1,1)"><path d="M 831 711 L 1016.193359375 711 Q 1026.193359375 711 1026.193359375 721 L 1026.193359375 741 Q 1026.193359375 751 1016.193359375 751 L 831 751 Q 821 751 821 741 L 821 721 Q 821 711 831 711 Z" fill="#C0C0C0" opacity="0.2" stroke="none"/></g><g transform="translate(-566,-366) scale(1,1)"><path d="M 824 704 L 1009.193359375 704 Q 1019.193359375 704 1019.193359375 714 L 1019.193359375 734 Q 1019.193359375 744 1009.193359375 744 L 824 744 Q 814 744 814 734 L 814 714 Q 814 704 824 704 Z" fill="#ffffff" stroke="none"/></g><g transform="translate(-566,-366) scale(1,1)"><path d="M 824 704 L 1009.193359375 704 Q 1019.193359375 704 1019.193359375 714 L 1019.193359375 734 Q 1019.193359375 744 1009.193359375 744 L 824 744 Q 814 744 814 734 L 814 714 Q 814 704 824 704 Z" fill="none" stroke="#000000" stroke-miterlimit="10"/></g><g transform="translate(-566,-366) scale(1,1)"><g><path fill="none" stroke="none"/><text fill="#000000" font-family="Arial" font-size="13px" font-style="normal" font-weight="bold" stroke="none" text-decoration="none" x="818.5" y="722">Click on Add To Backlog button</text></g></g><g transform="translate(-566,-366) scale(1,1)"><path d="M 819 798 L 1027.62255859375 798 Q 1037.62255859375 798 1037.62255859375 808 L 1037.62255859375 828 Q 1037.62255859375 838 1027.62255859375 838 L 819 838 Q 809 838 809 828 L 809 808 Q 809 798 819 798 Z" fill="#C0C0C0" opacity="0.2" stroke="none"/></g><g transform="translate(-566,-366) scale(1,1)"><path d="M 812 791 L 1020.62255859375 791 Q 1030.62255859375 791 1030.62255859375 801 L 1030.62255859375 821 Q 1030.62255859375 831 1020.62255859375 831 L 812 831 Q 802 831 802 821 L 802 801 Q 802 791 812 791 Z" fill="#ffffff" stroke="none"/></g><g transform="translate(-566,-366) scale(1,1)"><path d="M 812 791 L 1020.62255859375 791 Q 1030.62255859375 791 1030.62255859375 801 L 1030.62255859375 821 Q 1030.62255859375 831 1020.62255859375 831 L 812 831 Q 802 831 802 821 L 802 801 Q 802 791 812 791 Z" fill="none" stroke="#000000" stroke-miterlimit="10"/></g><g transform="translate(-566,-366) scale(1,1)"><g><path fill="none" stroke="none"/><text fill="#000000" font-family="Arial" font-size="13px" font-style="normal" font-weight="bold" stroke="none" text-decoration="none" x="806.5" y="809">Display Added to Backlog message</text></g></g><g transform="translate(-566,-366) scale(1,1)"><path d="M 912 576.5 L 923.5 567 L 934 576.5 L 923.5 585 L 912 576.5" fill="#C0C0C0" opacity="0.2" stroke="none"/></g><g transform="translate(-566,-366) scale(1,1)"><path d="M 905 569 L 916 560 L 927 569 L 916 578 L 905 569" fill="#ffffff" stroke="none"/></g><g transform="translate(-566,-366) scale(1,1)"><path d="M 905 569 L 916 560 L 927 569 L 916 578 L 905 569 L 905 569" fill="none" stroke="#000000" stroke-miterlimit="10"/></g><g transform="translate(-566,-366) scale(1,1)"><path d="M 916 396 L 916 455" fill="none" stroke="#000000" stroke-miterlimit="10"/></g><g transform="translate(-566,-366) scale(1,1)"><path d="M 911.790482243984 444.83732514237585 L 916 455 L 920.209517756016 444.83732514237585" fill="none" stroke="#000000" stroke-miterlimit="10"/></g><g transform="translate(-566,-366) scale(1,1)"><path d="M 916 497 L 916 559" fill="none" stroke="#000000" stroke-miterlimit="10"/></g><g transform="translate(-566,-366) scale(1,1)"><path d="M 911.790482243984 548.8373251423759 L 916 559 L 920.209517756016 548.8373251423759" fill="none" stroke="#000000" stroke-miterlimit="10"/></g><g transform="translate(-566,-366) scale(1,1)"><g><path fill="none" stroke="none"/><text fill="#000000" font-family="Arial" font-size="13px" font-style="normal" font-weight="normal" stroke="none" text-decoration="none" x="937.5" y="527">Is the game already in the backlog?</text></g></g><g transform="translate(-566,-366) scale(1,1)"><path d="M 839 631 L 1008.29248046875 631 Q 1018.29248046875 631 1018.29248046875 641 L 1018.29248046875 661 Q 1018.29248046875 671 1008.29248046875 671 L 839 671 Q 829 671 829 661 L 829 641 Q 829 631 839 631 Z" fill="#C0C0C0" opacity="0.2" stroke="none"/></g><g transform="translate(-566,-366) scale(1,1)"><path d="M 832 624 L 1001.29248046875 624 Q 1011.29248046875 624 1011.29248046875 634 L 1011.29248046875 654 Q 1011.29248046875 664 1001.29248046875 664 L 832 664 Q 822 664 822 654 L 822 634 Q 822 624 832 624 Z" fill="#ffffff" stroke="none"/></g><g transform="translate(-566,-366) scale(1,1)"><path d="M 832 624 L 1001.29248046875 624 Q 1011.29248046875 624 1011.29248046875 634 L 1011.29248046875 654 Q 1011.29248046875 664 1001.29248046875 664 L 832 664 Q 822 664 822 654 L 822 634 Q 822 624 832 624 Z" fill="none" stroke="#000000" stroke-miterlimit="10"/></g><g transform="translate(-566,-366) scale(1,1)"><g><path fill="none" stroke="none"/><text fill="#000000" font-family="Arial" font-size="13px" font-style="normal" font-weight="bold" stroke="none" text-decoration="none" x="826.5" y="642">Show Add To Backlog button</text></g></g><g transform="translate(-566,-366) scale(1,1)"><path d="M 917 578 L 917 624" fill="none" stroke="#000000" stroke-miterlimit="10"/></g><g transform="translate(-566,-366) scale(1,1)"><path d="M 912.790482243984 613.8373251423759 L 917 624 L 921.209517756016 613.8373251423759" fill="none" stroke="#000000" stroke-miterlimit="10"/></g><g transform="translate(-566,-366) scale(1,1)"><g><path fill="none" stroke="none"/><text fill="#000000" font-family="Arial" font-size="13px" font-style="normal" font-weight="normal" stroke="none" text-decoration="none" x="923.5" y="618">No</text></g></g><g transform="translate(-566,-366) scale(1,1)"><path d="M 916 665 L 916 703" fill="none" stroke="#000000" stroke-miterlimit="10"/></g><g transform="translate(-566,-366) scale(1,1)"><path d="M 911.790482243984 692.8373251423759 L 916 703 L 920.209517756016 692.8373251423759" fill="none" stroke="#000000" stroke-miterlimit="10"/></g><g transform="translate(-566,-366) scale(1,1)"><path d="M 916 745 L 916 790" fill="none" stroke="#000000" stroke-miterlimit="10"/></g><g transform="translate(-566,-366) scale(1,1)"><path d="M 911.790482243984 779.8373251423759 L 916 790 L 920.209517756016 779.8373251423759" fill="none" stroke="#000000" stroke-miterlimit="10"/></g><g transform="translate(-566,-366) scale(1,1)"><path d="M 593 551 L 801.57177734375 551 Q 811.57177734375 551 811.57177734375 561 L 811.57177734375 581 Q 811.57177734375 591 801.57177734375 591 L 593 591 Q 583 591 583 581 L 583 561 Q 583 551 593 551 Z" fill="#C0C0C0" opacity="0.2" stroke="none"/></g><g transform="translate(-566,-366) scale(1,1)"><path d="M 586 544 L 794.57177734375 544 Q 804.57177734375 544 804.57177734375 554 L 804.57177734375 574 Q 804.57177734375 584 794.57177734375 584 L 586 584 Q 576 584 576 574 L 576 554 Q 576 544 586 544 Z" fill="#ffffff" stroke="none"/></g><g transform="translate(-566,-366) scale(1,1)"><path d="M 586 544 L 794.57177734375 544 Q 804.57177734375 544 804.57177734375 554 L 804.57177734375 574 Q 804.57177734375 584 794.57177734375 584 L 586 584 Q 576 584 576 574 L 576 554 Q 576 544 586 544 Z" fill="none" stroke="#000000" stroke-miterlimit="10"/></g><g transform="translate(-566,-366) scale(1,1)"><g><path fill="none" stroke="none"/><text fill="#000000" font-family="Arial" font-size="13px" font-style="normal" font-weight="bold" stroke="none" text-decoration="none" x="580.5" y="562">Show Remove from Backlog button</text></g></g><g transform="translate(-566,-366) scale(1,1)"><path d="M 904 569 L 806 567" fill="none" stroke="#000000" stroke-miterlimit="10"/></g><g transform="translate(-566,-366) scale(1,1)"><path d="M 816.2464498174209 562.9987169383965 L 806 567 L 816.0746685352926 571.4159997626792" fill="none" stroke="#000000" stroke-miterlimit="10"/></g><g transform="translate(-566,-366) scale(1,1)"><g><path fill="none" stroke="none"/><text fill="#000000" font-family="Arial" font-size="13px" font-style="normal" font-weight="normal" stroke="none" text-decoration="none" x="843.5" y="587">Yes</text></g></g><g transform="translate(-566,-366) scale(1,1)"><path d="M 911 947.5 C 911 940.59644 916.59644 935 923.5 935 C 930.40356 935 936 940.59644 936 947.5 C 936 954.40356 930.40356 960 923.5 960 C 916.59644 960 911 954.40356 911 947.5 Z" fill="#C0C0C0" opacity="0.2" stroke="none"/></g><g transform="translate(-566,-366) scale(1,1)"><path d="M 904 940.5 C 904 933.59644 909.59644 928 916.5 928 C 923.40356 928 929 933.59644 929 940.5 C 929 947.40356 923.40356 953 916.5 953 C 909.59644 953 904 947.40356 904 940.5 Z" fill="none" stroke="#000000" stroke-miterlimit="10"/></g><g transform="translate(-566,-366) scale(1,1)"><path d="M 909 940.5 C 909 936.357864 912.357864 933 916.5 933 C 920.642136 933 924 936.357864 924 940.5 C 924 944.642136 920.642136 948 916.5 948 C 912.357864 948 909 944.642136 909 940.5 Z" fill="#000000" stroke="none"/></g><g transform="translate(-566,-366) scale(1,1)"><path d="M 680 544 L 680 480 L 852 480" fill="none" stroke="#000000" stroke-miterlimit="10"/></g><g transform="translate(-566,-366) scale(1,1)"><path d="M 841.8373251423759 484.209517756016 L 852 480 L 841.8373251423758 475.790482243984" fill="none" stroke="#000000" stroke-miterlimit="10"/></g><g transform="translate(-566,-366) scale(1,1)"><path d="M 917 831 L 917 928" fill="none" stroke="#000000" stroke-miterlimit="10"/></g><g transform="translate(-566,-366) scale(1,1)"><path d="M 912.790482243984 917.8373251423759 L 917 928 L 921.209517756016 917.8373251423759" fill="none" stroke="#000000" stroke-miterlimit="10"/></g></g></svg>