<?xml version="1.0" encoding="UTF-8" standalone="no"?><svg xmlns="http://www.w3.org/2000/svg" xmlns:xlink="http://www.w3.org/1999/xlink" height="1075" version="1.1" width="1089.236328125"><defs/><g><g transform="translate(10,2) scale(1,1)"><path d="M 144 8 L 927 8 L 927 1063 L 144 1063 L 144 8" fill="none" stroke="#000000" stroke-miterlimit="10"/></g><g transform="translate(10,2) scale(1,1)"><path d="M 144 8 L 144 30 L 241.6689453125 30 L 252.6689453125 19 L 252.6689453125 8 L 144 8" fill="#ffffff" stroke="none"/></g><g transform="translate(10,2) scale(1,1)"><path d="M 144 8 L 144 30 L 241.6689453125 30 L 252.6689453125 19 L 252.6689453125 8 L 144 8 L 144 8" fill="none" stroke="#000000" stroke-miterlimit="10"/></g><g transform="translate(10,2) scale(1,1)"><g><path fill="none" stroke="none"/><text fill="#000000" font-family="Arial" font-size="13px" font-style="normal" font-weight="normal" stroke="none" text-decoration="none" x="168.72998046875" y="24">Backlogged</text></g></g><g transform="translate(10,2) scale(1,1)"><g><path fill="none" stroke="none"/><text fill="#000000" font-family="Arial" font-size="13px" font-style="normal" font-weight="bold" stroke="none" text-decoration="none" x="148.279541015625" y="22.5">uc</text></g></g><g transform="translate(10,2) scale(1,1)"><path d="M 45.67521946022727 401.68 C 45.67521946022727 396.886167936 49.561061785172726 393 54.3544921875 393 C 59.147922589827274 393 63.03376491477273 396.886167936 63.03376491477273 401.68 C 63.03376491477273 406.473832064 59.147922589827274 410.36 54.3544921875 410.36 C 49.561061785172726 410.36 45.67521946022727 406.473832064 45.67521946022727 401.68 Z" fill="#ffffff" stroke="none"/></g><g transform="translate(10,2) scale(1,1)"><path d="M 45.67521946022727 401.68 C 45.67521946022727 396.886167936 49.561061785172726 393 54.3544921875 393 C 59.147922589827274 393 63.03376491477273 396.886167936 63.03376491477273 401.68 C 63.03376491477273 406.473832064 59.147922589827274 410.36 54.3544921875 410.36 C 49.561061785172726 410.36 45.67521946022727 406.473832064 45.67521946022727 401.68 Z" fill="none" stroke="#000000" stroke-miterlimit="10"/></g><g transform="translate(10,2) scale(1,1)"><path d="M 54.3544921875 410.36 L 54.3544921875 427.64" fill="none" stroke="#000000" stroke-miterlimit="10"/></g><g transform="translate(10,2) scale(1,1)"><path d="M 45.16467400568182 416.84 L 63.54431036931818 416.84" fill="none" stroke="#000000" stroke-miterlimit="10"/></g><g transform="translate(10,2) scale(1,1)"><path d="M 54.3544921875 427.64 L 41.590855823863635 445" fill="none" stroke="#000000" stroke-miterlimit="10"/></g><g transform="translate(10,2) scale(1,1)"><path d="M 54.3544921875 427.64 L 67.11812855113637 445" fill="none" stroke="#000000" stroke-miterlimit="10"/></g><g transform="translate(10,2) scale(1,1)"><g><path fill="none" stroke="none"/><text fill="#000000" font-family="Arial" font-size="13px" font-style="normal" font-weight="bold" stroke="none" text-decoration="none" x="4.5" y="464">Registered User</text></g></g><g transform="translate(10,2) scale(1,1)"><path d="M 759 424 C 759 414.6111584 774.4461744 407 793.5 407 C 812.5538256 407 828 414.6111584 828 424 C 828 433.3888416 812.5538256 441 793.5 441 C 774.4461744 441 759 433.3888416 759 424 Z" fill="#C0C0C0" opacity="0.2" stroke="none"/></g><g transform="translate(10,2) scale(1,1)"><path d="M 752 417 C 752 407.6111584 767.4461744 400 786.5 400 C 805.5538256 400 821 407.6111584 821 417 C 821 426.3888416 805.5538256 434 786.5 434 C 767.4461744 434 752 426.3888416 752 417 Z" fill="#ffffff" stroke="none"/></g><g transform="translate(10,2) scale(1,1)"><path d="M 752 417 C 752 407.6111584 767.4461744 400 786.5 400 C 805.5538256 400 821 407.6111584 821 417 C 821 426.3888416 805.5538256 434 786.5 434 C 767.4461744 434 752 426.3888416 752 417 Z" fill="none" stroke="#000000" stroke-miterlimit="10"/></g><g transform="translate(10,2) scale(1,1)"><g><path fill="none" stroke="none"/><text fill="#000000" font-family="Arial" font-size="13px" font-style="normal" font-weight="bold" stroke="none" text-decoration="none" x="768.812255859375" y="422.5">Login</text></g></g><g transform="translate(10,2) scale(1,1)"><path d="M 519 928 C 519 918.6111584 543.624336 911 574 911 C 604.375664 911 629 918.6111584 629 928 C 629 937.3888416 604.375664 945 574 945 C 543.624336 945 519 937.3888416 519 928 Z" fill="#C0C0C0" opacity="0.2" stroke="none"/></g><g transform="translate(10,2) scale(1,1)"><path d="M 512 921 C 512 911.6111584 536.624336 904 567 904 C 597.375664 904 622 911.6111584 622 921 C 622 930.3888416 597.375664 938 567 938 C 536.624336 938 512 930.3888416 512 921 Z" fill="#ffffff" stroke="none"/></g><g transform="translate(10,2) scale(1,1)"><path d="M 512 921 C 512 911.6111584 536.624336 904 567 904 C 597.375664 904 622 911.6111584 622 921 C 622 930.3888416 597.375664 938 567 938 C 536.624336 938 512 930.3888416 512 921 Z" fill="none" stroke="#000000" stroke-miterlimit="10"/></g><g transform="translate(10,2) scale(1,1)"><g><path fill="none" stroke="none"/><text fill="#000000" font-family="Arial" font-size="13px" font-style="normal" font-weight="bold" stroke="none" text-decoration="none" x="532.69091796875" y="926.5">Edit Profile</text></g></g><g transform="translate(10,2) scale(1,1)"><path d="M 455 800 C 455 790.6111584 503.8009568 783 564 783 C 624.1990432 783 673 790.6111584 673 800 C 673 809.3888416 624.1990432 817 564 817 C 503.8009568 817 455 809.3888416 455 800 Z" fill="#C0C0C0" opacity="0.2" stroke="none"/></g><g transform="translate(10,2) scale(1,1)"><path d="M 448 793 C 448 783.6111584 496.8009568 776 557 776 C 617.1990432 776 666 783.6111584 666 793 C 666 802.3888416 617.1990432 810 557 810 C 496.8009568 810 448 802.3888416 448 793 Z" fill="#ffffff" stroke="none"/></g><g transform="translate(10,2) scale(1,1)"><path d="M 448 793 C 448 783.6111584 496.8009568 776 557 776 C 617.1990432 776 666 783.6111584 666 793 C 666 802.3888416 617.1990432 810 557 810 C 496.8009568 810 448 802.3888416 448 793 Z" fill="none" stroke="#000000" stroke-miterlimit="10"/></g><g transform="translate(10,2) scale(1,1)"><g><path fill="none" stroke="none"/><text fill="#000000" font-family="Arial" font-size="13px" font-style="normal" font-weight="bold" stroke="none" text-decoration="none" x="484.5224609375" y="798.5">Add Games To Backlog</text></g></g><g transform="translate(10,2) scale(1,1)"><path d="M 423 536 C 423 526.6111584 485.2324128 519 562 519 C 638.7675872 519 701 526.6111584 701 536 C 701 545.3888416 638.7675872 553 562 553 C 485.2324128 553 423 545.3888416 423 536 Z" fill="#C0C0C0" opacity="0.2" stroke="none"/></g><g transform="translate(10,2) scale(1,1)"><path d="M 416 529 C 416 519.6111584 478.2324128 512 555 512 C 631.7675872 512 694 519.6111584 694 529 C 694 538.3888416 631.7675872 546 555 546 C 478.2324128 546 416 538.3888416 416 529 Z" fill="#ffffff" stroke="none"/></g><g transform="translate(10,2) scale(1,1)"><path d="M 416 529 C 416 519.6111584 478.2324128 512 555 512 C 631.7675872 512 694 519.6111584 694 529 C 694 538.3888416 631.7675872 546 555 546 C 478.2324128 546 416 538.3888416 416 529 Z" fill="none" stroke="#000000" stroke-miterlimit="10"/></g><g transform="translate(10,2) scale(1,1)"><g><path fill="none" stroke="none"/><text fill="#000000" font-family="Arial" font-size="13px" font-style="normal" font-weight="bold" stroke="none" text-decoration="none" x="461.076904296875" y="534.5">Remove Games From Backlog</text></g></g><g transform="translate(10,2) scale(1,1)"><path d="M 351 144 C 351 134.6111584 379.4299152 127 414.5 127 C 449.5700848 127 478 134.6111584 478 144 C 478 153.3888416 449.5700848 161 414.5 161 C 379.4299152 161 351 153.3888416 351 144 Z" fill="#C0C0C0" opacity="0.2" stroke="none"/></g><g transform="translate(10,2) scale(1,1)"><path d="M 344 137 C 344 127.6111584 372.4299152 120 407.5 120 C 442.5700848 120 471 127.6111584 471 137 C 471 146.3888416 442.5700848 154 407.5 154 C 372.4299152 154 344 146.3888416 344 137 Z" fill="#ffffff" stroke="none"/></g><g transform="translate(10,2) scale(1,1)"><path d="M 344 137 C 344 127.6111584 372.4299152 120 407.5 120 C 442.5700848 120 471 127.6111584 471 137 C 471 146.3888416 442.5700848 154 407.5 154 C 372.4299152 154 344 146.3888416 344 137 Z" fill="none" stroke="#000000" stroke-miterlimit="10"/></g><g transform="translate(10,2) scale(1,1)"><g><path fill="none" stroke="none"/><text fill="#000000" font-family="Arial" font-size="13px" font-style="normal" font-weight="bold" stroke="none" text-decoration="none" x="367.16064453125" y="142.5">Write Review</text></g></g><g transform="translate(10,2) scale(1,1)"><path d="M 319 40 C 319 30.6111584 363.5476624 23 418.5 23 C 473.4523376 23 518 30.6111584 518 40 C 518 49.3888416 473.4523376 57 418.5 57 C 363.5476624 57 319 49.3888416 319 40 Z" fill="#C0C0C0" opacity="0.2" stroke="none"/></g><g transform="translate(10,2) scale(1,1)"><path d="M 312 33 C 312 23.6111584 356.5476624 16 411.5 16 C 466.4523376 16 511 23.6111584 511 33 C 511 42.3888416 466.4523376 50 411.5 50 C 356.5476624 50 312 42.3888416 312 33 Z" fill="#ffffff" stroke="none"/></g><g transform="translate(10,2) scale(1,1)"><path d="M 312 33 C 312 23.6111584 356.5476624 16 411.5 16 C 466.4523376 16 511 23.6111584 511 33 C 511 42.3888416 466.4523376 50 411.5 50 C 356.5476624 50 312 42.3888416 312 33 Z" fill="none" stroke="#000000" stroke-miterlimit="10"/></g><g transform="translate(10,2) scale(1,1)"><g><path fill="none" stroke="none"/><text fill="#000000" font-family="Arial" font-size="13px" font-style="normal" font-weight="bold" stroke="none" text-decoration="none" x="345.7509765625" y="38.5">Rate Game In Review</text></g></g><g transform="translate(10,2) scale(1,1)"><path d="M 410 50 L 410 120" fill="none" stroke="#000000" stroke-dasharray="3" stroke-miterlimit="10"/></g><g transform="translate(10,2) scale(1,1)"><path d="M 405.790482243984 109.83732514237585 L 410 120 L 414.209517756016 109.83732514237585" fill="none" stroke="#000000" stroke-miterlimit="10"/></g><g transform="translate(10,2) scale(1,1)"><g><path fill="none" stroke="none"/><text fill="#000000" font-family="Arial" font-size="13px" font-style="normal" font-weight="normal" stroke="none" text-decoration="none" x="412.5" y="89">«extend»</text></g></g><g transform="translate(10,2) scale(1,1)"><path d="M 335 248 C 335 238.6111584 368.57864 231 410 231 C 451.42136 231 485 238.6111584 485 248 C 485 257.3888416 451.42136 265 410 265 C 368.57864 265 335 257.3888416 335 248 Z" fill="#C0C0C0" opacity="0.2" stroke="none"/></g><g transform="translate(10,2) scale(1,1)"><path d="M 328 241 C 328 231.6111584 361.57864 224 403 224 C 444.42136 224 478 231.6111584 478 241 C 478 250.3888416 444.42136 258 403 258 C 361.57864 258 328 250.3888416 328 241 Z" fill="#ffffff" stroke="none"/></g><g transform="translate(10,2) scale(1,1)"><path d="M 328 241 C 328 231.6111584 361.57864 224 403 224 C 444.42136 224 478 231.6111584 478 241 C 478 250.3888416 444.42136 258 403 258 C 361.57864 258 328 250.3888416 328 241 Z" fill="none" stroke="#000000" stroke-miterlimit="10"/></g><g transform="translate(10,2) scale(1,1)"><g><path fill="none" stroke="none"/><text fill="#000000" font-family="Arial" font-size="13px" font-style="normal" font-weight="bold" stroke="none" text-decoration="none" x="354.5927734375" y="246.5">Manage Review</text></g></g><g transform="translate(10,2) scale(1,1)"><path d="M 406 154 L 406 224" fill="none" stroke="#000000" stroke-dasharray="3" stroke-miterlimit="10"/></g><g transform="translate(10,2) scale(1,1)"><path d="M 401.790482243984 213.83732514237585 L 406 224 L 410.209517756016 213.83732514237585" fill="none" stroke="#000000" stroke-miterlimit="10"/></g><g transform="translate(10,2) scale(1,1)"><g><path fill="none" stroke="none"/><text fill="#000000" font-family="Arial" font-size="13px" font-style="normal" font-weight="normal" stroke="none" text-decoration="none" x="408.5" y="193">«extend»</text></g></g><g transform="translate(10,2) scale(1,1)"><path d="M 207 144 C 207 134.6111584 232.96748159999999 127 265 127 C 297.0325184 127 323 134.6111584 323 144 C 323 153.3888416 297.0325184 161 265 161 C 232.96748159999999 161 207 153.3888416 207 144 Z" fill="#C0C0C0" opacity="0.2" stroke="none"/></g><g transform="translate(10,2) scale(1,1)"><path d="M 200 137 C 200 127.6111584 225.96748159999999 120 258 120 C 290.0325184 120 316 127.6111584 316 137 C 316 146.3888416 290.0325184 154 258 154 C 225.96748159999999 154 200 146.3888416 200 137 Z" fill="#ffffff" stroke="none"/></g><g transform="translate(10,2) scale(1,1)"><path d="M 200 137 C 200 127.6111584 225.96748159999999 120 258 120 C 290.0325184 120 316 127.6111584 316 137 C 316 146.3888416 290.0325184 154 258 154 C 225.96748159999999 154 200 146.3888416 200 137 Z" fill="none" stroke="#000000" stroke-miterlimit="10"/></g><g transform="translate(10,2) scale(1,1)"><g><path fill="none" stroke="none"/><text fill="#000000" font-family="Arial" font-size="13px" font-style="normal" font-weight="bold" stroke="none" text-decoration="none" x="221.516845703125" y="142.5">Edit Review</text></g></g><g transform="translate(10,2) scale(1,1)"><path d="M 257 154 L 257 241 L 328 241" fill="none" stroke="#000000" stroke-dasharray="3" stroke-miterlimit="10"/></g><g transform="translate(10,2) scale(1,1)"><path d="M 317.83732514237585 245.209517756016 L 328 241 L 317.83732514237585 236.790482243984" fill="none" stroke="#000000" stroke-miterlimit="10"/></g><g transform="translate(10,2) scale(1,1)"><g><path fill="none" stroke="none"/><text fill="#000000" font-family="Arial" font-size="13px" font-style="normal" font-weight="normal" stroke="none" text-decoration="none" x="230.5" y="216">«extend»</text></g></g><g transform="translate(10,2) scale(1,1)"><path d="M 511 144 C 511 134.6111584 541.4446336 127 579 127 C 616.5553664 127 647 134.6111584 647 144 C 647 153.3888416 616.5553664 161 579 161 C 541.4446336 161 511 153.3888416 511 144 Z" fill="#C0C0C0" opacity="0.2" stroke="none"/></g><g transform="translate(10,2) scale(1,1)"><path d="M 504 137 C 504 127.6111584 534.4446336 120 572 120 C 609.5553664 120 640 127.6111584 640 137 C 640 146.3888416 609.5553664 154 572 154 C 534.4446336 154 504 146.3888416 504 137 Z" fill="#ffffff" stroke="none"/></g><g transform="translate(10,2) scale(1,1)"><path d="M 504 137 C 504 127.6111584 534.4446336 120 572 120 C 609.5553664 120 640 127.6111584 640 137 C 640 146.3888416 609.5553664 154 572 154 C 534.4446336 154 504 146.3888416 504 137 Z" fill="none" stroke="#000000" stroke-miterlimit="10"/></g><g transform="translate(10,2) scale(1,1)"><g><path fill="none" stroke="none"/><text fill="#000000" font-family="Arial" font-size="13px" font-style="normal" font-weight="bold" stroke="none" text-decoration="none" x="528.28369140625" y="142.5">Delete Review</text></g></g><g transform="translate(10,2) scale(1,1)"><path d="M 571 154 L 571 241 L 478 241" fill="none" stroke="#000000" stroke-dasharray="3" stroke-miterlimit="10"/></g><g transform="translate(10,2) scale(1,1)"><path d="M 488.16267485762415 236.790482243984 L 478 241 L 488.16267485762415 245.209517756016" fill="none" stroke="#000000" stroke-miterlimit="10"/></g><g transform="translate(10,2) scale(1,1)"><g><path fill="none" stroke="none"/><text fill="#000000" font-family="Arial" font-size="13px" font-style="normal" font-weight="normal" stroke="none" text-decoration="none" x="586.5" y="187">«extend»</text></g></g><g transform="translate(10,2) scale(1,1)"><path d="M 487 720 C 487 710.6111584 522.3695008 703 566 703 C 609.6304992 703 645 710.6111584 645 720 C 645 729.3888416 609.6304992 737 566 737 C 522.3695008 737 487 729.3888416 487 720 Z" fill="#C0C0C0" opacity="0.2" stroke="none"/></g><g transform="translate(10,2) scale(1,1)"><path d="M 480 713 C 480 703.6111584 515.3695008 696 559 696 C 602.6304992 696 638 703.6111584 638 713 C 638 722.3888416 602.6304992 730 559 730 C 515.3695008 730 480 722.3888416 480 713 Z" fill="#ffffff" stroke="none"/></g><g transform="translate(10,2) scale(1,1)"><path d="M 480 713 C 480 703.6111584 515.3695008 696 559 696 C 602.6304992 696 638 703.6111584 638 713 C 638 722.3888416 602.6304992 730 559 730 C 515.3695008 730 480 722.3888416 480 713 Z" fill="none" stroke="#000000" stroke-miterlimit="10"/></g><g transform="translate(10,2) scale(1,1)"><g><path fill="none" stroke="none"/><text fill="#000000" font-family="Arial" font-size="13px" font-style="normal" font-weight="bold" stroke="none" text-decoration="none" x="507.707763671875" y="718.5">Manage Backlog</text></g></g><g transform="translate(10,2) scale(1,1)"><path d="M 555 546 L 555 696" fill="none" stroke="#000000" stroke-dasharray="3" stroke-miterlimit="10"/></g><g transform="translate(10,2) scale(1,1)"><path d="M 550.790482243984 685.8373251423759 L 555 696 L 559.209517756016 685.8373251423759" fill="none" stroke="#000000" stroke-miterlimit="10"/></g><g transform="translate(10,2) scale(1,1)"><g><path fill="none" stroke="none"/><text fill="#000000" font-family="Arial" font-size="13px" font-style="normal" font-weight="normal" stroke="none" text-decoration="none" x="498.5" y="578">«extend»</text></g></g><g transform="translate(10,2) scale(1,1)"><path d="M 557 775 L 559 731" fill="none" stroke="#000000" stroke-dasharray="3" stroke-miterlimit="10"/></g><g transform="translate(10,2) scale(1,1)"><path d="M 562.7437125137551 741.343336822049 L 559 731 L 554.3333608983219 740.9610481122565" fill="none" stroke="#000000" stroke-miterlimit="10"/></g><g transform="translate(10,2) scale(1,1)"><g><path fill="none" stroke="none"/><text fill="#000000" font-family="Arial" font-size="13px" font-style="normal" font-weight="normal" stroke="none" text-decoration="none" x="575.5" y="758">«extend»</text></g></g><g transform="translate(10,2) scale(1,1)"><path d="M 367 344 C 367 334.6111584 391.1766208 327 421 327 C 450.8233792 327 475 334.6111584 475 344 C 475 353.3888416 450.8233792 361 421 361 C 391.1766208 361 367 353.3888416 367 344 Z" fill="#C0C0C0" opacity="0.2" stroke="none"/></g><g transform="translate(10,2) scale(1,1)"><path d="M 360 337 C 360 327.6111584 384.1766208 320 414 320 C 443.8233792 320 468 327.6111584 468 337 C 468 346.3888416 443.8233792 354 414 354 C 384.1766208 354 360 346.3888416 360 337 Z" fill="#ffffff" stroke="none"/></g><g transform="translate(10,2) scale(1,1)"><path d="M 360 337 C 360 327.6111584 384.1766208 320 414 320 C 443.8233792 320 468 327.6111584 468 337 C 468 346.3888416 443.8233792 354 414 354 C 384.1766208 354 360 346.3888416 360 337 Z" fill="none" stroke="#000000" stroke-miterlimit="10"/></g><g transform="translate(10,2) scale(1,1)"><g><path fill="none" stroke="none"/><text fill="#000000" font-family="Arial" font-size="13px" font-style="normal" font-weight="bold" stroke="none" text-decoration="none" x="380.411376953125" y="342.5">Find Game</text></g></g><g transform="translate(10,2) scale(1,1)"><path d="M 503 400 C 503 390.6111584 530.7583424 383 565 383 C 599.2416576 383 627 390.6111584 627 400 C 627 409.3888416 599.2416576 417 565 417 C 530.7583424 417 503 409.3888416 503 400 Z" fill="#C0C0C0" opacity="0.2" stroke="none"/></g><g transform="translate(10,2) scale(1,1)"><path d="M 496 393 C 496 383.6111584 523.7583424 376 558 376 C 592.2416576 376 620 383.6111584 620 393 C 620 402.3888416 592.2416576 410 558 410 C 523.7583424 410 496 402.3888416 496 393 Z" fill="#ffffff" stroke="none"/></g><g transform="translate(10,2) scale(1,1)"><path d="M 496 393 C 496 383.6111584 523.7583424 376 558 376 C 592.2416576 376 620 383.6111584 620 393 C 620 402.3888416 592.2416576 410 558 410 C 523.7583424 410 496 402.3888416 496 393 Z" fill="none" stroke="#000000" stroke-miterlimit="10"/></g><g transform="translate(10,2) scale(1,1)"><g><path fill="none" stroke="none"/><text fill="#000000" font-family="Arial" font-size="13px" font-style="normal" font-weight="bold" stroke="none" text-decoration="none" x="518.622314453125" y="398.5">Filter Games</text></g></g><g transform="translate(10,2) scale(1,1)"><path d="M 335 424 C 335 414.6111584 367.45935199999997 407 407.5 407 C 447.54064800000003 407 480 414.6111584 480 424 C 480 433.3888416 447.54064800000003 441 407.5 441 C 367.45935199999997 441 335 433.3888416 335 424 Z" fill="#C0C0C0" opacity="0.2" stroke="none"/></g><g transform="translate(10,2) scale(1,1)"><path d="M 328 417 C 328 407.6111584 360.45935199999997 400 400.5 400 C 440.54064800000003 400 473 407.6111584 473 417 C 473 426.3888416 440.54064800000003 434 400.5 434 C 360.45935199999997 434 328 426.3888416 328 417 Z" fill="#ffffff" stroke="none"/></g><g transform="translate(10,2) scale(1,1)"><path d="M 328 417 C 328 407.6111584 360.45935199999997 400 400.5 400 C 440.54064800000003 400 473 407.6111584 473 417 C 473 426.3888416 440.54064800000003 434 400.5 434 C 360.45935199999997 434 328 426.3888416 328 417 Z" fill="none" stroke="#000000" stroke-miterlimit="10"/></g><g transform="translate(10,2) scale(1,1)"><g><path fill="none" stroke="none"/><text fill="#000000" font-family="Arial" font-size="13px" font-style="normal" font-weight="bold" stroke="none" text-decoration="none" x="353.654296875" y="422.5">Search By Title</text></g></g><g transform="translate(10,2) scale(1,1)"><path d="M 566 376 L 566 337 L 468 337" fill="none" stroke="#000000" stroke-dasharray="3" stroke-miterlimit="10"/></g><g transform="translate(10,2) scale(1,1)"><path d="M 478.16267485762415 332.790482243984 L 468 337 L 478.16267485762415 341.209517756016" fill="none" stroke="#000000" stroke-miterlimit="10"/></g><g transform="translate(10,2) scale(1,1)"><g><path fill="none" stroke="none"/><text fill="#000000" font-family="Arial" font-size="13px" font-style="normal" font-weight="normal" stroke="none" text-decoration="none" x="503.5" y="355">«extend»</text></g></g><g transform="translate(10,2) scale(1,1)"><path d="M 399 400 L 399 354" fill="none" stroke="#000000" stroke-dasharray="3" stroke-miterlimit="10"/></g><g transform="translate(10,2) scale(1,1)"><path d="M 403.209517756016 364.16267485762415 L 399 354 L 394.790482243984 364.16267485762415" fill="none" stroke="#000000" stroke-miterlimit="10"/></g><g transform="translate(10,2) scale(1,1)"><g><path fill="none" stroke="none"/><text fill="#000000" font-family="Arial" font-size="13px" font-style="normal" font-weight="normal" stroke="none" text-decoration="none" x="403.5" y="378">«extend»</text></g></g><g transform="translate(10,2) scale(1,1)"><path d="M 22.24162571022727 985.6800000000001 C 22.24162571022727 980.8861679360001 26.127468035172726 977 30.9208984375 977 C 35.714328839827274 977 39.60017116477273 980.8861679360001 39.60017116477273 985.6800000000001 C 39.60017116477273 990.473832064 35.714328839827274 994.36 30.9208984375 994.36 C 26.127468035172726 994.36 22.24162571022727 990.473832064 22.24162571022727 985.6800000000001 Z" fill="#ffffff" stroke="none"/></g><g transform="translate(10,2) scale(1,1)"><path d="M 22.24162571022727 985.6800000000001 C 22.24162571022727 980.8861679360001 26.127468035172726 977 30.9208984375 977 C 35.714328839827274 977 39.60017116477273 980.8861679360001 39.60017116477273 985.6800000000001 C 39.60017116477273 990.473832064 35.714328839827274 994.36 30.9208984375 994.36 C 26.127468035172726 994.36 22.24162571022727 990.473832064 22.24162571022727 985.6800000000001 Z" fill="none" stroke="#000000" stroke-miterlimit="10"/></g><g transform="translate(10,2) scale(1,1)"><path d="M 30.9208984375 994.36 L 30.9208984375 1011.64" fill="none" stroke="#000000" stroke-miterlimit="10"/></g><g transform="translate(10,2) scale(1,1)"><path d="M 21.731080255681817 1000.84 L 40.11071661931818 1000.84" fill="none" stroke="#000000" stroke-miterlimit="10"/></g><g transform="translate(10,2) scale(1,1)"><path d="M 30.9208984375 1011.64 L 18.157262073863635 1029" fill="none" stroke="#000000" stroke-miterlimit="10"/></g><g transform="translate(10,2) scale(1,1)"><path d="M 30.9208984375 1011.64 L 43.684534801136365 1029" fill="none" stroke="#000000" stroke-miterlimit="10"/></g><g transform="translate(10,2) scale(1,1)"><g><path fill="none" stroke="none"/><text fill="#000000" font-family="Arial" font-size="13px" font-style="normal" font-weight="bold" stroke="none" text-decoration="none" x="12.5" y="1048">Guest</text></g></g><g transform="translate(10,2) scale(1,1)"><path d="M 543 1024 C 543 1014.6111584 561.3563232 1007 584 1007 C 606.6436768 1007 625 1014.6111584 625 1024 C 625 1033.3888416 606.6436768 1041 584 1041 C 561.3563232 1041 543 1033.3888416 543 1024 Z" fill="#C0C0C0" opacity="0.2" stroke="none"/></g><g transform="translate(10,2) scale(1,1)"><path d="M 536 1017 C 536 1007.6111584 554.3563232 1000 577 1000 C 599.6436768 1000 618 1007.6111584 618 1017 C 618 1026.3888416 599.6436768 1034 577 1034 C 554.3563232 1034 536 1026.3888416 536 1017 Z" fill="#ffffff" stroke="none"/></g><g transform="translate(10,2) scale(1,1)"><path d="M 536 1017 C 536 1007.6111584 554.3563232 1000 577 1000 C 599.6436768 1000 618 1007.6111584 618 1017 C 618 1026.3888416 599.6436768 1034 577 1034 C 554.3563232 1034 536 1026.3888416 536 1017 Z" fill="none" stroke="#000000" stroke-miterlimit="10"/></g><g transform="translate(10,2) scale(1,1)"><g><path fill="none" stroke="none"/><text fill="#000000" font-family="Arial" font-size="13px" font-style="normal" font-weight="bold" stroke="none" text-decoration="none" x="552.447265625" y="1022.5">Sign Up</text></g></g><g transform="translate(10,2) scale(1,1)"><path d="M 110 401 L 370 259" fill="none" stroke="#000000" stroke-miterlimit="10"/></g><g transform="translate(10,2) scale(1,1)"><path d="M 110 436 L 576 480 L 751 428" fill="none" stroke="#000000" stroke-miterlimit="10"/></g><g transform="translate(10,2) scale(1,1)"><path d="M 442 259 L 751 401" fill="none" stroke="#000000" stroke-dasharray="3" stroke-miterlimit="10"/></g><g transform="translate(10,2) scale(1,1)"><path d="M 740.0079685020943 400.5813789911521 L 751 401 L 743.5234697429182 392.93145023471124" fill="none" stroke="#000000" stroke-miterlimit="10"/></g><g transform="translate(10,2) scale(1,1)"><g><path fill="none" stroke="none"/><text fill="#000000" font-family="Arial" font-size="13px" font-style="normal" font-weight="normal" stroke="none" text-decoration="none" x="580.5" y="307">«include»</text></g></g><g transform="translate(10,2) scale(1,1)"><path d="M 638 713 L 720 713 L 720 712 L 782 712 L 782 434" fill="none" stroke="#000000" stroke-dasharray="3" stroke-miterlimit="10"/></g><g transform="translate(10,2) scale(1,1)"><path d="M 786.209517756016 444.16267485762415 L 782 434 L 777.790482243984 444.16267485762415" fill="none" stroke="#000000" stroke-miterlimit="10"/></g><g transform="translate(10,2) scale(1,1)"><g><path fill="none" stroke="none"/><text fill="#000000" font-family="Arial" font-size="13px" font-style="normal" font-weight="normal" stroke="none" text-decoration="none" x="702.5" y="738">«include»</text></g></g><g transform="translate(10,2) scale(1,1)"><path d="M 110 416 L 359 351" fill="none" stroke="#000000" stroke-miterlimit="10"/></g><g transform="translate(10,2) scale(1,1)"><path d="M 54 1015 L 536 1015" fill="none" stroke="#000000" stroke-miterlimit="10"/></g><g transform="translate(10,2) scale(1,1)"><path d="M 976.7247800071023 289.68 C 976.7247800071023 284.886167936 980.6106223320477 281 985.404052734375 281 C 990.1974831367023 281 994.0833254616477 284.886167936 994.0833254616477 289.68 C 994.0833254616477 294.473832064 990.1974831367023 298.36 985.404052734375 298.36 C 980.6106223320477 298.36 976.7247800071023 294.473832064 976.7247800071023 289.68 Z" fill="#ffffff" stroke="none"/></g><g transform="translate(10,2) scale(1,1)"><path d="M 976.7247800071023 289.68 C 976.7247800071023 284.886167936 980.6106223320477 281 985.404052734375 281 C 990.1974831367023 281 994.0833254616477 284.886167936 994.0833254616477 289.68 C 994.0833254616477 294.473832064 990.1974831367023 298.36 985.404052734375 298.36 C 980.6106223320477 298.36 976.7247800071023 294.473832064 976.7247800071023 289.68 Z" fill="none" stroke="#000000" stroke-miterlimit="10"/></g><g transform="translate(10,2) scale(1,1)"><path d="M 985.404052734375 298.36 L 985.404052734375 315.64" fill="none" stroke="#000000" stroke-miterlimit="10"/></g><g transform="translate(10,2) scale(1,1)"><path d="M 976.2142345525568 304.84 L 994.5938709161932 304.84" fill="none" stroke="#000000" stroke-miterlimit="10"/></g><g transform="translate(10,2) scale(1,1)"><path d="M 985.404052734375 315.64 L 972.6404163707386 333" fill="none" stroke="#000000" stroke-miterlimit="10"/></g><g transform="translate(10,2) scale(1,1)"><path d="M 985.404052734375 315.64 L 998.1676890980114 333" fill="none" stroke="#000000" stroke-miterlimit="10"/></g><g transform="translate(10,2) scale(1,1)"><g><path fill="none" stroke="none"/><text fill="#000000" font-family="Arial" font-size="13px" font-style="normal" font-weight="bold" stroke="none" text-decoration="none" x="956.5" y="352">Database</text></g></g><g transform="translate(10,2) scale(1,1)"><path d="M 951 314 L 479 251" fill="none" stroke="#000000" stroke-miterlimit="10"/></g><g transform="translate(10,2) scale(1,1)"><path d="M 1016 359 L 1016 1017 L 618 1017" fill="none" stroke="#000000" stroke-miterlimit="10"/></g><g transform="translate(10,2) scale(1,1)"><path d="M 110 462 L 527 695" fill="none" stroke="#000000" stroke-miterlimit="10"/></g><g transform="translate(10,2) scale(1,1)"><path d="M 975 359 L 975 920 L 936 920 L 936 916 L 622 916" fill="none" stroke="#000000" stroke-miterlimit="10"/></g><g transform="translate(10,2) scale(1,1)"><path d="M 584 904 L 584 888 L 864 888 L 864 416 L 821 416" fill="none" stroke="#000000" stroke-dasharray="3" stroke-miterlimit="10"/></g><g transform="translate(10,2) scale(1,1)"><path d="M 831.1626748576241 411.790482243984 L 821 416 L 831.1626748576241 420.209517756016" fill="none" stroke="#000000" stroke-miterlimit="10"/></g><g transform="translate(10,2) scale(1,1)"><g><path fill="none" stroke="none"/><text fill="#000000" font-family="Arial" font-size="13px" font-style="normal" font-weight="normal" stroke="none" text-decoration="none" x="806.5" y="892">«include»</text></g></g><g transform="translate(10,2) scale(1,1)"><path d="M 578 695 L 951 350" fill="none" stroke="#000000" stroke-miterlimit="10"/></g><g transform="translate(10,2) scale(1,1)"><path d="M 993.9388913352273 129.68 C 993.9388913352273 124.886167936 997.8247336601727 121 1002.6181640625 121 C 1007.4115944648273 121 1011.2974367897727 124.886167936 1011.2974367897727 129.68 C 1011.2974367897727 134.47383206400002 1007.4115944648273 138.36 1002.6181640625 138.36 C 997.8247336601727 138.36 993.9388913352273 134.47383206400002 993.9388913352273 129.68 Z" fill="#ffffff" stroke="none"/></g><g transform="translate(10,2) scale(1,1)"><path d="M 993.9388913352273 129.68 C 993.9388913352273 124.886167936 997.8247336601727 121 1002.6181640625 121 C 1007.4115944648273 121 1011.2974367897727 124.886167936 1011.2974367897727 129.68 C 1011.2974367897727 134.47383206400002 1007.4115944648273 138.36 1002.6181640625 138.36 C 997.8247336601727 138.36 993.9388913352273 134.47383206400002 993.9388913352273 129.68 Z" fill="none" stroke="#000000" stroke-miterlimit="10"/></g><g transform="translate(10,2) scale(1,1)"><path d="M 1002.6181640625 138.36 L 1002.6181640625 155.64" fill="none" stroke="#000000" stroke-miterlimit="10"/></g><g transform="translate(10,2) scale(1,1)"><path d="M 993.4283458806818 144.84 L 1011.8079822443182 144.84" fill="none" stroke="#000000" stroke-miterlimit="10"/></g><g transform="translate(10,2) scale(1,1)"><path d="M 1002.6181640625 155.64 L 989.8545276988636 173" fill="none" stroke="#000000" stroke-miterlimit="10"/></g><g transform="translate(10,2) scale(1,1)"><path d="M 1002.6181640625 155.64 L 1015.3818004261364 173" fill="none" stroke="#000000" stroke-miterlimit="10"/></g><g transform="translate(10,2) scale(1,1)"><g><path fill="none" stroke="none"/><text fill="#000000" font-family="Arial" font-size="13px" font-style="normal" font-weight="bold" stroke="none" text-decoration="none" x="940.5" y="192">Discord OAuth2 API</text></g></g><g transform="translate(10,2) scale(1,1)"><path d="M 968 200 L 801 399" fill="none" stroke="#000000" stroke-miterlimit="10"/></g></g></svg>