<?xml version="1.0" encoding="UTF-8" standalone="no"?><svg xmlns="http://www.w3.org/2000/svg" xmlns:xlink="http://www.w3.org/1999/xlink" height="765" version="1.1" width="542.2314453125"><defs/><g><g transform="translate(-363,-110) scale(1,1)"><path d="M 471 136.5 C 471 131.2532944 475.2532944 127 480.5 127 C 485.7467056 127 490 131.2532944 490 136.5 C 490 141.7467056 485.7467056 146 480.5 146 C 475.2532944 146 471 141.7467056 471 136.5 Z" fill="#C0C0C0" opacity="0.2" stroke="none"/></g><g transform="translate(-363,-110) scale(1,1)"><path d="M 464 129.5 C 464 124.2532944 468.2532944 120 473.5 120 C 478.7467056 120 483 124.2532944 483 129.5 C 483 134.7467056 478.7467056 139 473.5 139 C 468.2532944 139 464 134.7467056 464 129.5 Z" fill="#000000" stroke="none"/></g><g transform="translate(-363,-110) scale(1,1)"><path d="M 426 191 L 535.6689453125 191 Q 545.6689453125 191 545.6689453125 201 L 545.6689453125 221 Q 545.6689453125 231 535.6689453125 231 L 426 231 Q 416 231 416 221 L 416 201 Q 416 191 426 191 Z" fill="#C0C0C0" opacity="0.2" stroke="none"/></g><g transform="translate(-363,-110) scale(1,1)"><path d="M 419 184 L 528.6689453125 184 Q 538.6689453125 184 538.6689453125 194 L 538.6689453125 214 Q 538.6689453125 224 528.6689453125 224 L 419 224 Q 409 224 409 214 L 409 194 Q 409 184 419 184 Z" fill="#ffffff" stroke="none"/></g><g transform="translate(-363,-110) scale(1,1)"><path d="M 419 184 L 528.6689453125 184 Q 538.6689453125 184 538.6689453125 194 L 538.6689453125 214 Q 538.6689453125 224 528.6689453125 224 L 419 224 Q 409 224 409 214 L 409 194 Q 409 184 419 184 Z" fill="none" stroke="#000000" stroke-miterlimit="10"/></g><g transform="translate(-363,-110) scale(1,1)"><g><path fill="none" stroke="none"/><text fill="#000000" font-family="Arial" font-size="13px" font-style="normal" font-weight="bold" stroke="none" text-decoration="none" x="413.5" y="202">Display Game Page</text></g></g><g transform="translate(-363,-110) scale(1,1)"><path d="M 392 279 L 568.0908203125 279 Q 578.0908203125 279 578.0908203125 289 L 578.0908203125 309 Q 578.0908203125 319 568.0908203125 319 L 392 319 Q 382 319 382 309 L 382 289 Q 382 279 392 279 Z" fill="#C0C0C0" opacity="0.2" stroke="none"/></g><g transform="translate(-363,-110) scale(1,1)"><path d="M 385 272 L 561.0908203125 272 Q 571.0908203125 272 571.0908203125 282 L 571.0908203125 302 Q 571.0908203125 312 561.0908203125 312 L 385 312 Q 375 312 375 302 L 375 282 Q 375 272 385 272 Z" fill="#ffffff" stroke="none"/></g><g transform="translate(-363,-110) scale(1,1)"><path d="M 385 272 L 561.0908203125 272 Q 571.0908203125 272 571.0908203125 282 L 571.0908203125 302 Q 571.0908203125 312 561.0908203125 312 L 385 312 Q 375 312 375 302 L 375 282 Q 375 272 385 272 Z" fill="none" stroke="#000000" stroke-miterlimit="10"/></g><g transform="translate(-363,-110) scale(1,1)"><g><path fill="none" stroke="none"/><text fill="#000000" font-family="Arial" font-size="13px" font-style="normal" font-weight="bold" stroke="none" text-decoration="none" x="379.5" y="290">Click on Create Review button</text></g></g><g transform="translate(-363,-110) scale(1,1)"><path d="M 473 140 L 473 183" fill="none" stroke="#000000" stroke-miterlimit="10"/></g><g transform="translate(-363,-110) scale(1,1)"><path d="M 468.790482243984 172.83732514237585 L 473 183 L 477.209517756016 172.83732514237585" fill="none" stroke="#000000" stroke-miterlimit="10"/></g><g transform="translate(-363,-110) scale(1,1)"><path d="M 473 225 L 473 271" fill="none" stroke="#000000" stroke-miterlimit="10"/></g><g transform="translate(-363,-110) scale(1,1)"><path d="M 468.790482243984 260.83732514237585 L 473 271 L 477.209517756016 260.83732514237585" fill="none" stroke="#000000" stroke-miterlimit="10"/></g><g transform="translate(-363,-110) scale(1,1)"><path d="M 435 359 L 525.12451171875 359 Q 535.12451171875 359 535.12451171875 369 L 535.12451171875 389 Q 535.12451171875 399 525.12451171875 399 L 435 399 Q 425 399 425 389 L 425 369 Q 425 359 435 359 Z" fill="#C0C0C0" opacity="0.2" stroke="none"/></g><g transform="translate(-363,-110) scale(1,1)"><path d="M 428 352 L 518.12451171875 352 Q 528.12451171875 352 528.12451171875 362 L 528.12451171875 382 Q 528.12451171875 392 518.12451171875 392 L 428 392 Q 418 392 418 382 L 418 362 Q 418 352 428 352 Z" fill="#ffffff" stroke="none"/></g><g transform="translate(-363,-110) scale(1,1)"><path d="M 428 352 L 518.12451171875 352 Q 528.12451171875 352 528.12451171875 362 L 528.12451171875 382 Q 528.12451171875 392 518.12451171875 392 L 428 392 Q 418 392 418 382 L 418 362 Q 418 352 428 352 Z" fill="none" stroke="#000000" stroke-miterlimit="10"/></g><g transform="translate(-363,-110) scale(1,1)"><g><path fill="none" stroke="none"/><text fill="#000000" font-family="Arial" font-size="13px" font-style="normal" font-weight="bold" stroke="none" text-decoration="none" x="422.5" y="370">Conduct Review</text></g></g><g transform="translate(-363,-110) scale(1,1)"><path d="M 473 313 L 473 351" fill="none" stroke="#000000" stroke-miterlimit="10"/></g><g transform="translate(-363,-110) scale(1,1)"><path d="M 468.790482243984 340.83732514237585 L 473 351 L 477.209517756016 340.83732514237585" fill="none" stroke="#000000" stroke-miterlimit="10"/></g><g transform="translate(-363,-110) scale(1,1)"><path d="M 391 447 L 570.67724609375 447 Q 580.67724609375 447 580.67724609375 457 L 580.67724609375 477 Q 580.67724609375 487 570.67724609375 487 L 391 487 Q 381 487 381 477 L 381 457 Q 381 447 391 447 Z" fill="#C0C0C0" opacity="0.2" stroke="none"/></g><g transform="translate(-363,-110) scale(1,1)"><path d="M 384 440 L 563.67724609375 440 Q 573.67724609375 440 573.67724609375 450 L 573.67724609375 470 Q 573.67724609375 480 563.67724609375 480 L 384 480 Q 374 480 374 470 L 374 450 Q 374 440 384 440 Z" fill="#ffffff" stroke="none"/></g><g transform="translate(-363,-110) scale(1,1)"><path d="M 384 440 L 563.67724609375 440 Q 573.67724609375 440 573.67724609375 450 L 573.67724609375 470 Q 573.67724609375 480 563.67724609375 480 L 384 480 Q 374 480 374 470 L 374 450 Q 374 440 384 440 Z" fill="none" stroke="#000000" stroke-miterlimit="10"/></g><g transform="translate(-363,-110) scale(1,1)"><g><path fill="none" stroke="none"/><text fill="#000000" font-family="Arial" font-size="13px" font-style="normal" font-weight="bold" stroke="none" text-decoration="none" x="378.5" y="458">Click on Submit Review button</text></g></g><g transform="translate(-363,-110) scale(1,1)"><path d="M 405 527 L 555.8779296875 527 Q 565.8779296875 527 565.8779296875 537 L 565.8779296875 557 Q 565.8779296875 567 555.8779296875 567 L 405 567 Q 395 567 395 557 L 395 537 Q 395 527 405 527 Z" fill="#C0C0C0" opacity="0.2" stroke="none"/></g><g transform="translate(-363,-110) scale(1,1)"><path d="M 398 520 L 548.8779296875 520 Q 558.8779296875 520 558.8779296875 530 L 558.8779296875 550 Q 558.8779296875 560 548.8779296875 560 L 398 560 Q 388 560 388 550 L 388 530 Q 388 520 398 520 Z" fill="#ffffff" stroke="none"/></g><g transform="translate(-363,-110) scale(1,1)"><path d="M 398 520 L 548.8779296875 520 Q 558.8779296875 520 558.8779296875 530 L 558.8779296875 550 Q 558.8779296875 560 548.8779296875 560 L 398 560 Q 388 560 388 550 L 388 530 Q 388 520 398 520 Z" fill="none" stroke="#000000" stroke-miterlimit="10"/></g><g transform="translate(-363,-110) scale(1,1)"><g><path fill="none" stroke="none"/><text fill="#000000" font-family="Arial" font-size="13px" font-style="normal" font-weight="bold" stroke="none" text-decoration="none" x="392.5" y="538">Display Success message</text></g></g><g transform="translate(-363,-110) scale(1,1)"><path d="M 390 615 L 570.66748046875 615 Q 580.66748046875 615 580.66748046875 625 L 580.66748046875 645 Q 580.66748046875 655 570.66748046875 655 L 390 655 Q 380 655 380 645 L 380 625 Q 380 615 390 615 Z" fill="#C0C0C0" opacity="0.2" stroke="none"/></g><g transform="translate(-363,-110) scale(1,1)"><path d="M 383 608 L 563.66748046875 608 Q 573.66748046875 608 573.66748046875 618 L 573.66748046875 638 Q 573.66748046875 648 563.66748046875 648 L 383 648 Q 373 648 373 638 L 373 618 Q 373 608 383 608 Z" fill="#ffffff" stroke="none"/></g><g transform="translate(-363,-110) scale(1,1)"><path d="M 383 608 L 563.66748046875 608 Q 573.66748046875 608 573.66748046875 618 L 573.66748046875 638 Q 573.66748046875 648 563.66748046875 648 L 383 648 Q 373 648 373 638 L 373 618 Q 373 608 383 608 Z" fill="none" stroke="#000000" stroke-miterlimit="10"/></g><g transform="translate(-363,-110) scale(1,1)"><g><path fill="none" stroke="none"/><text fill="#000000" font-family="Arial" font-size="13px" font-style="normal" font-weight="bold" stroke="none" text-decoration="none" x="377.5" y="626">Display review on game's page</text></g></g><g transform="translate(-363,-110) scale(1,1)"><path d="M 473 481 L 473 519" fill="none" stroke="#000000" stroke-miterlimit="10"/></g><g transform="translate(-363,-110) scale(1,1)"><path d="M 468.790482243984 508.83732514237585 L 473 519 L 477.209517756016 508.83732514237585" fill="none" stroke="#000000" stroke-miterlimit="10"/></g><g transform="translate(-363,-110) scale(1,1)"><path d="M 473 561 L 473 607" fill="none" stroke="#000000" stroke-miterlimit="10"/></g><g transform="translate(-363,-110) scale(1,1)"><path d="M 468.790482243984 596.8373251423759 L 473 607 L 477.209517756016 596.8373251423759" fill="none" stroke="#000000" stroke-miterlimit="10"/></g><g transform="translate(-363,-110) scale(1,1)"><path d="M 468 859.5 C 468 852.59644 473.59644 847 480.5 847 C 487.40356 847 493 852.59644 493 859.5 C 493 866.40356 487.40356 872 480.5 872 C 473.59644 872 468 866.40356 468 859.5 Z" fill="#C0C0C0" opacity="0.2" stroke="none"/></g><g transform="translate(-363,-110) scale(1,1)"><path d="M 461 852.5 C 461 845.59644 466.59644 840 473.5 840 C 480.40356 840 486 845.59644 486 852.5 C 486 859.40356 480.40356 865 473.5 865 C 466.59644 865 461 859.40356 461 852.5 Z" fill="none" stroke="#000000" stroke-miterlimit="10"/></g><g transform="translate(-363,-110) scale(1,1)"><path d="M 466 852.5 C 466 848.357864 469.357864 845 473.5 845 C 477.642136 845 481 848.357864 481 852.5 C 481 856.642136 477.642136 860 473.5 860 C 469.357864 860 466 856.642136 466 852.5 Z" fill="#000000" stroke="none"/></g><g transform="translate(-363,-110) scale(1,1)"><path d="M 577 767 L 892.2314453125 767 Q 902.2314453125 767 902.2314453125 777 L 902.2314453125 797 Q 902.2314453125 807 892.2314453125 807 L 577 807 Q 567 807 567 797 L 567 777 Q 567 767 577 767 Z" fill="#C0C0C0" opacity="0.2" stroke="none"/></g><g transform="translate(-363,-110) scale(1,1)"><path d="M 570 760 L 885.2314453125 760 Q 895.2314453125 760 895.2314453125 770 L 895.2314453125 790 Q 895.2314453125 800 885.2314453125 800 L 570 800 Q 560 800 560 790 L 560 770 Q 560 760 570 760 Z" fill="#ffffff" stroke="none"/></g><g transform="translate(-363,-110) scale(1,1)"><path d="M 570 760 L 885.2314453125 760 Q 895.2314453125 760 895.2314453125 770 L 895.2314453125 790 Q 895.2314453125 800 885.2314453125 800 L 570 800 Q 560 800 560 790 L 560 770 Q 560 760 570 760 Z" fill="none" stroke="#000000" stroke-miterlimit="10"/></g><g transform="translate(-363,-110) scale(1,1)"><g><path fill="none" stroke="none"/><text fill="#000000" font-family="Arial" font-size="13px" font-style="normal" font-weight="bold" stroke="none" text-decoration="none" x="564.5" y="778">Update game's average rating based on user's rating</text></g></g><g transform="translate(-363,-110) scale(1,1)"><path d="M 473 393 L 473 439" fill="none" stroke="#000000" stroke-miterlimit="10"/></g><g transform="translate(-363,-110) scale(1,1)"><path d="M 468.790482243984 428.83732514237585 L 473 439 L 477.209517756016 428.83732514237585" fill="none" stroke="#000000" stroke-miterlimit="10"/></g><g transform="translate(-363,-110) scale(1,1)"><path d="M 469 744.5 L 480.5 735 L 491 744.5 L 480.5 753 L 469 744.5" fill="#C0C0C0" opacity="0.2" stroke="none"/></g><g transform="translate(-363,-110) scale(1,1)"><path d="M 462 737 L 473 728 L 484 737 L 473 746 L 462 737" fill="#ffffff" stroke="none"/></g><g transform="translate(-363,-110) scale(1,1)"><path d="M 462 737 L 473 728 L 484 737 L 473 746 L 462 737 L 462 737" fill="none" stroke="#000000" stroke-miterlimit="10"/></g><g transform="translate(-363,-110) scale(1,1)"><path d="M 473 649 L 473 727" fill="none" stroke="#000000" stroke-miterlimit="10"/></g><g transform="translate(-363,-110) scale(1,1)"><path d="M 468.790482243984 716.8373251423759 L 473 727 L 477.209517756016 716.8373251423759" fill="none" stroke="#000000" stroke-miterlimit="10"/></g><g transform="translate(-363,-110) scale(1,1)"><g><path fill="none" stroke="none"/><text fill="#000000" font-family="Arial" font-size="13px" font-style="normal" font-weight="normal" stroke="none" text-decoration="none" x="477.5" y="699">Did the user rate the game?</text></g></g><g transform="translate(-363,-110) scale(1,1)"><path d="M 484 737 L 728 737 L 728 760" fill="none" stroke="#000000" stroke-miterlimit="10"/></g><g transform="translate(-363,-110) scale(1,1)"><path d="M 723.790482243984 749.8373251423759 L 728 760 L 732.209517756016 749.8373251423759" fill="none" stroke="#000000" stroke-miterlimit="10"/></g><g transform="translate(-363,-110) scale(1,1)"><g><path fill="none" stroke="none"/><text fill="#000000" font-family="Arial" font-size="13px" font-style="normal" font-weight="normal" stroke="none" text-decoration="none" x="535.5" y="730">Yes</text></g></g><g transform="translate(-363,-110) scale(1,1)"><path d="M 473 747 L 473 839" fill="none" stroke="#000000" stroke-miterlimit="10"/></g><g transform="translate(-363,-110) scale(1,1)"><path d="M 468.790482243984 828.8373251423759 L 473 839 L 477.209517756016 828.8373251423759" fill="none" stroke="#000000" stroke-miterlimit="10"/></g><g transform="translate(-363,-110) scale(1,1)"><g><path fill="none" stroke="none"/><text fill="#000000" font-family="Arial" font-size="13px" font-style="normal" font-weight="normal" stroke="none" text-decoration="none" x="478.5" y="797">No</text></g></g><g transform="translate(-363,-110) scale(1,1)"><path d="M 727 800 L 727 856 L 486 856" fill="none" stroke="#000000" stroke-miterlimit="10"/></g><g transform="translate(-363,-110) scale(1,1)"><path d="M 496.16267485762415 851.790482243984 L 486 856 L 496.16267485762415 860.209517756016" fill="none" stroke="#000000" stroke-miterlimit="10"/></g></g></svg>