<?xml version="1.0" encoding="UTF-8" standalone="no"?><svg xmlns="http://www.w3.org/2000/svg" xmlns:xlink="http://www.w3.org/1999/xlink" height="653" version="1.1" width="529.759765625"><defs/><g><g transform="translate(-433,-30) scale(1,1)"><path d="M 566 56.5 C 566 51.2532944 570.2532944 47 575.5 47 C 580.7467056 47 585 51.2532944 585 56.5 C 585 61.7467056 580.7467056 66 575.5 66 C 570.2532944 66 566 61.7467056 566 56.5 Z" fill="#C0C0C0" opacity="0.2" stroke="none"/></g><g transform="translate(-433,-30) scale(1,1)"><path d="M 559 49.5 C 559 44.2532944 563.2532944 40 568.5 40 C 573.7467056 40 578 44.2532944 578 49.5 C 578 54.7467056 573.7467056 59 568.5 59 C 563.2532944 59 559 54.7467056 559 49.5 Z" fill="#000000" stroke="none"/></g><g transform="translate(-433,-30) scale(1,1)"><path d="M 516 111 L 635.990234375 111 Q 645.990234375 111 645.990234375 121 L 645.990234375 141 Q 645.990234375 151 635.990234375 151 L 516 151 Q 506 151 506 141 L 506 121 Q 506 111 516 111 Z" fill="#C0C0C0" opacity="0.2" stroke="none"/></g><g transform="translate(-433,-30) scale(1,1)"><path d="M 509 104 L 628.990234375 104 Q 638.990234375 104 638.990234375 114 L 638.990234375 134 Q 638.990234375 144 628.990234375 144 L 509 144 Q 499 144 499 134 L 499 114 Q 499 104 509 104 Z" fill="#ffffff" stroke="none"/></g><g transform="translate(-433,-30) scale(1,1)"><path d="M 509 104 L 628.990234375 104 Q 638.990234375 104 638.990234375 114 L 638.990234375 134 Q 638.990234375 144 628.990234375 144 L 509 144 Q 499 144 499 134 L 499 114 Q 499 104 509 104 Z" fill="none" stroke="#000000" stroke-miterlimit="10"/></g><g transform="translate(-433,-30) scale(1,1)"><g><path fill="none" stroke="none"/><text fill="#000000" font-family="Arial" font-size="13px" font-style="normal" font-weight="bold" stroke="none" text-decoration="none" x="526.00244140625" y="122">Display Game</text></g></g><g transform="translate(-433,-30) scale(1,1)"><path d="M 474 199 L 676.12255859375 199 Q 686.12255859375 199 686.12255859375 209 L 686.12255859375 229 Q 686.12255859375 239 676.12255859375 239 L 474 239 Q 464 239 464 229 L 464 209 Q 464 199 474 199 Z" fill="#C0C0C0" opacity="0.2" stroke="none"/></g><g transform="translate(-433,-30) scale(1,1)"><path d="M 467 192 L 669.12255859375 192 Q 679.12255859375 192 679.12255859375 202 L 679.12255859375 222 Q 679.12255859375 232 669.12255859375 232 L 467 232 Q 457 232 457 222 L 457 202 Q 457 192 467 192 Z" fill="#ffffff" stroke="none"/></g><g transform="translate(-433,-30) scale(1,1)"><path d="M 467 192 L 669.12255859375 192 Q 679.12255859375 192 679.12255859375 202 L 679.12255859375 222 Q 679.12255859375 232 669.12255859375 232 L 467 232 Q 457 232 457 222 L 457 202 Q 457 192 467 192 Z" fill="none" stroke="#000000" stroke-miterlimit="10"/></g><g transform="translate(-433,-30) scale(1,1)"><g><path fill="none" stroke="none"/><text fill="#000000" font-family="Arial" font-size="13px" font-style="normal" font-weight="bold" stroke="none" text-decoration="none" x="461.5" y="210">Click on "More" Button On Review</text></g></g><g transform="translate(-433,-30) scale(1,1)"><path d="M 460 281 L 691.72802734375 281 Q 701.72802734375 281 701.72802734375 291 L 701.72802734375 318 Q 701.72802734375 328 691.72802734375 328 L 460 328 Q 450 328 450 318 L 450 291 Q 450 281 460 281 Z" fill="#C0C0C0" opacity="0.2" stroke="none"/></g><g transform="translate(-433,-30) scale(1,1)"><path d="M 453 274 L 684.72802734375 274 Q 694.72802734375 274 694.72802734375 284 L 694.72802734375 311 Q 694.72802734375 321 684.72802734375 321 L 453 321 Q 443 321 443 311 L 443 284 Q 443 274 453 274 Z" fill="#ffffff" stroke="none"/></g><g transform="translate(-433,-30) scale(1,1)"><path d="M 453 274 L 684.72802734375 274 Q 694.72802734375 274 694.72802734375 284 L 694.72802734375 311 Q 694.72802734375 321 684.72802734375 321 L 453 321 Q 443 321 443 311 L 443 284 Q 443 274 453 274 Z" fill="none" stroke="#000000" stroke-miterlimit="10"/></g><g transform="translate(-433,-30) scale(1,1)"><g><path fill="none" stroke="none"/><text fill="#000000" font-family="Arial" font-size="13px" font-style="normal" font-weight="bold" stroke="none" text-decoration="none" x="447.5" y="292">Click "Delete" Button On Context Menu</text></g></g><g transform="translate(-433,-30) scale(1,1)"><path d="M 486 373 L 664.26806640625 373 Q 674.26806640625 373 674.26806640625 383 L 674.26806640625 410 Q 674.26806640625 420 664.26806640625 420 L 486 420 Q 476 420 476 410 L 476 383 Q 476 373 486 373 Z" fill="#C0C0C0" opacity="0.2" stroke="none"/></g><g transform="translate(-433,-30) scale(1,1)"><path d="M 479 366 L 657.26806640625 366 Q 667.26806640625 366 667.26806640625 376 L 667.26806640625 403 Q 667.26806640625 413 657.26806640625 413 L 479 413 Q 469 413 469 403 L 469 376 Q 469 366 479 366 Z" fill="#ffffff" stroke="none"/></g><g transform="translate(-433,-30) scale(1,1)"><path d="M 479 366 L 657.26806640625 366 Q 667.26806640625 366 667.26806640625 376 L 667.26806640625 403 Q 667.26806640625 413 657.26806640625 413 L 479 413 Q 469 413 469 403 L 469 376 Q 469 366 479 366 Z" fill="none" stroke="#000000" stroke-miterlimit="10"/></g><g transform="translate(-433,-30) scale(1,1)"><g><path fill="none" stroke="none"/><text fill="#000000" font-family="Arial" font-size="13px" font-style="normal" font-weight="bold" stroke="none" text-decoration="none" x="473.5" y="384">Display Confirmation Message</text></g></g><g transform="translate(-433,-30) scale(1,1)"><path d="M 783 527 L 949.759765625 527 Q 959.759765625 527 959.759765625 537 L 959.759765625 557 Q 959.759765625 567 949.759765625 567 L 783 567 Q 773 567 773 557 L 773 537 Q 773 527 783 527 Z" fill="#C0C0C0" opacity="0.2" stroke="none"/></g><g transform="translate(-433,-30) scale(1,1)"><path d="M 776 520 L 942.759765625 520 Q 952.759765625 520 952.759765625 530 L 952.759765625 550 Q 952.759765625 560 942.759765625 560 L 776 560 Q 766 560 766 550 L 766 530 Q 766 520 776 520 Z" fill="#ffffff" stroke="none"/></g><g transform="translate(-433,-30) scale(1,1)"><path d="M 776 520 L 942.759765625 520 Q 952.759765625 520 952.759765625 530 L 952.759765625 550 Q 952.759765625 560 942.759765625 560 L 776 560 Q 766 560 766 550 L 766 530 Q 766 520 776 520 Z" fill="none" stroke="#000000" stroke-miterlimit="10"/></g><g transform="translate(-433,-30) scale(1,1)"><g><path fill="none" stroke="none"/><text fill="#000000" font-family="Arial" font-size="13px" font-style="normal" font-weight="bold" stroke="none" text-decoration="none" x="770.5" y="538">Display Successful message</text></g></g><g transform="translate(-433,-30) scale(1,1)"><path d="M 563 667.5 C 563 660.59644 568.59644 655 575.5 655 C 582.40356 655 588 660.59644 588 667.5 C 588 674.40356 582.40356 680 575.5 680 C 568.59644 680 563 674.40356 563 667.5 Z" fill="#C0C0C0" opacity="0.2" stroke="none"/></g><g transform="translate(-433,-30) scale(1,1)"><path d="M 556 660.5 C 556 653.59644 561.59644 648 568.5 648 C 575.40356 648 581 653.59644 581 660.5 C 581 667.40356 575.40356 673 568.5 673 C 561.59644 673 556 667.40356 556 660.5 Z" fill="none" stroke="#000000" stroke-miterlimit="10"/></g><g transform="translate(-433,-30) scale(1,1)"><path d="M 561 660.5 C 561 656.357864 564.357864 653 568.5 653 C 572.642136 653 576 656.357864 576 660.5 C 576 664.642136 572.642136 668 568.5 668 C 564.357864 668 561 664.642136 561 660.5 Z" fill="#000000" stroke="none"/></g><g transform="translate(-433,-30) scale(1,1)"><path d="M 506 575 L 645 575 Q 655 575 655 585 L 655 620 Q 655 630 645 630 L 506 630 Q 496 630 496 620 L 496 585 Q 496 575 506 575 Z" fill="#C0C0C0" opacity="0.2" stroke="none"/></g><g transform="translate(-433,-30) scale(1,1)"><path d="M 499 568 L 638 568 Q 648 568 648 578 L 648 613 Q 648 623 638 623 L 499 623 Q 489 623 489 613 L 489 578 Q 489 568 499 568 Z" fill="#ffffff" stroke="none"/></g><g transform="translate(-433,-30) scale(1,1)"><path d="M 499 568 L 638 568 Q 648 568 648 578 L 648 613 Q 648 623 638 623 L 499 623 Q 489 623 489 613 L 489 578 Q 489 568 499 568 Z" fill="none" stroke="#000000" stroke-miterlimit="10"/></g><g transform="translate(-433,-30) scale(1,1)"><g><path fill="none" stroke="none"/><text fill="#000000" font-family="Arial" font-size="13px" font-style="normal" font-weight="bold" stroke="none" text-decoration="none" x="493.626220703125" y="586">Redirect to game's page</text></g></g><g transform="translate(-433,-30) scale(1,1)"><path d="M 568 60 L 568 103" fill="none" stroke="#000000" stroke-miterlimit="10"/></g><g transform="translate(-433,-30) scale(1,1)"><path d="M 563.790482243984 92.83732514237585 L 568 103 L 572.209517756016 92.83732514237585" fill="none" stroke="#000000" stroke-miterlimit="10"/></g><g transform="translate(-433,-30) scale(1,1)"><path d="M 568 145 L 568 191" fill="none" stroke="#000000" stroke-miterlimit="10"/></g><g transform="translate(-433,-30) scale(1,1)"><path d="M 563.790482243984 180.83732514237585 L 568 191 L 572.209517756016 180.83732514237585" fill="none" stroke="#000000" stroke-miterlimit="10"/></g><g transform="translate(-433,-30) scale(1,1)"><path d="M 568 233 L 568 273" fill="none" stroke="#000000" stroke-miterlimit="10"/></g><g transform="translate(-433,-30) scale(1,1)"><path d="M 563.790482243984 262.83732514237585 L 568 273 L 572.209517756016 262.83732514237585" fill="none" stroke="#000000" stroke-miterlimit="10"/></g><g transform="translate(-433,-30) scale(1,1)"><path d="M 568 322 L 568 365" fill="none" stroke="#000000" stroke-miterlimit="10"/></g><g transform="translate(-433,-30) scale(1,1)"><path d="M 563.790482243984 354.83732514237585 L 568 365 L 572.209517756016 354.83732514237585" fill="none" stroke="#000000" stroke-miterlimit="10"/></g><g transform="translate(-433,-30) scale(1,1)"><path d="M 667 384 L 848 384 L 848 424" fill="none" stroke="#000000" stroke-miterlimit="10"/></g><g transform="translate(-433,-30) scale(1,1)"><path d="M 843.790482243984 413.83732514237585 L 848 424 L 852.209517756016 413.83732514237585" fill="none" stroke="#000000" stroke-miterlimit="10"/></g><g transform="translate(-433,-30) scale(1,1)"><g><path fill="none" stroke="none"/><text fill="#000000" font-family="Arial" font-size="13px" font-style="normal" font-weight="normal" stroke="none" text-decoration="none" x="715.740966796875" y="370">Confirm</text></g></g><g transform="translate(-433,-30) scale(1,1)"><path d="M 568 414 L 568 567" fill="none" stroke="#000000" stroke-miterlimit="10"/></g><g transform="translate(-433,-30) scale(1,1)"><path d="M 563.790482243984 556.8373251423759 L 568 567 L 572.209517756016 556.8373251423759" fill="none" stroke="#000000" stroke-miterlimit="10"/></g><g transform="translate(-433,-30) scale(1,1)"><g><path fill="none" stroke="none"/><text fill="#000000" font-family="Arial" font-size="13px" font-style="normal" font-weight="normal" stroke="none" text-decoration="none" x="577.02001953125" y="494">Cancel</text></g></g><g transform="translate(-433,-30) scale(1,1)"><path d="M 568 624 L 568 647" fill="none" stroke="#000000" stroke-miterlimit="10"/></g><g transform="translate(-433,-30) scale(1,1)"><path d="M 563.790482243984 636.8373251423759 L 568 647 L 572.209517756016 636.8373251423759" fill="none" stroke="#000000" stroke-miterlimit="10"/></g><g transform="translate(-433,-30) scale(1,1)"><path d="M 848 560 L 848 592 L 648 592" fill="none" stroke="#000000" stroke-miterlimit="10"/></g><g transform="translate(-433,-30) scale(1,1)"><path d="M 658.1626748576241 587.790482243984 L 648 592 L 658.1626748576241 596.209517756016" fill="none" stroke="#000000" stroke-miterlimit="10"/></g><g transform="translate(-433,-30) scale(1,1)"><path d="M 785 431 L 948.84619140625 431 Q 958.84619140625 431 958.84619140625 441 L 958.84619140625 461 Q 958.84619140625 471 948.84619140625 471 L 785 471 Q 775 471 775 461 L 775 441 Q 775 431 785 431 Z" fill="#C0C0C0" opacity="0.2" stroke="none"/></g><g transform="translate(-433,-30) scale(1,1)"><path d="M 778 424 L 941.84619140625 424 Q 951.84619140625 424 951.84619140625 434 L 951.84619140625 454 Q 951.84619140625 464 941.84619140625 464 L 778 464 Q 768 464 768 454 L 768 434 Q 768 424 778 424 Z" fill="#ffffff" stroke="none"/></g><g transform="translate(-433,-30) scale(1,1)"><path d="M 778 424 L 941.84619140625 424 Q 951.84619140625 424 951.84619140625 434 L 951.84619140625 454 Q 951.84619140625 464 941.84619140625 464 L 778 464 Q 768 464 768 454 L 768 434 Q 768 424 778 424 Z" fill="none" stroke="#000000" stroke-miterlimit="10"/></g><g transform="translate(-433,-30) scale(1,1)"><g><path fill="none" stroke="none"/><text fill="#000000" font-family="Arial" font-size="13px" font-style="normal" font-weight="bold" stroke="none" text-decoration="none" x="772.5" y="442">Remove Review From Game</text></g></g><g transform="translate(-433,-30) scale(1,1)"><path d="M 859 465 L 859 519" fill="none" stroke="#000000" stroke-miterlimit="10"/></g><g transform="translate(-433,-30) scale(1,1)"><path d="M 854.790482243984 508.83732514237585 L 859 519 L 863.209517756016 508.83732514237585" fill="none" stroke="#000000" stroke-miterlimit="10"/></g></g></svg>