<?xml version="1.0" encoding="UTF-8" standalone="no"?><svg xmlns="http://www.w3.org/2000/svg" xmlns:xlink="http://www.w3.org/1999/xlink" height="1421" version="1.1" width="1829.20703125"><defs/><g><g transform="translate(10,-94) scale(1,1)"><path d="M 804 120.5 C 804 115.2532944 808.2532944 111 813.5 111 C 818.7467056 111 823 115.2532944 823 120.5 C 823 125.7467056 818.7467056 130 813.5 130 C 808.2532944 130 804 125.7467056 804 120.5 Z" fill="#C0C0C0" opacity="0.2" stroke="none"/></g><g transform="translate(10,-94) scale(1,1)"><path d="M 797 113.5 C 797 108.2532944 801.2532944 104 806.5 104 C 811.7467056 104 816 108.2532944 816 113.5 C 816 118.7467056 811.7467056 123 806.5 123 C 801.2532944 123 797 118.7467056 797 113.5 Z" fill="#000000" stroke="none"/></g><g transform="translate(10,-94) scale(1,1)"><path d="M 745 191 L 882.8017578125 191 Q 892.8017578125 191 892.8017578125 201 L 892.8017578125 221 Q 892.8017578125 231 882.8017578125 231 L 745 231 Q 735 231 735 221 L 735 201 Q 735 191 745 191 Z" fill="#C0C0C0" opacity="0.2" stroke="none"/></g><g transform="translate(10,-94) scale(1,1)"><path d="M 738 184 L 875.8017578125 184 Q 885.8017578125 184 885.8017578125 194 L 885.8017578125 214 Q 885.8017578125 224 875.8017578125 224 L 738 224 Q 728 224 728 214 L 728 194 Q 728 184 738 184 Z" fill="#ffffff" stroke="none"/></g><g transform="translate(10,-94) scale(1,1)"><path d="M 738 184 L 875.8017578125 184 Q 885.8017578125 184 885.8017578125 194 L 885.8017578125 214 Q 885.8017578125 224 875.8017578125 224 L 738 224 Q 728 224 728 214 L 728 194 Q 728 184 738 184 Z" fill="none" stroke="#000000" stroke-miterlimit="10"/></g><g transform="translate(10,-94) scale(1,1)"><g><path fill="none" stroke="none"/><text fill="#000000" font-family="Arial" font-size="13px" font-style="normal" font-weight="bold" stroke="none" text-decoration="none" x="732.5" y="202">Display edit profile form</text></g></g><g transform="translate(10,-94) scale(1,1)"><path d="M 806 124 L 806 183" fill="none" stroke="#000000" stroke-miterlimit="10"/></g><g transform="translate(10,-94) scale(1,1)"><path d="M 801.790482243984 172.83732514237585 L 806 183 L 810.209517756016 172.83732514237585" fill="none" stroke="#000000" stroke-miterlimit="10"/></g><g transform="translate(10,-94) scale(1,1)"><path d="M 729 303 L 898.5654296875 303 Q 908.5654296875 303 908.5654296875 313 L 908.5654296875 333 Q 908.5654296875 343 898.5654296875 343 L 729 343 Q 719 343 719 333 L 719 313 Q 719 303 729 303 Z" fill="#C0C0C0" opacity="0.2" stroke="none"/></g><g transform="translate(10,-94) scale(1,1)"><path d="M 722 296 L 891.5654296875 296 Q 901.5654296875 296 901.5654296875 306 L 901.5654296875 326 Q 901.5654296875 336 891.5654296875 336 L 722 336 Q 712 336 712 326 L 712 306 Q 712 296 722 296 Z" fill="#ffffff" stroke="none"/></g><g transform="translate(10,-94) scale(1,1)"><path d="M 722 296 L 891.5654296875 296 Q 901.5654296875 296 901.5654296875 306 L 901.5654296875 326 Q 901.5654296875 336 891.5654296875 336 L 722 336 Q 712 336 712 326 L 712 306 Q 712 296 722 296 Z" fill="none" stroke="#000000" stroke-miterlimit="10"/></g><g transform="translate(10,-94) scale(1,1)"><g><path fill="none" stroke="none"/><text fill="#000000" font-family="Arial" font-size="13px" font-style="normal" font-weight="bold" stroke="none" text-decoration="none" x="716.5" y="314">Enter new profile information</text></g></g><g transform="translate(10,-94) scale(1,1)"><path d="M 802 475.5 L 813.5 466 L 824 475.5 L 813.5 484 L 802 475.5" fill="#C0C0C0" opacity="0.2" stroke="none"/></g><g transform="translate(10,-94) scale(1,1)"><path d="M 795 468 L 806 459 L 817 468 L 806 477 L 795 468" fill="#ffffff" stroke="none"/></g><g transform="translate(10,-94) scale(1,1)"><path d="M 795 468 L 806 459 L 817 468 L 806 477 L 795 468 L 795 468" fill="none" stroke="#000000" stroke-miterlimit="10"/></g><g transform="translate(10,-94) scale(1,1)"><path d="M 806 337 L 806 458" fill="none" stroke="#000000" stroke-miterlimit="10"/></g><g transform="translate(10,-94) scale(1,1)"><path d="M 801.790482243984 447.83732514237585 L 806 458 L 810.209517756016 447.83732514237585" fill="none" stroke="#000000" stroke-miterlimit="10"/></g><g transform="translate(10,-94) scale(1,1)"><g><path fill="none" stroke="none"/><text fill="#000000" font-family="Arial" font-size="13px" font-style="normal" font-weight="normal" stroke="none" text-decoration="none" x="816.880859375" y="403">Did user upload a new photo?</text></g></g><g transform="translate(10,-94) scale(1,1)"><path d="M 1193 351 L 1390.83154296875 351 Q 1400.83154296875 351 1400.83154296875 361 L 1400.83154296875 381 Q 1400.83154296875 391 1390.83154296875 391 L 1193 391 Q 1183 391 1183 381 L 1183 361 Q 1183 351 1193 351 Z" fill="#C0C0C0" opacity="0.2" stroke="none"/></g><g transform="translate(10,-94) scale(1,1)"><path d="M 1186 344 L 1383.83154296875 344 Q 1393.83154296875 344 1393.83154296875 354 L 1393.83154296875 374 Q 1393.83154296875 384 1383.83154296875 384 L 1186 384 Q 1176 384 1176 374 L 1176 354 Q 1176 344 1186 344 Z" fill="#ffffff" stroke="none"/></g><g transform="translate(10,-94) scale(1,1)"><path d="M 1186 344 L 1383.83154296875 344 Q 1393.83154296875 344 1393.83154296875 354 L 1393.83154296875 374 Q 1393.83154296875 384 1383.83154296875 384 L 1186 384 Q 1176 384 1176 374 L 1176 354 Q 1176 344 1186 344 Z" fill="none" stroke="#000000" stroke-miterlimit="10"/></g><g transform="translate(10,-94) scale(1,1)"><g><path fill="none" stroke="none"/><text fill="#000000" font-family="Arial" font-size="13px" font-style="normal" font-weight="bold" stroke="none" text-decoration="none" x="1180.5" y="362">Display image size error message</text></g></g><g transform="translate(10,-94) scale(1,1)"><path d="M 1087 475.5 L 1098.5 466 L 1109 475.5 L 1098.5 484 L 1087 475.5" fill="#C0C0C0" opacity="0.2" stroke="none"/></g><g transform="translate(10,-94) scale(1,1)"><path d="M 1080 468 L 1091 459 L 1102 468 L 1091 477 L 1080 468" fill="#ffffff" stroke="none"/></g><g transform="translate(10,-94) scale(1,1)"><path d="M 1080 468 L 1091 459 L 1102 468 L 1091 477 L 1080 468 L 1080 468" fill="none" stroke="#000000" stroke-miterlimit="10"/></g><g transform="translate(10,-94) scale(1,1)"><path d="M 818 468 L 1079 468" fill="none" stroke="#000000" stroke-miterlimit="10"/></g><g transform="translate(10,-94) scale(1,1)"><path d="M 1068.837325142376 472.209517756016 L 1079 468 L 1068.837325142376 463.790482243984" fill="none" stroke="#000000" stroke-miterlimit="10"/></g><g transform="translate(10,-94) scale(1,1)"><g><path fill="none" stroke="none"/><text fill="#000000" font-family="Arial" font-size="13px" font-style="normal" font-weight="normal" stroke="none" text-decoration="none" x="823.5" y="456">Yes</text></g></g><g transform="translate(10,-94) scale(1,1)"><g><path fill="none" stroke="none"/><text fill="#000000" font-family="Arial" font-size="13px" font-style="normal" font-weight="normal" stroke="none" text-decoration="none" x="885" y="455">Was the photo size less than 2MB?</text></g></g><g transform="translate(10,-94) scale(1,1)"><path d="M 1102 464 L 1288 464 L 1288 384" fill="none" stroke="#000000" stroke-miterlimit="10"/></g><g transform="translate(10,-94) scale(1,1)"><path d="M 1292.2095177560159 394.16267485762415 L 1288 384 L 1283.7904822439841 394.16267485762415" fill="none" stroke="#000000" stroke-miterlimit="10"/></g><g transform="translate(10,-94) scale(1,1)"><g><path fill="none" stroke="none"/><text fill="#000000" font-family="Arial" font-size="13px" font-style="normal" font-weight="normal" stroke="none" text-decoration="none" x="1294.5" y="435">No</text></g></g><g transform="translate(10,-94) scale(1,1)"><path d="M 806 225 L 806 295" fill="none" stroke="#000000" stroke-miterlimit="10"/></g><g transform="translate(10,-94) scale(1,1)"><path d="M 801.790482243984 284.83732514237585 L 806 295 L 810.209517756016 284.83732514237585" fill="none" stroke="#000000" stroke-miterlimit="10"/></g><g transform="translate(10,-94) scale(1,1)"><path d="M 802 648.5 L 813.5 639 L 824 648.5 L 813.5 657 L 802 648.5" fill="#C0C0C0" opacity="0.2" stroke="none"/></g><g transform="translate(10,-94) scale(1,1)"><path d="M 795 641 L 806 632 L 817 641 L 806 650 L 795 641" fill="#ffffff" stroke="none"/></g><g transform="translate(10,-94) scale(1,1)"><path d="M 795 641 L 806 632 L 817 641 L 806 650 L 795 641 L 795 641" fill="none" stroke="#000000" stroke-miterlimit="10"/></g><g transform="translate(10,-94) scale(1,1)"><path d="M 808 477 L 808 632" fill="none" stroke="#000000" stroke-miterlimit="10"/></g><g transform="translate(10,-94) scale(1,1)"><path d="M 803.790482243984 621.8373251423759 L 808 632 L 812.209517756016 621.8373251423759" fill="none" stroke="#000000" stroke-miterlimit="10"/></g><g transform="translate(10,-94) scale(1,1)"><g><path fill="none" stroke="none"/><text fill="#000000" font-family="Arial" font-size="13px" font-style="normal" font-weight="normal" stroke="none" text-decoration="none" x="813.5" y="555">No</text></g></g><g transform="translate(10,-94) scale(1,1)"><path d="M 1088 477 L 1088 641 L 817 641" fill="none" stroke="#000000" stroke-miterlimit="10"/></g><g transform="translate(10,-94) scale(1,1)"><path d="M 827.1626748576241 636.790482243984 L 817 641 L 827.1626748576241 645.209517756016" fill="none" stroke="#000000" stroke-miterlimit="10"/></g><g transform="translate(10,-94) scale(1,1)"><g><path fill="none" stroke="none"/><text fill="#000000" font-family="Arial" font-size="13px" font-style="normal" font-weight="normal" stroke="none" text-decoration="none" x="1093.817138671875" y="563">Yes</text></g></g><g transform="translate(10,-94) scale(1,1)"><path d="M 802 768.5 L 813.5 759 L 824 768.5 L 813.5 777 L 802 768.5" fill="#C0C0C0" opacity="0.2" stroke="none"/></g><g transform="translate(10,-94) scale(1,1)"><path d="M 795 761 L 806 752 L 817 761 L 806 770 L 795 761" fill="#ffffff" stroke="none"/></g><g transform="translate(10,-94) scale(1,1)"><path d="M 795 761 L 806 752 L 817 761 L 806 770 L 795 761 L 795 761" fill="none" stroke="#000000" stroke-miterlimit="10"/></g><g transform="translate(10,-94) scale(1,1)"><path d="M 806 651 L 806 751" fill="none" stroke="#000000" stroke-miterlimit="10"/></g><g transform="translate(10,-94) scale(1,1)"><path d="M 801.790482243984 740.8373251423759 L 806 751 L 810.209517756016 740.8373251423759" fill="none" stroke="#000000" stroke-miterlimit="10"/></g><g transform="translate(10,-94) scale(1,1)"><g><path fill="none" stroke="none"/><text fill="#000000" font-family="Arial" font-size="13px" font-style="normal" font-weight="normal" stroke="none" text-decoration="none" x="814.5" y="699">Did user change their email or password?</text></g></g><g transform="translate(10,-94) scale(1,1)"><path d="M 765 962 L 861.63720703125 962 Q 871.63720703125 962 871.63720703125 972 L 871.63720703125 992 Q 871.63720703125 1002 861.63720703125 1002 L 765 1002 Q 755 1002 755 992 L 755 972 Q 755 962 765 962 Z" fill="#C0C0C0" opacity="0.2" stroke="none"/></g><g transform="translate(10,-94) scale(1,1)"><path d="M 758 955 L 854.63720703125 955 Q 864.63720703125 955 864.63720703125 965 L 864.63720703125 985 Q 864.63720703125 995 854.63720703125 995 L 758 995 Q 748 995 748 985 L 748 965 Q 748 955 758 955 Z" fill="#ffffff" stroke="none"/></g><g transform="translate(10,-94) scale(1,1)"><path d="M 758 955 L 854.63720703125 955 Q 864.63720703125 955 864.63720703125 965 L 864.63720703125 985 Q 864.63720703125 995 854.63720703125 995 L 758 995 Q 748 995 748 985 L 748 965 Q 748 955 758 955 Z" fill="none" stroke="#000000" stroke-miterlimit="10"/></g><g transform="translate(10,-94) scale(1,1)"><g><path fill="none" stroke="none"/><text fill="#000000" font-family="Arial" font-size="13px" font-style="normal" font-weight="bold" stroke="none" text-decoration="none" x="752.5" y="973">Click save button</text></g></g><g transform="translate(10,-94) scale(1,1)"><path d="M 808 770 L 808 955" fill="none" stroke="#000000" stroke-miterlimit="10"/></g><g transform="translate(10,-94) scale(1,1)"><path d="M 803.790482243984 944.8373251423759 L 808 955 L 812.209517756016 944.8373251423759" fill="none" stroke="#000000" stroke-miterlimit="10"/></g><g transform="translate(10,-94) scale(1,1)"><g><path fill="none" stroke="none"/><text fill="#000000" font-family="Arial" font-size="13px" font-style="normal" font-weight="normal" stroke="none" text-decoration="none" x="812.5" y="904">No</text></g></g><g transform="translate(10,-94) scale(1,1)"><path d="M 497 864 L 646.3798828125 864 Q 656.3798828125 864 656.3798828125 874 L 656.3798828125 894 Q 656.3798828125 904 646.3798828125 904 L 497 904 Q 487 904 487 894 L 487 874 Q 487 864 497 864 Z" fill="#C0C0C0" opacity="0.2" stroke="none"/></g><g transform="translate(10,-94) scale(1,1)"><path d="M 490 857 L 639.3798828125 857 Q 649.3798828125 857 649.3798828125 867 L 649.3798828125 887 Q 649.3798828125 897 639.3798828125 897 L 490 897 Q 480 897 480 887 L 480 867 Q 480 857 490 857 Z" fill="#ffffff" stroke="none"/></g><g transform="translate(10,-94) scale(1,1)"><path d="M 490 857 L 639.3798828125 857 Q 649.3798828125 857 649.3798828125 867 L 649.3798828125 887 Q 649.3798828125 897 639.3798828125 897 L 490 897 Q 480 897 480 887 L 480 867 Q 480 857 490 857 Z" fill="none" stroke="#000000" stroke-miterlimit="10"/></g><g transform="translate(10,-94) scale(1,1)"><g><path fill="none" stroke="none"/><text fill="#000000" font-family="Arial" font-size="13px" font-style="normal" font-weight="bold" stroke="none" text-decoration="none" x="484.5" y="875">Provide current password</text></g></g><g transform="translate(10,-94) scale(1,1)"><path d="M 795 760 L 564 760 L 564 857" fill="none" stroke="#000000" stroke-miterlimit="10"/></g><g transform="translate(10,-94) scale(1,1)"><path d="M 559.790482243984 846.8373251423759 L 564 857 L 568.209517756016 846.8373251423759" fill="none" stroke="#000000" stroke-miterlimit="10"/></g><g transform="translate(10,-94) scale(1,1)"><g><path fill="none" stroke="none"/><text fill="#000000" font-family="Arial" font-size="13px" font-style="normal" font-weight="normal" stroke="none" text-decoration="none" x="525.5" y="795">Email</text></g></g><g transform="translate(10,-94) scale(1,1)"><path d="M 560 1063.5 L 571.5 1054 L 582 1063.5 L 571.5 1072 L 560 1063.5" fill="#C0C0C0" opacity="0.2" stroke="none"/></g><g transform="translate(10,-94) scale(1,1)"><path d="M 553 1056 L 564 1047 L 575 1056 L 564 1065 L 553 1056" fill="#ffffff" stroke="none"/></g><g transform="translate(10,-94) scale(1,1)"><path d="M 553 1056 L 564 1047 L 575 1056 L 564 1065 L 553 1056 L 553 1056" fill="none" stroke="#000000" stroke-miterlimit="10"/></g><g transform="translate(10,-94) scale(1,1)"><path d="M 193 918 L 428.365234375 918 Q 438.365234375 918 438.365234375 928 L 438.365234375 948 Q 438.365234375 958 428.365234375 958 L 193 958 Q 183 958 183 948 L 183 928 Q 183 918 193 918 Z" fill="#C0C0C0" opacity="0.2" stroke="none"/></g><g transform="translate(10,-94) scale(1,1)"><path d="M 186 911 L 421.365234375 911 Q 431.365234375 911 431.365234375 921 L 431.365234375 941 Q 431.365234375 951 421.365234375 951 L 186 951 Q 176 951 176 941 L 176 921 Q 176 911 186 911 Z" fill="#ffffff" stroke="none"/></g><g transform="translate(10,-94) scale(1,1)"><path d="M 186 911 L 421.365234375 911 Q 431.365234375 911 431.365234375 921 L 431.365234375 941 Q 431.365234375 951 421.365234375 951 L 186 951 Q 176 951 176 941 L 176 921 Q 176 911 186 911 Z" fill="none" stroke="#000000" stroke-miterlimit="10"/></g><g transform="translate(10,-94) scale(1,1)"><g><path fill="none" stroke="none"/><text fill="#000000" font-family="Arial" font-size="13px" font-style="normal" font-weight="bold" stroke="none" text-decoration="none" x="180.5" y="929">Display wrong password error message</text></g></g><g transform="translate(10,-94) scale(1,1)"><path d="M 553 1056 L 288 1056 L 288 951" fill="none" stroke="#000000" stroke-miterlimit="10"/></g><g transform="translate(10,-94) scale(1,1)"><path d="M 292.209517756016 961.1626748576241 L 288 951 L 283.790482243984 961.1626748576241" fill="none" stroke="#000000" stroke-miterlimit="10"/></g><g transform="translate(10,-94) scale(1,1)"><g><path fill="none" stroke="none"/><text fill="#000000" font-family="Arial" font-size="13px" font-style="normal" font-weight="normal" stroke="none" text-decoration="none" x="262.5" y="1025">No</text></g></g><g transform="translate(10,-94) scale(1,1)"><path d="M 288 911 L 288 877 L 480 877" fill="none" stroke="#000000" stroke-miterlimit="10"/></g><g transform="translate(10,-94) scale(1,1)"><path d="M 469.83732514237585 881.209517756016 L 480 877 L 469.83732514237585 872.790482243984" fill="none" stroke="#000000" stroke-miterlimit="10"/></g><g transform="translate(10,-94) scale(1,1)"><path d="M 523 962 L 619.63720703125 962 Q 629.63720703125 962 629.63720703125 972 L 629.63720703125 992 Q 629.63720703125 1002 619.63720703125 1002 L 523 1002 Q 513 1002 513 992 L 513 972 Q 513 962 523 962 Z" fill="#C0C0C0" opacity="0.2" stroke="none"/></g><g transform="translate(10,-94) scale(1,1)"><path d="M 516 955 L 612.63720703125 955 Q 622.63720703125 955 622.63720703125 965 L 622.63720703125 985 Q 622.63720703125 995 612.63720703125 995 L 516 995 Q 506 995 506 985 L 506 965 Q 506 955 516 955 Z" fill="#ffffff" stroke="none"/></g><g transform="translate(10,-94) scale(1,1)"><path d="M 516 955 L 612.63720703125 955 Q 622.63720703125 955 622.63720703125 965 L 622.63720703125 985 Q 622.63720703125 995 612.63720703125 995 L 516 995 Q 506 995 506 985 L 506 965 Q 506 955 516 955 Z" fill="none" stroke="#000000" stroke-miterlimit="10"/></g><g transform="translate(10,-94) scale(1,1)"><g><path fill="none" stroke="none"/><text fill="#000000" font-family="Arial" font-size="13px" font-style="normal" font-weight="bold" stroke="none" text-decoration="none" x="510.5" y="973">Click save button</text></g></g><g transform="translate(10,-94) scale(1,1)"><path d="M 564 898 L 564 954" fill="none" stroke="#000000" stroke-miterlimit="10"/></g><g transform="translate(10,-94) scale(1,1)"><path d="M 559.790482243984 943.8373251423759 L 564 954 L 568.209517756016 943.8373251423759" fill="none" stroke="#000000" stroke-miterlimit="10"/></g><g transform="translate(10,-94) scale(1,1)"><path d="M 564 996 L 564 1046" fill="none" stroke="#000000" stroke-miterlimit="10"/></g><g transform="translate(10,-94) scale(1,1)"><path d="M 559.790482243984 1035.837325142376 L 564 1046 L 568.209517756016 1035.837325142376" fill="none" stroke="#000000" stroke-miterlimit="10"/></g><g transform="translate(10,-94) scale(1,1)"><g><path fill="none" stroke="none"/><text fill="#000000" font-family="Arial" font-size="13px" font-style="normal" font-weight="normal" stroke="none" text-decoration="none" x="583.5" y="1020">Is the password correct?</text></g></g><g transform="translate(10,-94) scale(1,1)"><path d="M 559 1157.5 L 570.5 1148 L 581 1157.5 L 570.5 1166 L 559 1157.5" fill="#C0C0C0" opacity="0.2" stroke="none"/></g><g transform="translate(10,-94) scale(1,1)"><path d="M 552 1150 L 563 1141 L 574 1150 L 563 1159 L 552 1150" fill="#ffffff" stroke="none"/></g><g transform="translate(10,-94) scale(1,1)"><path d="M 552 1150 L 563 1141 L 574 1150 L 563 1159 L 552 1150 L 552 1150" fill="none" stroke="#000000" stroke-miterlimit="10"/></g><g transform="translate(10,-94) scale(1,1)"><path d="M 564 1066 L 563 1140" fill="none" stroke="#000000" stroke-miterlimit="10"/></g><g transform="translate(10,-94) scale(1,1)"><path d="M 558.9281874581544 1129.7813727622508 L 563 1140 L 567.3464543541705 1129.8951331257106" fill="none" stroke="#000000" stroke-miterlimit="10"/></g><g transform="translate(10,-94) scale(1,1)"><g><path fill="none" stroke="none"/><text fill="#000000" font-family="Arial" font-size="13px" font-style="normal" font-weight="normal" stroke="none" text-decoration="none" x="573.5" y="1131">Is email already taken?</text></g></g><g transform="translate(10,-94) scale(1,1)"><path d="M 17 1137 L 272.6396484375 1137 Q 282.6396484375 1137 282.6396484375 1147 L 282.6396484375 1167 Q 282.6396484375 1177 272.6396484375 1177 L 17 1177 Q 7 1177 7 1167 L 7 1147 Q 7 1137 17 1137 Z" fill="#C0C0C0" opacity="0.2" stroke="none"/></g><g transform="translate(10,-94) scale(1,1)"><path d="M 10 1130 L 265.6396484375 1130 Q 275.6396484375 1130 275.6396484375 1140 L 275.6396484375 1160 Q 275.6396484375 1170 265.6396484375 1170 L 10 1170 Q 0 1170 0 1160 L 0 1140 Q 0 1130 10 1130 Z" fill="#ffffff" stroke="none"/></g><g transform="translate(10,-94) scale(1,1)"><path d="M 10 1130 L 265.6396484375 1130 Q 275.6396484375 1130 275.6396484375 1140 L 275.6396484375 1160 Q 275.6396484375 1170 265.6396484375 1170 L 10 1170 Q 0 1170 0 1160 L 0 1140 Q 0 1130 10 1130 Z" fill="none" stroke="#000000" stroke-miterlimit="10"/></g><g transform="translate(10,-94) scale(1,1)"><g><path fill="none" stroke="none"/><text fill="#000000" font-family="Arial" font-size="13px" font-style="normal" font-weight="bold" stroke="none" text-decoration="none" x="4.5" y="1148">Display email already in use error message</text></g></g><g transform="translate(10,-94) scale(1,1)"><path d="M 551 1150 L 277 1150" fill="none" stroke="#000000" stroke-miterlimit="10"/></g><g transform="translate(10,-94) scale(1,1)"><path d="M 287.16267485762415 1145.7904822439841 L 277 1150 L 287.16267485762415 1154.2095177560159" fill="none" stroke="#000000" stroke-miterlimit="10"/></g><g transform="translate(10,-94) scale(1,1)"><g><path fill="none" stroke="none"/><text fill="#000000" font-family="Arial" font-size="13px" font-style="normal" font-weight="normal" stroke="none" text-decoration="none" x="402.5" y="1170">Yes</text></g></g><g transform="translate(10,-94) scale(1,1)"><path d="M 112 1130 L 112 320 L 712 320" fill="none" stroke="#000000" stroke-miterlimit="10"/></g><g transform="translate(10,-94) scale(1,1)"><path d="M 701.8373251423759 324.209517756016 L 712 320 L 701.8373251423758 315.790482243984" fill="none" stroke="#000000" stroke-miterlimit="10"/></g><g transform="translate(10,-94) scale(1,1)"><path d="M 1025 864 L 1174.3798828125 864 Q 1184.3798828125 864 1184.3798828125 874 L 1184.3798828125 894 Q 1184.3798828125 904 1174.3798828125 904 L 1025 904 Q 1015 904 1015 894 L 1015 874 Q 1015 864 1025 864 Z" fill="#C0C0C0" opacity="0.2" stroke="none"/></g><g transform="translate(10,-94) scale(1,1)"><path d="M 1018 857 L 1167.3798828125 857 Q 1177.3798828125 857 1177.3798828125 867 L 1177.3798828125 887 Q 1177.3798828125 897 1167.3798828125 897 L 1018 897 Q 1008 897 1008 887 L 1008 867 Q 1008 857 1018 857 Z" fill="#ffffff" stroke="none"/></g><g transform="translate(10,-94) scale(1,1)"><path d="M 1018 857 L 1167.3798828125 857 Q 1177.3798828125 857 1177.3798828125 867 L 1177.3798828125 887 Q 1177.3798828125 897 1167.3798828125 897 L 1018 897 Q 1008 897 1008 887 L 1008 867 Q 1008 857 1018 857 Z" fill="none" stroke="#000000" stroke-miterlimit="10"/></g><g transform="translate(10,-94) scale(1,1)"><g><path fill="none" stroke="none"/><text fill="#000000" font-family="Arial" font-size="13px" font-style="normal" font-weight="bold" stroke="none" text-decoration="none" x="1012.5" y="875">Provide current password</text></g></g><g transform="translate(10,-94) scale(1,1)"><path d="M 1050 962 L 1146.63720703125 962 Q 1156.63720703125 962 1156.63720703125 972 L 1156.63720703125 992 Q 1156.63720703125 1002 1146.63720703125 1002 L 1050 1002 Q 1040 1002 1040 992 L 1040 972 Q 1040 962 1050 962 Z" fill="#C0C0C0" opacity="0.2" stroke="none"/></g><g transform="translate(10,-94) scale(1,1)"><path d="M 1043 955 L 1139.63720703125 955 Q 1149.63720703125 955 1149.63720703125 965 L 1149.63720703125 985 Q 1149.63720703125 995 1139.63720703125 995 L 1043 995 Q 1033 995 1033 985 L 1033 965 Q 1033 955 1043 955 Z" fill="#ffffff" stroke="none"/></g><g transform="translate(10,-94) scale(1,1)"><path d="M 1043 955 L 1139.63720703125 955 Q 1149.63720703125 955 1149.63720703125 965 L 1149.63720703125 985 Q 1149.63720703125 995 1139.63720703125 995 L 1043 995 Q 1033 995 1033 985 L 1033 965 Q 1033 955 1043 955 Z" fill="none" stroke="#000000" stroke-miterlimit="10"/></g><g transform="translate(10,-94) scale(1,1)"><g><path fill="none" stroke="none"/><text fill="#000000" font-family="Arial" font-size="13px" font-style="normal" font-weight="bold" stroke="none" text-decoration="none" x="1037.5" y="973">Click save button</text></g></g><g transform="translate(10,-94) scale(1,1)"><path d="M 817 761 L 1088 761 L 1088 857" fill="none" stroke="#000000" stroke-miterlimit="10"/></g><g transform="translate(10,-94) scale(1,1)"><path d="M 1083.7904822439841 846.8373251423759 L 1088 857 L 1092.2095177560159 846.8373251423759" fill="none" stroke="#000000" stroke-miterlimit="10"/></g><g transform="translate(10,-94) scale(1,1)"><g><path fill="none" stroke="none"/><text fill="#000000" font-family="Arial" font-size="13px" font-style="normal" font-weight="normal" stroke="none" text-decoration="none" x="1095.5" y="802">Password</text></g></g><g transform="translate(10,-94) scale(1,1)"><path d="M 1092 898 L 1091 954" fill="none" stroke="#000000" stroke-miterlimit="10"/></g><g transform="translate(10,-94) scale(1,1)"><path d="M 1086.9726006531662 943.7637871016121 L 1091 954 L 1095.3902941654267 943.9141030571882" fill="none" stroke="#000000" stroke-miterlimit="10"/></g><g transform="translate(10,-94) scale(1,1)"><path d="M 1087 1063.5 L 1098.5 1054 L 1109 1063.5 L 1098.5 1072 L 1087 1063.5" fill="#C0C0C0" opacity="0.2" stroke="none"/></g><g transform="translate(10,-94) scale(1,1)"><path d="M 1080 1056 L 1091 1047 L 1102 1056 L 1091 1065 L 1080 1056" fill="#ffffff" stroke="none"/></g><g transform="translate(10,-94) scale(1,1)"><path d="M 1080 1056 L 1091 1047 L 1102 1056 L 1091 1065 L 1080 1056 L 1080 1056" fill="none" stroke="#000000" stroke-miterlimit="10"/></g><g transform="translate(10,-94) scale(1,1)"><path d="M 1091 996 L 1091 1046" fill="none" stroke="#000000" stroke-miterlimit="10"/></g><g transform="translate(10,-94) scale(1,1)"><path d="M 1086.7904822439841 1035.837325142376 L 1091 1046 L 1095.2095177560159 1035.837325142376" fill="none" stroke="#000000" stroke-miterlimit="10"/></g><g transform="translate(10,-94) scale(1,1)"><g><path fill="none" stroke="none"/><text fill="#000000" font-family="Arial" font-size="13px" font-style="normal" font-weight="normal" stroke="none" text-decoration="none" x="1102.5" y="1027">Is the password correct?</text></g></g><g transform="translate(10,-94) scale(1,1)"><path d="M 1241 919 L 1476.365234375 919 Q 1486.365234375 919 1486.365234375 929 L 1486.365234375 949 Q 1486.365234375 959 1476.365234375 959 L 1241 959 Q 1231 959 1231 949 L 1231 929 Q 1231 919 1241 919 Z" fill="#C0C0C0" opacity="0.2" stroke="none"/></g><g transform="translate(10,-94) scale(1,1)"><path d="M 1234 912 L 1469.365234375 912 Q 1479.365234375 912 1479.365234375 922 L 1479.365234375 942 Q 1479.365234375 952 1469.365234375 952 L 1234 952 Q 1224 952 1224 942 L 1224 922 Q 1224 912 1234 912 Z" fill="#ffffff" stroke="none"/></g><g transform="translate(10,-94) scale(1,1)"><path d="M 1234 912 L 1469.365234375 912 Q 1479.365234375 912 1479.365234375 922 L 1479.365234375 942 Q 1479.365234375 952 1469.365234375 952 L 1234 952 Q 1224 952 1224 942 L 1224 922 Q 1224 912 1234 912 Z" fill="none" stroke="#000000" stroke-miterlimit="10"/></g><g transform="translate(10,-94) scale(1,1)"><g><path fill="none" stroke="none"/><text fill="#000000" font-family="Arial" font-size="13px" font-style="normal" font-weight="bold" stroke="none" text-decoration="none" x="1228.5" y="930">Display wrong password error message</text></g></g><g transform="translate(10,-94) scale(1,1)"><path d="M 1102 1056 L 1355 1056 L 1355 952" fill="none" stroke="#000000" stroke-miterlimit="10"/></g><g transform="translate(10,-94) scale(1,1)"><path d="M 1359.2095177560159 962.1626748576241 L 1355 952 L 1350.7904822439841 962.1626748576241" fill="none" stroke="#000000" stroke-miterlimit="10"/></g><g transform="translate(10,-94) scale(1,1)"><g><path fill="none" stroke="none"/><text fill="#000000" font-family="Arial" font-size="13px" font-style="normal" font-weight="normal" stroke="none" text-decoration="none" x="1366.5" y="1027">No</text></g></g><g transform="translate(10,-94) scale(1,1)"><path d="M 1352 912 L 1352 873 L 1177 873" fill="none" stroke="#000000" stroke-miterlimit="10"/></g><g transform="translate(10,-94) scale(1,1)"><path d="M 1187.162674857624 868.790482243984 L 1177 873 L 1187.162674857624 877.209517756016" fill="none" stroke="#000000" stroke-miterlimit="10"/></g><g transform="translate(10,-94) scale(1,1)"><g><path fill="none" stroke="none"/><text fill="#000000" font-family="Arial" font-size="13px" font-style="normal" font-weight="normal" stroke="none" text-decoration="none" x="581" y="1079">Yes</text></g></g><g transform="translate(10,-94) scale(1,1)"><path d="M 1087 1157.5 L 1098.5 1148 L 1109 1157.5 L 1098.5 1166 L 1087 1157.5" fill="#C0C0C0" opacity="0.2" stroke="none"/></g><g transform="translate(10,-94) scale(1,1)"><path d="M 1080 1150 L 1091 1141 L 1102 1150 L 1091 1159 L 1080 1150" fill="#ffffff" stroke="none"/></g><g transform="translate(10,-94) scale(1,1)"><path d="M 1080 1150 L 1091 1141 L 1102 1150 L 1091 1159 L 1080 1150 L 1080 1150" fill="none" stroke="#000000" stroke-miterlimit="10"/></g><g transform="translate(10,-94) scale(1,1)"><path d="M 1091 1066 L 1091 1140" fill="none" stroke="#000000" stroke-miterlimit="10"/></g><g transform="translate(10,-94) scale(1,1)"><path d="M 1086.7904822439841 1129.837325142376 L 1091 1140 L 1095.2095177560159 1129.837325142376" fill="none" stroke="#000000" stroke-miterlimit="10"/></g><g transform="translate(10,-94) scale(1,1)"><g><path fill="none" stroke="none"/><text fill="#000000" font-family="Arial" font-size="13px" font-style="normal" font-weight="normal" stroke="none" text-decoration="none" x="1103.5" y="1094">Do the new passwords match?</text></g></g><g transform="translate(10,-94) scale(1,1)"><path d="M 1521 1137 L 1806.20703125 1137 Q 1816.20703125 1137 1816.20703125 1147 L 1816.20703125 1167 Q 1816.20703125 1177 1806.20703125 1177 L 1521 1177 Q 1511 1177 1511 1167 L 1511 1147 Q 1511 1137 1521 1137 Z" fill="#C0C0C0" opacity="0.2" stroke="none"/></g><g transform="translate(10,-94) scale(1,1)"><path d="M 1514 1130 L 1799.20703125 1130 Q 1809.20703125 1130 1809.20703125 1140 L 1809.20703125 1160 Q 1809.20703125 1170 1799.20703125 1170 L 1514 1170 Q 1504 1170 1504 1160 L 1504 1140 Q 1504 1130 1514 1130 Z" fill="#ffffff" stroke="none"/></g><g transform="translate(10,-94) scale(1,1)"><path d="M 1514 1130 L 1799.20703125 1130 Q 1809.20703125 1130 1809.20703125 1140 L 1809.20703125 1160 Q 1809.20703125 1170 1799.20703125 1170 L 1514 1170 Q 1504 1170 1504 1160 L 1504 1140 Q 1504 1130 1514 1130 Z" fill="none" stroke="#000000" stroke-miterlimit="10"/></g><g transform="translate(10,-94) scale(1,1)"><g><path fill="none" stroke="none"/><text fill="#000000" font-family="Arial" font-size="13px" font-style="normal" font-weight="bold" stroke="none" text-decoration="none" x="1508.5" y="1148">Display passwords do not match error message</text></g></g><g transform="translate(10,-94) scale(1,1)"><path d="M 1103 1150 L 1503 1150" fill="none" stroke="#000000" stroke-miterlimit="10"/></g><g transform="translate(10,-94) scale(1,1)"><path d="M 1492.837325142376 1154.2095177560159 L 1503 1150 L 1492.837325142376 1145.7904822439841" fill="none" stroke="#000000" stroke-miterlimit="10"/></g><g transform="translate(10,-94) scale(1,1)"><g><path fill="none" stroke="none"/><text fill="#000000" font-family="Arial" font-size="13px" font-style="normal" font-weight="normal" stroke="none" text-decoration="none" x="1294.5" y="1140">No</text></g></g><g transform="translate(10,-94) scale(1,1)"><path d="M 1640 1130 L 1640 304 L 902 304" fill="none" stroke="#000000" stroke-miterlimit="10"/></g><g transform="translate(10,-94) scale(1,1)"><path d="M 912.1626748576241 299.790482243984 L 902 304 L 912.1626748576241 308.209517756016" fill="none" stroke="#000000" stroke-miterlimit="10"/></g><g transform="translate(10,-94) scale(1,1)"><path d="M 1288 344 L 1288 328 L 902 328" fill="none" stroke="#000000" stroke-miterlimit="10"/></g><g transform="translate(10,-94) scale(1,1)"><path d="M 912.1626748576241 323.790482243984 L 902 328 L 912.1626748576241 332.209517756016" fill="none" stroke="#000000" stroke-miterlimit="10"/></g><g transform="translate(10,-94) scale(1,1)"><path d="M 739 1319 L 888.43701171875 1319 Q 898.43701171875 1319 898.43701171875 1329 L 898.43701171875 1349 Q 898.43701171875 1359 888.43701171875 1359 L 739 1359 Q 729 1359 729 1349 L 729 1329 Q 729 1319 739 1319 Z" fill="#C0C0C0" opacity="0.2" stroke="none"/></g><g transform="translate(10,-94) scale(1,1)"><path d="M 732 1312 L 881.43701171875 1312 Q 891.43701171875 1312 891.43701171875 1322 L 891.43701171875 1342 Q 891.43701171875 1352 881.43701171875 1352 L 732 1352 Q 722 1352 722 1342 L 722 1322 Q 722 1312 732 1312 Z" fill="#ffffff" stroke="none"/></g><g transform="translate(10,-94) scale(1,1)"><path d="M 732 1312 L 881.43701171875 1312 Q 891.43701171875 1312 891.43701171875 1322 L 891.43701171875 1342 Q 891.43701171875 1352 881.43701171875 1352 L 732 1352 Q 722 1352 722 1342 L 722 1322 Q 722 1312 732 1312 Z" fill="none" stroke="#000000" stroke-miterlimit="10"/></g><g transform="translate(10,-94) scale(1,1)"><g><path fill="none" stroke="none"/><text fill="#000000" font-family="Arial" font-size="13px" font-style="normal" font-weight="bold" stroke="none" text-decoration="none" x="726.5" y="1330">Display success message</text></g></g><g transform="translate(10,-94) scale(1,1)"><path d="M 563 1159 L 563 1273 L 795 1273" fill="none" stroke="#000000" stroke-miterlimit="10"/></g><g transform="translate(10,-94) scale(1,1)"><path d="M 784.8373251423759 1277.2095177560159 L 795 1273 L 784.8373251423758 1268.7904822439841" fill="none" stroke="#000000" stroke-miterlimit="10"/></g><g transform="translate(10,-94) scale(1,1)"><g><path fill="none" stroke="none"/><text fill="#000000" font-family="Arial" font-size="13px" font-style="normal" font-weight="normal" stroke="none" text-decoration="none" x="569.794677734375" y="1220">No</text></g></g><g transform="translate(10,-94) scale(1,1)"><path d="M 1088 1159 L 1088 1273 L 817 1273" fill="none" stroke="#000000" stroke-miterlimit="10"/></g><g transform="translate(10,-94) scale(1,1)"><path d="M 827.1626748576241 1268.7904822439841 L 817 1273 L 827.1626748576241 1277.2095177560159" fill="none" stroke="#000000" stroke-miterlimit="10"/></g><g transform="translate(10,-94) scale(1,1)"><g><path fill="none" stroke="none"/><text fill="#000000" font-family="Arial" font-size="13px" font-style="normal" font-weight="normal" stroke="none" text-decoration="none" x="1095.5" y="1225">Yes</text></g></g><g transform="translate(10,-94) scale(1,1)"><path d="M 808 995 L 808 1264" fill="none" stroke="#000000" stroke-miterlimit="10"/></g><g transform="translate(10,-94) scale(1,1)"><path d="M 803.790482243984 1253.837325142376 L 808 1264 L 812.209517756016 1253.837325142376" fill="none" stroke="#000000" stroke-miterlimit="10"/></g><g transform="translate(10,-94) scale(1,1)"><path d="M 802 1280.5 L 813.5 1271 L 824 1280.5 L 813.5 1289 L 802 1280.5" fill="#C0C0C0" opacity="0.2" stroke="none"/></g><g transform="translate(10,-94) scale(1,1)"><path d="M 795 1273 L 806 1264 L 817 1273 L 806 1282 L 795 1273" fill="#ffffff" stroke="none"/></g><g transform="translate(10,-94) scale(1,1)"><path d="M 795 1273 L 806 1264 L 817 1273 L 806 1282 L 795 1273 L 795 1273" fill="none" stroke="#000000" stroke-miterlimit="10"/></g><g transform="translate(10,-94) scale(1,1)"><path d="M 810 1282 L 810 1312" fill="none" stroke="#000000" stroke-miterlimit="10"/></g><g transform="translate(10,-94) scale(1,1)"><path d="M 805.790482243984 1301.837325142376 L 810 1312 L 814.209517756016 1301.837325142376" fill="none" stroke="#000000" stroke-miterlimit="10"/></g><g transform="translate(10,-94) scale(1,1)"><path d="M 751 1407 L 875.7890625 1407 Q 885.7890625 1407 885.7890625 1417 L 885.7890625 1437 Q 885.7890625 1447 875.7890625 1447 L 751 1447 Q 741 1447 741 1437 L 741 1417 Q 741 1407 751 1407 Z" fill="#C0C0C0" opacity="0.2" stroke="none"/></g><g transform="translate(10,-94) scale(1,1)"><path d="M 744 1400 L 868.7890625 1400 Q 878.7890625 1400 878.7890625 1410 L 878.7890625 1430 Q 878.7890625 1440 868.7890625 1440 L 744 1440 Q 734 1440 734 1430 L 734 1410 Q 734 1400 744 1400 Z" fill="#ffffff" stroke="none"/></g><g transform="translate(10,-94) scale(1,1)"><path d="M 744 1400 L 868.7890625 1400 Q 878.7890625 1400 878.7890625 1410 L 878.7890625 1430 Q 878.7890625 1440 868.7890625 1440 L 744 1440 Q 734 1440 734 1430 L 734 1410 Q 734 1400 744 1400 Z" fill="none" stroke="#000000" stroke-miterlimit="10"/></g><g transform="translate(10,-94) scale(1,1)"><g><path fill="none" stroke="none"/><text fill="#000000" font-family="Arial" font-size="13px" font-style="normal" font-weight="bold" stroke="none" text-decoration="none" x="738.5" y="1418">Return to Profile page</text></g></g><g transform="translate(10,-94) scale(1,1)"><path d="M 811 1352 L 811 1400" fill="none" stroke="#000000" stroke-miterlimit="10"/></g><g transform="translate(10,-94) scale(1,1)"><path d="M 806.790482243984 1389.837325142376 L 811 1400 L 815.209517756016 1389.837325142376" fill="none" stroke="#000000" stroke-miterlimit="10"/></g><g transform="translate(10,-94) scale(1,1)"><path d="M 801 1499.5 C 801 1492.59644 806.59644 1487 813.5 1487 C 820.40356 1487 826 1492.59644 826 1499.5 C 826 1506.40356 820.40356 1512 813.5 1512 C 806.59644 1512 801 1506.40356 801 1499.5 Z" fill="#C0C0C0" opacity="0.2" stroke="none"/></g><g transform="translate(10,-94) scale(1,1)"><path d="M 794 1492.5 C 794 1485.59644 799.59644 1480 806.5 1480 C 813.40356 1480 819 1485.59644 819 1492.5 C 819 1499.40356 813.40356 1505 806.5 1505 C 799.59644 1505 794 1499.40356 794 1492.5 Z" fill="none" stroke="#000000" stroke-miterlimit="10"/></g><g transform="translate(10,-94) scale(1,1)"><path d="M 799 1492.5 C 799 1488.357864 802.357864 1485 806.5 1485 C 810.642136 1485 814 1488.357864 814 1492.5 C 814 1496.642136 810.642136 1500 806.5 1500 C 802.357864 1500 799 1496.642136 799 1492.5 Z" fill="#000000" stroke="none"/></g><g transform="translate(10,-94) scale(1,1)"><path d="M 809 1440 L 809 1480" fill="none" stroke="#000000" stroke-miterlimit="10"/></g><g transform="translate(10,-94) scale(1,1)"><path d="M 804.790482243984 1469.837325142376 L 809 1480 L 813.209517756016 1469.837325142376" fill="none" stroke="#000000" stroke-miterlimit="10"/></g></g></svg>