<?xml version="1.0" encoding="UTF-8" standalone="no"?><svg xmlns="http://www.w3.org/2000/svg" xmlns:xlink="http://www.w3.org/1999/xlink" height="869" version="1.1" width="921.3720703125"><defs/><g><g transform="translate(-526,-94) scale(1,1)"><path d="M 970 120.5 C 970 115.2532944 974.2532944 111 979.5 111 C 984.7467056 111 989 115.2532944 989 120.5 C 989 125.7467056 984.7467056 130 979.5 130 C 974.2532944 130 970 125.7467056 970 120.5 Z" fill="#C0C0C0" opacity="0.2" stroke="none"/></g><g transform="translate(-526,-94) scale(1,1)"><path d="M 963 113.5 C 963 108.2532944 967.2532944 104 972.5 104 C 977.7467056 104 982 108.2532944 982 113.5 C 982 118.7467056 977.7467056 123 972.5 123 C 967.2532944 123 963 118.7467056 963 113.5 Z" fill="#000000" stroke="none"/></g><g transform="translate(-526,-94) scale(1,1)"><path d="M 925 215 L 1034.6689453125 215 Q 1044.6689453125 215 1044.6689453125 225 L 1044.6689453125 245 Q 1044.6689453125 255 1034.6689453125 255 L 925 255 Q 915 255 915 245 L 915 225 Q 915 215 925 215 Z" fill="#C0C0C0" opacity="0.2" stroke="none"/></g><g transform="translate(-526,-94) scale(1,1)"><path d="M 918 208 L 1027.6689453125 208 Q 1037.6689453125 208 1037.6689453125 218 L 1037.6689453125 238 Q 1037.6689453125 248 1027.6689453125 248 L 918 248 Q 908 248 908 238 L 908 218 Q 908 208 918 208 Z" fill="#ffffff" stroke="none"/></g><g transform="translate(-526,-94) scale(1,1)"><path d="M 918 208 L 1027.6689453125 208 Q 1037.6689453125 208 1037.6689453125 218 L 1037.6689453125 238 Q 1037.6689453125 248 1027.6689453125 248 L 918 248 Q 908 248 908 238 L 908 218 Q 908 208 918 208 Z" fill="none" stroke="#000000" stroke-miterlimit="10"/></g><g transform="translate(-526,-94) scale(1,1)"><g><path fill="none" stroke="none"/><text fill="#000000" font-family="Arial" font-size="13px" font-style="normal" font-weight="bold" stroke="none" text-decoration="none" x="912.5" y="226">Display Game Page</text></g></g><g transform="translate(-526,-94) scale(1,1)"><path d="M 869 327 L 1089 327 Q 1099 327 1099 337 L 1099 357 Q 1099 367 1089 367 L 869 367 Q 859 367 859 357 L 859 337 Q 859 327 869 327 Z" fill="#C0C0C0" opacity="0.2" stroke="none"/></g><g transform="translate(-526,-94) scale(1,1)"><path d="M 862 320 L 1082 320 Q 1092 320 1092 330 L 1092 350 Q 1092 360 1082 360 L 862 360 Q 852 360 852 350 L 852 330 Q 852 320 862 320 Z" fill="#ffffff" stroke="none"/></g><g transform="translate(-526,-94) scale(1,1)"><path d="M 862 320 L 1082 320 Q 1092 320 1092 330 L 1092 350 Q 1092 360 1082 360 L 862 360 Q 852 360 852 350 L 852 330 Q 852 320 862 320 Z" fill="none" stroke="#000000" stroke-miterlimit="10"/></g><g transform="translate(-526,-94) scale(1,1)"><g><path fill="none" stroke="none"/><text fill="#000000" font-family="Arial" font-size="13px" font-style="normal" font-weight="bold" stroke="none" text-decoration="none" x="869.412353515625" y="338">Click on "More" button on review</text></g></g><g transform="translate(-526,-94) scale(1,1)"><path d="M 863 423 L 1096.15625 423 Q 1106.15625 423 1106.15625 433 L 1106.15625 453 Q 1106.15625 463 1096.15625 463 L 863 463 Q 853 463 853 453 L 853 433 Q 853 423 863 423 Z" fill="#C0C0C0" opacity="0.2" stroke="none"/></g><g transform="translate(-526,-94) scale(1,1)"><path d="M 856 416 L 1089.15625 416 Q 1099.15625 416 1099.15625 426 L 1099.15625 446 Q 1099.15625 456 1089.15625 456 L 856 456 Q 846 456 846 446 L 846 426 Q 846 416 856 416 Z" fill="#ffffff" stroke="none"/></g><g transform="translate(-526,-94) scale(1,1)"><path d="M 856 416 L 1089.15625 416 Q 1099.15625 416 1099.15625 426 L 1099.15625 446 Q 1099.15625 456 1089.15625 456 L 856 456 Q 846 456 846 446 L 846 426 Q 846 416 856 416 Z" fill="none" stroke="#000000" stroke-miterlimit="10"/></g><g transform="translate(-526,-94) scale(1,1)"><g><path fill="none" stroke="none"/><text fill="#000000" font-family="Arial" font-size="13px" font-style="normal" font-weight="bold" stroke="none" text-decoration="none" x="850.5" y="434">Click on "Edit" Button on context menu</text></g></g><g transform="translate(-526,-94) scale(1,1)"><path d="M 941 511 L 1018.87353515625 511 Q 1028.87353515625 511 1028.87353515625 521 L 1028.87353515625 541 Q 1028.87353515625 551 1018.87353515625 551 L 941 551 Q 931 551 931 541 L 931 521 Q 931 511 941 511 Z" fill="#C0C0C0" opacity="0.2" stroke="none"/></g><g transform="translate(-526,-94) scale(1,1)"><path d="M 934 504 L 1011.87353515625 504 Q 1021.87353515625 504 1021.87353515625 514 L 1021.87353515625 534 Q 1021.87353515625 544 1011.87353515625 544 L 934 544 Q 924 544 924 534 L 924 514 Q 924 504 934 504 Z" fill="#ffffff" stroke="none"/></g><g transform="translate(-526,-94) scale(1,1)"><path d="M 934 504 L 1011.87353515625 504 Q 1021.87353515625 504 1021.87353515625 514 L 1021.87353515625 534 Q 1021.87353515625 544 1011.87353515625 544 L 934 544 Q 924 544 924 534 L 924 514 Q 924 504 934 504 Z" fill="none" stroke="#000000" stroke-miterlimit="10"/></g><g transform="translate(-526,-94) scale(1,1)"><g><path fill="none" stroke="none"/><text fill="#000000" font-family="Arial" font-size="13px" font-style="normal" font-weight="bold" stroke="none" text-decoration="none" x="928.5" y="522">Make changes</text></g></g><g transform="translate(-526,-94) scale(1,1)"><path d="M 968 648.5 L 979.5 639 L 990 648.5 L 979.5 657 L 968 648.5" fill="#C0C0C0" opacity="0.2" stroke="none"/></g><g transform="translate(-526,-94) scale(1,1)"><path d="M 961 641 L 972 632 L 983 641 L 972 650 L 961 641" fill="#ffffff" stroke="none"/></g><g transform="translate(-526,-94) scale(1,1)"><path d="M 961 641 L 972 632 L 983 641 L 972 650 L 961 641 L 961 641" fill="none" stroke="#000000" stroke-miterlimit="10"/></g><g transform="translate(-526,-94) scale(1,1)"><path d="M 972 124 L 972 207" fill="none" stroke="#000000" stroke-miterlimit="10"/></g><g transform="translate(-526,-94) scale(1,1)"><path d="M 967.790482243984 196.83732514237585 L 972 207 L 976.209517756016 196.83732514237585" fill="none" stroke="#000000" stroke-miterlimit="10"/></g><g transform="translate(-526,-94) scale(1,1)"><path d="M 972 249 L 972 319" fill="none" stroke="#000000" stroke-miterlimit="10"/></g><g transform="translate(-526,-94) scale(1,1)"><path d="M 967.790482243984 308.83732514237585 L 972 319 L 976.209517756016 308.83732514237585" fill="none" stroke="#000000" stroke-miterlimit="10"/></g><g transform="translate(-526,-94) scale(1,1)"><path d="M 972 361 L 972 415" fill="none" stroke="#000000" stroke-miterlimit="10"/></g><g transform="translate(-526,-94) scale(1,1)"><path d="M 967.790482243984 404.83732514237585 L 972 415 L 976.209517756016 404.83732514237585" fill="none" stroke="#000000" stroke-miterlimit="10"/></g><g transform="translate(-526,-94) scale(1,1)"><path d="M 972 457 L 972 503" fill="none" stroke="#000000" stroke-miterlimit="10"/></g><g transform="translate(-526,-94) scale(1,1)"><path d="M 967.790482243984 492.83732514237585 L 972 503 L 976.209517756016 492.83732514237585" fill="none" stroke="#000000" stroke-miterlimit="10"/></g><g transform="translate(-526,-94) scale(1,1)"><path d="M 972 545 L 972 631" fill="none" stroke="#000000" stroke-miterlimit="10"/></g><g transform="translate(-526,-94) scale(1,1)"><path d="M 967.790482243984 620.8373251423759 L 972 631 L 976.209517756016 620.8373251423759" fill="none" stroke="#000000" stroke-miterlimit="10"/></g><g transform="translate(-526,-94) scale(1,1)"><g><path fill="none" stroke="none"/><text fill="#000000" font-family="Arial" font-size="13px" font-style="normal" font-weight="normal" stroke="none" text-decoration="none" x="992.5" y="597">What changes did the user make?</text></g></g><g transform="translate(-526,-94) scale(1,1)"><path d="M 1243 722 L 1392.43701171875 722 Q 1402.43701171875 722 1402.43701171875 732 L 1402.43701171875 752 Q 1402.43701171875 762 1392.43701171875 762 L 1243 762 Q 1233 762 1233 752 L 1233 732 Q 1233 722 1243 722 Z" fill="#C0C0C0" opacity="0.2" stroke="none"/></g><g transform="translate(-526,-94) scale(1,1)"><path d="M 1236 715 L 1385.43701171875 715 Q 1395.43701171875 715 1395.43701171875 725 L 1395.43701171875 745 Q 1395.43701171875 755 1385.43701171875 755 L 1236 755 Q 1226 755 1226 745 L 1226 725 Q 1226 715 1236 715 Z" fill="#ffffff" stroke="none"/></g><g transform="translate(-526,-94) scale(1,1)"><path d="M 1236 715 L 1385.43701171875 715 Q 1395.43701171875 715 1395.43701171875 725 L 1395.43701171875 745 Q 1395.43701171875 755 1385.43701171875 755 L 1236 755 Q 1226 755 1226 745 L 1226 725 Q 1226 715 1236 715 Z" fill="none" stroke="#000000" stroke-miterlimit="10"/></g><g transform="translate(-526,-94) scale(1,1)"><g><path fill="none" stroke="none"/><text fill="#000000" font-family="Arial" font-size="13px" font-style="normal" font-weight="bold" stroke="none" text-decoration="none" x="1230.5" y="733">Display success message</text></g></g><g transform="translate(-526,-94) scale(1,1)"><path d="M 592 722 L 741.43701171875 722 Q 751.43701171875 722 751.43701171875 732 L 751.43701171875 752 Q 751.43701171875 762 741.43701171875 762 L 592 762 Q 582 762 582 752 L 582 732 Q 582 722 592 722 Z" fill="#C0C0C0" opacity="0.2" stroke="none"/></g><g transform="translate(-526,-94) scale(1,1)"><path d="M 585 715 L 734.43701171875 715 Q 744.43701171875 715 744.43701171875 725 L 744.43701171875 745 Q 744.43701171875 755 734.43701171875 755 L 585 755 Q 575 755 575 745 L 575 725 Q 575 715 585 715 Z" fill="#ffffff" stroke="none"/></g><g transform="translate(-526,-94) scale(1,1)"><path d="M 585 715 L 734.43701171875 715 Q 744.43701171875 715 744.43701171875 725 L 744.43701171875 745 Q 744.43701171875 755 734.43701171875 755 L 585 755 Q 575 755 575 745 L 575 725 Q 575 715 585 715 Z" fill="none" stroke="#000000" stroke-miterlimit="10"/></g><g transform="translate(-526,-94) scale(1,1)"><g><path fill="none" stroke="none"/><text fill="#000000" font-family="Arial" font-size="13px" font-style="normal" font-weight="bold" stroke="none" text-decoration="none" x="579.5" y="733">Display success message</text></g></g><g transform="translate(-526,-94) scale(1,1)"><path d="M 905 722 L 1054.43701171875 722 Q 1064.43701171875 722 1064.43701171875 732 L 1064.43701171875 752 Q 1064.43701171875 762 1054.43701171875 762 L 905 762 Q 895 762 895 752 L 895 732 Q 895 722 905 722 Z" fill="#C0C0C0" opacity="0.2" stroke="none"/></g><g transform="translate(-526,-94) scale(1,1)"><path d="M 898 715 L 1047.43701171875 715 Q 1057.43701171875 715 1057.43701171875 725 L 1057.43701171875 745 Q 1057.43701171875 755 1047.43701171875 755 L 898 755 Q 888 755 888 745 L 888 725 Q 888 715 898 715 Z" fill="#ffffff" stroke="none"/></g><g transform="translate(-526,-94) scale(1,1)"><path d="M 898 715 L 1047.43701171875 715 Q 1057.43701171875 715 1057.43701171875 725 L 1057.43701171875 745 Q 1057.43701171875 755 1047.43701171875 755 L 898 755 Q 888 755 888 745 L 888 725 Q 888 715 898 715 Z" fill="none" stroke="#000000" stroke-miterlimit="10"/></g><g transform="translate(-526,-94) scale(1,1)"><g><path fill="none" stroke="none"/><text fill="#000000" font-family="Arial" font-size="13px" font-style="normal" font-weight="bold" stroke="none" text-decoration="none" x="892.5" y="733">Display success message</text></g></g><g transform="translate(-526,-94) scale(1,1)"><path d="M 976 650 L 976 715" fill="none" stroke="#000000" stroke-miterlimit="10"/></g><g transform="translate(-526,-94) scale(1,1)"><path d="M 971.790482243984 704.8373251423759 L 976 715 L 980.209517756016 704.8373251423759" fill="none" stroke="#000000" stroke-miterlimit="10"/></g><g transform="translate(-526,-94) scale(1,1)"><g><path fill="none" stroke="none"/><text fill="#000000" font-family="Arial" font-size="13px" font-style="normal" font-weight="normal" stroke="none" text-decoration="none" x="996.5" y="683">Review text and rating</text></g></g><g transform="translate(-526,-94) scale(1,1)"><path d="M 983 641 L 1310 641 L 1310 715" fill="none" stroke="#000000" stroke-miterlimit="10"/></g><g transform="translate(-526,-94) scale(1,1)"><path d="M 1305.7904822439841 704.8373251423759 L 1310 715 L 1314.2095177560159 704.8373251423759" fill="none" stroke="#000000" stroke-miterlimit="10"/></g><g transform="translate(-526,-94) scale(1,1)"><g><path fill="none" stroke="none"/><text fill="#000000" font-family="Arial" font-size="13px" font-style="normal" font-weight="normal" stroke="none" text-decoration="none" x="1325.5" y="682">Rating</text></g></g><g transform="translate(-526,-94) scale(1,1)"><path d="M 961 641 L 656 641 L 656 715" fill="none" stroke="#000000" stroke-miterlimit="10"/></g><g transform="translate(-526,-94) scale(1,1)"><path d="M 651.790482243984 704.8373251423759 L 656 715 L 660.209517756016 704.8373251423759" fill="none" stroke="#000000" stroke-miterlimit="10"/></g><g transform="translate(-526,-94) scale(1,1)"><g><path fill="none" stroke="none"/><text fill="#000000" font-family="Arial" font-size="13px" font-style="normal" font-weight="normal" stroke="none" text-decoration="none" x="662.5" y="683">Review text</text></g></g><g transform="translate(-526,-94) scale(1,1)"><path d="M 553 799 L 780.41162109375 799 Q 790.41162109375 799 790.41162109375 809 L 790.41162109375 829 Q 790.41162109375 839 780.41162109375 839 L 553 839 Q 543 839 543 829 L 543 809 Q 543 799 553 799 Z" fill="#C0C0C0" opacity="0.2" stroke="none"/></g><g transform="translate(-526,-94) scale(1,1)"><path d="M 546 792 L 773.41162109375 792 Q 783.41162109375 792 783.41162109375 802 L 783.41162109375 822 Q 783.41162109375 832 773.41162109375 832 L 546 832 Q 536 832 536 822 L 536 802 Q 536 792 546 792 Z" fill="#ffffff" stroke="none"/></g><g transform="translate(-526,-94) scale(1,1)"><path d="M 546 792 L 773.41162109375 792 Q 783.41162109375 792 783.41162109375 802 L 783.41162109375 822 Q 783.41162109375 832 773.41162109375 832 L 546 832 Q 536 832 536 822 L 536 802 Q 536 792 546 792 Z" fill="none" stroke="#000000" stroke-miterlimit="10"/></g><g transform="translate(-526,-94) scale(1,1)"><g><path fill="none" stroke="none"/><text fill="#000000" font-family="Arial" font-size="13px" font-style="normal" font-weight="bold" stroke="none" text-decoration="none" x="540.5" y="810">Display updated review on Game Page</text></g></g><g transform="translate(-526,-94) scale(1,1)"><path d="M 656 755 L 656 792" fill="none" stroke="#000000" stroke-miterlimit="10"/></g><g transform="translate(-526,-94) scale(1,1)"><path d="M 651.790482243984 781.8373251423759 L 656 792 L 660.209517756016 781.8373251423759" fill="none" stroke="#000000" stroke-miterlimit="10"/></g><g transform="translate(-526,-94) scale(1,1)"><path d="M 1201 799 L 1434.3720703125 799 Q 1444.3720703125 799 1444.3720703125 809 L 1444.3720703125 829 Q 1444.3720703125 839 1434.3720703125 839 L 1201 839 Q 1191 839 1191 829 L 1191 809 Q 1191 799 1201 799 Z" fill="#C0C0C0" opacity="0.2" stroke="none"/></g><g transform="translate(-526,-94) scale(1,1)"><path d="M 1194 792 L 1427.3720703125 792 Q 1437.3720703125 792 1437.3720703125 802 L 1437.3720703125 822 Q 1437.3720703125 832 1427.3720703125 832 L 1194 832 Q 1184 832 1184 822 L 1184 802 Q 1184 792 1194 792 Z" fill="#ffffff" stroke="none"/></g><g transform="translate(-526,-94) scale(1,1)"><path d="M 1194 792 L 1427.3720703125 792 Q 1437.3720703125 792 1437.3720703125 802 L 1437.3720703125 822 Q 1437.3720703125 832 1427.3720703125 832 L 1194 832 Q 1184 832 1184 822 L 1184 802 Q 1184 792 1194 792 Z" fill="none" stroke="#000000" stroke-miterlimit="10"/></g><g transform="translate(-526,-94) scale(1,1)"><g><path fill="none" stroke="none"/><text fill="#000000" font-family="Arial" font-size="13px" font-style="normal" font-weight="bold" stroke="none" text-decoration="none" x="1193.66064453125" y="810">Display updated rating on Game Page</text></g></g><g transform="translate(-526,-94) scale(1,1)"><path d="M 1310 756 L 1310 791" fill="none" stroke="#000000" stroke-miterlimit="10"/></g><g transform="translate(-526,-94) scale(1,1)"><path d="M 1305.7904822439841 780.8373251423759 L 1310 791 L 1314.2095177560159 780.8373251423759" fill="none" stroke="#000000" stroke-miterlimit="10"/></g><g transform="translate(-526,-94) scale(1,1)"><path d="M 833 799 L 1126.85888671875 799 Q 1136.85888671875 799 1136.85888671875 809 L 1136.85888671875 829 Q 1136.85888671875 839 1126.85888671875 839 L 833 839 Q 823 839 823 829 L 823 809 Q 823 799 833 799 Z" fill="#C0C0C0" opacity="0.2" stroke="none"/></g><g transform="translate(-526,-94) scale(1,1)"><path d="M 826 792 L 1119.85888671875 792 Q 1129.85888671875 792 1129.85888671875 802 L 1129.85888671875 822 Q 1129.85888671875 832 1119.85888671875 832 L 826 832 Q 816 832 816 822 L 816 802 Q 816 792 826 792 Z" fill="#ffffff" stroke="none"/></g><g transform="translate(-526,-94) scale(1,1)"><path d="M 826 792 L 1119.85888671875 792 Q 1129.85888671875 792 1129.85888671875 802 L 1129.85888671875 822 Q 1129.85888671875 832 1119.85888671875 832 L 826 832 Q 816 832 816 822 L 816 802 Q 816 792 826 792 Z" fill="none" stroke="#000000" stroke-miterlimit="10"/></g><g transform="translate(-526,-94) scale(1,1)"><g><path fill="none" stroke="none"/><text fill="#000000" font-family="Arial" font-size="13px" font-style="normal" font-weight="bold" stroke="none" text-decoration="none" x="820.5" y="810">Display updated review and rating on Game Page</text></g></g><g transform="translate(-526,-94) scale(1,1)"><path d="M 976 755 L 976 792" fill="none" stroke="#000000" stroke-miterlimit="10"/></g><g transform="translate(-526,-94) scale(1,1)"><path d="M 971.790482243984 781.8373251423759 L 976 792 L 980.209517756016 781.8373251423759" fill="none" stroke="#000000" stroke-miterlimit="10"/></g><g transform="translate(-526,-94) scale(1,1)"><path d="M 967 947.5 C 967 940.59644 972.59644 935 979.5 935 C 986.40356 935 992 940.59644 992 947.5 C 992 954.40356 986.40356 960 979.5 960 C 972.59644 960 967 954.40356 967 947.5 Z" fill="#C0C0C0" opacity="0.2" stroke="none"/></g><g transform="translate(-526,-94) scale(1,1)"><path d="M 960 940.5 C 960 933.59644 965.59644 928 972.5 928 C 979.40356 928 985 933.59644 985 940.5 C 985 947.40356 979.40356 953 972.5 953 C 965.59644 953 960 947.40356 960 940.5 Z" fill="none" stroke="#000000" stroke-miterlimit="10"/></g><g transform="translate(-526,-94) scale(1,1)"><path d="M 965 940.5 C 965 936.357864 968.357864 933 972.5 933 C 976.642136 933 980 936.357864 980 940.5 C 980 944.642136 976.642136 948 972.5 948 C 968.357864 948 965 944.642136 965 940.5 Z" fill="#000000" stroke="none"/></g><g transform="translate(-526,-94) scale(1,1)"><path d="M 659 832 L 659 944 L 960 944" fill="none" stroke="#000000" stroke-miterlimit="10"/></g><g transform="translate(-526,-94) scale(1,1)"><path d="M 949.8373251423759 948.209517756016 L 960 944 L 949.8373251423758 939.790482243984" fill="none" stroke="#000000" stroke-miterlimit="10"/></g><g transform="translate(-526,-94) scale(1,1)"><path d="M 972 833 L 972 927" fill="none" stroke="#000000" stroke-miterlimit="10"/></g><g transform="translate(-526,-94) scale(1,1)"><path d="M 967.790482243984 916.8373251423759 L 972 927 L 976.209517756016 916.8373251423759" fill="none" stroke="#000000" stroke-miterlimit="10"/></g><g transform="translate(-526,-94) scale(1,1)"><path d="M 1306 832 L 1306 944 L 985 944" fill="none" stroke="#000000" stroke-miterlimit="10"/></g><g transform="translate(-526,-94) scale(1,1)"><path d="M 995.1626748576241 939.790482243984 L 985 944 L 995.1626748576241 948.209517756016" fill="none" stroke="#000000" stroke-miterlimit="10"/></g></g></svg>