<?xml version="1.0" encoding="UTF-8" standalone="no"?><svg xmlns="http://www.w3.org/2000/svg" xmlns:xlink="http://www.w3.org/1999/xlink" height="973" version="1.1" width="1716.4052734375"><defs/><g><g transform="translate(-190,-206) scale(1,1)"><path d="M 1153 232.5 C 1153 227.2532944 1157.2532944 223 1162.5 223 C 1167.7467056 223 1172 227.2532944 1172 232.5 C 1172 237.7467056 1167.7467056 242 1162.5 242 C 1157.2532944 242 1153 237.7467056 1153 232.5 Z" fill="#C0C0C0" opacity="0.2" stroke="none"/></g><g transform="translate(-190,-206) scale(1,1)"><path d="M 1146 225.5 C 1146 220.2532944 1150.2532944 216 1155.5 216 C 1160.7467056 216 1165 220.2532944 1165 225.5 C 1165 230.7467056 1160.7467056 235 1155.5 235 C 1150.2532944 235 1146 230.7467056 1146 225.5 Z" fill="#000000" stroke="none"/></g><g transform="translate(-190,-206) scale(1,1)"><path d="M 1097 311 L 1229.787109375 311 Q 1239.787109375 311 1239.787109375 321 L 1239.787109375 341 Q 1239.787109375 351 1229.787109375 351 L 1097 351 Q 1087 351 1087 341 L 1087 321 Q 1087 311 1097 311 Z" fill="#C0C0C0" opacity="0.2" stroke="none"/></g><g transform="translate(-190,-206) scale(1,1)"><path d="M 1090 304 L 1222.787109375 304 Q 1232.787109375 304 1232.787109375 314 L 1232.787109375 334 Q 1232.787109375 344 1222.787109375 344 L 1090 344 Q 1080 344 1080 334 L 1080 314 Q 1080 304 1090 304 Z" fill="#ffffff" stroke="none"/></g><g transform="translate(-190,-206) scale(1,1)"><path d="M 1090 304 L 1222.787109375 304 Q 1232.787109375 304 1232.787109375 314 L 1232.787109375 334 Q 1232.787109375 344 1222.787109375 344 L 1090 344 Q 1080 344 1080 334 L 1080 314 Q 1080 304 1090 304 Z" fill="none" stroke="#000000" stroke-miterlimit="10"/></g><g transform="translate(-190,-206) scale(1,1)"><g><path fill="none" stroke="none"/><text fill="#000000" font-family="Arial" font-size="13px" font-style="normal" font-weight="bold" stroke="none" text-decoration="none" x="1084.5" y="322">Display Search Results</text></g></g><g transform="translate(-190,-206) scale(1,1)"><path d="M 1155 236 L 1156 303" fill="none" stroke="#000000" stroke-miterlimit="10"/></g><g transform="translate(-190,-206) scale(1,1)"><path d="M 1151.6392862136918 292.90127853271014 L 1156 303 L 1160.0573841417227 292.77563528005294" fill="none" stroke="#000000" stroke-miterlimit="10"/></g><g transform="translate(-190,-206) scale(1,1)"><path d="M 1108 399 L 1217.6689453125 399 Q 1227.6689453125 399 1227.6689453125 409 L 1227.6689453125 429 Q 1227.6689453125 439 1217.6689453125 439 L 1108 439 Q 1098 439 1098 429 L 1098 409 Q 1098 399 1108 399 Z" fill="#C0C0C0" opacity="0.2" stroke="none"/></g><g transform="translate(-190,-206) scale(1,1)"><path d="M 1101 392 L 1210.6689453125 392 Q 1220.6689453125 392 1220.6689453125 402 L 1220.6689453125 422 Q 1220.6689453125 432 1210.6689453125 432 L 1101 432 Q 1091 432 1091 422 L 1091 402 Q 1091 392 1101 392 Z" fill="#ffffff" stroke="none"/></g><g transform="translate(-190,-206) scale(1,1)"><path d="M 1101 392 L 1210.6689453125 392 Q 1220.6689453125 392 1220.6689453125 402 L 1220.6689453125 422 Q 1220.6689453125 432 1210.6689453125 432 L 1101 432 Q 1091 432 1091 422 L 1091 402 Q 1091 392 1101 392 Z" fill="none" stroke="#000000" stroke-miterlimit="10"/></g><g transform="translate(-190,-206) scale(1,1)"><g><path fill="none" stroke="none"/><text fill="#000000" font-family="Arial" font-size="13px" font-style="normal" font-weight="bold" stroke="none" text-decoration="none" x="1095.5" y="410">Select Filter Games</text></g></g><g transform="translate(-190,-206) scale(1,1)"><path d="M 1156 345 L 1155 391" fill="none" stroke="#000000" stroke-miterlimit="10"/></g><g transform="translate(-190,-206) scale(1,1)"><path d="M 1151.0123521078249 380.74823604017183 L 1155 391 L 1159.429398949577 380.93121531934037" fill="none" stroke="#000000" stroke-miterlimit="10"/></g><g transform="translate(-190,-206) scale(1,1)"><path d="M 1151 483.5 L 1162.5 474 L 1173 483.5 L 1162.5 492 L 1151 483.5" fill="#C0C0C0" opacity="0.2" stroke="none"/></g><g transform="translate(-190,-206) scale(1,1)"><path d="M 1144 476 L 1155 467 L 1166 476 L 1155 485 L 1144 476" fill="#ffffff" stroke="none"/></g><g transform="translate(-190,-206) scale(1,1)"><path d="M 1144 476 L 1155 467 L 1166 476 L 1155 485 L 1144 476 L 1144 476" fill="none" stroke="#000000" stroke-miterlimit="10"/></g><g transform="translate(-190,-206) scale(1,1)"><path d="M 1155 433 L 1155 466" fill="none" stroke="#000000" stroke-miterlimit="10"/></g><g transform="translate(-190,-206) scale(1,1)"><path d="M 1150.7904822439841 455.83732514237585 L 1155 466 L 1159.2095177560159 455.83732514237585" fill="none" stroke="#000000" stroke-miterlimit="10"/></g><g transform="translate(-190,-206) scale(1,1)"><path d="M 253 463 L 518.6943359375 463 Q 528.6943359375 463 528.6943359375 473 L 528.6943359375 493 Q 528.6943359375 503 518.6943359375 503 L 253 503 Q 243 503 243 493 L 243 473 Q 243 463 253 463 Z" fill="#C0C0C0" opacity="0.2" stroke="none"/></g><g transform="translate(-190,-206) scale(1,1)"><path d="M 246 456 L 511.6943359375 456 Q 521.6943359375 456 521.6943359375 466 L 521.6943359375 486 Q 521.6943359375 496 511.6943359375 496 L 246 496 Q 236 496 236 486 L 236 466 Q 236 456 246 456 Z" fill="#ffffff" stroke="none"/></g><g transform="translate(-190,-206) scale(1,1)"><path d="M 246 456 L 511.6943359375 456 Q 521.6943359375 456 521.6943359375 466 L 521.6943359375 486 Q 521.6943359375 496 511.6943359375 496 L 246 496 Q 236 496 236 486 L 236 466 Q 236 456 246 456 Z" fill="none" stroke="#000000" stroke-miterlimit="10"/></g><g transform="translate(-190,-206) scale(1,1)"><g><path fill="none" stroke="none"/><text fill="#000000" font-family="Arial" font-size="13px" font-style="normal" font-weight="bold" stroke="none" text-decoration="none" x="240.5" y="474">Select one or more specific developer studio</text></g></g><g transform="translate(-190,-206) scale(1,1)"><path d="M 1143 476 L 523 476" fill="none" stroke="#000000" stroke-miterlimit="10"/></g><g transform="translate(-190,-206) scale(1,1)"><path d="M 533.1626748576241 471.790482243984 L 523 476 L 533.1626748576241 480.209517756016" fill="none" stroke="#000000" stroke-miterlimit="10"/></g><g transform="translate(-190,-206) scale(1,1)"><g><path fill="none" stroke="none"/><text fill="#000000" font-family="Arial" font-size="13px" font-style="normal" font-weight="normal" stroke="none" text-decoration="none" x="779.5" y="457">filter by developer</text></g></g><g transform="translate(-190,-206) scale(1,1)"><path d="M 217 618 L 554.23876953125 618 Q 564.23876953125 618 564.23876953125 628 L 564.23876953125 648 Q 564.23876953125 658 554.23876953125 658 L 217 658 Q 207 658 207 648 L 207 628 Q 207 618 217 618 Z" fill="#C0C0C0" opacity="0.2" stroke="none"/></g><g transform="translate(-190,-206) scale(1,1)"><path d="M 210 611 L 547.23876953125 611 Q 557.23876953125 611 557.23876953125 621 L 557.23876953125 641 Q 557.23876953125 651 547.23876953125 651 L 210 651 Q 200 651 200 641 L 200 621 Q 200 611 210 611 Z" fill="#ffffff" stroke="none"/></g><g transform="translate(-190,-206) scale(1,1)"><path d="M 210 611 L 547.23876953125 611 Q 557.23876953125 611 557.23876953125 621 L 557.23876953125 641 Q 557.23876953125 651 547.23876953125 651 L 210 651 Q 200 651 200 641 L 200 621 Q 200 611 210 611 Z" fill="none" stroke="#000000" stroke-miterlimit="10"/></g><g transform="translate(-190,-206) scale(1,1)"><g><path fill="none" stroke="none"/><text fill="#000000" font-family="Arial" font-size="13px" font-style="normal" font-weight="bold" stroke="none" text-decoration="none" x="213.904052734375" y="629">Find games developed by selected developer studios</text></g></g><g transform="translate(-190,-206) scale(1,1)"><path d="M 378 497 L 378 610" fill="none" stroke="#000000" stroke-miterlimit="10"/></g><g transform="translate(-190,-206) scale(1,1)"><path d="M 373.790482243984 599.8373251423759 L 378 610 L 382.209517756016 599.8373251423759" fill="none" stroke="#000000" stroke-miterlimit="10"/></g><g transform="translate(-190,-206) scale(1,1)"><path d="M 616 615 L 820.30615234375 615 Q 830.30615234375 615 830.30615234375 625 L 830.30615234375 652 Q 830.30615234375 662 820.30615234375 662 L 616 662 Q 606 662 606 652 L 606 625 Q 606 615 616 615 Z" fill="#C0C0C0" opacity="0.2" stroke="none"/></g><g transform="translate(-190,-206) scale(1,1)"><path d="M 609 608 L 813.30615234375 608 Q 823.30615234375 608 823.30615234375 618 L 823.30615234375 645 Q 823.30615234375 655 813.30615234375 655 L 609 655 Q 599 655 599 645 L 599 618 Q 599 608 609 608 Z" fill="#ffffff" stroke="none"/></g><g transform="translate(-190,-206) scale(1,1)"><path d="M 609 608 L 813.30615234375 608 Q 823.30615234375 608 823.30615234375 618 L 823.30615234375 645 Q 823.30615234375 655 813.30615234375 655 L 609 655 Q 599 655 599 645 L 599 618 Q 599 608 609 608 Z" fill="none" stroke="#000000" stroke-miterlimit="10"/></g><g transform="translate(-190,-206) scale(1,1)"><g><path fill="none" stroke="none"/><text fill="#000000" font-family="Arial" font-size="13px" font-style="normal" font-weight="bold" stroke="none" text-decoration="none" x="603.5" y="626">Select one or more specific genres</text></g></g><g transform="translate(-190,-206) scale(1,1)"><path d="M 1152 485 L 1152 544 L 711 544 L 711 608" fill="none" stroke="#000000" stroke-miterlimit="10"/></g><g transform="translate(-190,-206) scale(1,1)"><path d="M 706.790482243984 597.8373251423759 L 711 608 L 715.209517756016 597.8373251423759" fill="none" stroke="#000000" stroke-miterlimit="10"/></g><g transform="translate(-190,-206) scale(1,1)"><g><path fill="none" stroke="none"/><text fill="#000000" font-family="Arial" font-size="13px" font-style="normal" font-weight="normal" stroke="none" text-decoration="none" x="877.5" y="530">filter by genre</text></g></g><g transform="translate(-190,-206) scale(1,1)"><path d="M 600 722 L 836.80615234375 722 Q 846.80615234375 722 846.80615234375 732 L 846.80615234375 752 Q 846.80615234375 762 836.80615234375 762 L 600 762 Q 590 762 590 752 L 590 732 Q 590 722 600 722 Z" fill="#C0C0C0" opacity="0.2" stroke="none"/></g><g transform="translate(-190,-206) scale(1,1)"><path d="M 593 715 L 829.80615234375 715 Q 839.80615234375 715 839.80615234375 725 L 839.80615234375 745 Q 839.80615234375 755 829.80615234375 755 L 593 755 Q 583 755 583 745 L 583 725 Q 583 715 593 715 Z" fill="#ffffff" stroke="none"/></g><g transform="translate(-190,-206) scale(1,1)"><path d="M 593 715 L 829.80615234375 715 Q 839.80615234375 715 839.80615234375 725 L 839.80615234375 745 Q 839.80615234375 755 829.80615234375 755 L 593 755 Q 583 755 583 745 L 583 725 Q 583 715 593 715 Z" fill="none" stroke="#000000" stroke-miterlimit="10"/></g><g transform="translate(-190,-206) scale(1,1)"><g><path fill="none" stroke="none"/><text fill="#000000" font-family="Arial" font-size="13px" font-style="normal" font-weight="bold" stroke="none" text-decoration="none" x="596.904052734375" y="733">Find games categorized at this genre</text></g></g><g transform="translate(-190,-206) scale(1,1)"><path d="M 711 656 L 711 714" fill="none" stroke="#000000" stroke-miterlimit="10"/></g><g transform="translate(-190,-206) scale(1,1)"><path d="M 706.790482243984 703.8373251423759 L 711 714 L 715.209517756016 703.8373251423759" fill="none" stroke="#000000" stroke-miterlimit="10"/></g><g transform="translate(-190,-206) scale(1,1)"><path d="M 1387 618 L 1622 618 Q 1632 618 1632 628 L 1632 648 Q 1632 658 1622 658 L 1387 658 Q 1377 658 1377 648 L 1377 628 Q 1377 618 1387 618 Z" fill="#C0C0C0" opacity="0.2" stroke="none"/></g><g transform="translate(-190,-206) scale(1,1)"><path d="M 1380 611 L 1615 611 Q 1625 611 1625 621 L 1625 641 Q 1625 651 1615 651 L 1380 651 Q 1370 651 1370 641 L 1370 621 Q 1370 611 1380 611 Z" fill="#ffffff" stroke="none"/></g><g transform="translate(-190,-206) scale(1,1)"><path d="M 1380 611 L 1615 611 Q 1625 611 1625 621 L 1625 641 Q 1625 651 1615 651 L 1380 651 Q 1370 651 1370 641 L 1370 621 Q 1370 611 1380 611 Z" fill="none" stroke="#000000" stroke-miterlimit="10"/></g><g transform="translate(-190,-206) scale(1,1)"><g><path fill="none" stroke="none"/><text fill="#000000" font-family="Arial" font-size="13px" font-style="normal" font-weight="bold" stroke="none" text-decoration="none" x="1404.6591796875" y="629">Select one or more franchises</text></g></g><g transform="translate(-190,-206) scale(1,1)"><path d="M 1152 485 L 1152 544 L 1497 544 L 1497 611" fill="none" stroke="#000000" stroke-miterlimit="10"/></g><g transform="translate(-190,-206) scale(1,1)"><path d="M 1492.7904822439841 600.8373251423759 L 1497 611 L 1501.2095177560159 600.8373251423759" fill="none" stroke="#000000" stroke-miterlimit="10"/></g><g transform="translate(-190,-206) scale(1,1)"><g><path fill="none" stroke="none"/><text fill="#000000" font-family="Arial" font-size="13px" font-style="normal" font-weight="normal" stroke="none" text-decoration="none" x="1274.5" y="534">filter by franchise</text></g></g><g transform="translate(-190,-206) scale(1,1)"><path d="M 1387 722 L 1622 722 Q 1632 722 1632 732 L 1632 752 Q 1632 762 1622 762 L 1387 762 Q 1377 762 1377 752 L 1377 732 Q 1377 722 1387 722 Z" fill="#C0C0C0" opacity="0.2" stroke="none"/></g><g transform="translate(-190,-206) scale(1,1)"><path d="M 1380 715 L 1615 715 Q 1625 715 1625 725 L 1625 745 Q 1625 755 1615 755 L 1380 755 Q 1370 755 1370 745 L 1370 725 Q 1370 715 1380 715 Z" fill="#ffffff" stroke="none"/></g><g transform="translate(-190,-206) scale(1,1)"><path d="M 1380 715 L 1615 715 Q 1625 715 1625 725 L 1625 745 Q 1625 755 1615 755 L 1380 755 Q 1370 755 1370 745 L 1370 725 Q 1370 715 1380 715 Z" fill="none" stroke="#000000" stroke-miterlimit="10"/></g><g transform="translate(-190,-206) scale(1,1)"><g><path fill="none" stroke="none"/><text fill="#000000" font-family="Arial" font-size="13px" font-style="normal" font-weight="bold" stroke="none" text-decoration="none" x="1384.79736328125" y="733">Find games from specific franchises</text></g></g><g transform="translate(-190,-206) scale(1,1)"><path d="M 1497 652 L 1497 714" fill="none" stroke="#000000" stroke-miterlimit="10"/></g><g transform="translate(-190,-206) scale(1,1)"><path d="M 1492.7904822439841 703.8373251423759 L 1497 714 L 1501.2095177560159 703.8373251423759" fill="none" stroke="#000000" stroke-miterlimit="10"/></g><g transform="translate(-190,-206) scale(1,1)"><path d="M 1700 463 L 1872.49169921875 463 Q 1882.49169921875 463 1882.49169921875 473 L 1882.49169921875 493 Q 1882.49169921875 503 1872.49169921875 503 L 1700 503 Q 1690 503 1690 493 L 1690 473 Q 1690 463 1700 463 Z" fill="#C0C0C0" opacity="0.2" stroke="none"/></g><g transform="translate(-190,-206) scale(1,1)"><path d="M 1693 456 L 1865.49169921875 456 Q 1875.49169921875 456 1875.49169921875 466 L 1875.49169921875 486 Q 1875.49169921875 496 1865.49169921875 496 L 1693 496 Q 1683 496 1683 486 L 1683 466 Q 1683 456 1693 456 Z" fill="#ffffff" stroke="none"/></g><g transform="translate(-190,-206) scale(1,1)"><path d="M 1693 456 L 1865.49169921875 456 Q 1875.49169921875 456 1875.49169921875 466 L 1875.49169921875 486 Q 1875.49169921875 496 1865.49169921875 496 L 1693 496 Q 1683 496 1683 486 L 1683 466 Q 1683 456 1693 456 Z" fill="none" stroke="#000000" stroke-miterlimit="10"/></g><g transform="translate(-190,-206) scale(1,1)"><g><path fill="none" stroke="none"/><text fill="#000000" font-family="Arial" font-size="13px" font-style="normal" font-weight="bold" stroke="none" text-decoration="none" x="1687.5" y="474">Select  one or more platforms</text></g></g><g transform="translate(-190,-206) scale(1,1)"><path d="M 1167 476 L 1682 476" fill="none" stroke="#000000" stroke-miterlimit="10"/></g><g transform="translate(-190,-206) scale(1,1)"><path d="M 1671.837325142376 480.209517756016 L 1682 476 L 1671.837325142376 471.790482243984" fill="none" stroke="#000000" stroke-miterlimit="10"/></g><g transform="translate(-190,-206) scale(1,1)"><g><path fill="none" stroke="none"/><text fill="#000000" font-family="Arial" font-size="13px" font-style="normal" font-weight="normal" stroke="none" text-decoration="none" x="1377.5" y="466">filter by platform</text></g></g><g transform="translate(-190,-206) scale(1,1)"><path d="M 1679 618 L 1893.4052734375 618 Q 1903.4052734375 618 1903.4052734375 628 L 1903.4052734375 648 Q 1903.4052734375 658 1893.4052734375 658 L 1679 658 Q 1669 658 1669 648 L 1669 628 Q 1669 618 1679 618 Z" fill="#C0C0C0" opacity="0.2" stroke="none"/></g><g transform="translate(-190,-206) scale(1,1)"><path d="M 1672 611 L 1886.4052734375 611 Q 1896.4052734375 611 1896.4052734375 621 L 1896.4052734375 641 Q 1896.4052734375 651 1886.4052734375 651 L 1672 651 Q 1662 651 1662 641 L 1662 621 Q 1662 611 1672 611 Z" fill="#ffffff" stroke="none"/></g><g transform="translate(-190,-206) scale(1,1)"><path d="M 1672 611 L 1886.4052734375 611 Q 1896.4052734375 611 1896.4052734375 621 L 1896.4052734375 641 Q 1896.4052734375 651 1886.4052734375 651 L 1672 651 Q 1662 651 1662 641 L 1662 621 Q 1662 611 1672 611 Z" fill="none" stroke="#000000" stroke-miterlimit="10"/></g><g transform="translate(-190,-206) scale(1,1)"><g><path fill="none" stroke="none"/><text fill="#000000" font-family="Arial" font-size="13px" font-style="normal" font-weight="bold" stroke="none" text-decoration="none" x="1675.904052734375" y="629">Find games on specific platforms</text></g></g><g transform="translate(-190,-206) scale(1,1)"><path d="M 1779 497 L 1779 610" fill="none" stroke="#000000" stroke-miterlimit="10"/></g><g transform="translate(-190,-206) scale(1,1)"><path d="M 1774.7904822439841 599.8373251423759 L 1779 610 L 1783.2095177560159 599.8373251423759" fill="none" stroke="#000000" stroke-miterlimit="10"/></g><g transform="translate(-190,-206) scale(1,1)"><path d="M 1151 1163.5 C 1151 1156.59644 1156.59644 1151 1163.5 1151 C 1170.40356 1151 1176 1156.59644 1176 1163.5 C 1176 1170.40356 1170.40356 1176 1163.5 1176 C 1156.59644 1176 1151 1170.40356 1151 1163.5 Z" fill="#C0C0C0" opacity="0.2" stroke="none"/></g><g transform="translate(-190,-206) scale(1,1)"><path d="M 1144 1156.5 C 1144 1149.59644 1149.59644 1144 1156.5 1144 C 1163.40356 1144 1169 1149.59644 1169 1156.5 C 1169 1163.40356 1163.40356 1169 1156.5 1169 C 1149.59644 1169 1144 1163.40356 1144 1156.5 Z" fill="none" stroke="#000000" stroke-miterlimit="10"/></g><g transform="translate(-190,-206) scale(1,1)"><path d="M 1149 1156.5 C 1149 1152.357864 1152.357864 1149 1156.5 1149 C 1160.642136 1149 1164 1152.357864 1164 1156.5 C 1164 1160.642136 1160.642136 1164 1156.5 1164 C 1152.357864 1164 1149 1160.642136 1149 1156.5 Z" fill="#000000" stroke="none"/></g><g transform="translate(-190,-206) scale(1,1)"><path d="M 376 651 L 376 1060 L 1056 1060" fill="none" stroke="#000000" stroke-miterlimit="10"/></g><g transform="translate(-190,-206) scale(1,1)"><path d="M 1045.837325142376 1064.2095177560159 L 1056 1060 L 1045.837325142376 1055.7904822439841" fill="none" stroke="#000000" stroke-miterlimit="10"/></g><g transform="translate(-190,-206) scale(1,1)"><path d="M 712 755 L 712 848 L 1144 848 L 1144 1040" fill="none" stroke="#000000" stroke-miterlimit="10"/></g><g transform="translate(-190,-206) scale(1,1)"><path d="M 1139.7904822439841 1029.837325142376 L 1144 1040 L 1148.2095177560159 1029.837325142376" fill="none" stroke="#000000" stroke-miterlimit="10"/></g><g transform="translate(-190,-206) scale(1,1)"><path d="M 1496 755 L 1496 848 L 1168 848 L 1168 1040" fill="none" stroke="#000000" stroke-miterlimit="10"/></g><g transform="translate(-190,-206) scale(1,1)"><path d="M 1163.7904822439841 1029.837325142376 L 1168 1040 L 1172.2095177560159 1029.837325142376" fill="none" stroke="#000000" stroke-miterlimit="10"/></g><g transform="translate(-190,-206) scale(1,1)"><path d="M 1776 651 L 1776 1060 L 1256 1060" fill="none" stroke="#000000" stroke-miterlimit="10"/></g><g transform="translate(-190,-206) scale(1,1)"><path d="M 1266.162674857624 1055.7904822439841 L 1256 1060 L 1266.162674857624 1064.2095177560159" fill="none" stroke="#000000" stroke-miterlimit="10"/></g><g transform="translate(-190,-206) scale(1,1)"><path d="M 1075 618 L 1250.38623046875 618 Q 1260.38623046875 618 1260.38623046875 628 L 1260.38623046875 648 Q 1260.38623046875 658 1250.38623046875 658 L 1075 658 Q 1065 658 1065 648 L 1065 628 Q 1065 618 1075 618 Z" fill="#C0C0C0" opacity="0.2" stroke="none"/></g><g transform="translate(-190,-206) scale(1,1)"><path d="M 1068 611 L 1243.38623046875 611 Q 1253.38623046875 611 1253.38623046875 621 L 1253.38623046875 641 Q 1253.38623046875 651 1243.38623046875 651 L 1068 651 Q 1058 651 1058 641 L 1058 621 Q 1058 611 1068 611 Z" fill="#ffffff" stroke="none"/></g><g transform="translate(-190,-206) scale(1,1)"><path d="M 1068 611 L 1243.38623046875 611 Q 1253.38623046875 611 1253.38623046875 621 L 1253.38623046875 641 Q 1253.38623046875 651 1243.38623046875 651 L 1068 651 Q 1058 651 1058 641 L 1058 621 Q 1058 611 1068 611 Z" fill="none" stroke="#000000" stroke-miterlimit="10"/></g><g transform="translate(-190,-206) scale(1,1)"><g><path fill="none" stroke="none"/><text fill="#000000" font-family="Arial" font-size="13px" font-style="normal" font-weight="bold" stroke="none" text-decoration="none" x="1062.5" y="629">Select one or more publishers</text></g></g><g transform="translate(-190,-206) scale(1,1)"><path d="M 1047 722 L 1277.30615234375 722 Q 1287.30615234375 722 1287.30615234375 732 L 1287.30615234375 752 Q 1287.30615234375 762 1277.30615234375 762 L 1047 762 Q 1037 762 1037 752 L 1037 732 Q 1037 722 1047 722 Z" fill="#C0C0C0" opacity="0.2" stroke="none"/></g><g transform="translate(-190,-206) scale(1,1)"><path d="M 1040 715 L 1270.30615234375 715 Q 1280.30615234375 715 1280.30615234375 725 L 1280.30615234375 745 Q 1280.30615234375 755 1270.30615234375 755 L 1040 755 Q 1030 755 1030 745 L 1030 725 Q 1030 715 1040 715 Z" fill="#ffffff" stroke="none"/></g><g transform="translate(-190,-206) scale(1,1)"><path d="M 1040 715 L 1270.30615234375 715 Q 1280.30615234375 715 1280.30615234375 725 L 1280.30615234375 745 Q 1280.30615234375 755 1270.30615234375 755 L 1040 755 Q 1030 755 1030 745 L 1030 725 Q 1030 715 1040 715 Z" fill="none" stroke="#000000" stroke-miterlimit="10"/></g><g transform="translate(-190,-206) scale(1,1)"><g><path fill="none" stroke="none"/><text fill="#000000" font-family="Arial" font-size="13px" font-style="normal" font-weight="bold" stroke="none" text-decoration="none" x="1043.904052734375" y="733">Find games from selected publisher</text></g></g><g transform="translate(-190,-206) scale(1,1)"><path d="M 1155 486 L 1155 610" fill="none" stroke="#000000" stroke-miterlimit="10"/></g><g transform="translate(-190,-206) scale(1,1)"><path d="M 1150.7904822439841 599.8373251423759 L 1155 610 L 1159.2095177560159 599.8373251423759" fill="none" stroke="#000000" stroke-miterlimit="10"/></g><g transform="translate(-190,-206) scale(1,1)"><g><path fill="none" stroke="none"/><text fill="#000000" font-family="Arial" font-size="13px" font-style="normal" font-weight="normal" stroke="none" text-decoration="none" x="1164.5" y="579">filter by publisher</text></g></g><g transform="translate(-190,-206) scale(1,1)"><path d="M 1155 652 L 1155 714" fill="none" stroke="#000000" stroke-miterlimit="10"/></g><g transform="translate(-190,-206) scale(1,1)"><path d="M 1150.7904822439841 703.8373251423759 L 1155 714 L 1159.2095177560159 703.8373251423759" fill="none" stroke="#000000" stroke-miterlimit="10"/></g><g transform="translate(-190,-206) scale(1,1)"><path d="M 1155 756 L 1155 1039" fill="none" stroke="#000000" stroke-miterlimit="10"/></g><g transform="translate(-190,-206) scale(1,1)"><path d="M 1150.7904822439841 1028.837325142376 L 1155 1039 L 1159.2095177560159 1028.837325142376" fill="none" stroke="#000000" stroke-miterlimit="10"/></g><g transform="translate(-190,-206) scale(1,1)"><path d="M 1073 1047 L 1252.734375 1047 Q 1262.734375 1047 1262.734375 1057 L 1262.734375 1077 Q 1262.734375 1087 1252.734375 1087 L 1073 1087 Q 1063 1087 1063 1077 L 1063 1057 Q 1063 1047 1073 1047 Z" fill="#C0C0C0" opacity="0.2" stroke="none"/></g><g transform="translate(-190,-206) scale(1,1)"><path d="M 1066 1040 L 1245.734375 1040 Q 1255.734375 1040 1255.734375 1050 L 1255.734375 1070 Q 1255.734375 1080 1245.734375 1080 L 1066 1080 Q 1056 1080 1056 1070 L 1056 1050 Q 1056 1040 1066 1040 Z" fill="#ffffff" stroke="none"/></g><g transform="translate(-190,-206) scale(1,1)"><path d="M 1066 1040 L 1245.734375 1040 Q 1255.734375 1040 1255.734375 1050 L 1255.734375 1070 Q 1255.734375 1080 1245.734375 1080 L 1066 1080 Q 1056 1080 1056 1070 L 1056 1050 Q 1056 1040 1066 1040 Z" fill="none" stroke="#000000" stroke-miterlimit="10"/></g><g transform="translate(-190,-206) scale(1,1)"><g><path fill="none" stroke="none"/><text fill="#000000" font-family="Arial" font-size="13px" font-style="normal" font-weight="bold" stroke="none" text-decoration="none" x="1060.5" y="1058">Display games based on filters</text></g></g><g transform="translate(-190,-206) scale(1,1)"><path d="M 1155 1081 L 1156 1143" fill="none" stroke="#000000" stroke-miterlimit="10"/></g><g transform="translate(-190,-206) scale(1,1)"><path d="M 1151.6271368871173 1132.9065333905546 L 1156 1143 L 1160.045077524899 1132.7707601544612" fill="none" stroke="#000000" stroke-miterlimit="10"/></g></g></svg>