<?xml version="1.0" encoding="UTF-8" standalone="no"?><svg xmlns="http://www.w3.org/2000/svg" xmlns:xlink="http://www.w3.org/1999/xlink" height="653" version="1.1" width="968.46435546875"><defs/><g><g transform="translate(-270,-254) scale(1,1)"><path d="M 717 280.5 C 717 275.2532944 721.2532944 271 726.5 271 C 731.7467056 271 736 275.2532944 736 280.5 C 736 285.7467056 731.7467056 290 726.5 290 C 721.2532944 290 717 285.7467056 717 280.5 Z" fill="#C0C0C0" opacity="0.2" stroke="none"/></g><g transform="translate(-270,-254) scale(1,1)"><path d="M 710 273.5 C 710 268.2532944 714.2532944 264 719.5 264 C 724.7467056 264 729 268.2532944 729 273.5 C 729 278.7467056 724.7467056 283 719.5 283 C 714.2532944 283 710 278.7467056 710 273.5 Z" fill="#000000" stroke="none"/></g><g transform="translate(-270,-254) scale(1,1)"><path d="M 714 891.5 C 714 884.59644 719.59644 879 726.5 879 C 733.40356 879 739 884.59644 739 891.5 C 739 898.40356 733.40356 904 726.5 904 C 719.59644 904 714 898.40356 714 891.5 Z" fill="#C0C0C0" opacity="0.2" stroke="none"/></g><g transform="translate(-270,-254) scale(1,1)"><path d="M 707 884.5 C 707 877.59644 712.59644 872 719.5 872 C 726.40356 872 732 877.59644 732 884.5 C 732 891.40356 726.40356 897 719.5 897 C 712.59644 897 707 891.40356 707 884.5 Z" fill="none" stroke="#000000" stroke-miterlimit="10"/></g><g transform="translate(-270,-254) scale(1,1)"><path d="M 712 884.5 C 712 880.357864 715.357864 877 719.5 877 C 723.642136 877 727 880.357864 727 884.5 C 727 888.642136 723.642136 892 719.5 892 C 715.357864 892 712 888.642136 712 884.5 Z" fill="#000000" stroke="none"/></g><g transform="translate(-270,-254) scale(1,1)"><path d="M 715 448.5 L 726.5 439 L 737 448.5 L 726.5 457 L 715 448.5" fill="#C0C0C0" opacity="0.2" stroke="none"/></g><g transform="translate(-270,-254) scale(1,1)"><path d="M 708 441 L 719 432 L 730 441 L 719 450 L 708 441" fill="#ffffff" stroke="none"/></g><g transform="translate(-270,-254) scale(1,1)"><path d="M 708 441 L 719 432 L 730 441 L 719 450 L 708 441 L 708 441" fill="none" stroke="#000000" stroke-miterlimit="10"/></g><g transform="translate(-270,-254) scale(1,1)"><g><path fill="none" stroke="none"/><text fill="#000000" font-family="Arial" font-size="13px" font-style="normal" font-weight="normal" stroke="none" text-decoration="none" x="733" y="391">Login</text><text fill="#000000" font-family="Arial" font-size="13px" font-style="normal" font-weight="normal" stroke="none" text-decoration="none" x="733" y="404">provider</text></g></g><g transform="translate(-270,-254) scale(1,1)"><path d="M 455 495 L 677.35888671875 495 Q 687.35888671875 495 687.35888671875 505 L 687.35888671875 525 Q 687.35888671875 535 677.35888671875 535 L 455 535 Q 445 535 445 525 L 445 505 Q 445 495 455 495 Z" fill="#C0C0C0" opacity="0.2" stroke="none"/></g><g transform="translate(-270,-254) scale(1,1)"><path d="M 448 488 L 670.35888671875 488 Q 680.35888671875 488 680.35888671875 498 L 680.35888671875 518 Q 680.35888671875 528 670.35888671875 528 L 448 528 Q 438 528 438 518 L 438 498 Q 438 488 448 488 Z" fill="#ffffff" stroke="none"/></g><g transform="translate(-270,-254) scale(1,1)"><path d="M 448 488 L 670.35888671875 488 Q 680.35888671875 488 680.35888671875 498 L 680.35888671875 518 Q 680.35888671875 528 670.35888671875 528 L 448 528 Q 438 528 438 518 L 438 498 Q 438 488 448 488 Z" fill="none" stroke="#000000" stroke-miterlimit="10"/></g><g transform="translate(-270,-254) scale(1,1)"><g><path fill="none" stroke="none"/><text fill="#000000" font-family="Arial" font-size="13px" font-style="normal" font-weight="bold" stroke="none" text-decoration="none" x="442.5" y="506">Enter email and password credentials</text></g></g><g transform="translate(-270,-254) scale(1,1)"><path d="M 889 495 L 1067.9345703125 495 Q 1077.9345703125 495 1077.9345703125 505 L 1077.9345703125 525 Q 1077.9345703125 535 1067.9345703125 535 L 889 535 Q 879 535 879 525 L 879 505 Q 879 495 889 495 Z" fill="#C0C0C0" opacity="0.2" stroke="none"/></g><g transform="translate(-270,-254) scale(1,1)"><path d="M 882 488 L 1060.9345703125 488 Q 1070.9345703125 488 1070.9345703125 498 L 1070.9345703125 518 Q 1070.9345703125 528 1060.9345703125 528 L 882 528 Q 872 528 872 518 L 872 498 Q 872 488 882 488 Z" fill="#ffffff" stroke="none"/></g><g transform="translate(-270,-254) scale(1,1)"><path d="M 882 488 L 1060.9345703125 488 Q 1070.9345703125 488 1070.9345703125 498 L 1070.9345703125 518 Q 1070.9345703125 528 1060.9345703125 528 L 882 528 Q 872 528 872 518 L 872 498 Q 872 488 882 488 Z" fill="none" stroke="#000000" stroke-miterlimit="10"/></g><g transform="translate(-270,-254) scale(1,1)"><g><path fill="none" stroke="none"/><text fill="#000000" font-family="Arial" font-size="13px" font-style="normal" font-weight="bold" stroke="none" text-decoration="none" x="876.5" y="506">Click login with discord button</text></g></g><g transform="translate(-270,-254) scale(1,1)"><path d="M 708 441 L 560 441 L 560 488" fill="none" stroke="#000000" stroke-miterlimit="10"/></g><g transform="translate(-270,-254) scale(1,1)"><path d="M 555.790482243984 477.83732514237585 L 560 488 L 564.209517756016 477.83732514237585" fill="none" stroke="#000000" stroke-miterlimit="10"/></g><g transform="translate(-270,-254) scale(1,1)"><g><path fill="none" stroke="none"/><text fill="#000000" font-family="Arial" font-size="13px" font-style="normal" font-weight="normal" stroke="none" text-decoration="none" x="558.5" y="427">Email</text></g></g><g transform="translate(-270,-254) scale(1,1)"><path d="M 730 440 L 968 440 L 968 488" fill="none" stroke="#000000" stroke-miterlimit="10"/></g><g transform="translate(-270,-254) scale(1,1)"><path d="M 963.790482243984 477.83732514237585 L 968 488 L 972.209517756016 477.83732514237585" fill="none" stroke="#000000" stroke-miterlimit="10"/></g><g transform="translate(-270,-254) scale(1,1)"><g><path fill="none" stroke="none"/><text fill="#000000" font-family="Arial" font-size="13px" font-style="normal" font-weight="normal" stroke="none" text-decoration="none" x="838.5" y="434">Discord</text></g></g><g transform="translate(-270,-254) scale(1,1)"><path d="M 555 632.5 L 566.5 623 L 577 632.5 L 566.5 641 L 555 632.5" fill="#C0C0C0" opacity="0.2" stroke="none"/></g><g transform="translate(-270,-254) scale(1,1)"><path d="M 548 625 L 559 616 L 570 625 L 559 634 L 548 625" fill="#ffffff" stroke="none"/></g><g transform="translate(-270,-254) scale(1,1)"><path d="M 548 625 L 559 616 L 570 625 L 559 634 L 548 625 L 548 625" fill="none" stroke="#000000" stroke-miterlimit="10"/></g><g transform="translate(-270,-254) scale(1,1)"><path d="M 559 529 L 559 615" fill="none" stroke="#000000" stroke-miterlimit="10"/></g><g transform="translate(-270,-254) scale(1,1)"><path d="M 554.790482243984 604.8373251423759 L 559 615 L 563.209517756016 604.8373251423759" fill="none" stroke="#000000" stroke-miterlimit="10"/></g><g transform="translate(-270,-254) scale(1,1)"><g><path fill="none" stroke="none"/><text fill="#000000" font-family="Arial" font-size="13px" font-style="normal" font-weight="normal" stroke="none" text-decoration="none" x="565.5" y="579">Are the credentials correct?</text></g></g><g transform="translate(-270,-254) scale(1,1)"><path d="M 662 783 L 791.13720703125 783 Q 801.13720703125 783 801.13720703125 793 L 801.13720703125 813 Q 801.13720703125 823 791.13720703125 823 L 662 823 Q 652 823 652 813 L 652 793 Q 652 783 662 783 Z" fill="#C0C0C0" opacity="0.2" stroke="none"/></g><g transform="translate(-270,-254) scale(1,1)"><path d="M 655 776 L 784.13720703125 776 Q 794.13720703125 776 794.13720703125 786 L 794.13720703125 806 Q 794.13720703125 816 784.13720703125 816 L 655 816 Q 645 816 645 806 L 645 786 Q 645 776 655 776 Z" fill="#ffffff" stroke="none"/></g><g transform="translate(-270,-254) scale(1,1)"><path d="M 655 776 L 784.13720703125 776 Q 794.13720703125 776 794.13720703125 786 L 794.13720703125 806 Q 794.13720703125 816 784.13720703125 816 L 655 816 Q 645 816 645 806 L 645 786 Q 645 776 655 776 Z" fill="none" stroke="#000000" stroke-miterlimit="10"/></g><g transform="translate(-270,-254) scale(1,1)"><g><path fill="none" stroke="none"/><text fill="#000000" font-family="Arial" font-size="13px" font-style="normal" font-weight="bold" stroke="none" text-decoration="none" x="649.5" y="794">Redirect to home page</text></g></g><g transform="translate(-270,-254) scale(1,1)"><path d="M 560 634 L 560 796 L 645 796" fill="none" stroke="#000000" stroke-miterlimit="10"/></g><g transform="translate(-270,-254) scale(1,1)"><path d="M 634.8373251423759 800.209517756016 L 645 796 L 634.8373251423758 791.790482243984" fill="none" stroke="#000000" stroke-miterlimit="10"/></g><g transform="translate(-270,-254) scale(1,1)"><g><path fill="none" stroke="none"/><text fill="#000000" font-family="Arial" font-size="13px" font-style="normal" font-weight="normal" stroke="none" text-decoration="none" x="527.5" y="762">Yes</text></g></g><g transform="translate(-270,-254) scale(1,1)"><path d="M 548 624 L 352 624 L 352 584" fill="none" stroke="#000000" stroke-miterlimit="10"/></g><g transform="translate(-270,-254) scale(1,1)"><path d="M 356.209517756016 594.1626748576241 L 352 584 L 347.790482243984 594.1626748576241" fill="none" stroke="#000000" stroke-miterlimit="10"/></g><g transform="translate(-270,-254) scale(1,1)"><g><path fill="none" stroke="none"/><text fill="#000000" font-family="Arial" font-size="13px" font-style="normal" font-weight="normal" stroke="none" text-decoration="none" x="328.5" y="628">No</text></g></g><g transform="translate(-270,-254) scale(1,1)"><path d="M 297 551 L 425.46435546875 551 Q 435.46435546875 551 435.46435546875 561 L 435.46435546875 581 Q 435.46435546875 591 425.46435546875 591 L 297 591 Q 287 591 287 581 L 287 561 Q 287 551 297 551 Z" fill="#C0C0C0" opacity="0.2" stroke="none"/></g><g transform="translate(-270,-254) scale(1,1)"><path d="M 290 544 L 418.46435546875 544 Q 428.46435546875 544 428.46435546875 554 L 428.46435546875 574 Q 428.46435546875 584 418.46435546875 584 L 290 584 Q 280 584 280 574 L 280 554 Q 280 544 290 544 Z" fill="#ffffff" stroke="none"/></g><g transform="translate(-270,-254) scale(1,1)"><path d="M 290 544 L 418.46435546875 544 Q 428.46435546875 544 428.46435546875 554 L 428.46435546875 574 Q 428.46435546875 584 418.46435546875 584 L 290 584 Q 280 584 280 574 L 280 554 Q 280 544 290 544 Z" fill="none" stroke="#000000" stroke-miterlimit="10"/></g><g transform="translate(-270,-254) scale(1,1)"><g><path fill="none" stroke="none"/><text fill="#000000" font-family="Arial" font-size="13px" font-style="normal" font-weight="bold" stroke="none" text-decoration="none" x="284.5" y="562">Display error message</text></g></g><g transform="translate(-270,-254) scale(1,1)"><path d="M 352 544 L 352 504 L 438 504" fill="none" stroke="#000000" stroke-miterlimit="10"/></g><g transform="translate(-270,-254) scale(1,1)"><path d="M 427.83732514237585 508.209517756016 L 438 504 L 427.83732514237585 499.790482243984" fill="none" stroke="#000000" stroke-miterlimit="10"/></g><g transform="translate(-270,-254) scale(1,1)"><path d="M 967 624.5 L 978.5 615 L 989 624.5 L 978.5 633 L 967 624.5" fill="#C0C0C0" opacity="0.2" stroke="none"/></g><g transform="translate(-270,-254) scale(1,1)"><path d="M 960 617 L 971 608 L 982 617 L 971 626 L 960 617" fill="#ffffff" stroke="none"/></g><g transform="translate(-270,-254) scale(1,1)"><path d="M 960 617 L 971 608 L 982 617 L 971 626 L 960 617 L 960 617" fill="none" stroke="#000000" stroke-miterlimit="10"/></g><g transform="translate(-270,-254) scale(1,1)"><path d="M 971 529 L 971 607" fill="none" stroke="#000000" stroke-miterlimit="10"/></g><g transform="translate(-270,-254) scale(1,1)"><path d="M 966.790482243984 596.8373251423759 L 971 607 L 975.209517756016 596.8373251423759" fill="none" stroke="#000000" stroke-miterlimit="10"/></g><g transform="translate(-270,-254) scale(1,1)"><g><path fill="none" stroke="none"/><text fill="#000000" font-family="Arial" font-size="13px" font-style="normal" font-weight="normal" stroke="none" text-decoration="none" x="750.5" y="578">Was the authentication successful?</text></g></g><g transform="translate(-270,-254) scale(1,1)"><path d="M 719 817 L 719 871" fill="none" stroke="#000000" stroke-miterlimit="10"/></g><g transform="translate(-270,-254) scale(1,1)"><path d="M 714.790482243984 860.8373251423759 L 719 871 L 723.209517756016 860.8373251423759" fill="none" stroke="#000000" stroke-miterlimit="10"/></g><g transform="translate(-270,-254) scale(1,1)"><path d="M 647 335 L 805.72998046875 335 Q 815.72998046875 335 815.72998046875 345 L 815.72998046875 365 Q 815.72998046875 375 805.72998046875 375 L 647 375 Q 637 375 637 365 L 637 345 Q 637 335 647 335 Z" fill="#C0C0C0" opacity="0.2" stroke="none"/></g><g transform="translate(-270,-254) scale(1,1)"><path d="M 640 328 L 798.72998046875 328 Q 808.72998046875 328 808.72998046875 338 L 808.72998046875 358 Q 808.72998046875 368 798.72998046875 368 L 640 368 Q 630 368 630 358 L 630 338 Q 630 328 640 328 Z" fill="#ffffff" stroke="none"/></g><g transform="translate(-270,-254) scale(1,1)"><path d="M 640 328 L 798.72998046875 328 Q 808.72998046875 328 808.72998046875 338 L 808.72998046875 358 Q 808.72998046875 368 798.72998046875 368 L 640 368 Q 630 368 630 358 L 630 338 Q 630 328 640 328 Z" fill="none" stroke="#000000" stroke-miterlimit="10"/></g><g transform="translate(-270,-254) scale(1,1)"><g><path fill="none" stroke="none"/><text fill="#000000" font-family="Arial" font-size="13px" font-style="normal" font-weight="bold" stroke="none" text-decoration="none" x="634.5" y="346">Display Login page options</text></g></g><g transform="translate(-270,-254) scale(1,1)"><path d="M 719 284 L 719 327" fill="none" stroke="#000000" stroke-miterlimit="10"/></g><g transform="translate(-270,-254) scale(1,1)"><path d="M 714.790482243984 316.83732514237585 L 719 327 L 723.209517756016 316.83732514237585" fill="none" stroke="#000000" stroke-miterlimit="10"/></g><g transform="translate(-270,-254) scale(1,1)"><path d="M 719 369 L 719 431" fill="none" stroke="#000000" stroke-miterlimit="10"/></g><g transform="translate(-270,-254) scale(1,1)"><path d="M 714.790482243984 420.83732514237585 L 719 431 L 723.209517756016 420.83732514237585" fill="none" stroke="#000000" stroke-miterlimit="10"/></g><g transform="translate(-270,-254) scale(1,1)"><path d="M 1097 495 L 1225.46435546875 495 Q 1235.46435546875 495 1235.46435546875 505 L 1235.46435546875 525 Q 1235.46435546875 535 1225.46435546875 535 L 1097 535 Q 1087 535 1087 525 L 1087 505 Q 1087 495 1097 495 Z" fill="#C0C0C0" opacity="0.2" stroke="none"/></g><g transform="translate(-270,-254) scale(1,1)"><path d="M 1090 488 L 1218.46435546875 488 Q 1228.46435546875 488 1228.46435546875 498 L 1228.46435546875 518 Q 1228.46435546875 528 1218.46435546875 528 L 1090 528 Q 1080 528 1080 518 L 1080 498 Q 1080 488 1090 488 Z" fill="#ffffff" stroke="none"/></g><g transform="translate(-270,-254) scale(1,1)"><path d="M 1090 488 L 1218.46435546875 488 Q 1228.46435546875 488 1228.46435546875 498 L 1228.46435546875 518 Q 1228.46435546875 528 1218.46435546875 528 L 1090 528 Q 1080 528 1080 518 L 1080 498 Q 1080 488 1090 488 Z" fill="none" stroke="#000000" stroke-miterlimit="10"/></g><g transform="translate(-270,-254) scale(1,1)"><g><path fill="none" stroke="none"/><text fill="#000000" font-family="Arial" font-size="13px" font-style="normal" font-weight="bold" stroke="none" text-decoration="none" x="1084.5" y="506">Display error message</text></g></g><g transform="translate(-270,-254) scale(1,1)"><path d="M 982 617 L 1168 617 L 1168 528" fill="none" stroke="#000000" stroke-miterlimit="10"/></g><g transform="translate(-270,-254) scale(1,1)"><path d="M 1172.2095177560159 538.1626748576241 L 1168 528 L 1163.7904822439841 538.1626748576241" fill="none" stroke="#000000" stroke-miterlimit="10"/></g><g transform="translate(-270,-254) scale(1,1)"><g><path fill="none" stroke="none"/><text fill="#000000" font-family="Arial" font-size="13px" font-style="normal" font-weight="normal" stroke="none" text-decoration="none" x="1005.5" y="611">No</text></g></g><g transform="translate(-270,-254) scale(1,1)"><path d="M 1168 488 L 1168 352 L 809 352" fill="none" stroke="#000000" stroke-miterlimit="10"/></g><g transform="translate(-270,-254) scale(1,1)"><path d="M 819.1626748576241 347.790482243984 L 809 352 L 819.1626748576241 356.209517756016" fill="none" stroke="#000000" stroke-miterlimit="10"/></g><g transform="translate(-270,-254) scale(1,1)"><path d="M 972 626 L 972 800 L 794 800" fill="none" stroke="#000000" stroke-miterlimit="10"/></g><g transform="translate(-270,-254) scale(1,1)"><path d="M 804.1626748576241 795.790482243984 L 794 800 L 804.1626748576241 804.209517756016" fill="none" stroke="#000000" stroke-miterlimit="10"/></g><g transform="translate(-270,-254) scale(1,1)"><g><path fill="none" stroke="none"/><text fill="#000000" font-family="Arial" font-size="13px" font-style="normal" font-weight="normal" stroke="none" text-decoration="none" x="975.5" y="675">Yes</text></g></g></g></svg>