<?xml version="1.0" encoding="UTF-8" standalone="no"?><svg xmlns="http://www.w3.org/2000/svg" xmlns:xlink="http://www.w3.org/1999/xlink" height="517" version="1.1" width="698.62255859375"><defs/><g><g transform="translate(-558,-366) scale(1,1)"><path d="M 914 392.5 C 914 387.2532944 918.2532944 383 923.5 383 C 928.7467056 383 933 387.2532944 933 392.5 C 933 397.7467056 928.7467056 402 923.5 402 C 918.2532944 402 914 397.7467056 914 392.5 Z" fill="#C0C0C0" opacity="0.2" stroke="none"/></g><g transform="translate(-558,-366) scale(1,1)"><path d="M 907 385.5 C 907 380.2532944 911.2532944 376 916.5 376 C 921.7467056 376 926 380.2532944 926 385.5 C 926 390.7467056 921.7467056 395 916.5 395 C 911.2532944 395 907 390.7467056 907 385.5 Z" fill="#000000" stroke="none"/></g><g transform="translate(-558,-366) scale(1,1)"><path d="M 869 463 L 978.6689453125 463 Q 988.6689453125 463 988.6689453125 473 L 988.6689453125 493 Q 988.6689453125 503 978.6689453125 503 L 869 503 Q 859 503 859 493 L 859 473 Q 859 463 869 463 Z" fill="#C0C0C0" opacity="0.2" stroke="none"/></g><g transform="translate(-558,-366) scale(1,1)"><path d="M 862 456 L 971.6689453125 456 Q 981.6689453125 456 981.6689453125 466 L 981.6689453125 486 Q 981.6689453125 496 971.6689453125 496 L 862 496 Q 852 496 852 486 L 852 466 Q 852 456 862 456 Z" fill="#ffffff" stroke="none"/></g><g transform="translate(-558,-366) scale(1,1)"><path d="M 862 456 L 971.6689453125 456 Q 981.6689453125 456 981.6689453125 466 L 981.6689453125 486 Q 981.6689453125 496 971.6689453125 496 L 862 496 Q 852 496 852 486 L 852 466 Q 852 456 862 456 Z" fill="none" stroke="#000000" stroke-miterlimit="10"/></g><g transform="translate(-558,-366) scale(1,1)"><g><path fill="none" stroke="none"/><text fill="#000000" font-family="Arial" font-size="13px" font-style="normal" font-weight="bold" stroke="none" text-decoration="none" x="856.5" y="474">Display Game Page</text></g></g><g transform="translate(-558,-366) scale(1,1)"><path d="M 1047 666 L 1232.193359375 666 Q 1242.193359375 666 1242.193359375 676 L 1242.193359375 696 Q 1242.193359375 706 1232.193359375 706 L 1047 706 Q 1037 706 1037 696 L 1037 676 Q 1037 666 1047 666 Z" fill="#C0C0C0" opacity="0.2" stroke="none"/></g><g transform="translate(-558,-366) scale(1,1)"><path d="M 1040 659 L 1225.193359375 659 Q 1235.193359375 659 1235.193359375 669 L 1235.193359375 689 Q 1235.193359375 699 1225.193359375 699 L 1040 699 Q 1030 699 1030 689 L 1030 669 Q 1030 659 1040 659 Z" fill="#ffffff" stroke="none"/></g><g transform="translate(-558,-366) scale(1,1)"><path d="M 1040 659 L 1225.193359375 659 Q 1235.193359375 659 1235.193359375 669 L 1235.193359375 689 Q 1235.193359375 699 1225.193359375 699 L 1040 699 Q 1030 699 1030 689 L 1030 669 Q 1030 659 1040 659 Z" fill="none" stroke="#000000" stroke-miterlimit="10"/></g><g transform="translate(-558,-366) scale(1,1)"><g><path fill="none" stroke="none"/><text fill="#000000" font-family="Arial" font-size="13px" font-style="normal" font-weight="bold" stroke="none" text-decoration="none" x="1034.5" y="677">Click on Add To Backlog button</text></g></g><g transform="translate(-558,-366) scale(1,1)"><path d="M 1035 759 L 1243.62255859375 759 Q 1253.62255859375 759 1253.62255859375 769 L 1253.62255859375 789 Q 1253.62255859375 799 1243.62255859375 799 L 1035 799 Q 1025 799 1025 789 L 1025 769 Q 1025 759 1035 759 Z" fill="#C0C0C0" opacity="0.2" stroke="none"/></g><g transform="translate(-558,-366) scale(1,1)"><path d="M 1028 752 L 1236.62255859375 752 Q 1246.62255859375 752 1246.62255859375 762 L 1246.62255859375 782 Q 1246.62255859375 792 1236.62255859375 792 L 1028 792 Q 1018 792 1018 782 L 1018 762 Q 1018 752 1028 752 Z" fill="#ffffff" stroke="none"/></g><g transform="translate(-558,-366) scale(1,1)"><path d="M 1028 752 L 1236.62255859375 752 Q 1246.62255859375 752 1246.62255859375 762 L 1246.62255859375 782 Q 1246.62255859375 792 1236.62255859375 792 L 1028 792 Q 1018 792 1018 782 L 1018 762 Q 1018 752 1028 752 Z" fill="none" stroke="#000000" stroke-miterlimit="10"/></g><g transform="translate(-558,-366) scale(1,1)"><g><path fill="none" stroke="none"/><text fill="#000000" font-family="Arial" font-size="13px" font-style="normal" font-weight="bold" stroke="none" text-decoration="none" x="1022.5" y="770">Display Added to Backlog message</text></g></g><g transform="translate(-558,-366) scale(1,1)"><path d="M 912 576.5 L 923.5 567 L 934 576.5 L 923.5 585 L 912 576.5" fill="#C0C0C0" opacity="0.2" stroke="none"/></g><g transform="translate(-558,-366) scale(1,1)"><path d="M 905 569 L 916 560 L 927 569 L 916 578 L 905 569" fill="#ffffff" stroke="none"/></g><g transform="translate(-558,-366) scale(1,1)"><path d="M 905 569 L 916 560 L 927 569 L 916 578 L 905 569 L 905 569" fill="none" stroke="#000000" stroke-miterlimit="10"/></g><g transform="translate(-558,-366) scale(1,1)"><path d="M 916 396 L 916 455" fill="none" stroke="#000000" stroke-miterlimit="10"/></g><g transform="translate(-558,-366) scale(1,1)"><path d="M 911.790482243984 444.83732514237585 L 916 455 L 920.209517756016 444.83732514237585" fill="none" stroke="#000000" stroke-miterlimit="10"/></g><g transform="translate(-558,-366) scale(1,1)"><path d="M 916 497 L 916 559" fill="none" stroke="#000000" stroke-miterlimit="10"/></g><g transform="translate(-558,-366) scale(1,1)"><path d="M 911.790482243984 548.8373251423759 L 916 559 L 920.209517756016 548.8373251423759" fill="none" stroke="#000000" stroke-miterlimit="10"/></g><g transform="translate(-558,-366) scale(1,1)"><g><path fill="none" stroke="none"/><text fill="#000000" font-family="Arial" font-size="13px" font-style="normal" font-weight="normal" stroke="none" text-decoration="none" x="937.5" y="527">Is the game already in the backlog?</text></g></g><g transform="translate(-558,-366) scale(1,1)"><path d="M 1055 554 L 1224.29248046875 554 Q 1234.29248046875 554 1234.29248046875 564 L 1234.29248046875 584 Q 1234.29248046875 594 1224.29248046875 594 L 1055 594 Q 1045 594 1045 584 L 1045 564 Q 1045 554 1055 554 Z" fill="#C0C0C0" opacity="0.2" stroke="none"/></g><g transform="translate(-558,-366) scale(1,1)"><path d="M 1048 547 L 1217.29248046875 547 Q 1227.29248046875 547 1227.29248046875 557 L 1227.29248046875 577 Q 1227.29248046875 587 1217.29248046875 587 L 1048 587 Q 1038 587 1038 577 L 1038 557 Q 1038 547 1048 547 Z" fill="#ffffff" stroke="none"/></g><g transform="translate(-558,-366) scale(1,1)"><path d="M 1048 547 L 1217.29248046875 547 Q 1227.29248046875 547 1227.29248046875 557 L 1227.29248046875 577 Q 1227.29248046875 587 1217.29248046875 587 L 1048 587 Q 1038 587 1038 577 L 1038 557 Q 1038 547 1048 547 Z" fill="none" stroke="#000000" stroke-miterlimit="10"/></g><g transform="translate(-558,-366) scale(1,1)"><g><path fill="none" stroke="none"/><text fill="#000000" font-family="Arial" font-size="13px" font-style="normal" font-weight="bold" stroke="none" text-decoration="none" x="1042.5" y="565">Show Add To Backlog button</text></g></g><g transform="translate(-558,-366) scale(1,1)"><path d="M 927 568 L 1038 568" fill="none" stroke="#000000" stroke-miterlimit="10"/></g><g transform="translate(-558,-366) scale(1,1)"><path d="M 1027.837325142376 572.209517756016 L 1038 568 L 1027.837325142376 563.790482243984" fill="none" stroke="#000000" stroke-miterlimit="10"/></g><g transform="translate(-558,-366) scale(1,1)"><g><path fill="none" stroke="none"/><text fill="#000000" font-family="Arial" font-size="13px" font-style="normal" font-weight="normal" stroke="none" text-decoration="none" x="984.5" y="586">No</text></g></g><g transform="translate(-558,-366) scale(1,1)"><path d="M 1132 588 L 1132 658" fill="none" stroke="#000000" stroke-miterlimit="10"/></g><g transform="translate(-558,-366) scale(1,1)"><path d="M 1127.7904822439841 647.8373251423759 L 1132 658 L 1136.2095177560159 647.8373251423759" fill="none" stroke="#000000" stroke-miterlimit="10"/></g><g transform="translate(-558,-366) scale(1,1)"><path d="M 1132 700 L 1132 751" fill="none" stroke="#000000" stroke-miterlimit="10"/></g><g transform="translate(-558,-366) scale(1,1)"><path d="M 1127.7904822439841 740.8373251423759 L 1132 751 L 1136.2095177560159 740.8373251423759" fill="none" stroke="#000000" stroke-miterlimit="10"/></g><g transform="translate(-558,-366) scale(1,1)"><path d="M 602 554 L 810.57177734375 554 Q 820.57177734375 554 820.57177734375 564 L 820.57177734375 584 Q 820.57177734375 594 810.57177734375 594 L 602 594 Q 592 594 592 584 L 592 564 Q 592 554 602 554 Z" fill="#C0C0C0" opacity="0.2" stroke="none"/></g><g transform="translate(-558,-366) scale(1,1)"><path d="M 595 547 L 803.57177734375 547 Q 813.57177734375 547 813.57177734375 557 L 813.57177734375 577 Q 813.57177734375 587 803.57177734375 587 L 595 587 Q 585 587 585 577 L 585 557 Q 585 547 595 547 Z" fill="#ffffff" stroke="none"/></g><g transform="translate(-558,-366) scale(1,1)"><path d="M 595 547 L 803.57177734375 547 Q 813.57177734375 547 813.57177734375 557 L 813.57177734375 577 Q 813.57177734375 587 803.57177734375 587 L 595 587 Q 585 587 585 577 L 585 557 Q 585 547 595 547 Z" fill="none" stroke="#000000" stroke-miterlimit="10"/></g><g transform="translate(-558,-366) scale(1,1)"><g><path fill="none" stroke="none"/><text fill="#000000" font-family="Arial" font-size="13px" font-style="normal" font-weight="bold" stroke="none" text-decoration="none" x="589.5" y="565">Show Remove from Backlog button</text></g></g><g transform="translate(-558,-366) scale(1,1)"><path d="M 904 569 L 815 568" fill="none" stroke="#000000" stroke-miterlimit="10"/></g><g transform="translate(-558,-366) scale(1,1)"><path d="M 825.20932838334 563.9049280884058 L 815 568 L 825.1147384493548 572.3234322130852" fill="none" stroke="#000000" stroke-miterlimit="10"/></g><g transform="translate(-558,-366) scale(1,1)"><g><path fill="none" stroke="none"/><text fill="#000000" font-family="Arial" font-size="13px" font-style="normal" font-weight="normal" stroke="none" text-decoration="none" x="847.5" y="588">Yes</text></g></g><g transform="translate(-558,-366) scale(1,1)"><path d="M 911 867.5 C 911 860.59644 916.59644 855 923.5 855 C 930.40356 855 936 860.59644 936 867.5 C 936 874.40356 930.40356 880 923.5 880 C 916.59644 880 911 874.40356 911 867.5 Z" fill="#C0C0C0" opacity="0.2" stroke="none"/></g><g transform="translate(-558,-366) scale(1,1)"><path d="M 904 860.5 C 904 853.59644 909.59644 848 916.5 848 C 923.40356 848 929 853.59644 929 860.5 C 929 867.40356 923.40356 873 916.5 873 C 909.59644 873 904 867.40356 904 860.5 Z" fill="none" stroke="#000000" stroke-miterlimit="10"/></g><g transform="translate(-558,-366) scale(1,1)"><path d="M 909 860.5 C 909 856.357864 912.357864 853 916.5 853 C 920.642136 853 924 856.357864 924 860.5 C 924 864.642136 920.642136 868 916.5 868 C 912.357864 868 909 864.642136 909 860.5 Z" fill="#000000" stroke="none"/></g><g transform="translate(-558,-366) scale(1,1)"><path d="M 1136 792 L 1136 860 L 929 860" fill="none" stroke="#000000" stroke-miterlimit="10"/></g><g transform="translate(-558,-366) scale(1,1)"><path d="M 939.1626748576241 855.790482243984 L 929 860 L 939.1626748576241 864.209517756016" fill="none" stroke="#000000" stroke-miterlimit="10"/></g><g transform="translate(-558,-366) scale(1,1)"><path d="M 592 666 L 820.08447265625 666 Q 830.08447265625 666 830.08447265625 676 L 830.08447265625 696 Q 830.08447265625 706 820.08447265625 706 L 592 706 Q 582 706 582 696 L 582 676 Q 582 666 592 666 Z" fill="#C0C0C0" opacity="0.2" stroke="none"/></g><g transform="translate(-558,-366) scale(1,1)"><path d="M 585 659 L 813.08447265625 659 Q 823.08447265625 659 823.08447265625 669 L 823.08447265625 689 Q 823.08447265625 699 813.08447265625 699 L 585 699 Q 575 699 575 689 L 575 669 Q 575 659 585 659 Z" fill="#ffffff" stroke="none"/></g><g transform="translate(-558,-366) scale(1,1)"><path d="M 585 659 L 813.08447265625 659 Q 823.08447265625 659 823.08447265625 669 L 823.08447265625 689 Q 823.08447265625 699 813.08447265625 699 L 585 699 Q 575 699 575 689 L 575 669 Q 575 659 585 659 Z" fill="none" stroke="#000000" stroke-miterlimit="10"/></g><g transform="translate(-558,-366) scale(1,1)"><g><path fill="none" stroke="none"/><text fill="#000000" font-family="Arial" font-size="13px" font-style="normal" font-weight="bold" stroke="none" text-decoration="none" x="579.5" y="677">Click on Remove From Backlog button</text></g></g><g transform="translate(-558,-366) scale(1,1)"><path d="M 585 759 L 828.31884765625 759 Q 838.31884765625 759 838.31884765625 769 L 838.31884765625 789 Q 838.31884765625 799 828.31884765625 799 L 585 799 Q 575 799 575 789 L 575 769 Q 575 759 585 759 Z" fill="#C0C0C0" opacity="0.2" stroke="none"/></g><g transform="translate(-558,-366) scale(1,1)"><path d="M 578 752 L 821.31884765625 752 Q 831.31884765625 752 831.31884765625 762 L 831.31884765625 782 Q 831.31884765625 792 821.31884765625 792 L 578 792 Q 568 792 568 782 L 568 762 Q 568 752 578 752 Z" fill="#ffffff" stroke="none"/></g><g transform="translate(-558,-366) scale(1,1)"><path d="M 578 752 L 821.31884765625 752 Q 831.31884765625 752 831.31884765625 762 L 831.31884765625 782 Q 831.31884765625 792 821.31884765625 792 L 578 792 Q 568 792 568 782 L 568 762 Q 568 752 578 752 Z" fill="none" stroke="#000000" stroke-miterlimit="10"/></g><g transform="translate(-558,-366) scale(1,1)"><g><path fill="none" stroke="none"/><text fill="#000000" font-family="Arial" font-size="13px" font-style="normal" font-weight="bold" stroke="none" text-decoration="none" x="572.5" y="770">Display Removed from Backlog message</text></g></g><g transform="translate(-558,-366) scale(1,1)"><path d="M 699 588 L 699 658" fill="none" stroke="#000000" stroke-miterlimit="10"/></g><g transform="translate(-558,-366) scale(1,1)"><path d="M 694.790482243984 647.8373251423759 L 699 658 L 703.209517756016 647.8373251423759" fill="none" stroke="#000000" stroke-miterlimit="10"/></g><g transform="translate(-558,-366) scale(1,1)"><path d="M 699 700 L 699 751" fill="none" stroke="#000000" stroke-miterlimit="10"/></g><g transform="translate(-558,-366) scale(1,1)"><path d="M 694.790482243984 740.8373251423759 L 699 751 L 703.209517756016 740.8373251423759" fill="none" stroke="#000000" stroke-miterlimit="10"/></g><g transform="translate(-558,-366) scale(1,1)"><path d="M 699 792 L 699 860 L 904 860" fill="none" stroke="#000000" stroke-miterlimit="10"/></g><g transform="translate(-558,-366) scale(1,1)"><path d="M 893.8373251423759 864.209517756016 L 904 860 L 893.8373251423758 855.790482243984" fill="none" stroke="#000000" stroke-miterlimit="10"/></g></g></svg>