<?xml version="1.0" encoding="UTF-8" standalone="no"?><svg xmlns="http://www.w3.org/2000/svg" xmlns:xlink="http://www.w3.org/1999/xlink" height="677" version="1.1" width="931.25146484375"><defs/><g><g transform="translate(-486,-206) scale(1,1)"><path d="M 972 232.5 C 972 227.2532944 976.2532944 223 981.5 223 C 986.7467056 223 991 227.2532944 991 232.5 C 991 237.7467056 986.7467056 242 981.5 242 C 976.2532944 242 972 237.7467056 972 232.5 Z" fill="#C0C0C0" opacity="0.2" stroke="none"/></g><g transform="translate(-486,-206) scale(1,1)"><path d="M 965 225.5 C 965 220.2532944 969.2532944 216 974.5 216 C 979.7467056 216 984 220.2532944 984 225.5 C 984 230.7467056 979.7467056 235 974.5 235 C 969.2532944 235 965 230.7467056 965 225.5 Z" fill="#000000" stroke="none"/></g><g transform="translate(-486,-206) scale(1,1)"><path d="M 924 311 L 1038.72802734375 311 Q 1048.72802734375 311 1048.72802734375 321 L 1048.72802734375 341 Q 1048.72802734375 351 1038.72802734375 351 L 924 351 Q 914 351 914 341 L 914 321 Q 914 311 924 311 Z" fill="#C0C0C0" opacity="0.2" stroke="none"/></g><g transform="translate(-486,-206) scale(1,1)"><path d="M 917 304 L 1031.72802734375 304 Q 1041.72802734375 304 1041.72802734375 314 L 1041.72802734375 334 Q 1041.72802734375 344 1031.72802734375 344 L 917 344 Q 907 344 907 334 L 907 314 Q 907 304 917 304 Z" fill="#ffffff" stroke="none"/></g><g transform="translate(-486,-206) scale(1,1)"><path d="M 917 304 L 1031.72802734375 304 Q 1041.72802734375 304 1041.72802734375 314 L 1041.72802734375 334 Q 1041.72802734375 344 1031.72802734375 344 L 917 344 Q 907 344 907 334 L 907 314 Q 907 304 917 304 Z" fill="none" stroke="#000000" stroke-miterlimit="10"/></g><g transform="translate(-486,-206) scale(1,1)"><g><path fill="none" stroke="none"/><text fill="#000000" font-family="Arial" font-size="13px" font-style="normal" font-weight="bold" stroke="none" text-decoration="none" x="911.5" y="322">Display search page</text></g></g><g transform="translate(-486,-206) scale(1,1)"><path d="M 895 423 L 1067.47900390625 423 Q 1077.47900390625 423 1077.47900390625 433 L 1077.47900390625 453 Q 1077.47900390625 463 1067.47900390625 463 L 895 463 Q 885 463 885 453 L 885 433 Q 885 423 895 423 Z" fill="#C0C0C0" opacity="0.2" stroke="none"/></g><g transform="translate(-486,-206) scale(1,1)"><path d="M 888 416 L 1060.47900390625 416 Q 1070.47900390625 416 1070.47900390625 426 L 1070.47900390625 446 Q 1070.47900390625 456 1060.47900390625 456 L 888 456 Q 878 456 878 446 L 878 426 Q 878 416 888 416 Z" fill="#ffffff" stroke="none"/></g><g transform="translate(-486,-206) scale(1,1)"><path d="M 888 416 L 1060.47900390625 416 Q 1070.47900390625 416 1070.47900390625 426 L 1070.47900390625 446 Q 1070.47900390625 456 1060.47900390625 456 L 888 456 Q 878 456 878 446 L 878 426 Q 878 416 888 416 Z" fill="none" stroke="#000000" stroke-miterlimit="10"/></g><g transform="translate(-486,-206) scale(1,1)"><g><path fill="none" stroke="none"/><text fill="#000000" font-family="Arial" font-size="13px" font-style="normal" font-weight="bold" stroke="none" text-decoration="none" x="883.94091796875" y="434">Input game title in search bar</text></g></g><g transform="translate(-486,-206) scale(1,1)"><path d="M 917 519 L 1046.130859375 519 Q 1056.130859375 519 1056.130859375 529 L 1056.130859375 549 Q 1056.130859375 559 1046.130859375 559 L 917 559 Q 907 559 907 549 L 907 529 Q 907 519 917 519 Z" fill="#C0C0C0" opacity="0.2" stroke="none"/></g><g transform="translate(-486,-206) scale(1,1)"><path d="M 910 512 L 1039.130859375 512 Q 1049.130859375 512 1049.130859375 522 L 1049.130859375 542 Q 1049.130859375 552 1039.130859375 552 L 910 552 Q 900 552 900 542 L 900 522 Q 900 512 910 512 Z" fill="#ffffff" stroke="none"/></g><g transform="translate(-486,-206) scale(1,1)"><path d="M 910 512 L 1039.130859375 512 Q 1049.130859375 512 1049.130859375 522 L 1049.130859375 542 Q 1049.130859375 552 1039.130859375 552 L 910 552 Q 900 552 900 542 L 900 522 Q 900 512 910 512 Z" fill="none" stroke="#000000" stroke-miterlimit="10"/></g><g transform="translate(-486,-206) scale(1,1)"><g><path fill="none" stroke="none"/><text fill="#000000" font-family="Arial" font-size="13px" font-style="normal" font-weight="bold" stroke="none" text-decoration="none" x="904.5" y="530">Click on search button</text></g></g><g transform="translate(-486,-206) scale(1,1)"><path d="M 974 236 L 974 303" fill="none" stroke="#000000" stroke-miterlimit="10"/></g><g transform="translate(-486,-206) scale(1,1)"><path d="M 969.790482243984 292.83732514237585 L 974 303 L 978.209517756016 292.83732514237585" fill="none" stroke="#000000" stroke-miterlimit="10"/></g><g transform="translate(-486,-206) scale(1,1)"><path d="M 974 345 L 974 415" fill="none" stroke="#000000" stroke-miterlimit="10"/></g><g transform="translate(-486,-206) scale(1,1)"><path d="M 969.790482243984 404.83732514237585 L 974 415 L 978.209517756016 404.83732514237585" fill="none" stroke="#000000" stroke-miterlimit="10"/></g><g transform="translate(-486,-206) scale(1,1)"><path d="M 974 457 L 974 511" fill="none" stroke="#000000" stroke-miterlimit="10"/></g><g transform="translate(-486,-206) scale(1,1)"><path d="M 969.790482243984 500.83732514237585 L 974 511 L 978.209517756016 500.83732514237585" fill="none" stroke="#000000" stroke-miterlimit="10"/></g><g transform="translate(-486,-206) scale(1,1)"><path d="M 970 640.5 L 981.5 631 L 992 640.5 L 981.5 649 L 970 640.5" fill="#C0C0C0" opacity="0.2" stroke="none"/></g><g transform="translate(-486,-206) scale(1,1)"><path d="M 963 633 L 974 624 L 985 633 L 974 642 L 963 633" fill="#ffffff" stroke="none"/></g><g transform="translate(-486,-206) scale(1,1)"><path d="M 963 633 L 974 624 L 985 633 L 974 642 L 963 633 L 963 633" fill="none" stroke="#000000" stroke-miterlimit="10"/></g><g transform="translate(-486,-206) scale(1,1)"><path d="M 974 553 L 974 623" fill="none" stroke="#000000" stroke-miterlimit="10"/></g><g transform="translate(-486,-206) scale(1,1)"><path d="M 969.790482243984 612.8373251423759 L 974 623 L 978.209517756016 612.8373251423759" fill="none" stroke="#000000" stroke-miterlimit="10"/></g><g transform="translate(-486,-206) scale(1,1)"><g><path fill="none" stroke="none"/><text fill="#000000" font-family="Arial" font-size="13px" font-style="normal" font-weight="normal" stroke="none" text-decoration="none" x="988.5" y="600">Did the search term match games in the database?</text></g></g><g transform="translate(-486,-206) scale(1,1)"><path d="M 1145 694 L 1404.25146484375 694 Q 1414.25146484375 694 1414.25146484375 704 L 1414.25146484375 724 Q 1414.25146484375 734 1404.25146484375 734 L 1145 734 Q 1135 734 1135 724 L 1135 704 Q 1135 694 1145 694 Z" fill="#C0C0C0" opacity="0.2" stroke="none"/></g><g transform="translate(-486,-206) scale(1,1)"><path d="M 1138 687 L 1397.25146484375 687 Q 1407.25146484375 687 1407.25146484375 697 L 1407.25146484375 717 Q 1407.25146484375 727 1397.25146484375 727 L 1138 727 Q 1128 727 1128 717 L 1128 697 Q 1128 687 1138 687 Z" fill="#ffffff" stroke="none"/></g><g transform="translate(-486,-206) scale(1,1)"><path d="M 1138 687 L 1397.25146484375 687 Q 1407.25146484375 687 1407.25146484375 697 L 1407.25146484375 717 Q 1407.25146484375 727 1397.25146484375 727 L 1138 727 Q 1128 727 1128 717 L 1128 697 Q 1128 687 1138 687 Z" fill="none" stroke="#000000" stroke-miterlimit="10"/></g><g transform="translate(-486,-206) scale(1,1)"><g><path fill="none" stroke="none"/><text fill="#000000" font-family="Arial" font-size="13px" font-style="normal" font-weight="bold" stroke="none" text-decoration="none" x="1132.5" y="705">Display "No search results found" message</text></g></g><g transform="translate(-486,-206) scale(1,1)"><path d="M 881 694 L 1082.41162109375 694 Q 1092.41162109375 694 1092.41162109375 704 L 1092.41162109375 724 Q 1092.41162109375 734 1082.41162109375 734 L 881 734 Q 871 734 871 724 L 871 704 Q 871 694 881 694 Z" fill="#C0C0C0" opacity="0.2" stroke="none"/></g><g transform="translate(-486,-206) scale(1,1)"><path d="M 874 687 L 1075.41162109375 687 Q 1085.41162109375 687 1085.41162109375 697 L 1085.41162109375 717 Q 1085.41162109375 727 1075.41162109375 727 L 874 727 Q 864 727 864 717 L 864 697 Q 864 687 874 687 Z" fill="#ffffff" stroke="none"/></g><g transform="translate(-486,-206) scale(1,1)"><path d="M 874 687 L 1075.41162109375 687 Q 1085.41162109375 687 1085.41162109375 697 L 1085.41162109375 717 Q 1085.41162109375 727 1075.41162109375 727 L 874 727 Q 864 727 864 717 L 864 697 Q 864 687 874 687 Z" fill="none" stroke="#000000" stroke-miterlimit="10"/></g><g transform="translate(-486,-206) scale(1,1)"><g><path fill="none" stroke="none"/><text fill="#000000" font-family="Arial" font-size="13px" font-style="normal" font-weight="bold" stroke="none" text-decoration="none" x="868.5" y="705">Display games with the exact term</text></g></g><g transform="translate(-486,-206) scale(1,1)"><path d="M 513 694 L 798.17529296875 694 Q 808.17529296875 694 808.17529296875 704 L 808.17529296875 724 Q 808.17529296875 734 798.17529296875 734 L 513 734 Q 503 734 503 724 L 503 704 Q 503 694 513 694 Z" fill="#C0C0C0" opacity="0.2" stroke="none"/></g><g transform="translate(-486,-206) scale(1,1)"><path d="M 506 687 L 791.17529296875 687 Q 801.17529296875 687 801.17529296875 697 L 801.17529296875 717 Q 801.17529296875 727 791.17529296875 727 L 506 727 Q 496 727 496 717 L 496 697 Q 496 687 506 687 Z" fill="#ffffff" stroke="none"/></g><g transform="translate(-486,-206) scale(1,1)"><path d="M 506 687 L 791.17529296875 687 Q 801.17529296875 687 801.17529296875 697 L 801.17529296875 717 Q 801.17529296875 727 791.17529296875 727 L 506 727 Q 496 727 496 717 L 496 697 Q 496 687 506 687 Z" fill="none" stroke="#000000" stroke-miterlimit="10"/></g><g transform="translate(-486,-206) scale(1,1)"><g><path fill="none" stroke="none"/><text fill="#000000" font-family="Arial" font-size="13px" font-style="normal" font-weight="bold" stroke="none" text-decoration="none" x="500.5" y="705">Display games that include the term in their title</text></g></g><g transform="translate(-486,-206) scale(1,1)"><path d="M 963 633 L 632 633 L 632 687" fill="none" stroke="#000000" stroke-miterlimit="10"/></g><g transform="translate(-486,-206) scale(1,1)"><path d="M 627.790482243984 676.8373251423759 L 632 687 L 636.209517756016 676.8373251423759" fill="none" stroke="#000000" stroke-miterlimit="10"/></g><g transform="translate(-486,-206) scale(1,1)"><g><path fill="none" stroke="none"/><text fill="#000000" font-family="Arial" font-size="13px" font-style="normal" font-weight="normal" stroke="none" text-decoration="none" x="645.5" y="667">Partially</text></g></g><g transform="translate(-486,-206) scale(1,1)"><path d="M 974 643 L 974 686" fill="none" stroke="#000000" stroke-miterlimit="10"/></g><g transform="translate(-486,-206) scale(1,1)"><path d="M 969.790482243984 675.8373251423759 L 974 686 L 978.209517756016 675.8373251423759" fill="none" stroke="#000000" stroke-miterlimit="10"/></g><g transform="translate(-486,-206) scale(1,1)"><g><path fill="none" stroke="none"/><text fill="#000000" font-family="Arial" font-size="13px" font-style="normal" font-weight="normal" stroke="none" text-decoration="none" x="989.5" y="674">Exactly</text></g></g><g transform="translate(-486,-206) scale(1,1)"><path d="M 985 633 L 1267 633 L 1267 687" fill="none" stroke="#000000" stroke-miterlimit="10"/></g><g transform="translate(-486,-206) scale(1,1)"><path d="M 1262.7904822439841 676.8373251423759 L 1267 687 L 1271.2095177560159 676.8373251423759" fill="none" stroke="#000000" stroke-miterlimit="10"/></g><g transform="translate(-486,-206) scale(1,1)"><g><path fill="none" stroke="none"/><text fill="#000000" font-family="Arial" font-size="13px" font-style="normal" font-weight="normal" stroke="none" text-decoration="none" x="1279.5" y="666">None</text></g></g><g transform="translate(-486,-206) scale(1,1)"><path d="M 969 867.5 C 969 860.59644 974.59644 855 981.5 855 C 988.40356 855 994 860.59644 994 867.5 C 994 874.40356 988.40356 880 981.5 880 C 974.59644 880 969 874.40356 969 867.5 Z" fill="#C0C0C0" opacity="0.2" stroke="none"/></g><g transform="translate(-486,-206) scale(1,1)"><path d="M 962 860.5 C 962 853.59644 967.59644 848 974.5 848 C 981.40356 848 987 853.59644 987 860.5 C 987 867.40356 981.40356 873 974.5 873 C 967.59644 873 962 867.40356 962 860.5 Z" fill="none" stroke="#000000" stroke-miterlimit="10"/></g><g transform="translate(-486,-206) scale(1,1)"><path d="M 967 860.5 C 967 856.357864 970.357864 853 974.5 853 C 978.642136 853 982 856.357864 982 860.5 C 982 864.642136 978.642136 868 974.5 868 C 970.357864 868 967 864.642136 967 860.5 Z" fill="#000000" stroke="none"/></g><g transform="translate(-486,-206) scale(1,1)"><path d="M 974 728 L 974 847" fill="none" stroke="#000000" stroke-miterlimit="10"/></g><g transform="translate(-486,-206) scale(1,1)"><path d="M 969.790482243984 836.8373251423759 L 974 847 L 978.209517756016 836.8373251423759" fill="none" stroke="#000000" stroke-miterlimit="10"/></g><g transform="translate(-486,-206) scale(1,1)"><path d="M 632 727 L 632 860 L 962 860" fill="none" stroke="#000000" stroke-miterlimit="10"/></g><g transform="translate(-486,-206) scale(1,1)"><path d="M 951.8373251423759 864.209517756016 L 962 860 L 951.8373251423758 855.790482243984" fill="none" stroke="#000000" stroke-miterlimit="10"/></g><g transform="translate(-486,-206) scale(1,1)"><path d="M 1267 727 L 1267 864 L 987 864" fill="none" stroke="#000000" stroke-miterlimit="10"/></g><g transform="translate(-486,-206) scale(1,1)"><path d="M 997.1626748576241 859.790482243984 L 987 864 L 997.1626748576241 868.209517756016" fill="none" stroke="#000000" stroke-miterlimit="10"/></g></g></svg>