<?xml version="1.0" encoding="UTF-8" standalone="no"?><svg xmlns="http://www.w3.org/2000/svg" xmlns:xlink="http://www.w3.org/1999/xlink" height="949" version="1.1" width="887.6396484375"><defs/><g><g transform="translate(-110,-334) scale(1,1)"><path d="M 520 360.5 C 520 355.2532944 524.2532944 351 529.5 351 C 534.7467056 351 539 355.2532944 539 360.5 C 539 365.7467056 534.7467056 370 529.5 370 C 524.2532944 370 520 365.7467056 520 360.5 Z" fill="#C0C0C0" opacity="0.2" stroke="none"/></g><g transform="translate(-110,-334) scale(1,1)"><path d="M 513 353.5 C 513 348.2532944 517.2532944 344 522.5 344 C 527.7467056 344 532 348.2532944 532 353.5 C 532 358.7467056 527.7467056 363 522.5 363 C 517.2532944 363 513 358.7467056 513 353.5 Z" fill="#000000" stroke="none"/></g><g transform="translate(-110,-334) scale(1,1)"><path d="M 517 1267.5 C 517 1260.59644 522.59644 1255 529.5 1255 C 536.40356 1255 542 1260.59644 542 1267.5 C 542 1274.40356 536.40356 1280 529.5 1280 C 522.59644 1280 517 1274.40356 517 1267.5 Z" fill="#C0C0C0" opacity="0.2" stroke="none"/></g><g transform="translate(-110,-334) scale(1,1)"><path d="M 510 1260.5 C 510 1253.59644 515.59644 1248 522.5 1248 C 529.40356 1248 535 1253.59644 535 1260.5 C 535 1267.40356 529.40356 1273 522.5 1273 C 515.59644 1273 510 1267.40356 510 1260.5 Z" fill="none" stroke="#000000" stroke-miterlimit="10"/></g><g transform="translate(-110,-334) scale(1,1)"><path d="M 515 1260.5 C 515 1256.357864 518.357864 1253 522.5 1253 C 526.642136 1253 530 1256.357864 530 1260.5 C 530 1264.642136 526.642136 1268 522.5 1268 C 518.357864 1268 515 1264.642136 515 1260.5 Z" fill="#000000" stroke="none"/></g><g transform="translate(-110,-334) scale(1,1)"><path d="M 471 423 L 588.57177734375 423 Q 598.57177734375 423 598.57177734375 433 L 598.57177734375 453 Q 598.57177734375 463 588.57177734375 463 L 471 463 Q 461 463 461 453 L 461 433 Q 461 423 471 423 Z" fill="#C0C0C0" opacity="0.2" stroke="none"/></g><g transform="translate(-110,-334) scale(1,1)"><path d="M 464 416 L 581.57177734375 416 Q 591.57177734375 416 591.57177734375 426 L 591.57177734375 446 Q 591.57177734375 456 581.57177734375 456 L 464 456 Q 454 456 454 446 L 454 426 Q 454 416 464 416 Z" fill="#ffffff" stroke="none"/></g><g transform="translate(-110,-334) scale(1,1)"><path d="M 464 416 L 581.57177734375 416 Q 591.57177734375 416 591.57177734375 426 L 591.57177734375 446 Q 591.57177734375 456 581.57177734375 456 L 464 456 Q 454 456 454 446 L 454 426 Q 454 416 464 416 Z" fill="none" stroke="#000000" stroke-miterlimit="10"/></g><g transform="translate(-110,-334) scale(1,1)"><g><path fill="none" stroke="none"/><text fill="#000000" font-family="Arial" font-size="13px" font-style="normal" font-weight="bold" stroke="none" text-decoration="none" x="458.5" y="434">Display sign up form</text></g></g><g transform="translate(-110,-334) scale(1,1)"><path d="M 522 364 L 522 415" fill="none" stroke="#000000" stroke-miterlimit="10"/></g><g transform="translate(-110,-334) scale(1,1)"><path d="M 517.790482243984 404.83732514237585 L 522 415 L 526.209517756016 404.83732514237585" fill="none" stroke="#000000" stroke-miterlimit="10"/></g><g transform="translate(-110,-334) scale(1,1)"><path d="M 456 543 L 603.16455078125 543 Q 613.16455078125 543 613.16455078125 553 L 613.16455078125 573 Q 613.16455078125 583 603.16455078125 583 L 456 583 Q 446 583 446 573 L 446 553 Q 446 543 456 543 Z" fill="#C0C0C0" opacity="0.2" stroke="none"/></g><g transform="translate(-110,-334) scale(1,1)"><path d="M 449 536 L 596.16455078125 536 Q 606.16455078125 536 606.16455078125 546 L 606.16455078125 566 Q 606.16455078125 576 596.16455078125 576 L 449 576 Q 439 576 439 566 L 439 546 Q 439 536 449 536 Z" fill="#ffffff" stroke="none"/></g><g transform="translate(-110,-334) scale(1,1)"><path d="M 449 536 L 596.16455078125 536 Q 606.16455078125 536 606.16455078125 546 L 606.16455078125 566 Q 606.16455078125 576 596.16455078125 576 L 449 576 Q 439 576 439 566 L 439 546 Q 439 536 449 536 Z" fill="none" stroke="#000000" stroke-miterlimit="10"/></g><g transform="translate(-110,-334) scale(1,1)"><g><path fill="none" stroke="none"/><text fill="#000000" font-family="Arial" font-size="13px" font-style="normal" font-weight="bold" stroke="none" text-decoration="none" x="443.5" y="554">Enter sign up information</text></g></g><g transform="translate(-110,-334) scale(1,1)"><path d="M 522 457 L 522 535" fill="none" stroke="#000000" stroke-miterlimit="10"/></g><g transform="translate(-110,-334) scale(1,1)"><path d="M 517.790482243984 524.8373251423759 L 522 535 L 526.209517756016 524.8373251423759" fill="none" stroke="#000000" stroke-miterlimit="10"/></g><g transform="translate(-110,-334) scale(1,1)"><path d="M 440 654 L 618.05224609375 654 Q 628.05224609375 654 628.05224609375 664 L 628.05224609375 684 Q 628.05224609375 694 618.05224609375 694 L 440 694 Q 430 694 430 684 L 430 664 Q 430 654 440 654 Z" fill="#C0C0C0" opacity="0.2" stroke="none"/></g><g transform="translate(-110,-334) scale(1,1)"><path d="M 433 647 L 611.05224609375 647 Q 621.05224609375 647 621.05224609375 657 L 621.05224609375 677 Q 621.05224609375 687 611.05224609375 687 L 433 687 Q 423 687 423 677 L 423 657 Q 423 647 433 647 Z" fill="#ffffff" stroke="none"/></g><g transform="translate(-110,-334) scale(1,1)"><path d="M 433 647 L 611.05224609375 647 Q 621.05224609375 647 621.05224609375 657 L 621.05224609375 677 Q 621.05224609375 687 611.05224609375 687 L 433 687 Q 423 687 423 677 L 423 657 Q 423 647 433 647 Z" fill="none" stroke="#000000" stroke-miterlimit="10"/></g><g transform="translate(-110,-334) scale(1,1)"><g><path fill="none" stroke="none"/><text fill="#000000" font-family="Arial" font-size="13px" font-style="normal" font-weight="bold" stroke="none" text-decoration="none" x="427.5" y="665">Accept ToS and Privacy Policy</text></g></g><g transform="translate(-110,-334) scale(1,1)"><path d="M 522 577 L 522 646" fill="none" stroke="#000000" stroke-miterlimit="10"/></g><g transform="translate(-110,-334) scale(1,1)"><path d="M 517.790482243984 635.8373251423759 L 522 646 L 526.209517756016 635.8373251423759" fill="none" stroke="#000000" stroke-miterlimit="10"/></g><g transform="translate(-110,-334) scale(1,1)"><path d="M 471 775 L 587.82275390625 775 Q 597.82275390625 775 597.82275390625 785 L 597.82275390625 805 Q 597.82275390625 815 587.82275390625 815 L 471 815 Q 461 815 461 805 L 461 785 Q 461 775 471 775 Z" fill="#C0C0C0" opacity="0.2" stroke="none"/></g><g transform="translate(-110,-334) scale(1,1)"><path d="M 464 768 L 580.82275390625 768 Q 590.82275390625 768 590.82275390625 778 L 590.82275390625 798 Q 590.82275390625 808 580.82275390625 808 L 464 808 Q 454 808 454 798 L 454 778 Q 454 768 464 768 Z" fill="#ffffff" stroke="none"/></g><g transform="translate(-110,-334) scale(1,1)"><path d="M 464 768 L 580.82275390625 768 Q 590.82275390625 768 590.82275390625 778 L 590.82275390625 798 Q 590.82275390625 808 580.82275390625 808 L 464 808 Q 454 808 454 798 L 454 778 Q 454 768 464 768 Z" fill="none" stroke="#000000" stroke-miterlimit="10"/></g><g transform="translate(-110,-334) scale(1,1)"><g><path fill="none" stroke="none"/><text fill="#000000" font-family="Arial" font-size="13px" font-style="normal" font-weight="bold" stroke="none" text-decoration="none" x="458.5" y="786">Click Sign Up button</text></g></g><g transform="translate(-110,-334) scale(1,1)"><path d="M 522 688 L 522 767" fill="none" stroke="#000000" stroke-miterlimit="10"/></g><g transform="translate(-110,-334) scale(1,1)"><path d="M 517.790482243984 756.8373251423759 L 522 767 L 526.209517756016 756.8373251423759" fill="none" stroke="#000000" stroke-miterlimit="10"/></g><g transform="translate(-110,-334) scale(1,1)"><path d="M 518 896.5 L 529.5 887 L 540 896.5 L 529.5 905 L 518 896.5" fill="#C0C0C0" opacity="0.2" stroke="none"/></g><g transform="translate(-110,-334) scale(1,1)"><path d="M 511 889 L 522 880 L 533 889 L 522 898 L 511 889" fill="#ffffff" stroke="none"/></g><g transform="translate(-110,-334) scale(1,1)"><path d="M 511 889 L 522 880 L 533 889 L 522 898 L 511 889 L 511 889" fill="none" stroke="#000000" stroke-miterlimit="10"/></g><g transform="translate(-110,-334) scale(1,1)"><path d="M 522 809 L 522 879" fill="none" stroke="#000000" stroke-miterlimit="10"/></g><g transform="translate(-110,-334) scale(1,1)"><path d="M 517.790482243984 868.8373251423759 L 522 879 L 526.209517756016 868.8373251423759" fill="none" stroke="#000000" stroke-miterlimit="10"/></g><g transform="translate(-110,-334) scale(1,1)"><g><path fill="none" stroke="none"/><text fill="#000000" font-family="Arial" font-size="13px" font-style="normal" font-weight="normal" stroke="none" text-decoration="none" x="527.5" y="843">Is the email already in use?</text></g></g><g transform="translate(-110,-334) scale(1,1)"><path d="M 729 654 L 984.6396484375 654 Q 994.6396484375 654 994.6396484375 664 L 994.6396484375 684 Q 994.6396484375 694 984.6396484375 694 L 729 694 Q 719 694 719 684 L 719 664 Q 719 654 729 654 Z" fill="#C0C0C0" opacity="0.2" stroke="none"/></g><g transform="translate(-110,-334) scale(1,1)"><path d="M 722 647 L 977.6396484375 647 Q 987.6396484375 647 987.6396484375 657 L 987.6396484375 677 Q 987.6396484375 687 977.6396484375 687 L 722 687 Q 712 687 712 677 L 712 657 Q 712 647 722 647 Z" fill="#ffffff" stroke="none"/></g><g transform="translate(-110,-334) scale(1,1)"><path d="M 722 647 L 977.6396484375 647 Q 987.6396484375 647 987.6396484375 657 L 987.6396484375 677 Q 987.6396484375 687 977.6396484375 687 L 722 687 Q 712 687 712 677 L 712 657 Q 712 647 722 647 Z" fill="none" stroke="#000000" stroke-miterlimit="10"/></g><g transform="translate(-110,-334) scale(1,1)"><g><path fill="none" stroke="none"/><text fill="#000000" font-family="Arial" font-size="13px" font-style="normal" font-weight="bold" stroke="none" text-decoration="none" x="716.5" y="665">Display email already in use error message</text></g></g><g transform="translate(-110,-334) scale(1,1)"><path d="M 533 889 L 848 889 L 848 687" fill="none" stroke="#000000" stroke-miterlimit="10"/></g><g transform="translate(-110,-334) scale(1,1)"><path d="M 852.209517756016 697.1626748576241 L 848 687 L 843.790482243984 697.1626748576241" fill="none" stroke="#000000" stroke-miterlimit="10"/></g><g transform="translate(-110,-334) scale(1,1)"><g><path fill="none" stroke="none"/><text fill="#000000" font-family="Arial" font-size="13px" font-style="normal" font-weight="normal" stroke="none" text-decoration="none" x="863.5" y="787">Yes</text></g></g><g transform="translate(-110,-334) scale(1,1)"><path d="M 518 1008.5 L 529.5 999 L 540 1008.5 L 529.5 1017 L 518 1008.5" fill="#C0C0C0" opacity="0.2" stroke="none"/></g><g transform="translate(-110,-334) scale(1,1)"><path d="M 511 1001 L 522 992 L 533 1001 L 522 1010 L 511 1001" fill="#ffffff" stroke="none"/></g><g transform="translate(-110,-334) scale(1,1)"><path d="M 511 1001 L 522 992 L 533 1001 L 522 1010 L 511 1001 L 511 1001" fill="none" stroke="#000000" stroke-miterlimit="10"/></g><g transform="translate(-110,-334) scale(1,1)"><path d="M 522 899 L 522 991" fill="none" stroke="#000000" stroke-miterlimit="10"/></g><g transform="translate(-110,-334) scale(1,1)"><path d="M 517.790482243984 980.8373251423759 L 522 991 L 526.209517756016 980.8373251423759" fill="none" stroke="#000000" stroke-miterlimit="10"/></g><g transform="translate(-110,-334) scale(1,1)"><g><path fill="none" stroke="none"/><text fill="#000000" font-family="Arial" font-size="13px" font-style="normal" font-weight="normal" stroke="none" text-decoration="none" x="540.5" y="923">No</text></g></g><g transform="translate(-110,-334) scale(1,1)"><g><path fill="none" stroke="none"/><text fill="#000000" font-family="Arial" font-size="13px" font-style="normal" font-weight="normal" stroke="none" text-decoration="none" x="533" y="967">Do the passwords match?</text></g></g><g transform="translate(-110,-334) scale(1,1)"><path d="M 455 1071 L 604.43701171875 1071 Q 614.43701171875 1071 614.43701171875 1081 L 614.43701171875 1101 Q 614.43701171875 1111 604.43701171875 1111 L 455 1111 Q 445 1111 445 1101 L 445 1081 Q 445 1071 455 1071 Z" fill="#C0C0C0" opacity="0.2" stroke="none"/></g><g transform="translate(-110,-334) scale(1,1)"><path d="M 448 1064 L 597.43701171875 1064 Q 607.43701171875 1064 607.43701171875 1074 L 607.43701171875 1094 Q 607.43701171875 1104 597.43701171875 1104 L 448 1104 Q 438 1104 438 1094 L 438 1074 Q 438 1064 448 1064 Z" fill="#ffffff" stroke="none"/></g><g transform="translate(-110,-334) scale(1,1)"><path d="M 448 1064 L 597.43701171875 1064 Q 607.43701171875 1064 607.43701171875 1074 L 607.43701171875 1094 Q 607.43701171875 1104 597.43701171875 1104 L 448 1104 Q 438 1104 438 1094 L 438 1074 Q 438 1064 448 1064 Z" fill="none" stroke="#000000" stroke-miterlimit="10"/></g><g transform="translate(-110,-334) scale(1,1)"><g><path fill="none" stroke="none"/><text fill="#000000" font-family="Arial" font-size="13px" font-style="normal" font-weight="bold" stroke="none" text-decoration="none" x="442.5" y="1082">Display success message</text></g></g><g transform="translate(-110,-334) scale(1,1)"><path d="M 465 1159 L 594.13720703125 1159 Q 604.13720703125 1159 604.13720703125 1169 L 604.13720703125 1189 Q 604.13720703125 1199 594.13720703125 1199 L 465 1199 Q 455 1199 455 1189 L 455 1169 Q 455 1159 465 1159 Z" fill="#C0C0C0" opacity="0.2" stroke="none"/></g><g transform="translate(-110,-334) scale(1,1)"><path d="M 458 1152 L 587.13720703125 1152 Q 597.13720703125 1152 597.13720703125 1162 L 597.13720703125 1182 Q 597.13720703125 1192 587.13720703125 1192 L 458 1192 Q 448 1192 448 1182 L 448 1162 Q 448 1152 458 1152 Z" fill="#ffffff" stroke="none"/></g><g transform="translate(-110,-334) scale(1,1)"><path d="M 458 1152 L 587.13720703125 1152 Q 597.13720703125 1152 597.13720703125 1162 L 597.13720703125 1182 Q 597.13720703125 1192 587.13720703125 1192 L 458 1192 Q 448 1192 448 1182 L 448 1162 Q 448 1152 458 1152 Z" fill="none" stroke="#000000" stroke-miterlimit="10"/></g><g transform="translate(-110,-334) scale(1,1)"><g><path fill="none" stroke="none"/><text fill="#000000" font-family="Arial" font-size="13px" font-style="normal" font-weight="bold" stroke="none" text-decoration="none" x="452.5" y="1170">Redirect to home page</text></g></g><g transform="translate(-110,-334) scale(1,1)"><path d="M 522 1011 L 522 1063" fill="none" stroke="#000000" stroke-miterlimit="10"/></g><g transform="translate(-110,-334) scale(1,1)"><path d="M 517.790482243984 1052.837325142376 L 522 1063 L 526.209517756016 1052.837325142376" fill="none" stroke="#000000" stroke-miterlimit="10"/></g><g transform="translate(-110,-334) scale(1,1)"><g><path fill="none" stroke="none"/><text fill="#000000" font-family="Arial" font-size="13px" font-style="normal" font-weight="normal" stroke="none" text-decoration="none" x="525.5" y="1041">Yes</text></g></g><g transform="translate(-110,-334) scale(1,1)"><path d="M 137 654 L 362.9453125 654 Q 372.9453125 654 372.9453125 664 L 372.9453125 684 Q 372.9453125 694 362.9453125 694 L 137 694 Q 127 694 127 684 L 127 664 Q 127 654 137 654 Z" fill="#C0C0C0" opacity="0.2" stroke="none"/></g><g transform="translate(-110,-334) scale(1,1)"><path d="M 130 647 L 355.9453125 647 Q 365.9453125 647 365.9453125 657 L 365.9453125 677 Q 365.9453125 687 355.9453125 687 L 130 687 Q 120 687 120 677 L 120 657 Q 120 647 130 647 Z" fill="#ffffff" stroke="none"/></g><g transform="translate(-110,-334) scale(1,1)"><path d="M 130 647 L 355.9453125 647 Q 365.9453125 647 365.9453125 657 L 365.9453125 677 Q 365.9453125 687 355.9453125 687 L 130 687 Q 120 687 120 677 L 120 657 Q 120 647 130 647 Z" fill="none" stroke="#000000" stroke-miterlimit="10"/></g><g transform="translate(-110,-334) scale(1,1)"><g><path fill="none" stroke="none"/><text fill="#000000" font-family="Arial" font-size="13px" font-style="normal" font-weight="bold" stroke="none" text-decoration="none" x="124.5" y="665">Display passwords do not match error</text></g></g><g transform="translate(-110,-334) scale(1,1)"><path d="M 522 1105 L 522 1151" fill="none" stroke="#000000" stroke-miterlimit="10"/></g><g transform="translate(-110,-334) scale(1,1)"><path d="M 517.790482243984 1140.837325142376 L 522 1151 L 526.209517756016 1140.837325142376" fill="none" stroke="#000000" stroke-miterlimit="10"/></g><g transform="translate(-110,-334) scale(1,1)"><path d="M 511 999 L 232 999 L 232 687" fill="none" stroke="#000000" stroke-miterlimit="10"/></g><g transform="translate(-110,-334) scale(1,1)"><path d="M 236.209517756016 697.1626748576241 L 232 687 L 227.790482243984 697.1626748576241" fill="none" stroke="#000000" stroke-miterlimit="10"/></g><g transform="translate(-110,-334) scale(1,1)"><g><path fill="none" stroke="none"/><text fill="#000000" font-family="Arial" font-size="13px" font-style="normal" font-weight="normal" stroke="none" text-decoration="none" x="198.5" y="874">No</text></g></g><g transform="translate(-110,-334) scale(1,1)"><path d="M 232 647 L 232 553 L 439 553" fill="none" stroke="#000000" stroke-miterlimit="10"/></g><g transform="translate(-110,-334) scale(1,1)"><path d="M 428.83732514237585 557.209517756016 L 439 553 L 428.83732514237585 548.790482243984" fill="none" stroke="#000000" stroke-miterlimit="10"/></g><g transform="translate(-110,-334) scale(1,1)"><path d="M 848 647 L 848 553 L 606 553" fill="none" stroke="#000000" stroke-miterlimit="10"/></g><g transform="translate(-110,-334) scale(1,1)"><path d="M 616.1626748576241 548.790482243984 L 606 553 L 616.1626748576241 557.209517756016" fill="none" stroke="#000000" stroke-miterlimit="10"/></g><g transform="translate(-110,-334) scale(1,1)"><path d="M 522 1193 L 522 1247" fill="none" stroke="#000000" stroke-miterlimit="10"/></g><g transform="translate(-110,-334) scale(1,1)"><path d="M 517.790482243984 1236.837325142376 L 522 1247 L 526.209517756016 1236.837325142376" fill="none" stroke="#000000" stroke-miterlimit="10"/></g></g></svg>